<?xml version="1.0" encoding="UTF-8" standalone="no"?>
<!-- Created with Inkscape (http://www.inkscape.org/) -->

<svg
   xmlns:dc="http://purl.org/dc/elements/1.1/"
   xmlns:cc="http://creativecommons.org/ns#"
   xmlns:rdf="http://www.w3.org/1999/02/22-rdf-syntax-ns#"
   xmlns:svg="http://www.w3.org/2000/svg"
   xmlns="http://www.w3.org/2000/svg"
   xmlns:xlink="http://www.w3.org/1999/xlink"
   xmlns:sodipodi="http://sodipodi.sourceforge.net/DTD/sodipodi-0.dtd"
   xmlns:inkscape="http://www.inkscape.org/namespaces/inkscape"
   width="32"
   height="32"
   id="svg3480"
   version="1.1"
   inkscape:version="0.48.4 r9939"
   sodipodi:docname="xfpm-keyboard-040.svg">
  <defs
     id="defs3482">
    <linearGradient
       inkscape:collect="always"
       xlink:href="#linearGradient3847"
       id="linearGradient6539"
       gradientUnits="userSpaceOnUse"
       gradientTransform="matrix(0.6443737,0,0,0.9724074,112.07229,72.282332)"
       x1="328.62787"
       y1="74.43293"
       x2="327.47882"
       y2="67.36187" />
    <linearGradient
       inkscape:collect="always"
       id="linearGradient3847">
      <stop
         style="stop-color:#babdb6;stop-opacity:1;"
         offset="0"
         id="stop3849" />
      <stop
         style="stop-color:#babdb6;stop-opacity:0;"
         offset="1"
         id="stop3851" />
    </linearGradient>
    <filter
       color-interpolation-filters="sRGB"
       inkscape:collect="always"
       id="filter4804"
       x="-0.034545526"
       width="1.0690911"
       y="-0.24324691"
       height="1.4864938">
      <feGaussianBlur
         inkscape:collect="always"
         stdDeviation="0.64763895"
         id="feGaussianBlur4806" />
    </filter>
    <linearGradient
       inkscape:collect="always"
       xlink:href="#linearGradient2740"
       id="linearGradient6541"
       gradientUnits="userSpaceOnUse"
       x1="147.5"
       y1="353.40439"
       x2="145.43736"
       y2="404.6619" />
    <linearGradient
       id="linearGradient2740">
      <stop
         style="stop-color:#888a85;stop-opacity:1"
         offset="0"
         id="stop2742" />
      <stop
         style="stop-color:#888a85;stop-opacity:0;"
         offset="1"
         id="stop2744" />
    </linearGradient>
    <linearGradient
       inkscape:collect="always"
       xlink:href="#linearGradient4538"
       id="linearGradient6543"
       gradientUnits="userSpaceOnUse"
       x1="110.53181"
       y1="416.36923"
       x2="110.53181"
       y2="360.96701" />
    <linearGradient
       inkscape:collect="always"
       id="linearGradient4538">
      <stop
         style="stop-color:#555753;stop-opacity:1;"
         offset="0"
         id="stop4540" />
      <stop
         style="stop-color:#888a85;stop-opacity:1"
         offset="1"
         id="stop4542" />
    </linearGradient>
    <clipPath
       clipPathUnits="userSpaceOnUse"
       id="clipPath3519">
      <path
         inkscape:connector-curvature="0"
         sodipodi:nodetypes="cccsccccsccsscsccccc"
         id="path3521"
         d="m 49.053018,377.91849 c -0.710706,0.0727 -1.339556,0.49196 -1.68004,1.12002 l -14.280335,26.38285 c -0.171895,0.32432 -0.254644,0.67287 -0.248894,1.02669 1.72e-4,0.0106 -3.28e-4,0.0205 0,0.0311 l 0,2.98673 0,0.31112 0.06222,0 c 0.04534,0.25962 0.109053,0.51286 0.248895,0.74669 0.388063,0.64889 1.079535,1.05365 1.835599,1.0578 l 220.862957,0 c 0.76537,0.002 1.4767,-0.39926 1.86671,-1.0578 0.13743,-0.23204 0.20572,-0.48851 0.2489,-0.74669 0.0487,-0.29136 0.0622,-0.87113 0.0622,-0.87113 l 0,-2.08449 c 0,-0.49198 -0.0355,-0.98746 -0.28001,-1.43115 L 242.9109,379.0074 c -0.38858,-0.68003 -1.11464,-1.09662 -1.89783,-1.08891 l -191.742269,0 c -0.07255,-0.004 -0.145236,-0.004 -0.217783,0 z"
         style="fill:#000000;fill-opacity:1;stroke:none;display:inline;enable-background:new" />
    </clipPath>
    <radialGradient
       inkscape:collect="always"
       xlink:href="#linearGradient2748"
       id="radialGradient6545"
       gradientUnits="userSpaceOnUse"
       gradientTransform="matrix(-0.9950172,-1.7234204,1.1254929,-0.6498033,7.41235,817.82855)"
       cx="139.85194"
       cy="260.93466"
       fx="139.85194"
       fy="260.93466"
       r="112.59389" />
    <linearGradient
       inkscape:collect="always"
       id="linearGradient2748">
      <stop
         style="stop-color:#eeeeec;stop-opacity:1"
         offset="0"
         id="stop2750" />
      <stop
         style="stop-color:#babdb6;stop-opacity:1"
         offset="1"
         id="stop2752" />
    </linearGradient>
    <filter
       color-interpolation-filters="sRGB"
       inkscape:collect="always"
       id="filter3523"
       x="-0.006099917"
       width="1.0121998"
       y="-0.36629945"
       height="1.7325989">
      <feGaussianBlur
         inkscape:collect="always"
         stdDeviation="0.57234376"
         id="feGaussianBlur3525" />
    </filter>
    <linearGradient
       inkscape:collect="always"
       xlink:href="#linearGradient2740"
       id="linearGradient6547"
       gradientUnits="userSpaceOnUse"
       x1="147.5"
       y1="353.40439"
       x2="145.43736"
       y2="404.6619" />
    <linearGradient
       inkscape:collect="always"
       xlink:href="#linearGradient3833"
       id="linearGradient6549"
       gradientUnits="userSpaceOnUse"
       x1="178.91721"
       y1="409.98514"
       x2="178.91721"
       y2="371.44675" />
    <linearGradient
       inkscape:collect="always"
       id="linearGradient3833">
      <stop
         style="stop-color:#ffffff;stop-opacity:1;"
         offset="0"
         id="stop3835" />
      <stop
         style="stop-color:#ffffff;stop-opacity:0;"
         offset="1"
         id="stop3837" />
    </linearGradient>
    <linearGradient
       inkscape:collect="always"
       xlink:href="#linearGradient4574"
       id="linearGradient6551"
       gradientUnits="userSpaceOnUse"
       gradientTransform="matrix(0.5967076,0,0,0.8000007,128.0852,77.39993)"
       x1="316.18286"
       y1="83.224533"
       x2="316.18286"
       y2="90.819603" />
    <linearGradient
       inkscape:collect="always"
       id="linearGradient4574">
      <stop
         style="stop-color:#2e3436;stop-opacity:1"
         offset="0"
         id="stop4576" />
      <stop
         style="stop-color:#888a85;stop-opacity:1"
         offset="1"
         id="stop4578" />
    </linearGradient>
    <linearGradient
       inkscape:collect="always"
       id="linearGradient6481">
      <stop
         style="stop-color:#babdb6;stop-opacity:1;"
         offset="0"
         id="stop6483" />
      <stop
         style="stop-color:#babdb6;stop-opacity:0;"
         offset="1"
         id="stop6485" />
    </linearGradient>
    <linearGradient
       inkscape:collect="always"
       xlink:href="#linearGradient6481"
       id="linearGradient6553"
       gradientUnits="userSpaceOnUse"
       x1="319.5"
       y1="150.00497"
       x2="319.5"
       y2="146.20427" />
    <linearGradient
       inkscape:collect="always"
       xlink:href="#linearGradient6481"
       id="linearGradient6555"
       gradientUnits="userSpaceOnUse"
       x1="319.5"
       y1="150.00497"
       x2="319.5"
       y2="146.20427" />
    <linearGradient
       inkscape:collect="always"
       xlink:href="#linearGradient6481"
       id="linearGradient6557"
       gradientUnits="userSpaceOnUse"
       x1="319.5"
       y1="150.00497"
       x2="319.5"
       y2="146.20427" />
    <linearGradient
       inkscape:collect="always"
       xlink:href="#linearGradient6481"
       id="linearGradient6559"
       gradientUnits="userSpaceOnUse"
       x1="319.5"
       y1="150.00497"
       x2="319.5"
       y2="146.20427" />
    <linearGradient
       inkscape:collect="always"
       xlink:href="#linearGradient6481"
       id="linearGradient6561"
       gradientUnits="userSpaceOnUse"
       x1="319.5"
       y1="150.00497"
       x2="319.5"
       y2="146.20427" />
    <linearGradient
       inkscape:collect="always"
       xlink:href="#linearGradient6481"
       id="linearGradient6563"
       gradientUnits="userSpaceOnUse"
       x1="319.5"
       y1="150.00497"
       x2="319.5"
       y2="146.20427" />
    <linearGradient
       inkscape:collect="always"
       xlink:href="#linearGradient6481"
       id="linearGradient6565"
       gradientUnits="userSpaceOnUse"
       x1="319.5"
       y1="150.00497"
       x2="319.5"
       y2="146.20427" />
    <linearGradient
       inkscape:collect="always"
       xlink:href="#linearGradient6481"
       id="linearGradient6567"
       gradientUnits="userSpaceOnUse"
       x1="319.5"
       y1="150.00497"
       x2="319.5"
       y2="146.20427" />
    <linearGradient
       inkscape:collect="always"
       xlink:href="#linearGradient6481"
       id="linearGradient6569"
       gradientUnits="userSpaceOnUse"
       x1="319.5"
       y1="150.00497"
       x2="319.5"
       y2="146.20427" />
    <linearGradient
       inkscape:collect="always"
       xlink:href="#linearGradient6481"
       id="linearGradient6571"
       gradientUnits="userSpaceOnUse"
       x1="319.5"
       y1="150.00497"
       x2="319.5"
       y2="146.20427" />
    <linearGradient
       inkscape:collect="always"
       xlink:href="#linearGradient6481"
       id="linearGradient6573"
       gradientUnits="userSpaceOnUse"
       x1="319.5"
       y1="150.00497"
       x2="319.5"
       y2="146.20427" />
    <linearGradient
       inkscape:collect="always"
       xlink:href="#linearGradient6481"
       id="linearGradient6575"
       gradientUnits="userSpaceOnUse"
       x1="319.5"
       y1="150.00497"
       x2="319.5"
       y2="146.20427" />
    <linearGradient
       inkscape:collect="always"
       xlink:href="#linearGradient6481"
       id="linearGradient6577"
       gradientUnits="userSpaceOnUse"
       x1="319.5"
       y1="150.00497"
       x2="319.5"
       y2="146.20427" />
    <linearGradient
       inkscape:collect="always"
       xlink:href="#linearGradient6481"
       id="linearGradient6579"
       gradientUnits="userSpaceOnUse"
       x1="319.5"
       y1="150.00497"
       x2="319.5"
       y2="146.20427" />
    <linearGradient
       inkscape:collect="always"
       xlink:href="#linearGradient6481"
       id="linearGradient6581"
       gradientUnits="userSpaceOnUse"
       x1="319.5"
       y1="150.00497"
       x2="319.5"
       y2="146.20427" />
    <linearGradient
       inkscape:collect="always"
       xlink:href="#linearGradient6481"
       id="linearGradient6583"
       gradientUnits="userSpaceOnUse"
       x1="319.5"
       y1="150.00497"
       x2="319.5"
       y2="146.20427" />
    <linearGradient
       inkscape:collect="always"
       xlink:href="#linearGradient6481"
       id="linearGradient6585"
       gradientUnits="userSpaceOnUse"
       x1="319.5"
       y1="150.00497"
       x2="319.5"
       y2="146.20427" />
    <linearGradient
       inkscape:collect="always"
       xlink:href="#linearGradient6481"
       id="linearGradient6587"
       gradientUnits="userSpaceOnUse"
       x1="319.5"
       y1="150.00497"
       x2="319.5"
       y2="146.20427" />
    <linearGradient
       inkscape:collect="always"
       xlink:href="#linearGradient6481"
       id="linearGradient6589"
       gradientUnits="userSpaceOnUse"
       x1="319.5"
       y1="150.00497"
       x2="319.5"
       y2="146.20427" />
    <linearGradient
       inkscape:collect="always"
       xlink:href="#linearGradient6481"
       id="linearGradient6591"
       gradientUnits="userSpaceOnUse"
       x1="319.5"
       y1="150.00497"
       x2="319.5"
       y2="146.20427" />
    <linearGradient
       inkscape:collect="always"
       xlink:href="#linearGradient6481"
       id="linearGradient6593"
       gradientUnits="userSpaceOnUse"
       x1="319.5"
       y1="150.00497"
       x2="319.5"
       y2="146.20427" />
    <linearGradient
       inkscape:collect="always"
       xlink:href="#linearGradient6481"
       id="linearGradient6595"
       gradientUnits="userSpaceOnUse"
       x1="319.5"
       y1="150.00497"
       x2="319.5"
       y2="146.20427" />
    <linearGradient
       inkscape:collect="always"
       xlink:href="#linearGradient6481"
       id="linearGradient6597"
       gradientUnits="userSpaceOnUse"
       x1="319.5"
       y1="150.00497"
       x2="319.5"
       y2="146.20427" />
    <linearGradient
       inkscape:collect="always"
       xlink:href="#linearGradient6481"
       id="linearGradient6599"
       gradientUnits="userSpaceOnUse"
       x1="319.5"
       y1="150.00497"
       x2="319.5"
       y2="146.20427" />
    <linearGradient
       inkscape:collect="always"
       xlink:href="#linearGradient6481"
       id="linearGradient6601"
       gradientUnits="userSpaceOnUse"
       x1="319.5"
       y1="150.00497"
       x2="319.5"
       y2="146.20427" />
    <linearGradient
       inkscape:collect="always"
       xlink:href="#linearGradient6481"
       id="linearGradient6603"
       gradientUnits="userSpaceOnUse"
       x1="319.5"
       y1="150.00497"
       x2="319.5"
       y2="146.20427" />
    <linearGradient
       inkscape:collect="always"
       xlink:href="#linearGradient6481"
       id="linearGradient6605"
       gradientUnits="userSpaceOnUse"
       x1="319.5"
       y1="150.00497"
       x2="319.5"
       y2="146.20427" />
    <linearGradient
       inkscape:collect="always"
       xlink:href="#linearGradient6481"
       id="linearGradient6607"
       gradientUnits="userSpaceOnUse"
       x1="319.5"
       y1="150.00497"
       x2="319.5"
       y2="146.20427" />
    <linearGradient
       inkscape:collect="always"
       xlink:href="#linearGradient6481"
       id="linearGradient6609"
       gradientUnits="userSpaceOnUse"
       x1="319.5"
       y1="150.00497"
       x2="319.5"
       y2="146.20427" />
    <linearGradient
       inkscape:collect="always"
       xlink:href="#linearGradient6481"
       id="linearGradient6611"
       gradientUnits="userSpaceOnUse"
       x1="319.5"
       y1="150.00497"
       x2="319.5"
       y2="146.20427" />
    <linearGradient
       inkscape:collect="always"
       xlink:href="#linearGradient6481"
       id="linearGradient6613"
       gradientUnits="userSpaceOnUse"
       x1="319.5"
       y1="150.00497"
       x2="319.5"
       y2="146.20427" />
    <linearGradient
       inkscape:collect="always"
       xlink:href="#linearGradient6481"
       id="linearGradient6615"
       gradientUnits="userSpaceOnUse"
       x1="319.5"
       y1="150.00497"
       x2="319.5"
       y2="146.20427" />
    <linearGradient
       inkscape:collect="always"
       xlink:href="#linearGradient6481"
       id="linearGradient6617"
       gradientUnits="userSpaceOnUse"
       x1="319.5"
       y1="150.00497"
       x2="319.5"
       y2="146.20427" />
    <linearGradient
       inkscape:collect="always"
       xlink:href="#linearGradient6481"
       id="linearGradient6619"
       gradientUnits="userSpaceOnUse"
       x1="319.5"
       y1="150.00497"
       x2="319.5"
       y2="146.20427" />
    <linearGradient
       inkscape:collect="always"
       xlink:href="#linearGradient6481"
       id="linearGradient6621"
       gradientUnits="userSpaceOnUse"
       x1="319.5"
       y1="150.00497"
       x2="319.5"
       y2="146.20427" />
    <linearGradient
       inkscape:collect="always"
       xlink:href="#linearGradient6481"
       id="linearGradient6623"
       gradientUnits="userSpaceOnUse"
       x1="319.5"
       y1="150.00497"
       x2="319.5"
       y2="146.20427" />
    <linearGradient
       inkscape:collect="always"
       xlink:href="#linearGradient6481"
       id="linearGradient6625"
       gradientUnits="userSpaceOnUse"
       x1="319.5"
       y1="150.00497"
       x2="319.5"
       y2="146.20427" />
    <linearGradient
       y2="146.20427"
       x2="319.5"
       y1="150.00497"
       x1="319.5"
       gradientUnits="userSpaceOnUse"
       id="linearGradient4191"
       xlink:href="#linearGradient6481"
       inkscape:collect="always" />
    <linearGradient
       id="linearGradient4304">
      <stop
         style="stop-color:#cccccc;stop-opacity:1;"
         offset="0"
         id="stop4306" />
      <stop
         style="stop-color:#e2e2e2;stop-opacity:1;"
         offset="1"
         id="stop4308" />
    </linearGradient>
    <linearGradient
       y2="15.979822"
       x2="41.616066"
       y1="14.39397"
       x1="31.197334"
       gradientTransform="matrix(0.38392383,0,0,0.63057546,1032.3848,-31.076484)"
       gradientUnits="userSpaceOnUse"
       id="linearGradient3239"
       xlink:href="#linearGradient4304"
       inkscape:collect="always" />
    <linearGradient
       id="linearGradient9051-96-9-8-7-3-7">
      <stop
         id="stop9053-1-9-9-4-9-7"
         offset="0"
         style="stop-color:#3465a4;stop-opacity:1" />
      <stop
         style="stop-color:#729fcf;stop-opacity:1"
         offset="0.37205976"
         id="stop9055-04-3-2-8-9-1" />
      <stop
         style="stop-color:#204a87;stop-opacity:1"
         offset="0.74411952"
         id="stop9057-2-6-8-5-9-2" />
      <stop
         id="stop9059-22-0-8-8-2-8"
         offset="1"
         style="stop-color:#729fcf;stop-opacity:1" />
    </linearGradient>
    <linearGradient
       y2="1045.8622"
       x2="28"
       y1="1045.8622"
       x1="26"
       gradientTransform="matrix(2,0,0,2.4,993.3622,-2519.0691)"
       gradientUnits="userSpaceOnUse"
       id="linearGradient3233-9"
       xlink:href="#linearGradient9051-96-9-8-7-3-7"
       inkscape:collect="always" />
  </defs>
  <sodipodi:namedview
     id="base"
     pagecolor="#ffffff"
     bordercolor="#666666"
     borderopacity="1.0"
     inkscape:pageopacity="0.0"
     inkscape:pageshadow="2"
     inkscape:zoom="11.2"
     inkscape:cx="20.301677"
     inkscape:cy="18.725288"
     inkscape:document-units="px"
     inkscape:current-layer="layer1"
     showgrid="true"
     inkscape:window-width="1005"
     inkscape:window-height="671"
     inkscape:window-x="735"
     inkscape:window-y="377"
     inkscape:window-maximized="0">
    <inkscape:grid
       type="xygrid"
       id="grid3649"
       empspacing="5"
       visible="true"
       enabled="true"
       snapvisiblegridlinesonly="true" />
  </sodipodi:namedview>
  <metadata
     id="metadata3485">
    <rdf:RDF>
      <cc:Work
         rdf:about="">
        <dc:format>image/svg+xml</dc:format>
        <dc:type
           rdf:resource="http://purl.org/dc/dcmitype/StillImage" />
        <dc:title />
      </cc:Work>
    </rdf:RDF>
  </metadata>
  <g
     inkscape:label="Layer 1"
     inkscape:groupmode="layer"
     id="layer1"
     transform="translate(0,-1020.3622)">
    <g
       style="display:inline;enable-background:new"
       id="g6489"
       transform="translate(-303.04939,886.34335)">
      <path
         inkscape:connector-curvature="0"
         sodipodi:nodetypes="cssssc"
         id="path4941"
         d="m 327.88945,151.50001 c 0,0 -2.1173,-2.7566 -1.62284,-4.79592 0.60168,-2.4815 6.55898,-0.0894 6.55898,-1.83674 0,-2.80644 -13.45127,0.0819 -13.79413,-1.83672 -0.26124,-1.46191 3.72299,-0.84308 5.20661,-1.93878 2.34879,-1.73471 -2.03944,-1.72923 -2.16379,-9.59185"
         style="fill:none;stroke:url(#linearGradient6539);stroke-width:0.99999994;stroke-linecap:butt;stroke-linejoin:miter;stroke-miterlimit:4;stroke-opacity:1;stroke-dasharray:none;display:inline;enable-background:new" />
      <path
         inkscape:connector-curvature="0"
         transform="matrix(0.6901264,0,0,0.6443737,98.17123,98.425129)"
         sodipodi:nodetypes="ccccc"
         id="path4943"
         d="M 300.26999,82 297.50623,88.374691 342.5,88.389941 339.62033,82 300.26999,82 z"
         style="opacity:0.6;fill:#000000;fill-opacity:1;stroke:none;display:inline;filter:url(#filter4804);enable-background:new" />
      <path
         transform="matrix(0.1265319,0,0,0.1848026,300.60937,78.049467)"
         d="m 48.84375,375.8125 c -1.408468,0.14414 -2.637736,0.97407 -3.3125,2.21875 L 31.25,404.40625 c -0.335245,0.63251 -0.51152,1.35363 -0.5,2.0625 -0.0013,-0.0775 -0.0037,-0.0558 0,0.0625 l 0,2.9375 0,0.3125 A 2.1043183,2.1043183 0 0 0 31.125,411 c 0.07626,0.21987 0.07331,0.38181 0.21875,0.625 0.759704,1.27029 2.147648,2.05422 3.65625,2.0625 l 220.84375,0 c 1.51191,0.003 2.91229,-0.7848 3.6875,-2.09375 0.3301,-0.55733 0.43421,-1.07538 0.5,-1.46875 0.11351,-0.67866 0.0937,-1.15625 0.0937,-1.15625 a 2.1043183,2.1043183 0 0 0 0,-0.0625 l 0,-2.09375 c 0,-0.59664 -0.006,-1.51562 -0.53125,-2.46875 L 244.75,377.96875 a 2.1043183,2.1043183 0 0 0 -0.0312,0 C 243.95446,376.63124 242.53888,375.80847 241,375.8125 l -0.0312,0 -191.59375,0 c -0.0333,-0.002 -0.06058,9.1e-4 -0.09375,0 -0.110578,-0.003 -0.201488,-0.006 -0.3125,0 a 2.1043183,2.1043183 0 0 0 -0.125,0 z"
         id="path4945"
         style="fill:url(#linearGradient6541);fill-opacity:1;stroke:url(#linearGradient6543);stroke-width:6.53952074;stroke-linecap:square;stroke-linejoin:miter;stroke-miterlimit:4;stroke-opacity:1;stroke-dasharray:none;stroke-dashoffset:0.3612;display:inline;enable-background:new"
         inkscape:original="M 49.0625 377.90625 C 48.351795 377.97898 47.715484 378.40319 47.375 379.03125 L 33.09375 405.40625 C 32.921854 405.73057 32.838 406.08368 32.84375 406.4375 C 32.843921 406.44806 32.843422 406.45818 32.84375 406.46875 L 32.84375 409.46875 L 32.84375 409.78125 L 32.90625 409.78125 C 32.951585 410.04087 33.016408 410.29742 33.15625 410.53125 C 33.544315 411.18013 34.243936 411.5896 35 411.59375 L 255.84375 411.59375 C 256.60912 411.59549 257.32874 411.18979 257.71875 410.53125 C 257.85619 410.2992 257.92557 410.03943 257.96875 409.78125 C 258.01748 409.48989 258.03125 408.90625 258.03125 408.90625 L 258.03125 406.8125 C 258.03125 406.32053 257.99454 405.81869 257.75 405.375 L 242.90625 379 C 242.51767 378.31998 241.78319 377.89854 241 377.90625 L 49.28125 377.90625 C 49.208701 377.90258 49.135047 377.90258 49.0625 377.90625 z "
         inkscape:radius="2.1041079"
         sodipodi:type="inkscape:offset" />
      <g
         transform="matrix(0.1261442,0,0,0.1782221,300.66574,80.647096)"
         clip-path="url(#clipPath3519)"
         id="g4947"
         style="display:inline;enable-background:new">
        <path
           inkscape:connector-curvature="0"
           style="fill:url(#radialGradient6545);fill-opacity:1;stroke:none;display:inline;enable-background:new"
           d="m 49.053018,377.91849 c -0.710706,0.0727 -1.339556,0.49196 -1.68004,1.12002 l -14.280335,26.38285 c -0.171895,0.32432 -0.254644,0.67287 -0.248894,1.02669 1.72e-4,0.0106 -3.28e-4,0.0205 0,0.0311 l 0,2.98673 0,0.31112 0.06222,0 c 0.04534,0.25962 0.109053,0.51286 0.248895,0.74669 0.388063,0.64889 1.079535,1.05365 1.835599,1.0578 l 220.862957,0 c 0.76537,0.002 1.4767,-0.39926 1.86671,-1.0578 0.13743,-0.23204 0.20572,-0.48851 0.2489,-0.74669 0.0487,-0.29136 0.0622,-0.87113 0.0622,-0.87113 l 0,-2.08449 c 0,-0.49198 -0.0355,-0.98746 -0.28001,-1.43115 L 242.9109,379.0074 c -0.38858,-0.68003 -1.11464,-1.09662 -1.89783,-1.08891 l -191.742269,0 c -0.07255,-0.004 -0.145236,-0.004 -0.217783,0 z"
           id="path4949"
           sodipodi:nodetypes="cccsccccsccsscsccccc" />
        <path
           inkscape:connector-curvature="0"
           style="fill:#ffffff;fill-opacity:1;stroke:none;display:inline;filter:url(#filter3523);enable-background:new"
           d="m 32.84375,407.84375 0,1.625 0,0.3125 0.0625,0 c 0.04533,0.25962 0.11016,0.51617 0.25,0.75 0.38805,0.64888 1.08768,1.05835 1.84375,1.0625 l 220.84375,0 c 0.7654,0.002 1.48499,-0.40396 1.875,-1.0625 0.13741,-0.23205 0.20682,-0.49182 0.25,-0.75 0.0487,-0.29136 0.0625,-0.875 0.0625,-0.875 l 0,-1.0625 c -0.40966,0.50416 -1.02665,0.81401 -1.6875,0.8125 l -221.84375,0 c -0.65281,-0.004 -1.25015,-0.31528 -1.65625,-0.8125 z"
           id="path4951" />
        <path
           inkscape:connector-curvature="0"
           style="fill:url(#linearGradient6547);fill-opacity:1;stroke:none;display:inline;enable-background:new"
           d="m 49.053018,377.91849 c -0.710706,0.0727 -1.339556,0.49196 -1.68004,1.12002 l -14.280335,26.38285 c -0.171895,0.32432 -0.254644,0.67287 -0.248894,1.02669 1.72e-4,0.0106 -3.28e-4,0.0205 0,0.0311 l 0,2.98673 0,0.31112 0.06222,0 c 0.04534,0.25962 0.109053,0.51286 0.248895,0.74669 0.388063,0.64889 1.079535,1.05365 1.835599,1.0578 l 220.862957,0 c 0.76537,0.002 1.4767,-0.39926 1.86671,-1.0578 0.13743,-0.23204 0.20572,-0.48851 0.2489,-0.74669 0.0487,-0.29136 0.0622,-0.87113 0.0622,-0.87113 l 0,-2.08449 c 0,-0.49198 -0.0355,-0.98746 -0.28001,-1.43115 L 242.9109,379.0074 c -0.38858,-0.68003 -1.11464,-1.09662 -1.89783,-1.08891 l -191.742269,0 c -0.07255,-0.004 -0.145236,-0.004 -0.217783,0 z"
           id="path4953"
           sodipodi:nodetypes="cccsccccsccsscsccccc" />
      </g>
      <path
         inkscape:connector-curvature="0"
         sodipodi:nodetypes="cccccccccccccccccccccccc"
         id="path4955"
         d="m 307.99194,147 -1.51064,5 16.15075,-0.006 -0.42675,-4.994 -14.21336,0 z m 14.95168,0 0.23416,2.53248 3.15726,0 -0.44187,-2.53248 -2.94955,0 z m 3.68886,0.799 0.84596,4.19476 4.06458,0 -1.29916,-4.19476 -3.61138,0 z m -2.28772,2.39701 0.0831,0.79899 -1.03856,0 0.10574,0.99876 3.31966,0 -0.20772,-0.99876 -1.06501,0 -0.13217,-0.79899 -1.06502,0 z"
         style="opacity:0.8310502;fill:#555753;fill-opacity:1;fill-rule:evenodd;stroke:none;display:inline;enable-background:new" />
      <path
         transform="matrix(0.1258024,0,0,0.1742918,300.71548,82.198322)"
         d="m 49.5,380.40625 -14.15625,26.125 0,2.5625 220.1875,0 c 0.008,-0.10782 -0.004,-0.13803 0,-0.1875 l 0,-0.0625 0,-2.03125 c 0,-0.36712 -0.0591,-0.38271 0.0312,-0.21875 l -14.75,-26.1875 -191.3125,0 z"
         id="path4957"
         style="opacity:0.84474888;fill:none;stroke:url(#linearGradient6549);stroke-width:6.75331402;stroke-linecap:square;stroke-linejoin:round;stroke-miterlimit:4;stroke-opacity:1;stroke-dasharray:none;stroke-dashoffset:0.3612;display:inline;enable-background:new"
         inkscape:original="M 49.0625 377.90625 C 48.351795 377.97898 47.715484 378.40319 47.375 379.03125 L 33.09375 405.40625 C 32.921854 405.73057 32.838 406.08368 32.84375 406.4375 C 32.843921 406.44806 32.843422 406.45818 32.84375 406.46875 L 32.84375 409.46875 L 32.84375 409.78125 L 32.90625 409.78125 C 32.951585 410.04087 33.016408 410.29742 33.15625 410.53125 C 33.544315 411.18013 34.243936 411.5896 35 411.59375 L 255.84375 411.59375 C 256.60912 411.59549 257.32874 411.18979 257.71875 410.53125 C 257.85619 410.2992 257.92557 410.03943 257.96875 409.78125 C 258.01748 409.48989 258.03125 408.90625 258.03125 408.90625 L 258.03125 406.8125 C 258.03125 406.32053 257.99454 405.81869 257.75 405.375 L 242.90625 379 C 242.51767 378.31998 241.78319 377.89854 241 377.90625 L 49.28125 377.90625 C 49.208701 377.90258 49.135047 377.90258 49.0625 377.90625 z "
         inkscape:radius="-2.5097508"
         sodipodi:type="inkscape:offset" />
      <path
         inkscape:connector-curvature="0"
         sodipodi:nodetypes="cccccccccccccccccccccccc"
         id="path4959"
         d="m 308.01142,147 -1.51064,4 16.15075,-0.005 -0.42675,-3.99501 -14.21336,0 z m 14.95168,0 0.23417,2.02598 3.15725,0 -0.44187,-2.02598 -2.94955,0 z m 3.68886,0.6392 0.84596,3.35581 4.06458,0 -1.29916,-3.35581 -3.61138,0 z m -2.28772,1.9176 0.0831,0.6392 -1.03856,0 0.10574,0.79901 3.31966,0 -0.20772,-0.79901 -1.06501,0 -0.13217,-0.6392 -1.06502,0 z"
         style="fill:url(#linearGradient6551);fill-opacity:1;fill-rule:evenodd;stroke:none;display:inline;enable-background:new" />
      <g
         style="fill:url(#linearGradient4191);fill-opacity:1"
         id="g6429">
        <rect
           style="opacity:0.55363734;fill:url(#linearGradient6553);fill-opacity:1;stroke:none;display:inline;enable-background:new"
           id="rect6011"
           width="1"
           height="1"
           x="307"
           y="150"
           rx="0.28125"
           ry="0.28125" />
        <rect
           style="opacity:0.55363734;fill:url(#linearGradient6555);fill-opacity:1;stroke:none;display:inline;enable-background:new"
           id="rect6013"
           width="1"
           height="1"
           x="308"
           y="149"
           rx="0.28125"
           ry="0.28125" />
        <rect
           style="opacity:0.55363734;fill:url(#linearGradient6557);fill-opacity:1;stroke:none;display:inline;enable-background:new"
           id="rect6019"
           width="1"
           height="1"
           x="310"
           y="149"
           rx="0.28125"
           ry="0.28125" />
        <rect
           style="opacity:0.55363734;fill:url(#linearGradient6559);fill-opacity:1;stroke:none;display:inline;enable-background:new"
           id="rect6023"
           width="1"
           height="1"
           x="309"
           y="150"
           rx="0.28125"
           ry="0.28125" />
        <rect
           style="opacity:0.55363734;fill:url(#linearGradient6561);fill-opacity:1;stroke:none;display:inline;enable-background:new"
           id="rect6027"
           width="1"
           height="1"
           x="312"
           y="149"
           rx="0.28125"
           ry="0.28125" />
        <rect
           style="opacity:0.55363734;fill:url(#linearGradient6563);fill-opacity:1;stroke:none;display:inline;enable-background:new"
           id="rect6029"
           width="1"
           height="1"
           x="314"
           y="149"
           rx="0.28125"
           ry="0.28125" />
        <rect
           style="opacity:0.55363734;fill:url(#linearGradient6565);fill-opacity:1;stroke:none;display:inline;enable-background:new"
           id="rect6035"
           width="1"
           height="1"
           x="316"
           y="149"
           rx="0.28125"
           ry="0.28125" />
        <rect
           style="opacity:0.55363734;fill:url(#linearGradient6567);fill-opacity:1;stroke:none;display:inline;enable-background:new"
           id="rect6043"
           width="1"
           height="1"
           x="318"
           y="149"
           rx="0.28125"
           ry="0.28125" />
        <rect
           style="opacity:0.55363734;fill:url(#linearGradient6569);fill-opacity:1;stroke:none;display:inline;enable-background:new"
           id="rect6049"
           width="1"
           height="1"
           x="319"
           y="150"
           rx="0.28125"
           ry="0.28125" />
        <rect
           style="opacity:0.55363734;fill:url(#linearGradient6571);fill-opacity:1;stroke:none;display:inline;enable-background:new"
           id="rect6051"
           width="1"
           height="1"
           x="320"
           y="149"
           rx="0.28125"
           ry="0.28125" />
        <rect
           style="opacity:0.55363734;fill:url(#linearGradient6573);fill-opacity:1;stroke:none;display:inline;enable-background:new"
           id="rect6053"
           width="1"
           height="1"
           x="322"
           y="149"
           rx="0.28125"
           ry="0.28125" />
        <rect
           style="opacity:0.55363734;fill:url(#linearGradient6575);fill-opacity:1;stroke:none;display:inline;enable-background:new"
           id="rect6059"
           width="1"
           height="1"
           x="321"
           y="150"
           rx="0.28125"
           ry="0.28125" />
        <rect
           style="opacity:0.55363734;fill:url(#linearGradient6577);fill-opacity:1;stroke:none;display:inline;enable-background:new"
           id="rect6061"
           width="1"
           height="1"
           x="325"
           y="150"
           rx="0.28125"
           ry="0.28125" />
        <rect
           style="opacity:0.55363734;fill:url(#linearGradient6579);fill-opacity:1;stroke:none;display:inline;enable-background:new"
           id="rect6075"
           width="1"
           height="1"
           x="327"
           y="150"
           rx="0.28125"
           ry="0.28125" />
        <rect
           style="opacity:0.55363734;fill:url(#linearGradient6581);fill-opacity:1;stroke:none;display:inline;enable-background:new"
           id="rect6079"
           width="1"
           height="1"
           x="328"
           y="149"
           rx="0.28125"
           ry="0.28125" />
        <rect
           style="opacity:0.55363734;fill:url(#linearGradient6583);fill-opacity:1;stroke:none;display:inline;enable-background:new"
           id="rect6081"
           width="1"
           height="1"
           x="330"
           y="149"
           rx="0.28125"
           ry="0.28125" />
        <rect
           style="opacity:0.55363734;fill:url(#linearGradient6585);fill-opacity:1;stroke:none;display:inline;enable-background:new"
           id="rect6085"
           width="1"
           height="1"
           x="329"
           y="150"
           rx="0.28125"
           ry="0.28125" />
        <rect
           style="opacity:0.55363734;fill:url(#linearGradient6587);fill-opacity:1;stroke:none"
           id="rect6123"
           width="1"
           height="1"
           x="307"
           y="148"
           rx="0.28125"
           ry="0.28125" />
        <rect
           style="opacity:0.55363734;fill:url(#linearGradient6589);fill-opacity:1;stroke:none;display:inline;enable-background:new"
           id="rect6127"
           width="1"
           height="1"
           x="308"
           y="147"
           rx="0.28125"
           ry="0.28125" />
        <rect
           style="opacity:0.55363734;fill:url(#linearGradient6591);fill-opacity:1;stroke:none;display:inline;enable-background:new"
           id="rect6129"
           width="1"
           height="1"
           x="309"
           y="148"
           rx="0.28125"
           ry="0.28125" />
        <rect
           style="opacity:0.55363734;fill:url(#linearGradient6593);fill-opacity:1;stroke:none;display:inline;enable-background:new"
           id="rect6131"
           width="1"
           height="1"
           x="311"
           y="148"
           rx="0.28125"
           ry="0.28125" />
        <rect
           style="opacity:0.55363734;fill:url(#linearGradient6595);fill-opacity:1;stroke:none;display:inline;enable-background:new"
           id="rect6133"
           width="1"
           height="1"
           x="310"
           y="147"
           rx="0.28125"
           ry="0.28125" />
        <rect
           style="opacity:0.55363734;fill:url(#linearGradient6597);fill-opacity:1;stroke:none;display:inline;enable-background:new"
           id="rect6135"
           width="1"
           height="1"
           x="312"
           y="147"
           rx="0.28125"
           ry="0.28125" />
        <rect
           style="opacity:0.55363734;fill:url(#linearGradient6599);fill-opacity:1;stroke:none;display:inline;enable-background:new"
           id="rect6137"
           width="1"
           height="1"
           x="313"
           y="148"
           rx="0.28125"
           ry="0.28125" />
        <rect
           style="opacity:0.55363734;fill:url(#linearGradient6601);fill-opacity:1;stroke:none;display:inline;enable-background:new"
           id="rect6139"
           width="1"
           height="1"
           x="315"
           y="148"
           rx="0.28125"
           ry="0.28125" />
        <rect
           style="opacity:0.55363734;fill:url(#linearGradient6603);fill-opacity:1;stroke:none;display:inline;enable-background:new"
           id="rect6141"
           width="1"
           height="1"
           x="314"
           y="147"
           rx="0.28125"
           ry="0.28125" />
        <rect
           style="opacity:0.55363734;fill:url(#linearGradient6605);fill-opacity:1;stroke:none;display:inline;enable-background:new"
           id="rect6143"
           width="1"
           height="1"
           x="316"
           y="147"
           rx="0.28125"
           ry="0.28125" />
        <rect
           style="opacity:0.55363734;fill:url(#linearGradient6607);fill-opacity:1;stroke:none;display:inline;enable-background:new"
           id="rect6145"
           width="1"
           height="1"
           x="317"
           y="148"
           rx="0.28125"
           ry="0.28125" />
        <rect
           style="opacity:0.55363734;fill:url(#linearGradient6609);fill-opacity:1;stroke:none;display:inline;enable-background:new"
           id="rect6147"
           width="1"
           height="1"
           x="319"
           y="148"
           rx="0.28125"
           ry="0.28125" />
        <rect
           style="opacity:0.55363734;fill:url(#linearGradient6611);fill-opacity:1;stroke:none;display:inline;enable-background:new"
           id="rect6149"
           width="1"
           height="1"
           x="318"
           y="147"
           rx="0.28125"
           ry="0.28125" />
        <rect
           style="opacity:0.55363734;fill:url(#linearGradient6613);fill-opacity:1;stroke:none;display:inline;enable-background:new"
           id="rect6151"
           width="1"
           height="1"
           x="320"
           y="147"
           rx="0.28125"
           ry="0.28125" />
        <rect
           style="opacity:0.55363734;fill:url(#linearGradient6615);fill-opacity:1;stroke:none;display:inline;enable-background:new"
           id="rect6153"
           width="1"
           height="1"
           x="321"
           y="148"
           rx="0.28125"
           ry="0.28125" />
        <rect
           style="opacity:0.55363734;fill:url(#linearGradient6617);fill-opacity:1;stroke:none;display:inline;enable-background:new"
           id="rect6155"
           width="1"
           height="1"
           x="323"
           y="148"
           rx="0.28125"
           ry="0.28125" />
        <rect
           style="opacity:0.55363734;fill:url(#linearGradient6619);fill-opacity:1;stroke:none;display:inline;enable-background:new"
           id="rect6159"
           width="1"
           height="1"
           x="324"
           y="147"
           rx="0.28125"
           ry="0.28125" />
        <rect
           style="opacity:0.55363734;fill:url(#linearGradient6621);fill-opacity:1;stroke:none;display:inline;enable-background:new"
           id="rect6161"
           width="1"
           height="1"
           x="327"
           y="148"
           rx="0.28125"
           ry="0.28125" />
        <rect
           style="opacity:0.55363734;fill:url(#linearGradient6623);fill-opacity:1;stroke:none;display:inline;enable-background:new"
           id="rect6163"
           width="1"
           height="1"
           x="329"
           y="148"
           rx="0.28125"
           ry="0.28125" />
        <rect
           style="opacity:0.55363734;fill:url(#linearGradient6625);fill-opacity:1;stroke:none;display:inline;enable-background:new"
           id="rect6173"
           width="1"
           height="1"
           x="325"
           y="148"
           rx="0.28125"
           ry="0.28125" />
      </g>
    </g>
    <rect
       style="color:#000000;fill:url(#linearGradient3239);fill-opacity:1;fill-rule:evenodd;stroke:#888a85;stroke-width:0.99999994000000003;stroke-linecap:butt;stroke-linejoin:round;stroke-miterlimit:4;stroke-opacity:1;stroke-dasharray:none;stroke-dashoffset:0;marker:none;visibility:visible;display:inline;overflow:visible"
       id="rect4302"
       width="5"
       height="27"
       x="1044.8622"
       y="-29.5"
       rx="0.52536201"
       ry="0.85783648"
       transform="matrix(0,1,-1,0,0,0)" />
    <rect
       style="fill:url(#linearGradient3233-9);fill-opacity:1;stroke:none"
       id="rect4516"
       width="4"
       height="12"
       x="1045.3622"
       y="-15"
       transform="matrix(0,1,-1,0,0,0)" />
    <rect
       ry="0.24061894"
       rx="0.10603403"
       y="-28.5"
       x="1045.8622"
       height="25"
       width="3.0000002"
       id="rect4312"
       style="opacity:0.78021982;color:#000000;fill:none;stroke:#ffffff;stroke-width:0.99999958;stroke-linecap:butt;stroke-linejoin:round;stroke-miterlimit:4;stroke-opacity:1;stroke-dasharray:none;stroke-dashoffset:0;marker:none;visibility:visible;display:inline;overflow:visible"
       transform="matrix(0,1,-1,0,0,0)" />
  </g>
</svg>
