<?xml version="1.0" encoding="UTF-8" standalone="no"?>
<!-- Created with Inkscape (http://www.inkscape.org/) -->

<svg
   xmlns:dc="http://purl.org/dc/elements/1.1/"
   xmlns:cc="http://creativecommons.org/ns#"
   xmlns:rdf="http://www.w3.org/1999/02/22-rdf-syntax-ns#"
   xmlns:svg="http://www.w3.org/2000/svg"
   xmlns="http://www.w3.org/2000/svg"
   xmlns:xlink="http://www.w3.org/1999/xlink"
   xmlns:sodipodi="http://sodipodi.sourceforge.net/DTD/sodipodi-0.dtd"
   xmlns:inkscape="http://www.inkscape.org/namespaces/inkscape"
   width="32"
   height="32"
   id="svg4227"
   version="1.1"
   inkscape:version="0.48.4 r9939"
   sodipodi:docname="xfpm-mouse-100.svg">
  <defs
     id="defs4229">
    <radialGradient
       inkscape:collect="always"
       xlink:href="#linearGradient4083-1"
       id="radialGradient3340"
       gradientUnits="userSpaceOnUse"
       gradientTransform="matrix(-0.13978769,-0.00450049,-0.00438817,0.13629911,32.7805,1020.607)"
       cx="108.33212"
       cy="180.69263"
       fx="108.33212"
       fy="180.69263"
       r="31.872307" />
    <linearGradient
       inkscape:collect="always"
       id="linearGradient4083-1">
      <stop
         style="stop-color:#627272;stop-opacity:1"
         offset="0"
         id="stop4085-4" />
      <stop
         style="stop-color:#1d2222;stop-opacity:1"
         offset="1"
         id="stop4087-9" />
    </linearGradient>
    <radialGradient
       inkscape:collect="always"
       xlink:href="#linearGradient3914-8"
       id="radialGradient3337"
       gradientUnits="userSpaceOnUse"
       gradientTransform="matrix(0.32447879,0,0,0.19127242,-29.987848,1003.1594)"
       cx="117.07812"
       cy="127.93034"
       fx="117.07812"
       fy="127.93034"
       r="60.605656" />
    <linearGradient
       inkscape:collect="always"
       id="linearGradient3914-8">
      <stop
         style="stop-color:#f2f2f2;stop-opacity:1"
         offset="0"
         id="stop3916-4" />
      <stop
         style="stop-color:#c1c1c1;stop-opacity:1"
         offset="1"
         id="stop3918-4" />
    </linearGradient>
    <radialGradient
       inkscape:collect="always"
       xlink:href="#linearGradient4612-5"
       id="radialGradient3334"
       gradientUnits="userSpaceOnUse"
       gradientTransform="matrix(0.32134172,0.00961728,-0.01589843,0.41923284,-32.860056,972.34344)"
       cx="144.72844"
       cy="128.39641"
       fx="144.72844"
       fy="128.39641"
       r="12.858741" />
    <linearGradient
       inkscape:collect="always"
       id="linearGradient4612-5">
      <stop
         style="stop-color:#212324;stop-opacity:1;"
         offset="0"
         id="stop4614-0" />
      <stop
         style="stop-color:#090909;stop-opacity:1"
         offset="1"
         id="stop4616-1" />
    </linearGradient>
    <linearGradient
       inkscape:collect="always"
       xlink:href="#linearGradient5582-5"
       id="linearGradient3331"
       gradientUnits="userSpaceOnUse"
       gradientTransform="matrix(0.21281073,0,0,0.16528926,-19.501217,1009.4085)"
       x1="144.64235"
       y1="107.60029"
       x2="144.64235"
       y2="85.600197" />
    <linearGradient
       id="linearGradient5582-5">
      <stop
         id="stop5584-5"
         offset="0"
         style="stop-color:#999ea0;stop-opacity:1" />
      <stop
         style="stop-color:#6b7373;stop-opacity:1"
         offset="0.32954615"
         id="stop5586-4" />
      <stop
         id="stop5588-1"
         offset="1"
         style="stop-color:#d8dadb;stop-opacity:1" />
    </linearGradient>
    <radialGradient
       inkscape:collect="always"
       xlink:href="#linearGradient4067-2"
       id="radialGradient3290"
       gradientUnits="userSpaceOnUse"
       cx="-136.64839"
       cy="164.05872"
       fx="-136.64839"
       fy="164.05872"
       r="2.2980971" />
    <linearGradient
       inkscape:collect="always"
       id="linearGradient4067-2">
      <stop
         style="stop-color:#fff20d;stop-opacity:1"
         offset="0"
         id="stop4069-1" />
      <stop
         style="stop-color:#b10000;stop-opacity:1"
         offset="1"
         id="stop4071-5" />
    </linearGradient>
    <radialGradient
       inkscape:collect="always"
       xlink:href="#linearGradient3940-5"
       id="radialGradient3327"
       gradientUnits="userSpaceOnUse"
       gradientTransform="matrix(0.26067079,0,0,1.6529907,-19.108175,761.85383)"
       cx="96.249001"
       cy="170.7283"
       fx="96.249001"
       fy="170.7283"
       r="14.519166" />
    <linearGradient
       inkscape:collect="always"
       id="linearGradient3940-5">
      <stop
         style="stop-color:#000000;stop-opacity:1;"
         offset="0"
         id="stop3942-3" />
      <stop
         style="stop-color:#000000;stop-opacity:0;"
         offset="1"
         id="stop3944-1" />
    </linearGradient>
    <radialGradient
       inkscape:collect="always"
       xlink:href="#linearGradient3924-6"
       id="radialGradient3294"
       gradientUnits="userSpaceOnUse"
       gradientTransform="matrix(1.538654,0.23515348,-0.06093814,0.5957692,374.86505,136.96847)"
       cx="-155.73729"
       cy="245.7663"
       fx="-155.73729"
       fy="245.7663"
       r="21.262709" />
    <linearGradient
       inkscape:collect="always"
       id="linearGradient3924-6">
      <stop
         style="stop-color:#f2f2f2;stop-opacity:1;"
         offset="0"
         id="stop3926-6" />
      <stop
         style="stop-color:#f2f2f2;stop-opacity:0;"
         offset="1"
         id="stop3928-5" />
    </linearGradient>
    <filter
       color-interpolation-filters="sRGB"
       inkscape:collect="always"
       id="filter4414-5"
       x="-0.24429581"
       width="1.4885916"
       y="-0.40688315"
       height="1.8137662">
      <feGaussianBlur
         inkscape:collect="always"
         stdDeviation="4.3286586"
         id="feGaussianBlur4416-2" />
    </filter>
    <radialGradient
       inkscape:collect="always"
       xlink:href="#linearGradient3940-5"
       id="radialGradient3323"
       gradientUnits="userSpaceOnUse"
       gradientTransform="matrix(-0.26067079,0,0,1.6529907,42.472379,761.85383)"
       cx="96.249001"
       cy="170.7283"
       fx="96.249001"
       fy="170.7283"
       r="14.519166" />
    <filter
       color-interpolation-filters="sRGB"
       inkscape:collect="always"
       id="filter3962-6"
       x="-0.073635153"
       width="1.1472703"
       y="-0.10764378"
       height="1.2152876">
      <feGaussianBlur
         inkscape:collect="always"
         stdDeviation="0.98673461"
         id="feGaussianBlur3964-9" />
    </filter>
    <radialGradient
       inkscape:collect="always"
       xlink:href="#linearGradient3968-7"
       id="radialGradient3319"
       gradientUnits="userSpaceOnUse"
       gradientTransform="matrix(4.0952215,0,0,4.005241,-625.88406,505.85281)"
       cx="155.95242"
       cy="131.40128"
       fx="155.95242"
       fy="131.40128"
       r="1.25" />
    <linearGradient
       inkscape:collect="always"
       id="linearGradient3968-7">
      <stop
         style="stop-color:#ffffff;stop-opacity:1;"
         offset="0"
         id="stop3970-7" />
      <stop
         style="stop-color:#ffffff;stop-opacity:0;"
         offset="1"
         id="stop3972-4" />
    </linearGradient>
    <radialGradient
       inkscape:collect="always"
       xlink:href="#linearGradient4059-1"
       id="radialGradient3300"
       gradientUnits="userSpaceOnUse"
       gradientTransform="matrix(0.99840707,0.08081002,-0.05936224,1.5044457,11.228064,-98.343934)"
       cx="75.902977"
       cy="187.10811"
       fx="75.902977"
       fy="187.10811"
       r="31.461897" />
    <linearGradient
       inkscape:collect="always"
       id="linearGradient4059-1">
      <stop
         style="stop-color:#ffffff;stop-opacity:1"
         offset="0"
         id="stop4061-2" />
      <stop
         style="stop-color:#c7c7be;stop-opacity:1"
         offset="1"
         id="stop4063-3" />
    </linearGradient>
    <radialGradient
       inkscape:collect="always"
       xlink:href="#linearGradient3968-7"
       id="radialGradient3314"
       gradientUnits="userSpaceOnUse"
       gradientTransform="matrix(-15.202574,0,0,4.005241,2381.3175,505.85281)"
       cx="155.95242"
       cy="131.40128"
       fx="155.95242"
       fy="131.40128"
       r="1.25" />
    <linearGradient
       inkscape:collect="always"
       id="linearGradient5592">
      <stop
         style="stop-color:#8c8c8c;stop-opacity:1;"
         offset="0"
         id="stop5594" />
      <stop
         style="stop-color:#282828;stop-opacity:1"
         offset="1"
         id="stop5596" />
    </linearGradient>
    <linearGradient
       y2="95.09375"
       x2="319.6553"
       y1="52.686745"
       x1="319.6553"
       gradientTransform="matrix(0.65720517,0,0,0.65720517,-198.68806,987.03705)"
       gradientUnits="userSpaceOnUse"
       id="linearGradient4225"
       xlink:href="#linearGradient5592"
       inkscape:collect="always" />
    <filter
       inkscape:collect="always"
       id="filter4962">
      <feGaussianBlur
         inkscape:collect="always"
         stdDeviation="0.62667566"
         id="feGaussianBlur4964" />
    </filter>
    <linearGradient
       inkscape:collect="always"
       xlink:href="#linearGradient10898-1"
       id="linearGradient4524-0"
       x1="26"
       y1="1045.8622"
       x2="28"
       y2="1045.8622"
       gradientUnits="userSpaceOnUse"
       gradientTransform="matrix(2,0,0,5.2,-26.999999,-4402.1208)" />
    <linearGradient
       id="linearGradient10898-1">
      <stop
         style="stop-color:#73d216;stop-opacity:1"
         offset="0"
         id="stop10900-6" />
      <stop
         id="stop10902-7"
         offset="0.37205976"
         style="stop-color:#8ae234;stop-opacity:1" />
      <stop
         id="stop10904-0"
         offset="0.74411952"
         style="stop-color:#4e9a06;stop-opacity:1" />
      <stop
         style="stop-color:#73d216;stop-opacity:1"
         offset="1"
         id="stop10906-8" />
    </linearGradient>
    <linearGradient
       id="linearGradient4304-94">
      <stop
         style="stop-color:#cccccc;stop-opacity:1;"
         offset="0"
         id="stop4306-3" />
      <stop
         style="stop-color:#e2e2e2;stop-opacity:1;"
         offset="1"
         id="stop4308-01" />
    </linearGradient>
    <linearGradient
       y2="20.638643"
       x2="37.714912"
       y1="5.170682"
       x1="38.187183"
       gradientTransform="matrix(0.38392383,0,0,0.63057546,12.022475,1021.2857)"
       gradientUnits="userSpaceOnUse"
       id="linearGradient3451"
       xlink:href="#linearGradient4304-94"
       inkscape:collect="always" />
  </defs>
  <sodipodi:namedview
     id="base"
     pagecolor="#ffffff"
     bordercolor="#666666"
     borderopacity="1.0"
     inkscape:pageopacity="0.0"
     inkscape:pageshadow="2"
     inkscape:zoom="7.9195959"
     inkscape:cx="14.338253"
     inkscape:cy="23.041499"
     inkscape:document-units="px"
     inkscape:current-layer="layer1"
     showgrid="false"
     inkscape:window-width="920"
     inkscape:window-height="691"
     inkscape:window-x="370"
     inkscape:window-y="209"
     inkscape:window-maximized="0" />
  <metadata
     id="metadata4232">
    <rdf:RDF>
      <cc:Work
         rdf:about="">
        <dc:format>image/svg+xml</dc:format>
        <dc:type
           rdf:resource="http://purl.org/dc/dcmitype/StillImage" />
        <dc:title />
      </cc:Work>
    </rdf:RDF>
  </metadata>
  <g
     inkscape:label="Layer 1"
     inkscape:groupmode="layer"
     id="layer1"
     transform="translate(0,-1020.3622)">
    <path
       style="opacity:0.5;fill:#000000;fill-opacity:1;fill-rule:nonzero;stroke:none;filter:url(#filter4962)"
       d="m 20.192897,1035.2538 c 0,2.2793 0.931629,5.6213 0.848519,7.6587 -0.252115,6.1805 -5.304773,8.9457 -9.561084,8.9457 -4.4616565,0 -8.9034861,-2.8857 -9.7843222,-9.7419 -0.2287568,-1.7806 0.9454881,-4.7625 0.9454881,-6.7362 0,-3.2 -0.9937321,-5.0385 0.1173341,-7.5137 1.8792655,-4.1867 5.2102369,-6.5653 8.847769,-6.5653 3.971149,0 7.047626,1.6449 8.825628,6.4896 0.813515,2.2166 -0.239332,4.7595 -0.239332,7.4631 z"
       id="path4423"
       inkscape:connector-curvature="0"
       sodipodi:nodetypes="sssssssss" />
    <g
       transform="translate(-0.25058721,0.96436473)"
       id="g4119">
      <path
         style="color:#000000;fill:url(#radialGradient3340);fill-opacity:1;fill-rule:nonzero;stroke:none;stroke-width:2;marker:none;visibility:visible;display:inline;overflow:visible;enable-background:accumulate"
         d="m 11.793038,1021.0076 c -1.404795,0.04 -3.8815796,0.4028 -5.3409081,1.4379 -1.1508513,0.8164 -2.3666147,2.2256 -2.8190552,3.5621 -0.5390993,1.5924 -0.3461357,3.4119 0,5.0437 0,0 0.2240405,2.0401 0.1966782,3.0638 -0.06741,2.522 -0.9424388,5.6148 -0.8916082,7.5175 0.2913331,10.9053 17.7403823,10.3623 17.7403823,0 0,-1.9034 -0.824199,-4.9955 -0.891609,-7.5175 -0.02736,-1.0237 0.07782,-3.0638 0.07782,-3.0638 0.346135,-1.6318 0.662325,-3.4513 0.123226,-5.0437 -0.45244,-1.3365 -1.668204,-2.7457 -2.819055,-3.5621 -1.459329,-1.0351 -3.936113,-1.3981 -5.340909,-1.4379 -0.01123,-3e-4 -0.02388,3e-4 -0.03497,0 z"
         id="path5632"
         inkscape:connector-curvature="0"
         sodipodi:nodetypes="csscsssscsssc" />
      <path
         style="color:#000000;fill:url(#radialGradient3337);fill-opacity:1;fill-rule:nonzero;stroke:none;stroke-width:2;marker:none;visibility:visible;display:inline;overflow:visible;enable-background:accumulate"
         d="m 3.6330747,1025.9726 c -0.6069822,1.5679 -0.3587993,3.438 -0.1267483,5.3235 0.8087785,6.5715 3.3391601,17.0629 3.3391601,17.0629 3.052131,1.764 6.8614365,2.0223 9.8645095,0 0,0 2.029339,-10.5524 3.234265,-17.0629 0.328432,-1.7746 0.585457,-3.7776 0.0131,-5.3584 -2.424933,-6.6976 -13.5610962,-7.1024 -16.3242913,0.035 z"
         id="path5634"
         inkscape:connector-curvature="0"
         sodipodi:nodetypes="ssccsss" />
      <rect
         style="color:#000000;fill:url(#radialGradient3334);fill-opacity:1;fill-rule:nonzero;stroke:none;stroke-width:2;marker:none;visibility:visible;display:inline;overflow:visible;enable-background:accumulate"
         id="rect5636"
         width="5.1735444"
         height="15.178219"
         x="8.8178339"
         y="1022.4011"
         rx="2.5867722"
         ry="2.5867722" />
      <rect
         style="opacity:0.71193417;color:#000000;fill:url(#linearGradient3331);fill-opacity:1;fill-rule:nonzero;stroke:#505050;stroke-width:1;stroke-miterlimit:4;stroke-opacity:1;stroke-dasharray:none;marker:none;visibility:visible;display:inline;overflow:visible;enable-background:accumulate"
         id="rect5638"
         width="1.9999998"
         height="4.2718339"
         x="10.416463"
         y="1023.1833"
         rx="0.99999988"
         ry="0.99999988" />
      <path
         sodipodi:type="arc"
         style="opacity:0.71193417;color:#000000;fill:url(#radialGradient3290);fill-opacity:1;fill-rule:nonzero;stroke:none;stroke-width:2;marker:none;visibility:visible;display:inline;overflow:visible;enable-background:accumulate"
         id="path5640"
         sodipodi:cx="-136.64839"
         sodipodi:cy="164.05872"
         sodipodi:rx="2.2980971"
         sodipodi:ry="2.2980971"
         d="m -134.35029,164.05872 c 0,1.2692 -1.0289,2.29809 -2.2981,2.29809 -1.26921,0 -2.2981,-1.02889 -2.2981,-2.29809 0,-1.26921 1.02889,-2.2981 2.2981,-2.2981 1.2692,0 2.2981,1.02889 2.2981,2.2981 z"
         transform="matrix(0.21757149,0,0,0.21757149,41.147258,1000.1677)" />
      <path
         style="opacity:0.1591837;color:#000000;fill:none;stroke:url(#radialGradient3327);stroke-width:1;stroke-miterlimit:4;stroke-opacity:1;stroke-dasharray:none;marker:none;visibility:visible;display:inline;overflow:visible;enable-background:accumulate"
         d="m 8.2915003,1048.9011 c 0,0 -0.2966881,-0.6922 -0.6428237,-2.0768 l -3.0163313,-15.6256 c -0.9889607,-4.9942 1.3470969,-7.9116 1.3470969,-7.9116"
         id="path5642"
         inkscape:connector-curvature="0"
         sodipodi:nodetypes="cccc" />
      <path
         style="opacity:0.62139917;color:#000000;fill:url(#radialGradient3294);fill-opacity:1;fill-rule:nonzero;stroke:none;stroke-width:1;marker:none;visibility:visible;display:inline;overflow:visible;filter:url(#filter4414-5);enable-background:accumulate"
         d="m 99,234 3,15 c 0,0 15.98964,11.21269 25,10.5 5.67097,-0.44856 13.96531,-3.3365 14.5,-9 0.53216,-5.6367 -7.4129,-9.01466 -12.5,-11.5 -9.10895,-4.45025 -30,-5 -30,-5 z"
         id="path5644"
         inkscape:connector-curvature="0"
         sodipodi:nodetypes="ccssac"
         transform="matrix(0.17095963,0,0,0.13986012,-11.413853,1012.6466)" />
      <path
         sodipodi:nodetypes="cccc"
         inkscape:connector-curvature="0"
         id="path5646"
         d="m 15.072706,1048.9011 c 0,0 0.296688,-0.6922 0.642824,-2.0768 l 3.01633,-16.7444 c 0.674275,-4.8195 -1.347095,-6.7928 -1.347095,-6.7928"
         style="opacity:0.31020412;color:#000000;fill:none;stroke:url(#radialGradient3323);stroke-width:1;stroke-miterlimit:4;stroke-opacity:1;stroke-dasharray:none;marker:none;visibility:visible;display:inline;overflow:visible;enable-background:accumulate" />
      <path
         transform="matrix(0.13986012,0,0,0.13986012,-7.7158373,1011.5277)"
         style="opacity:0.3415638;color:#000000;fill:#ffffff;fill-opacity:1;fill-rule:nonzero;stroke:none;stroke-width:1;marker:none;visibility:visible;display:inline;overflow:visible;filter:url(#filter3962-6);enable-background:accumulate"
         d="m 143.80098,274 c 2,-0.5 23.13965,-0.6921 30,-8.5 3.00266,-3.41738 2,-13.5 2,-13.5 -8.35676,10.41321 -19.66541,16.89057 -32,22 z"
         id="path5648"
         inkscape:connector-curvature="0"
         sodipodi:nodetypes="cscc" />
      <path
         style="opacity:0.43673467;color:#000000;fill:url(#radialGradient3319);fill-opacity:1;fill-rule:nonzero;stroke:none;stroke-width:1;marker:none;visibility:visible;display:inline;overflow:visible;enable-background:accumulate"
         d="m 12.259258,1028.3057 c 0.131442,-0.5874 0.657205,-0.6242 0.657205,-0.6242 l 0,7.6539 c 0,0 -0.657205,-0.2448 -0.657205,-0.8199 z"
         id="path5650"
         inkscape:connector-curvature="0"
         sodipodi:nodetypes="ccccc" />
      <g
         style="font-size:12.23028564px;font-style:italic;font-variant:normal;font-weight:bold;font-stretch:normal;text-align:start;line-height:125%;letter-spacing:0px;word-spacing:0px;writing-mode:lr-tb;text-anchor:start;fill:#eeeeec;fill-opacity:1;stroke:none;font-family:Cantarell;-inkscape-font-specification:Cantarell Bold Italic"
         id="g5652"
         transform="matrix(0,0.10099689,-0.10099689,0,30.761652,1023.8222)">
        <path
           d="m 46.21875,182.41538 c -0.600211,4.15983 -3.191153,10.82937 -0.74676,13.73489 2.377554,-1.6381 1.090049,-9.96288 3.452806,-3.98922 2.587668,0.82789 3.772312,-6.20138 2.599512,0.0209 -0.698984,6.31358 3.273759,2.93693 2.747767,-1.19474 2.027614,-4.17863 0.09778,-13.30585 -2.768617,-5.73351 -3.001857,7.87765 -1.390728,-5.43169 -5.284708,-2.83837 z m 31.625,1.29796 c -2.46111,3.71254 -3.014768,14.25995 2.3115,12.05561 2.127317,-2.85642 -3.435923,-3.06279 -0.492029,-6.30171 4.583527,0.0352 -0.148771,-6.30875 -1.819471,-5.7539 z m -18.625,2.23785 c -5.250242,-1.11397 -5.744214,12.90376 0.101576,9.92369 3.370077,-1.54868 4.464415,-9.89692 -0.101576,-9.92369 z m 7.78125,0 c -4.230484,-2.44107 -6.62017,8.52003 -3.298366,9.89709 1.28604,-0.57239 1.320429,-9.40456 2.960069,-4.81044 -2.406053,4.49181 2.706649,7.13562 2.307925,0.97761 C 69.46485,189.66796 69.424937,185.60201 67,185.95119 z m 6.8125,0 c -3.20511,-1.84932 -5.280783,6.78413 -1.347556,6.74941 -5.063601,-1.74484 -2.619131,6.18539 1.01086,3.04036 3.35994,-1.03348 1.253549,-5.73618 0.181464,-6.65523 2.805808,1.69566 3.000319,-4.27905 0.155232,-3.13454 z m 11.625,0 c -4.104128,-2.87711 -6.244436,10.75024 -2.5958,9.6094 0.919361,-3.01783 1.130633,-7.56926 3.975591,-6.7666 0.898213,-1.46682 -0.140715,-3.37539 -1.379791,-2.8428 z m 5.21875,0 c -5.250242,-1.11397 -5.744214,12.90376 0.101576,9.92369 3.370077,-1.54868 4.464415,-9.89692 -0.101576,-9.92369 z m 14.6875,0 c -3.19755,-1.84667 -5.32664,6.76311 -1.37875,6.74941 -5.085493,-1.73932 -2.5914,6.21396 1.03356,3.03335 3.3819,-1.0511 1.20121,-5.76367 0.17362,-6.64756 2.78425,1.72552 2.99909,-4.25815 0.17157,-3.1352 z M 95,186.13022 c -4.054719,5.58858 2.329701,15.1733 5.33897,7.29074 1.05475,-2.89591 0.47782,-11.18803 -1.763399,-5.46322 0.316893,3.45489 -2.713017,6.93976 -1.910262,1.47336 0.676114,-1.93959 0.165096,-4.22319 -1.665309,-3.30088 z m -36.125,3.08824 c 3.333891,2.54315 -4.171321,4.69137 -0.654721,0.23209 L 58.875,189.21846 z m 31.4375,0 c 3.33389,2.54315 -4.171322,4.69137 -0.654721,0.23209 l 0.654721,-0.23209 z"
           id="path5654"
           inkscape:connector-curvature="0"
           style="opacity:0.36734697;fill:url(#radialGradient3300);fill-opacity:1" />
      </g>
      <path
         sodipodi:nodetypes="ccccc"
         inkscape:connector-curvature="0"
         id="path5656"
         d="m 10.613527,1028.3057 c -0.487946,-0.5874 -0.6970647,-0.6242 -0.6970647,-0.6242 l 0,7.6539 c 0,0 0.6970647,-0.2448 0.6970647,-0.8199 z"
         style="opacity:0.57613172;color:#000000;fill:url(#radialGradient3314);fill-opacity:1;fill-rule:nonzero;stroke:none;stroke-width:1;marker:none;visibility:visible;display:inline;overflow:visible;enable-background:accumulate" />
      <path
         sodipodi:nodetypes="cccc"
         inkscape:connector-curvature="0"
         id="path5658"
         d="m 8.8692065,1048.9011 c 0,0 -0.2966881,-0.6922 -0.6428237,-2.0768 L 5.21005,1031.1987 c -0.9889607,-4.9942 1.3470981,-7.9116 1.3470981,-7.9116"
         style="opacity:0.38775509;color:#000000;fill:none;stroke:#ffffff;stroke-width:0.5;stroke-miterlimit:4;stroke-opacity:1;stroke-dasharray:none;marker:none;visibility:visible;display:inline;overflow:visible;enable-background:accumulate" />
      <path
         sodipodi:nodetypes="sssszssss"
         inkscape:connector-curvature="0"
         id="path5660"
         d="m 11.78189,1049.8823 c 5.612578,0 8.173804,-3.6603 8.666892,-7.8043 0.349812,-2.9399 -0.918411,-5.8645 -0.944732,-8.8312 -0.01932,-2.1757 0.678709,-4.2164 0.410754,-6.4899 -0.296019,-2.5117 -2.325639,-5.8327 -8.379367,-5.8327 -6.0537262,0 -7.5052164,4.2701 -7.9275365,6.6953 -0.3455452,1.9842 0.2987457,4.3115 0.2875273,6.3256 -0.016036,2.8735 -1.8756964,7.1437 -0.8215065,9.817 1.4277848,3.6206 4.774628,6.1202 8.7079687,6.1202 z"
         style="color:#000000;fill:none;stroke:url(#linearGradient4225);stroke-width:1;stroke-linecap:round;stroke-linejoin:miter;stroke-miterlimit:4;stroke-opacity:1;stroke-dasharray:none;stroke-dashoffset:0;marker:none;visibility:visible;display:inline;overflow:visible;enable-background:accumulate" />
    </g>
    <rect
       style="color:#000000;fill:url(#linearGradient3451);fill-opacity:1;fill-rule:evenodd;stroke:#888a85;stroke-width:0.99999994;stroke-linecap:butt;stroke-linejoin:round;stroke-miterlimit:4;stroke-opacity:1;stroke-dasharray:none;stroke-dashoffset:0;marker:none;visibility:visible;display:inline;overflow:visible"
       id="rect4302"
       width="5"
       height="27"
       x="24.5"
       y="1022.8622"
       rx="0.52536201"
       ry="0.85783648" />
    <rect
       style="fill:url(#linearGradient4524-0);fill-opacity:1;stroke:none"
       id="rect4516"
       width="4"
       height="26"
       x="25"
       y="1023.3622" />
    <rect
       ry="0.24061894"
       rx="0.10603403"
       y="1023.8104"
       x="25.5"
       height="25"
       width="3.0000002"
       id="rect4312"
       style="opacity:0.78021982;color:#000000;fill:none;stroke:#ffffff;stroke-width:0.99999958;stroke-linecap:butt;stroke-linejoin:round;stroke-miterlimit:4;stroke-opacity:1;stroke-dasharray:none;stroke-dashoffset:0;marker:none;visibility:visible;display:inline;overflow:visible" />
  </g>
</svg>
