<?xml version="1.0" encoding="UTF-8" standalone="no"?>
<!-- Created with Inkscape (http://www.inkscape.org/) -->

<svg
   xmlns:dc="http://purl.org/dc/elements/1.1/"
   xmlns:cc="http://creativecommons.org/ns#"
   xmlns:rdf="http://www.w3.org/1999/02/22-rdf-syntax-ns#"
   xmlns:svg="http://www.w3.org/2000/svg"
   xmlns="http://www.w3.org/2000/svg"
   xmlns:xlink="http://www.w3.org/1999/xlink"
   xmlns:inkscape="http://www.inkscape.org/namespaces/inkscape"
   version="1.0"
   width="48"
   height="48"
   id="svg1328">
  <metadata
     id="metadata192">
    <rdf:RDF>
      <cc:Work
         rdf:about="">
        <dc:format>image/svg+xml</dc:format>
        <dc:type
           rdf:resource="http://purl.org/dc/dcmitype/StillImage" />
      </cc:Work>
    </rdf:RDF>
  </metadata>
  <defs
     id="defs3">
    <linearGradient
       id="linearGradient3356">
      <stop
         id="stop3358"
         style="stop-color:#ff4141;stop-opacity:1"
         offset="0" />
      <stop
         id="stop3360"
         style="stop-color:#ff9d9d;stop-opacity:1"
         offset="1" />
    </linearGradient>
    <linearGradient
       id="linearGradient3348">
      <stop
         id="stop3350"
         style="stop-color:#ff4949;stop-opacity:1"
         offset="0" />
      <stop
         id="stop3352"
         style="stop-color:#ffb1b1;stop-opacity:1"
         offset="1" />
    </linearGradient>
    <linearGradient
       id="linearGradient3338">
      <stop
         id="stop3340"
         style="stop-color:#cc0000;stop-opacity:1"
         offset="0" />
      <stop
         id="stop3346"
         style="stop-color:#ff5858;stop-opacity:1"
         offset="0.5" />
      <stop
         id="stop3342"
         style="stop-color:#cc0000;stop-opacity:1"
         offset="1" />
    </linearGradient>
    <linearGradient
       id="linearGradient3247">
      <stop
         id="stop3249"
         style="stop-color:#f0f0f0;stop-opacity:1"
         offset="0" />
      <stop
         id="stop3251"
         style="stop-color:#f0f0f0;stop-opacity:0"
         offset="1" />
    </linearGradient>
    <linearGradient
       id="linearGradient3233">
      <stop
         id="stop3235"
         style="stop-color:#eeeeec;stop-opacity:1"
         offset="0" />
      <stop
         id="stop3237"
         style="stop-color:#a3a398;stop-opacity:1"
         offset="1" />
    </linearGradient>
    <linearGradient
       id="linearGradient6924">
      <stop
         id="stop6926"
         style="stop-color:#ffffff;stop-opacity:1"
         offset="0" />
      <stop
         id="stop6928"
         style="stop-color:#ffffff;stop-opacity:0"
         offset="1" />
    </linearGradient>
    <linearGradient
       id="linearGradient4176">
      <stop
         id="stop4178"
         style="stop-color:#ffffff;stop-opacity:1"
         offset="0" />
      <stop
         id="stop4180"
         style="stop-color:#ffffff;stop-opacity:0"
         offset="1" />
    </linearGradient>
    <linearGradient
       id="linearGradient4134">
      <stop
         id="stop4136"
         style="stop-color:#d6d7d5;stop-opacity:1"
         offset="0" />
      <stop
         id="stop4148"
         style="stop-color:#d1d2d0;stop-opacity:1"
         offset="0.25" />
      <stop
         id="stop4142"
         style="stop-color:#a5a6a3;stop-opacity:1"
         offset="0.5" />
      <stop
         id="stop4138"
         style="stop-color:#dddedc;stop-opacity:1"
         offset="1" />
    </linearGradient>
    <linearGradient
       id="linearGradient4126">
      <stop
         id="stop4128"
         style="stop-color:#000000;stop-opacity:1"
         offset="0" />
      <stop
         id="stop4130"
         style="stop-color:#000000;stop-opacity:0"
         offset="1" />
    </linearGradient>
    <radialGradient
       cx="23.857143"
       cy="40"
       r="17.142857"
       fx="23.857143"
       fy="40"
       id="radialGradient4132"
       xlink:href="#linearGradient4126"
       gradientUnits="userSpaceOnUse"
       gradientTransform="matrix(1,0,0,0.5,0,20)" />
    <linearGradient
       x1="9.3030529"
       y1="26.71875"
       x2="38.826412"
       y2="26.71875"
       id="linearGradient4140"
       xlink:href="#linearGradient4134"
       gradientUnits="userSpaceOnUse"
       gradientTransform="matrix(0.765647,0,0,0.779023,-3.920058,-1.051141)" />
    <linearGradient
       x1="17.160095"
       y1="14.004482"
       x2="37.969398"
       y2="56.575912"
       id="linearGradient4182"
       xlink:href="#linearGradient4176"
       gradientUnits="userSpaceOnUse"
       gradientTransform="matrix(0.747261,0,0,0.780131,-3.474617,-1.056018)" />
    <linearGradient
       x1="16.07143"
       y1="19.5"
       x2="15.785715"
       y2="30"
       id="linearGradient6930"
       xlink:href="#linearGradient6924"
       gradientUnits="userSpaceOnUse"
       gradientTransform="matrix(0.785824,0,0,0.785824,-4.426418,0.889128)" />
    <radialGradient
       cx="23.857143"
       cy="40"
       r="17.142857"
       fx="23.857143"
       fy="40"
       id="radialGradient6946"
       xlink:href="#linearGradient4126"
       gradientUnits="userSpaceOnUse"
       gradientTransform="matrix(1,0,0,0.5,0,20)" />
    <linearGradient
       x1="24"
       y1="17.245949"
       x2="23.433737"
       y2="8.0476589"
       id="linearGradient3239"
       xlink:href="#linearGradient3233"
       gradientUnits="userSpaceOnUse" />
    <linearGradient
       x1="24"
       y1="17.245949"
       x2="23.433737"
       y2="8.0476589"
       id="linearGradient3243"
       xlink:href="#linearGradient3233"
       gradientUnits="userSpaceOnUse" />
    <linearGradient
       x1="34.244171"
       y1="17.695425"
       x2="34.244171"
       y2="29.91827"
       id="linearGradient3253"
       xlink:href="#linearGradient3247"
       gradientUnits="userSpaceOnUse"
       gradientTransform="matrix(0.785824,0,0,0.785824,-4.234777,0.238816)" />
    <linearGradient
       x1="24"
       y1="17.245949"
       x2="23.433737"
       y2="8.0476589"
       id="linearGradient3255"
       xlink:href="#linearGradient3233"
       gradientUnits="userSpaceOnUse" />
    <linearGradient
       x1="11.003058"
       y1="33.489445"
       x2="30.452171"
       y2="33.489445"
       id="linearGradient3344"
       xlink:href="#linearGradient3338"
       gradientUnits="userSpaceOnUse"
       gradientTransform="matrix(0.75936,0,0,0.785824,-3.252188,0.238816)" />
    <linearGradient
       x1="24"
       y1="18.132908"
       x2="24"
       y2="8.0243998"
       id="linearGradient3354"
       xlink:href="#linearGradient3348"
       gradientUnits="userSpaceOnUse" />
    <linearGradient
       x1="24"
       y1="10.396756"
       x2="24"
       y2="20.118456"
       id="linearGradient3362"
       xlink:href="#linearGradient3356"
       gradientUnits="userSpaceOnUse" />
    <linearGradient
       id="linearGradient8216">
      <stop
         id="stop8218"
         style="stop-color:#888a85;stop-opacity:1"
         offset="0" />
      <stop
         id="stop8220"
         style="stop-color:#babdb6;stop-opacity:1"
         offset="1" />
    </linearGradient>
    <linearGradient
       id="linearGradient8046">
      <stop
         id="stop8048"
         style="stop-color:#ffffff;stop-opacity:1"
         offset="0" />
      <stop
         id="stop8050"
         style="stop-color:#888a85;stop-opacity:1"
         offset="1" />
    </linearGradient>
    <linearGradient
       id="linearGradient7088">
      <stop
         id="stop7090"
         style="stop-color:#ffffff;stop-opacity:1"
         offset="0" />
      <stop
         id="stop7092"
         style="stop-color:#ffffff;stop-opacity:0"
         offset="1" />
    </linearGradient>
    <linearGradient
       id="linearGradient7972">
      <stop
         id="stop7974"
         style="stop-color:#ffffff;stop-opacity:1"
         offset="0" />
      <stop
         id="stop7976"
         style="stop-color:#eeeeec;stop-opacity:1"
         offset="1" />
    </linearGradient>
    <linearGradient
       id="linearGradient7917">
      <stop
         id="stop7919"
         style="stop-color:#ffffff;stop-opacity:1"
         offset="0" />
      <stop
         id="stop7921"
         style="stop-color:#ffffff;stop-opacity:0"
         offset="1" />
    </linearGradient>
    <linearGradient
       id="linearGradient8236">
      <stop
         id="stop8238"
         style="stop-color:#000000;stop-opacity:1"
         offset="0" />
      <stop
         id="stop8240"
         style="stop-color:#000000;stop-opacity:0"
         offset="1" />
    </linearGradient>
    <linearGradient
       x1="21.8125"
       y1="7.6875"
       x2="26.5"
       y2="19.9375"
       id="linearGradient7094"
       xlink:href="#linearGradient7088"
       gradientUnits="userSpaceOnUse" />
    <linearGradient
       x1="64.5625"
       y1="42.625"
       x2="64.5"
       y2="41"
       id="linearGradient6122"
       xlink:href="#linearGradient8012"
       gradientUnits="userSpaceOnUse"
       gradientTransform="matrix(1,0,0,-1,-38,50.058522)" />
    <linearGradient
       x1="64.5625"
       y1="42.625"
       x2="64.5"
       y2="41"
       id="linearGradient6118"
       xlink:href="#linearGradient8000"
       gradientUnits="userSpaceOnUse"
       gradientTransform="matrix(1,0,0,-1,-40,50.058522)" />
    <linearGradient
       x1="64.5625"
       y1="42.625"
       x2="64.5"
       y2="41"
       id="linearGradient6116"
       xlink:href="#linearGradient8012"
       gradientUnits="userSpaceOnUse"
       gradientTransform="matrix(1,0,0,-1,-40,50.058522)" />
    <linearGradient
       x1="24.375"
       y1="25.375"
       x2="28.087311"
       y2="52.811184"
       id="linearGradient7532"
       xlink:href="#linearGradient7526"
       gradientUnits="userSpaceOnUse" />
    <linearGradient
       x1="27.53125"
       y1="32.21875"
       x2="23.749973"
       y2="22.53125"
       id="linearGradient7511"
       xlink:href="#linearGradient8357"
       gradientUnits="userSpaceOnUse" />
    <linearGradient
       x1="43.5"
       y1="30.5"
       x2="44.0625"
       y2="32.313343"
       id="linearGradient7491"
       xlink:href="#linearGradient7215"
       gradientUnits="userSpaceOnUse"
       gradientTransform="translate(-20,0)" />
    <linearGradient
       x1="43.53125"
       y1="33.46875"
       x2="44"
       y2="35.4375"
       id="linearGradient7488"
       xlink:href="#linearGradient7223"
       gradientUnits="userSpaceOnUse"
       gradientTransform="translate(-20,0)" />
    <linearGradient
       x1="43.480392"
       y1="36.505032"
       x2="43.988625"
       y2="38.4375"
       id="linearGradient7485"
       xlink:href="#linearGradient7231"
       gradientUnits="userSpaceOnUse"
       gradientTransform="translate(-20,0)" />
    <linearGradient
       x1="38.491497"
       y1="24.541054"
       x2="38.947304"
       y2="26.4375"
       id="linearGradient7482"
       xlink:href="#linearGradient7199"
       gradientUnits="userSpaceOnUse"
       gradientTransform="translate(-20,0)" />
    <linearGradient
       x1="43.493069"
       y1="24.486135"
       x2="44"
       y2="26.4375"
       id="linearGradient7479"
       xlink:href="#linearGradient7199"
       gradientUnits="userSpaceOnUse"
       gradientTransform="translate(-20,0)" />
    <linearGradient
       x1="48.478554"
       y1="24.508232"
       x2="48.976982"
       y2="26.4375"
       id="linearGradient7476"
       xlink:href="#linearGradient7199"
       gradientUnits="userSpaceOnUse"
       gradientTransform="translate(-20,0)" />
    <linearGradient
       x1="38.491497"
       y1="24.541054"
       x2="38.947304"
       y2="26.4375"
       id="linearGradient7473"
       xlink:href="#linearGradient7199"
       gradientUnits="userSpaceOnUse"
       gradientTransform="translate(-20,3)" />
    <linearGradient
       x1="43.493069"
       y1="24.486135"
       x2="44"
       y2="26.4375"
       id="linearGradient7470"
       xlink:href="#linearGradient7199"
       gradientUnits="userSpaceOnUse"
       gradientTransform="translate(-20,3)" />
    <linearGradient
       x1="48.478554"
       y1="24.508232"
       x2="48.976982"
       y2="26.4375"
       id="linearGradient7467"
       xlink:href="#linearGradient7199"
       gradientUnits="userSpaceOnUse"
       gradientTransform="translate(-20,3)" />
    <linearGradient
       x1="38.5"
       y1="30.5"
       x2="39"
       y2="32.500843"
       id="linearGradient7464"
       xlink:href="#linearGradient7215"
       gradientUnits="userSpaceOnUse"
       gradientTransform="translate(-20,0)" />
    <linearGradient
       x1="48.5"
       y1="30.46875"
       x2="49"
       y2="32.4375"
       id="linearGradient7461"
       xlink:href="#linearGradient7215"
       gradientUnits="userSpaceOnUse"
       gradientTransform="translate(-20,0)" />
    <linearGradient
       x1="48.53125"
       y1="33.46875"
       x2="49"
       y2="35.4375"
       id="linearGradient7458"
       xlink:href="#linearGradient7223"
       gradientUnits="userSpaceOnUse"
       gradientTransform="translate(-20,0)" />
    <linearGradient
       x1="38.5"
       y1="33.5625"
       x2="39.0625"
       y2="35.497356"
       id="linearGradient7455"
       xlink:href="#linearGradient7223"
       gradientUnits="userSpaceOnUse"
       gradientTransform="translate(-20,0)" />
    <linearGradient
       x1="39.502918"
       y1="36.460838"
       x2="40.01115"
       y2="38.440475"
       id="linearGradient7452"
       xlink:href="#linearGradient7231"
       gradientUnits="userSpaceOnUse"
       gradientTransform="translate(-20,0)" />
    <linearGradient
       x1="48.496433"
       y1="36.460838"
       x2="48.982567"
       y2="38.4375"
       id="linearGradient7449"
       xlink:href="#linearGradient7231"
       gradientUnits="userSpaceOnUse"
       gradientTransform="translate(-20,0)" />
    <linearGradient
       x1="26.499495"
       y1="21.108738"
       x2="29.249495"
       y2="44.788391"
       id="linearGradient7287"
       xlink:href="#linearGradient7281"
       gradientUnits="userSpaceOnUse" />
    <linearGradient
       x1="23.334524"
       y1="12.556273"
       x2="23.334524"
       y2="28.203257"
       id="linearGradient8242"
       xlink:href="#linearGradient8236"
       gradientUnits="userSpaceOnUse"
       gradientTransform="translate(0,-1)" />
    <radialGradient
       cx="27.9375"
       cy="38.0625"
       r="12.0625"
       fx="27.9375"
       fy="38.0625"
       id="radialGradient8234"
       xlink:href="#linearGradient8228"
       gradientUnits="userSpaceOnUse"
       gradientTransform="matrix(1,0,0,0.8134715,0,7.0997409)" />
    <linearGradient
       x1="71.739273"
       y1="2.2823277"
       x2="71.739273"
       y2="5.5714717"
       id="linearGradient8222"
       xlink:href="#linearGradient8216"
       gradientUnits="userSpaceOnUse"
       gradientTransform="translate(-40,0)" />
    <radialGradient
       cx="64.5"
       cy="29.797501"
       r="10.5"
       fx="64.5"
       fy="29.797501"
       id="radialGradient8054"
       xlink:href="#linearGradient8046"
       gradientUnits="userSpaceOnUse"
       gradientTransform="matrix(1.328134,0,0,7.0060184,-61.16464,-173.01183)" />
    <linearGradient
       x1="64.5625"
       y1="42.625"
       x2="64.5"
       y2="41"
       id="linearGradient8010"
       xlink:href="#linearGradient8012"
       gradientUnits="userSpaceOnUse"
       gradientTransform="matrix(1,0,0,-1,-39,83.058522)" />
    <linearGradient
       x1="64.5625"
       y1="42.625"
       x2="64.5"
       y2="41"
       id="linearGradient8006"
       xlink:href="#linearGradient8000"
       gradientUnits="userSpaceOnUse"
       gradientTransform="matrix(1,0,0,-1,-39,83.058522)" />
    <linearGradient
       x1="64.375"
       y1="9.3125"
       x2="64.375"
       y2="23.438053"
       id="linearGradient7998"
       xlink:href="#linearGradient7992"
       gradientUnits="userSpaceOnUse"
       gradientTransform="translate(-89,-1)" />
    <linearGradient
       x1="65.4375"
       y1="19.690521"
       x2="65.4375"
       y2="10.6875"
       id="linearGradient7978"
       xlink:href="#linearGradient7972"
       gradientUnits="userSpaceOnUse"
       gradientTransform="translate(-40,-1)" />
    <linearGradient
       x1="59.510406"
       y1="8.375"
       x2="87.042259"
       y2="92.265244"
       id="linearGradient7923"
       xlink:href="#linearGradient7917"
       gradientUnits="userSpaceOnUse"
       gradientTransform="translate(-40,0)" />
    <linearGradient
       id="linearGradient7992">
      <stop
         id="stop7994"
         style="stop-color:#ffffff;stop-opacity:1"
         offset="0" />
      <stop
         id="stop7996"
         style="stop-color:#d3d7cf;stop-opacity:0"
         offset="1" />
    </linearGradient>
    <linearGradient
       id="linearGradient8000">
      <stop
         id="stop8002"
         style="stop-color:#2e3436;stop-opacity:1"
         offset="0" />
      <stop
         id="stop8004"
         style="stop-color:#888a85;stop-opacity:1"
         offset="1" />
    </linearGradient>
    <linearGradient
       id="linearGradient8012">
      <stop
         id="stop8014"
         style="stop-color:#2e3436;stop-opacity:1"
         offset="0" />
      <stop
         id="stop8016"
         style="stop-color:#888a85;stop-opacity:1"
         offset="1" />
    </linearGradient>
    <linearGradient
       id="linearGradient8228">
      <stop
         id="stop8230"
         style="stop-color:#000000;stop-opacity:1"
         offset="0" />
      <stop
         id="stop8232"
         style="stop-color:#000000;stop-opacity:0"
         offset="1" />
    </linearGradient>
    <linearGradient
       id="linearGradient8357">
      <stop
         id="stop8359"
         style="stop-color:#ffffff;stop-opacity:1"
         offset="0" />
      <stop
         id="stop8361"
         style="stop-color:#888a85;stop-opacity:1"
         offset="1" />
    </linearGradient>
    <linearGradient
       id="linearGradient7199">
      <stop
         id="stop7201"
         style="stop-color:#ffffff;stop-opacity:1"
         offset="0" />
      <stop
         id="stop7203"
         style="stop-color:#ffffff;stop-opacity:0"
         offset="1" />
    </linearGradient>
    <linearGradient
       id="linearGradient7215">
      <stop
         id="stop7217"
         style="stop-color:#ffffff;stop-opacity:1"
         offset="0" />
      <stop
         id="stop7219"
         style="stop-color:#ffffff;stop-opacity:0"
         offset="1" />
    </linearGradient>
    <linearGradient
       id="linearGradient7223">
      <stop
         id="stop7225"
         style="stop-color:#ffffff;stop-opacity:1"
         offset="0" />
      <stop
         id="stop7227"
         style="stop-color:#ffffff;stop-opacity:0"
         offset="1" />
    </linearGradient>
    <linearGradient
       id="linearGradient7231">
      <stop
         id="stop7233"
         style="stop-color:#ffffff;stop-opacity:1"
         offset="0" />
      <stop
         id="stop7235"
         style="stop-color:#ffffff;stop-opacity:0"
         offset="1" />
    </linearGradient>
    <linearGradient
       id="linearGradient7281">
      <stop
         id="stop7283"
         style="stop-color:#2e3436;stop-opacity:1"
         offset="0" />
      <stop
         id="stop7285"
         style="stop-color:#888a85;stop-opacity:1"
         offset="1" />
    </linearGradient>
    <linearGradient
       id="linearGradient7526">
      <stop
         id="stop7528"
         style="stop-color:#888a85;stop-opacity:1"
         offset="0" />
      <stop
         id="stop7530"
         style="stop-color:#d3d7cf;stop-opacity:0.49803922"
         offset="1" />
    </linearGradient>
  </defs>
  <g
     id="layer1">
    <path
       d="M 41,40 A 17.142857,8.5714283 0 1 1 6.7142868,40 17.142857,8.5714283 0 1 1 41,40 z"
       inkscape:connector-curvature="0"
       transform="matrix(0.831993,0,0,0.904687,-5.111713,-7.837026)"
       id="path3366"
       style="color:#000000;fill:url(#radialGradient4132);fill-opacity:1;fill-rule:nonzero;stroke:none;stroke-width:1;marker:none;visibility:visible;display:block;overflow:visible" />
    <path
       d="m 14.407615,5.8870363 c -6.0175459,0 -10.9104679,2.1832141 -10.9104687,4.8688977 0,0.192719 0,17.81421 0,18.014918 0,2.685684 4.8929218,4.868897 10.9104687,4.868897 6.017547,0 11.1053,-2.183214 11.105298,-4.868897 0,-0.158969 0,-17.85595 0,-18.014918 0,-2.6856844 -5.087751,-4.8688977 -11.105298,-4.8688977 z"
       inkscape:connector-curvature="0"
       id="path3068"
       style="color:#000000;fill:url(#linearGradient4140);fill-opacity:1;fill-rule:nonzero;stroke:#767973;stroke-width:1.0000006;stroke-linecap:butt;stroke-linejoin:miter;stroke-miterlimit:10;stroke-opacity:1;stroke-dasharray:none;stroke-dashoffset:0;marker:none;visibility:visible;display:block;overflow:visible" />
    <path
       d="m 14.419394,6.5000002 c -5.47575,0 -9.9281329,2.0384209 -9.9281336,4.5459858 0,0.179938 0,17.074005 0,17.261401 0,2.507567 4.4523826,4.545986 9.9281336,4.545986 5.47575,0 10.105422,-2.03842 10.10542,-4.545986 0,-0.148424 0,-17.112974 0,-17.261401 0,-2.5075657 -4.62967,-4.5459858 -10.10542,-4.5459858 z"
       inkscape:connector-curvature="0"
       id="path4174"
       style="opacity:0.5443038;color:#000000;fill:none;stroke:url(#linearGradient4182);stroke-width:1.00000036;stroke-linecap:butt;stroke-linejoin:miter;stroke-miterlimit:10;stroke-opacity:1;stroke-dasharray:none;stroke-dashoffset:0;marker:none;visibility:visible;display:block;overflow:visible" />
    <path
       d="m 36.857142,14.071428 a 12.857142,5.5 0 1 1 -25.714284,0 12.857142,5.5 0 1 1 25.714284,0 z"
       inkscape:connector-curvature="0"
       transform="matrix(0.792664,0,0,0.759881,-4.701535,-0.01552877)"
       id="path3364"
       style="opacity:0.467033;color:#000000;fill:#f0f0f0;fill-opacity:1;fill-rule:nonzero;stroke:url(#linearGradient3239);stroke-width:1.28849459;stroke-linecap:butt;stroke-linejoin:miter;stroke-miterlimit:10;stroke-opacity:1;stroke-dasharray:none;stroke-dashoffset:0;marker:none;visibility:visible;display:block;overflow:visible" />
    <path
       d="M 41,40 A 17.142857,8.5714283 0 1 1 6.7142868,40 17.142857,8.5714283 0 1 1 41,40 z"
       inkscape:connector-curvature="0"
       transform="matrix(0.285592,0,0,0.285592,7.630674,-3.417084)"
       id="path6944"
       style="opacity:0.30769234;color:#000000;fill:url(#radialGradient6946);fill-opacity:1;fill-rule:nonzero;stroke:none;stroke-width:1;marker:none;visibility:visible;display:block;overflow:visible" />
    <path
       d="m 14.695397,4.7062278 c -1.573844,0 -3.639374,0.5611986 -3.639374,1.2515575 0,0.049538 0,2.0148567 0,2.0664492 0,0.6903589 2.06553,1.2515575 3.639374,1.2515575 1.573844,0 3.465811,-0.5611986 3.46581,-1.2515575 0,-0.040863 0,-2.0255863 0,-2.0664492 0,-0.6903597 -1.891966,-1.2515575 -3.46581,-1.2515575 z"
       inkscape:connector-curvature="0"
       id="path3362"
       style="color:#000000;fill:#9d9e9b;fill-opacity:1;fill-rule:nonzero;stroke:#7d7f7a;stroke-width:1;stroke-linecap:butt;stroke-linejoin:miter;stroke-miterlimit:10;stroke-opacity:1;stroke-dasharray:none;stroke-dashoffset:0;marker:none;visibility:visible;display:block;overflow:visible" />
    <path
       d="m 36.857142,14.071428 a 12.857142,5.5 0 1 1 -25.714284,0 12.857142,5.5 0 1 1 25.714284,0 z"
       inkscape:connector-curvature="0"
       transform="matrix(0.213728,0,0,0.150961,9.493084,4.052715)"
       id="path6940"
       style="color:#000000;fill:#d3d7cf;fill-opacity:1;fill-rule:nonzero;stroke:url(#linearGradient3255);stroke-width:5.5671978;stroke-linecap:butt;stroke-linejoin:miter;stroke-miterlimit:10;stroke-opacity:1;stroke-dasharray:none;stroke-dashoffset:0;marker:none;visibility:visible;display:block;overflow:visible" />
    <path
       d="m 36.857142,14.071428 a 12.857142,5.5 0 1 1 -25.714284,0 12.857142,5.5 0 1 1 25.714284,0 z"
       inkscape:connector-curvature="0"
       transform="matrix(0.815128,0,0,0.76334,-4.779312,18.01318)"
       id="path3241"
       style="opacity:0.23626374;color:#000000;fill:#d3d7cf;fill-opacity:1;fill-rule:nonzero;stroke:url(#linearGradient3243);stroke-width:1.2677331;stroke-linecap:butt;stroke-linejoin:miter;stroke-miterlimit:10;stroke-opacity:1;stroke-dasharray:none;stroke-dashoffset:0;marker:none;visibility:visible;display:block;overflow:visible" />
    <path
       d="M 23.945195,9.421181 C 23.073626,8.6470578 22.336664,8.4113672 21.56379,8.0320273 l 0.23814,14.6853387 2.143265,2.540166 0,-15.836351 z"
       inkscape:connector-curvature="0"
       id="path3245"
       style="opacity:0.68681317;color:#000000;fill:url(#linearGradient3253);fill-opacity:1;fill-rule:nonzero;stroke:none;stroke-width:0.99999946;marker:none;visibility:visible;display:block;overflow:visible" />
    <path
       d="m 14.492542,22.651496 c -5.0148966,0.105871 -9.0112075,1.838779 -9.0112075,3.95129 0,0.250435 0,1.230114 0,1.478845 0,2.180656 4.236877,3.951288 9.4784555,3.95129 5.241579,0 9.500704,-1.770634 9.500705,-3.95129 0,-0.248731 0,-1.22841 0,-1.478845 0,-2.180657 -4.259126,-3.95129 -9.500705,-3.95129 -0.163799,0 -0.305478,-0.0034 -0.467248,0 z"
       inkscape:connector-curvature="0"
       id="path3275"
       style="opacity:0.61538463;color:#000000;fill:url(#linearGradient3344);fill-opacity:1;fill-rule:nonzero;stroke:#a40000;stroke-width:0.99621546;stroke-linecap:butt;stroke-linejoin:miter;stroke-miterlimit:10;stroke-opacity:1;stroke-dasharray:none;stroke-dashoffset:0;marker:none;visibility:visible;display:block;overflow:visible" />
    <path
       d="m 36.857142,14.071428 a 12.857142,5.5 0 1 1 -25.714284,0 12.857142,5.5 0 1 1 25.714284,0 z"
       inkscape:connector-curvature="0"
       transform="matrix(0.738238,0,0,0.718266,-2.743118,16.5004)"
       id="path3277"
       style="color:#000000;fill:url(#linearGradient3354);fill-opacity:1;fill-rule:nonzero;stroke:url(#linearGradient3362);stroke-width:1.37328029;stroke-linecap:butt;stroke-linejoin:miter;stroke-miterlimit:10;stroke-opacity:1;stroke-dasharray:none;stroke-dashoffset:0;marker:none;visibility:visible;display:block;overflow:visible" />
    <path
       d="m 6.406727,14.304265 0.280651,13.190617 3.592338,1.010344 -0.11226,-13.134486 c 0,0 1.627777,0 4.265901,-0.168391 C 9.223378,15.336716 6.200856,13.892728 4.0492553,12.115184 5.162688,13.759266 6.406727,14.304265 6.406727,14.304265 z"
       inkscape:connector-curvature="0"
       id="path6922"
       style="color:#000000;fill:url(#linearGradient6930);fill-opacity:1;fill-rule:nonzero;stroke:none;stroke-width:1;marker:none;visibility:visible;display:block;overflow:visible" />
    <g
       transform="translate(-17.380203,-18.318217)"
       id="g4438" />
    <g
       transform="translate(8.782477,-49.072787)"
       id="g13531" />
    <g
       transform="translate(62.025297,-9.931407)"
       id="g3054" />
    <g
       transform="translate(106.0253,6.068589)"
       id="g13534" />
    <g
       transform="translate(36.612617,13.323163)"
       id="g3943" />
    <g
       transform="translate(10.553562,0.0735659)"
       id="g3676"
       style="display:inline">
      <rect
         width="2"
         height="9"
         rx="1"
         ry="1"
         x="30.5"
         y="0.5625"
         id="rect7962"
         style="fill:url(#linearGradient8222);fill-opacity:1;fill-rule:evenodd;stroke:#555753;stroke-width:0.99999994;stroke-linecap:round;stroke-linejoin:round;stroke-miterlimit:4;stroke-opacity:1;stroke-dasharray:none" />
      <path
         d="m 40,38.0625 a 12.0625,9.8125 0 1 1 -24.125,0 12.0625,9.8125 0 1 1 24.125,0 z"
         inkscape:connector-curvature="0"
         transform="matrix(1.0673575,0,0,0.4968153,-5.1943,23.214968)"
         id="path8226"
         style="opacity:0.4;fill:url(#radialGradient8234);fill-opacity:1;fill-rule:evenodd;stroke:none" />
      <path
         d="M 19.5625,5.5 C 16.753603,5.5 14.5,7.070666 14.5,9.03125 l 0,24.71875 c 0,5.958578 2.476602,10.75 5.5625,10.75 l 8.875,0 C 32.023397,44.5 34.5,39.708577 34.5,33.75 l 0,-24.71875 C 34.5,7.070666 32.246396,5.5 29.4375,5.5 l -9.875,0 z"
         inkscape:connector-curvature="0"
         id="path7885"
         style="fill:url(#radialGradient8054);fill-opacity:1;fill-rule:evenodd;stroke:#555753;stroke-width:1;stroke-linecap:round;stroke-linejoin:miter;stroke-miterlimit:4;stroke-opacity:1;stroke-dasharray:none" />
      <path
         d="M 19.5625,6 C 18.251247,6 17.065963,6.3684846 16.25,6.9375 15.434037,7.5065154 15,8.2425338 15,9.03125 L 15,33.75 c 0,2.910016 0.605563,5.525023 1.5625,7.375 0.956937,1.849977 2.215832,2.875 3.5,2.875 l 8.875,0 c 1.284168,0 2.543063,-1.025023 3.5,-2.875 C 33.394437,39.275023 34,36.660016 34,33.75 L 34,9.03125 C 34,8.2425339 33.565963,7.5065155 32.75,6.9375 31.934037,6.3684845 30.748752,6 29.4375,6 l -9.875,0 z"
         inkscape:connector-curvature="0"
         id="path7086"
         style="opacity:0.47761195;fill:url(#linearGradient7094);fill-opacity:1;fill-rule:evenodd;stroke:none" />
      <rect
         width="15.999991"
         height="13"
         rx="3.0661337"
         ry="3.0661337"
         x="-32.499992"
         y="9.5"
         transform="scale(-1,1)"
         id="rect7990"
         style="opacity:0.5970149;fill:none;stroke:url(#linearGradient7998);stroke-width:1;stroke-linecap:round;stroke-linejoin:miter;stroke-miterlimit:4;stroke-opacity:1;stroke-dasharray:none" />
      <rect
         width="14"
         height="11"
         rx="2.0388288"
         ry="2.0388288"
         x="17.5"
         y="10.5"
         id="rect7889"
         style="fill:url(#linearGradient7978);fill-opacity:1;fill-rule:evenodd;stroke:#888a85;stroke-width:0.99999994;stroke-linecap:round;stroke-linejoin:miter;stroke-miterlimit:4;stroke-opacity:1;stroke-dasharray:none" />
      <path
         d="M 19.5625,6.5 C 18.343394,6.5 17.249773,6.842685 16.53125,7.34375 15.812727,7.844815 15.5,8.431952 15.5,9.03125 l 0,24.71875 c 0,2.841524 0.590474,5.397929 1.5,7.15625 0.909526,1.758321 2.034198,2.59375 3.0625,2.59375 l 8.875,0 c 1.028302,0 2.152974,-0.835429 3.0625,-2.59375 0.909526,-1.758321 1.5,-4.314727 1.5,-7.15625 l 0,-24.71875 C 33.5,8.431952 33.187274,7.844815 32.46875,7.34375 31.750226,6.842685 30.656606,6.5 29.4375,6.5 l -9.875,0 z"
         inkscape:connector-curvature="0"
         id="path7896"
         style="opacity:0.86194033;fill:none;stroke:url(#linearGradient7923);stroke-width:1;stroke-linecap:round;stroke-linejoin:miter;stroke-miterlimit:4;stroke-opacity:1" />
      <path
         d="M 25.5,41.558522 25.5,40.5"
         inkscape:connector-curvature="0"
         id="path7900"
         style="fill:none;stroke:url(#linearGradient8010);stroke-width:1.00000012px;stroke-linecap:round;stroke-linejoin:miter;stroke-opacity:1" />
      <path
         d="m 23.5,41.558522 0,-1"
         inkscape:connector-curvature="0"
         id="path7905"
         style="fill:none;stroke:url(#linearGradient8006);stroke-width:1px;stroke-linecap:round;stroke-linejoin:miter;stroke-opacity:1" />
      <rect
         width="1"
         height="1"
         x="25"
         y="14"
         id="rect8057"
         style="fill:#3465a4;fill-opacity:1;fill-rule:evenodd;stroke:none" />
      <rect
         width="1"
         height="2"
         x="27"
         y="13"
         id="rect8059"
         style="fill:#3465a4;fill-opacity:1;fill-rule:evenodd;stroke:none" />
      <rect
         width="1"
         height="3"
         x="29"
         y="12"
         id="rect8061"
         style="fill:#3465a4;fill-opacity:1;fill-rule:evenodd;stroke:none" />
      <g
         transform="translate(-50,-1)"
         id="g8067">
        <rect
           width="1"
           height="1"
           x="69"
           y="15"
           id="rect8063"
           style="fill:#3465a4;fill-opacity:1;fill-rule:evenodd;stroke:none" />
        <rect
           width="1"
           height="1"
           x="69"
           y="13"
           id="rect8065"
           style="fill:#3465a4;fill-opacity:1;fill-rule:evenodd;stroke:none" />
      </g>
      <rect
         width="3.0000002"
         height="1"
         x="19"
         y="19"
         id="rect8074"
         style="fill:#3465a4;fill-opacity:1;fill-rule:evenodd;stroke:none" />
      <rect
         width="3.0000002"
         height="1"
         x="27"
         y="19"
         id="rect8076"
         style="fill:#3465a4;fill-opacity:1;fill-rule:evenodd;stroke:none" />
      <rect
         width="13"
         height="1"
         x="18"
         y="18"
         id="rect8078"
         style="opacity:0.39179107;fill:#729fcf;fill-opacity:1;fill-rule:evenodd;stroke:none" />
      <rect
         width="12"
         height="9"
         rx="1.0075788"
         ry="1.0075788"
         x="18.5"
         y="11.5"
         id="rect7980"
         style="opacity:0.09328356;fill:none;stroke:url(#linearGradient8242);stroke-width:0.99999994;stroke-linecap:round;stroke-linejoin:miter;stroke-miterlimit:4;stroke-opacity:1;stroke-dasharray:none" />
      <path
         d="m 71.953125,1.5937499 a 0.453125,0.421875 0 1 1 -0.90625,0 0.453125,0.421875 0 1 1 0.90625,0 z"
         inkscape:connector-curvature="0"
         transform="matrix(1.6551692,0,0,1.7962963,-87.0946,-1.105035)"
         id="path8224"
         style="fill:#eeeeec;fill-opacity:1;fill-rule:evenodd;stroke:none" />
      <path
         d="m 16.5,24.631663 0,3.055837 c 0,3.699177 0.399906,6.497467 1.09375,8.46875 0.346922,0.985642 0.755987,1.750468 1.3125,2.34375 0.556513,0.593282 1.302939,1 2.09375,1 l 7,0 c 0.785425,0 1.535575,-0.380226 2.09375,-0.96875 0.558175,-0.588524 0.965122,-1.392373 1.3125,-2.375 C 32.101007,34.190996 32.5,31.417446 32.5,27.6875 l 0,-3.055837 C 31.801719,23.004152 30.471547,23.5 28.96875,23.5 l -8.9375,0 c -1.85409,0 -2.556891,-0.438624 -3.53125,1.131663 z"
         inkscape:connector-curvature="0"
         id="path8355"
         style="fill:none;stroke:url(#linearGradient7511);stroke-width:0.99999994;stroke-linecap:round;stroke-linejoin:miter;stroke-miterlimit:4;stroke-opacity:1" />
      <path
         d="M 18.0625,24.5 C 17.750875,24.5 17.5,24.750875 17.5,25.0625 l 0,0.875 c 0,0.311625 0.250875,0.5625 0.5625,0.5625 l 2.875,0 c 0.311625,0 0.5625,-0.250875 0.5625,-0.5625 l 0,-0.875 C 21.5,24.750875 21.249125,24.5 20.9375,24.5 l -0.90625,0 -1.96875,0 z m 5,0 C 22.750875,24.5 22.5,24.750875 22.5,25.0625 l 0,0.875 c 0,0.311625 0.250875,0.5625 0.5625,0.5625 l 2.875,0 c 0.311625,0 0.5625,-0.250875 0.5625,-0.5625 l 0,-0.875 C 26.5,24.750875 26.249125,24.5 25.9375,24.5 l -2.875,0 z m 5,0 C 27.750875,24.5 27.5,24.750875 27.5,25.0625 l 0,0.875 c 0,0.311625 0.250875,0.5625 0.5625,0.5625 l 2.875,0 c 0.311625,0 0.5625,-0.250875 0.5625,-0.5625 l 0,-0.875 C 31.5,24.750875 31.249125,24.5 30.9375,24.5 l -1.96875,0 -0.90625,0 z m -10,3 c -0.289811,0 -0.530702,0.218965 -0.5625,0.5 -0.0024,0.02115 0,0.04069 0,0.0625 0.003,0.379919 0.01966,0.734852 0.03125,1.09375 0.08517,0.202025 0.297531,0.34375 0.53125,0.34375 l 2.875,0 c 0.311625,0 0.5625,-0.250875 0.5625,-0.5625 l 0,-0.875 C 21.5,27.750875 21.249125,27.5 20.9375,27.5 l -2.875,0 z m 5,0 C 22.750875,27.5 22.5,27.750875 22.5,28.0625 l 0,0.875 c 0,0.311625 0.250875,0.5625 0.5625,0.5625 l 2.875,0 c 0.311625,0 0.5625,-0.250875 0.5625,-0.5625 l 0,-0.875 C 26.5,27.750875 26.249125,27.5 25.9375,27.5 l -2.875,0 z m 5,0 C 27.750875,27.5 27.5,27.750875 27.5,28.0625 l 0,0.875 c 0,0.311625 0.250875,0.5625 0.5625,0.5625 l 2.875,0 c 0.233719,0 0.446084,-0.141725 0.53125,-0.34375 0.01159,-0.361339 0.02823,-0.710723 0.03125,-1.09375 1.72e-4,-0.02187 -1.44e-4,-0.04056 0,-0.0625 -0.0318,-0.281035 -0.272689,-0.5 -0.5625,-0.5 l -2.875,0 z m -10,3 c -0.179784,0 -0.334665,0.08826 -0.4375,0.21875 0.04378,0.602024 0.08702,1.187395 0.15625,1.71875 0.08225,0.04698 0.179373,0.0625 0.28125,0.0625 l 2.875,0 c 0.311625,0 0.5625,-0.250875 0.5625,-0.5625 l 0,-0.875 C 21.5,30.750875 21.249125,30.5 20.9375,30.5 l -2.875,0 z m 5,0 C 22.750875,30.5 22.5,30.750875 22.5,31.0625 l 0,0.875 c 0,0.311625 0.250875,0.5625 0.5625,0.5625 l 2.875,0 c 0.311625,0 0.5625,-0.250875 0.5625,-0.5625 l 0,-0.875 C 26.5,30.750875 26.249125,30.5 25.9375,30.5 l -2.875,0 z m 5,0 C 27.750875,30.5 27.5,30.750875 27.5,31.0625 l 0,0.875 c 0,0.311625 0.250875,0.5625 0.5625,0.5625 l 2.875,0 c 0.101877,0 0.199002,-0.01552 0.28125,-0.0625 0.06784,-0.526351 0.113185,-1.122038 0.15625,-1.71875 C 31.272165,30.588256 31.117284,30.5 30.9375,30.5 l -2.875,0 z m -10.09375,3 c 0.134459,0.748868 0.283222,1.421542 0.46875,2 l 2.5,0 c 0.311625,0 0.5625,-0.250875 0.5625,-0.5625 l 0,-0.875 C 21.5,33.750875 21.249125,33.5 20.9375,33.5 l -2.875,0 c -0.03272,0 -0.06259,-0.0053 -0.09375,0 z m 5.09375,0 C 22.750875,33.5 22.5,33.750875 22.5,34.0625 l 0,0.875 c 0,0.311625 0.250875,0.5625 0.5625,0.5625 l 2.875,0 c 0.311625,0 0.5625,-0.250875 0.5625,-0.5625 l 0,-0.875 C 26.5,33.750875 26.249125,33.5 25.9375,33.5 l -2.875,0 z m 5,0 C 27.750875,33.5 27.5,33.750875 27.5,34.0625 l 0,0.875 c 0,0.311625 0.250875,0.5625 0.5625,0.5625 l 2.5,0 c 0.183775,-0.574728 0.335469,-1.254667 0.46875,-2 -0.03116,-0.0053 -0.06103,0 -0.09375,0 l -2.875,0 z m -9.125,3 c -0.04719,0 -0.08168,0.01236 -0.125,0.03125 C 19.410622,37.842551 20.169694,38.5 21,38.5 l 0.0625,0 c 0.233719,0 0.4375,-0.250875 0.4375,-0.5625 l 0,-0.875 C 21.5,36.750875 21.296218,36.5 21.0625,36.5 l -2.125,0 z m 4.125,0 C 22.750875,36.5 22.5,36.750875 22.5,37.0625 l 0,0.875 c 0,0.311625 0.250875,0.5625 0.5625,0.5625 l 2.875,0 c 0.311625,0 0.5625,-0.250875 0.5625,-0.5625 l 0,-0.875 C 26.5,36.750875 26.249125,36.5 25.9375,36.5 l -2.875,0 z m 4.875,0 C 27.703781,36.5 27.5,36.750875 27.5,37.0625 l 0,0.875 c 0,0.311625 0.203782,0.5625 0.4375,0.5625 L 28,38.5 c 0.835261,0 1.587757,-0.649928 2.1875,-1.96875 C 30.144179,36.512357 30.109693,36.5 30.0625,36.5 l -2.125,0 z"
         inkscape:connector-curvature="0"
         id="path8246"
         style="fill:url(#linearGradient7532);fill-opacity:1;fill-rule:evenodd;stroke:url(#linearGradient7287);stroke-width:0.97000003;stroke-linecap:round;stroke-linejoin:round;stroke-miterlimit:4;stroke-opacity:1;stroke-dasharray:none" />
      <g
         id="g7493"
         style="opacity:0.85">
        <path
           d="M 26.5,31.0625 C 26.5,30.750875 26.249125,30.5 25.9375,30.5 l -2.875,0 C 22.750875,30.5 22.5,30.750875 22.5,31.0625 l 0,0.875"
           inkscape:connector-curvature="0"
           id="path7193"
           style="fill:none;stroke:url(#linearGradient7491);stroke-width:1;stroke-linecap:round;stroke-linejoin:round;stroke-miterlimit:4;stroke-opacity:1;stroke-dasharray:none" />
        <path
           d="M 26.5,34.0625 C 26.5,33.750875 26.249125,33.5 25.9375,33.5 l -2.875,0 C 22.750875,33.5 22.5,33.750875 22.5,34.0625 l 0,0.875"
           inkscape:connector-curvature="0"
           id="path7195"
           style="fill:none;stroke:url(#linearGradient7488);stroke-width:1;stroke-linecap:round;stroke-linejoin:round;stroke-miterlimit:4;stroke-opacity:1;stroke-dasharray:none" />
        <path
           d="M 26.5,37.0625 C 26.5,36.750875 26.249125,36.5 25.9375,36.5 l -2.875,0 C 22.750875,36.5 22.5,36.750875 22.5,37.0625 l 0,0.875"
           inkscape:connector-curvature="0"
           id="path7197"
           style="fill:none;stroke:url(#linearGradient7485);stroke-width:1;stroke-linecap:round;stroke-linejoin:round;stroke-miterlimit:4;stroke-opacity:1;stroke-dasharray:none" />
        <path
           d="M 21.5,25.0625 C 21.5,24.750875 21.249125,24.5 20.9375,24.5 l -0.90625,0 -1.96875,0 C 17.750875,24.5 17.5,24.750875 17.5,25.0625 l 0,0.875"
           inkscape:connector-curvature="0"
           id="path7191"
           style="fill:none;stroke:url(#linearGradient7482);stroke-width:1;stroke-linecap:round;stroke-linejoin:round;stroke-miterlimit:4;stroke-opacity:1;stroke-dasharray:none" />
        <path
           d="M 26.5,25.0625 C 26.5,24.750875 26.249125,24.5 25.9375,24.5 l -2.875,0 C 22.750875,24.5 22.5,24.750875 22.5,25.0625 l 0,0.875"
           inkscape:connector-curvature="0"
           id="path7311"
           style="fill:none;stroke:url(#linearGradient7479);stroke-width:1;stroke-linecap:round;stroke-linejoin:round;stroke-miterlimit:4;stroke-opacity:1;stroke-dasharray:none" />
        <path
           d="M 31.5,25.0625 C 31.5,24.750875 31.249125,24.5 30.9375,24.5 l -1.96875,0 -0.90625,0 C 27.750875,24.5 27.5,24.750875 27.5,25.0625 l 0,0.875"
           inkscape:connector-curvature="0"
           id="path7313"
           style="fill:none;stroke:url(#linearGradient7476);stroke-width:1;stroke-linecap:round;stroke-linejoin:round;stroke-miterlimit:4;stroke-opacity:1;stroke-dasharray:none" />
        <path
           d="M 21.5,28.0625 C 21.5,27.750875 21.249125,27.5 20.9375,27.5 l -0.90625,0 -1.96875,0 C 17.750875,27.5 17.5,27.750875 17.5,28.0625 l 0,0.875"
           inkscape:connector-curvature="0"
           id="path7341"
           style="fill:none;stroke:url(#linearGradient7473);stroke-width:1;stroke-linecap:round;stroke-linejoin:round;stroke-miterlimit:4;stroke-opacity:1;stroke-dasharray:none" />
        <path
           d="M 26.5,28.0625 C 26.5,27.750875 26.249125,27.5 25.9375,27.5 l -2.875,0 C 22.750875,27.5 22.5,27.750875 22.5,28.0625 l 0,0.875"
           inkscape:connector-curvature="0"
           id="path7343"
           style="fill:none;stroke:url(#linearGradient7470);stroke-width:1;stroke-linecap:round;stroke-linejoin:round;stroke-miterlimit:4;stroke-opacity:1;stroke-dasharray:none" />
        <path
           d="M 31.5,28.0625 C 31.5,27.750875 31.249125,27.5 30.9375,27.5 l -1.96875,0 -0.90625,0 C 27.750875,27.5 27.5,27.750875 27.5,28.0625 l 0,0.875"
           inkscape:connector-curvature="0"
           id="path7345"
           style="fill:none;stroke:url(#linearGradient7467);stroke-width:1;stroke-linecap:round;stroke-linejoin:round;stroke-miterlimit:4;stroke-opacity:1;stroke-dasharray:none" />
        <path
           d="M 21.5,31.0625 C 21.5,30.750875 21.249125,30.5 20.9375,30.5 l -2.875,0 c -0.179784,0 -0.334665,0.08826 -0.4375,0.21875 0.04378,0.602024 0.08702,1.187395 0.15625,1.71875"
           inkscape:connector-curvature="0"
           id="path7353"
           style="fill:none;stroke:url(#linearGradient7464);stroke-width:1;stroke-linecap:round;stroke-linejoin:round;stroke-miterlimit:4;stroke-opacity:1;stroke-dasharray:none" />
        <path
           d="M 31.375,30.71875 C 31.272165,30.588256 31.117284,30.5 30.9375,30.5 l -2.875,0 C 27.750875,30.5 27.5,30.750875 27.5,31.0625 l 0,0.875"
           inkscape:connector-curvature="0"
           id="path7355"
           style="fill:none;stroke:url(#linearGradient7461);stroke-width:1;stroke-linecap:round;stroke-linejoin:round;stroke-miterlimit:4;stroke-opacity:1;stroke-dasharray:none" />
        <path
           d="m 31.03125,33.5 c -0.03116,-0.0053 -0.06103,0 -0.09375,0 l -2.875,0 C 27.750875,33.5 27.5,33.750875 27.5,34.0625 l 0,0.875"
           inkscape:connector-curvature="0"
           id="path7361"
           style="fill:none;stroke:url(#linearGradient7458);stroke-width:1;stroke-linecap:round;stroke-linejoin:round;stroke-miterlimit:4;stroke-opacity:1;stroke-dasharray:none" />
        <path
           d="M 21.5,34.0625 C 21.5,33.750875 21.249125,33.5 20.9375,33.5 l -2.875,0 c -0.03272,0 -0.06259,-0.0053 -0.09375,0 0.134459,0.748868 0.283222,1.421542 0.46875,2"
           inkscape:connector-curvature="0"
           id="path7363"
           style="fill:none;stroke:url(#linearGradient7455);stroke-width:1;stroke-linecap:round;stroke-linejoin:round;stroke-miterlimit:4;stroke-opacity:1;stroke-dasharray:none" />
        <path
           d="M 21.5,37.0625 C 21.5,36.750875 21.296218,36.5 21.0625,36.5 l -2.125,0 c -0.04719,0 -0.08168,0.01236 -0.125,0.03125"
           inkscape:connector-curvature="0"
           id="path7369"
           style="fill:none;stroke:url(#linearGradient7452);stroke-width:1;stroke-linecap:round;stroke-linejoin:round;stroke-miterlimit:4;stroke-opacity:1;stroke-dasharray:none" />
        <path
           d="M 30.1875,36.53125 C 30.144179,36.512357 30.109693,36.5 30.0625,36.5 l -2.125,0 C 27.703781,36.5 27.5,36.750875 27.5,37.0625 l 0,0.875"
           inkscape:connector-curvature="0"
           id="path7371"
           style="fill:none;stroke:url(#linearGradient7449);stroke-width:1;stroke-linecap:round;stroke-linejoin:round;stroke-miterlimit:4;stroke-opacity:1;stroke-dasharray:none" />
      </g>
      <g
         transform="translate(0,1)"
         id="g7135"
         style="fill:#555753" />
      <path
         d="M 24.5,8.558522 24.5,7.5"
         inkscape:connector-curvature="0"
         id="path6112"
         style="fill:none;stroke:url(#linearGradient6116);stroke-width:1.00000012px;stroke-linecap:round;stroke-linejoin:miter;stroke-opacity:1" />
      <path
         d="m 22.5,8.558522 0,-1"
         inkscape:connector-curvature="0"
         id="path6114"
         style="fill:none;stroke:url(#linearGradient6118);stroke-width:1px;stroke-linecap:round;stroke-linejoin:miter;stroke-opacity:1" />
      <path
         d="M 26.5,8.558522 26.5,7.5"
         inkscape:connector-curvature="0"
         id="path6120"
         style="fill:none;stroke:url(#linearGradient6122);stroke-width:1.00000012px;stroke-linecap:round;stroke-linejoin:miter;stroke-opacity:1" />
    </g>
  </g>
  <g
     id="layer2" />
</svg>
