<?xml version="1.0" encoding="UTF-8" standalone="no"?>
<!-- Created with Inkscape (http://www.inkscape.org/) -->

<svg
   xmlns:dc="http://purl.org/dc/elements/1.1/"
   xmlns:cc="http://creativecommons.org/ns#"
   xmlns:rdf="http://www.w3.org/1999/02/22-rdf-syntax-ns#"
   xmlns:svg="http://www.w3.org/2000/svg"
   xmlns="http://www.w3.org/2000/svg"
   xmlns:xlink="http://www.w3.org/1999/xlink"
   xmlns:inkscape="http://www.inkscape.org/namespaces/inkscape"
   version="1.0"
   width="48"
   height="48"
   id="svg1328">
  <metadata
     id="metadata194">
    <rdf:RDF>
      <cc:Work
         rdf:about="">
        <dc:format>image/svg+xml</dc:format>
        <dc:type
           rdf:resource="http://purl.org/dc/dcmitype/StillImage" />
      </cc:Work>
    </rdf:RDF>
  </metadata>
  <defs
     id="defs3">
    <linearGradient
       id="linearGradient1535">
      <stop
         id="stop1537"
         style="stop-color:#f67800;stop-opacity:1"
         offset="0" />
      <stop
         id="stop1539"
         style="stop-color:#fcaf3e;stop-opacity:1"
         offset="1" />
    </linearGradient>
    <linearGradient
       id="linearGradient1523">
      <stop
         id="stop1525"
         style="stop-color:#ce5c00;stop-opacity:1"
         offset="0" />
      <stop
         id="stop1527"
         style="stop-color:#fcaf3e;stop-opacity:1"
         offset="1" />
    </linearGradient>
    <linearGradient
       id="linearGradient3338">
      <stop
         id="stop3340"
         style="stop-color:#c36000;stop-opacity:1"
         offset="0" />
      <stop
         id="stop3346"
         style="stop-color:#fcaf3e;stop-opacity:1"
         offset="0.5" />
      <stop
         id="stop3342"
         style="stop-color:#f57900;stop-opacity:1"
         offset="1" />
    </linearGradient>
    <linearGradient
       id="linearGradient3247">
      <stop
         id="stop3249"
         style="stop-color:#f0f0f0;stop-opacity:1"
         offset="0" />
      <stop
         id="stop3251"
         style="stop-color:#f0f0f0;stop-opacity:0"
         offset="1" />
    </linearGradient>
    <linearGradient
       id="linearGradient3233">
      <stop
         id="stop3235"
         style="stop-color:#eeeeec;stop-opacity:1"
         offset="0" />
      <stop
         id="stop3237"
         style="stop-color:#a3a398;stop-opacity:1"
         offset="1" />
    </linearGradient>
    <linearGradient
       id="linearGradient6924">
      <stop
         id="stop6926"
         style="stop-color:#ffffff;stop-opacity:1"
         offset="0" />
      <stop
         id="stop6928"
         style="stop-color:#ffffff;stop-opacity:0"
         offset="1" />
    </linearGradient>
    <linearGradient
       id="linearGradient4176">
      <stop
         id="stop4178"
         style="stop-color:#ffffff;stop-opacity:1"
         offset="0" />
      <stop
         id="stop4180"
         style="stop-color:#ffffff;stop-opacity:0"
         offset="1" />
    </linearGradient>
    <linearGradient
       id="linearGradient4134">
      <stop
         id="stop4136"
         style="stop-color:#d6d7d5;stop-opacity:1"
         offset="0" />
      <stop
         id="stop4148"
         style="stop-color:#d1d2d0;stop-opacity:1"
         offset="0.25" />
      <stop
         id="stop4142"
         style="stop-color:#a5a6a3;stop-opacity:1"
         offset="0.5" />
      <stop
         id="stop4138"
         style="stop-color:#dddedc;stop-opacity:1"
         offset="1" />
    </linearGradient>
    <linearGradient
       id="linearGradient4126">
      <stop
         id="stop4128"
         style="stop-color:#000000;stop-opacity:1"
         offset="0" />
      <stop
         id="stop4130"
         style="stop-color:#000000;stop-opacity:0"
         offset="1" />
    </linearGradient>
    <radialGradient
       cx="23.857143"
       cy="40"
       r="17.142857"
       fx="23.857143"
       fy="40"
       id="radialGradient13577"
       xlink:href="#linearGradient4126"
       gradientUnits="userSpaceOnUse"
       gradientTransform="matrix(1,0,0,0.5,0,20)" />
    <radialGradient
       cx="23.857143"
       cy="40"
       r="17.142857"
       fx="23.857143"
       fy="40"
       id="radialGradient13668"
       xlink:href="#linearGradient4126"
       gradientUnits="userSpaceOnUse"
       gradientTransform="matrix(1,0,0,0.5,0,20)" />
    <linearGradient
       x1="9.3030529"
       y1="26.71875"
       x2="38.826412"
       y2="26.71875"
       id="linearGradient13670"
       xlink:href="#linearGradient4134"
       gradientUnits="userSpaceOnUse"
       gradientTransform="matrix(1.010754,0,0,0.991346,-0.269358,-3.826541)" />
    <linearGradient
       x1="24"
       y1="17.245949"
       x2="23.433737"
       y2="8.0476589"
       id="linearGradient13672"
       xlink:href="#linearGradient3233"
       gradientUnits="userSpaceOnUse" />
    <linearGradient
       x1="17.160095"
       y1="14.004482"
       x2="37.969398"
       y2="56.575912"
       id="linearGradient13674"
       xlink:href="#linearGradient4176"
       gradientUnits="userSpaceOnUse"
       gradientTransform="matrix(1.010754,0,0,0.992756,-0.269358,-3.832747)" />
    <linearGradient
       x1="11.003058"
       y1="33.489445"
       x2="30.452171"
       y2="33.489445"
       id="linearGradient13676"
       xlink:href="#linearGradient3338"
       gradientUnits="userSpaceOnUse"
       gradientTransform="matrix(1.004593,0,0,1,-0.05892444,-2.082537)" />
    <linearGradient
       x1="24"
       y1="18.132908"
       x2="24"
       y2="8.0243998"
       id="linearGradient13678"
       xlink:href="#linearGradient1535"
       gradientUnits="userSpaceOnUse" />
    <linearGradient
       x1="24"
       y1="10.396756"
       x2="24"
       y2="20.118456"
       id="linearGradient13680"
       xlink:href="#linearGradient1523"
       gradientUnits="userSpaceOnUse" />
    <linearGradient
       x1="34.244171"
       y1="17.695425"
       x2="34.244171"
       y2="29.91827"
       id="linearGradient13682"
       xlink:href="#linearGradient3247"
       gradientUnits="userSpaceOnUse"
       gradientTransform="matrix(1.010754,0,0,1,-0.269359,-2.185007)" />
    <linearGradient
       x1="24"
       y1="17.245949"
       x2="23.433737"
       y2="8.0476589"
       id="linearGradient13684"
       xlink:href="#linearGradient3233"
       gradientUnits="userSpaceOnUse" />
    <radialGradient
       cx="23.857143"
       cy="40"
       r="17.142857"
       fx="23.857143"
       fy="40"
       id="radialGradient13686"
       xlink:href="#linearGradient4126"
       gradientUnits="userSpaceOnUse"
       gradientTransform="matrix(1,0,0,0.5,0,20)" />
    <linearGradient
       x1="16.07143"
       y1="19.5"
       x2="16.035715"
       y2="31.75"
       id="linearGradient13688"
       xlink:href="#linearGradient6924"
       gradientUnits="userSpaceOnUse"
       gradientTransform="matrix(1.010754,0,0,1,-0.269359,-1.327864)" />
    <linearGradient
       x1="24"
       y1="17.245949"
       x2="23.433737"
       y2="8.0476589"
       id="linearGradient13690"
       xlink:href="#linearGradient3233"
       gradientUnits="userSpaceOnUse" />
    <linearGradient
       id="linearGradient8236">
      <stop
         id="stop8238"
         style="stop-color:#000000;stop-opacity:1"
         offset="0" />
      <stop
         id="stop8240"
         style="stop-color:#000000;stop-opacity:0"
         offset="1" />
    </linearGradient>
    <linearGradient
       id="linearGradient7917">
      <stop
         id="stop7919"
         style="stop-color:#ffffff;stop-opacity:1"
         offset="0" />
      <stop
         id="stop7921"
         style="stop-color:#ffffff;stop-opacity:0"
         offset="1" />
    </linearGradient>
    <linearGradient
       id="linearGradient7972">
      <stop
         id="stop7974"
         style="stop-color:#ffffff;stop-opacity:1"
         offset="0" />
      <stop
         id="stop7976"
         style="stop-color:#eeeeec;stop-opacity:1"
         offset="1" />
    </linearGradient>
    <linearGradient
       id="linearGradient7088">
      <stop
         id="stop7090"
         style="stop-color:#ffffff;stop-opacity:1"
         offset="0" />
      <stop
         id="stop7092"
         style="stop-color:#ffffff;stop-opacity:0"
         offset="1" />
    </linearGradient>
    <linearGradient
       id="linearGradient8046">
      <stop
         id="stop8048"
         style="stop-color:#ffffff;stop-opacity:1"
         offset="0" />
      <stop
         id="stop8050"
         style="stop-color:#888a85;stop-opacity:1"
         offset="1" />
    </linearGradient>
    <linearGradient
       id="linearGradient8216">
      <stop
         id="stop8218"
         style="stop-color:#888a85;stop-opacity:1"
         offset="0" />
      <stop
         id="stop8220"
         style="stop-color:#babdb6;stop-opacity:1"
         offset="1" />
    </linearGradient>
    <linearGradient
       x1="21.8125"
       y1="7.6875"
       x2="26.5"
       y2="19.9375"
       id="linearGradient7094"
       xlink:href="#linearGradient7088"
       gradientUnits="userSpaceOnUse" />
    <linearGradient
       x1="64.5625"
       y1="42.625"
       x2="64.5"
       y2="41"
       id="linearGradient6122"
       xlink:href="#linearGradient8012"
       gradientUnits="userSpaceOnUse"
       gradientTransform="matrix(1,0,0,-1,-38,50.058522)" />
    <linearGradient
       x1="64.5625"
       y1="42.625"
       x2="64.5"
       y2="41"
       id="linearGradient6118"
       xlink:href="#linearGradient8000"
       gradientUnits="userSpaceOnUse"
       gradientTransform="matrix(1,0,0,-1,-40,50.058522)" />
    <linearGradient
       x1="64.5625"
       y1="42.625"
       x2="64.5"
       y2="41"
       id="linearGradient6116"
       xlink:href="#linearGradient8012"
       gradientUnits="userSpaceOnUse"
       gradientTransform="matrix(1,0,0,-1,-40,50.058522)" />
    <linearGradient
       x1="24.375"
       y1="25.375"
       x2="28.087311"
       y2="52.811184"
       id="linearGradient7532"
       xlink:href="#linearGradient7526"
       gradientUnits="userSpaceOnUse" />
    <linearGradient
       x1="27.53125"
       y1="32.21875"
       x2="23.749973"
       y2="22.53125"
       id="linearGradient7511"
       xlink:href="#linearGradient8357"
       gradientUnits="userSpaceOnUse" />
    <linearGradient
       x1="43.5"
       y1="30.5"
       x2="44.0625"
       y2="32.313343"
       id="linearGradient7491"
       xlink:href="#linearGradient7215"
       gradientUnits="userSpaceOnUse"
       gradientTransform="translate(-20,0)" />
    <linearGradient
       x1="43.53125"
       y1="33.46875"
       x2="44"
       y2="35.4375"
       id="linearGradient7488"
       xlink:href="#linearGradient7223"
       gradientUnits="userSpaceOnUse"
       gradientTransform="translate(-20,0)" />
    <linearGradient
       x1="43.480392"
       y1="36.505032"
       x2="43.988625"
       y2="38.4375"
       id="linearGradient7485"
       xlink:href="#linearGradient7231"
       gradientUnits="userSpaceOnUse"
       gradientTransform="translate(-20,0)" />
    <linearGradient
       x1="38.491497"
       y1="24.541054"
       x2="38.947304"
       y2="26.4375"
       id="linearGradient7482"
       xlink:href="#linearGradient7199"
       gradientUnits="userSpaceOnUse"
       gradientTransform="translate(-20,0)" />
    <linearGradient
       x1="43.493069"
       y1="24.486135"
       x2="44"
       y2="26.4375"
       id="linearGradient7479"
       xlink:href="#linearGradient7199"
       gradientUnits="userSpaceOnUse"
       gradientTransform="translate(-20,0)" />
    <linearGradient
       x1="48.478554"
       y1="24.508232"
       x2="48.976982"
       y2="26.4375"
       id="linearGradient7476"
       xlink:href="#linearGradient7199"
       gradientUnits="userSpaceOnUse"
       gradientTransform="translate(-20,0)" />
    <linearGradient
       x1="38.491497"
       y1="24.541054"
       x2="38.947304"
       y2="26.4375"
       id="linearGradient7473"
       xlink:href="#linearGradient7199"
       gradientUnits="userSpaceOnUse"
       gradientTransform="translate(-20,3)" />
    <linearGradient
       x1="43.493069"
       y1="24.486135"
       x2="44"
       y2="26.4375"
       id="linearGradient7470"
       xlink:href="#linearGradient7199"
       gradientUnits="userSpaceOnUse"
       gradientTransform="translate(-20,3)" />
    <linearGradient
       x1="48.478554"
       y1="24.508232"
       x2="48.976982"
       y2="26.4375"
       id="linearGradient7467"
       xlink:href="#linearGradient7199"
       gradientUnits="userSpaceOnUse"
       gradientTransform="translate(-20,3)" />
    <linearGradient
       x1="38.5"
       y1="30.5"
       x2="39"
       y2="32.500843"
       id="linearGradient7464"
       xlink:href="#linearGradient7215"
       gradientUnits="userSpaceOnUse"
       gradientTransform="translate(-20,0)" />
    <linearGradient
       x1="48.5"
       y1="30.46875"
       x2="49"
       y2="32.4375"
       id="linearGradient7461"
       xlink:href="#linearGradient7215"
       gradientUnits="userSpaceOnUse"
       gradientTransform="translate(-20,0)" />
    <linearGradient
       x1="48.53125"
       y1="33.46875"
       x2="49"
       y2="35.4375"
       id="linearGradient7458"
       xlink:href="#linearGradient7223"
       gradientUnits="userSpaceOnUse"
       gradientTransform="translate(-20,0)" />
    <linearGradient
       x1="38.5"
       y1="33.5625"
       x2="39.0625"
       y2="35.497356"
       id="linearGradient7455"
       xlink:href="#linearGradient7223"
       gradientUnits="userSpaceOnUse"
       gradientTransform="translate(-20,0)" />
    <linearGradient
       x1="39.502918"
       y1="36.460838"
       x2="40.01115"
       y2="38.440475"
       id="linearGradient7452"
       xlink:href="#linearGradient7231"
       gradientUnits="userSpaceOnUse"
       gradientTransform="translate(-20,0)" />
    <linearGradient
       x1="48.496433"
       y1="36.460838"
       x2="48.982567"
       y2="38.4375"
       id="linearGradient7449"
       xlink:href="#linearGradient7231"
       gradientUnits="userSpaceOnUse"
       gradientTransform="translate(-20,0)" />
    <linearGradient
       x1="26.499495"
       y1="21.108738"
       x2="29.249495"
       y2="44.788391"
       id="linearGradient7287"
       xlink:href="#linearGradient7281"
       gradientUnits="userSpaceOnUse" />
    <linearGradient
       x1="23.334524"
       y1="12.556273"
       x2="23.334524"
       y2="28.203257"
       id="linearGradient8242"
       xlink:href="#linearGradient8236"
       gradientUnits="userSpaceOnUse"
       gradientTransform="translate(0,-1)" />
    <radialGradient
       cx="27.9375"
       cy="38.0625"
       r="12.0625"
       fx="27.9375"
       fy="38.0625"
       id="radialGradient8234"
       xlink:href="#linearGradient8228"
       gradientUnits="userSpaceOnUse"
       gradientTransform="matrix(1,0,0,0.8134715,0,7.0997409)" />
    <linearGradient
       x1="71.739273"
       y1="2.2823277"
       x2="71.739273"
       y2="5.5714717"
       id="linearGradient8222"
       xlink:href="#linearGradient8216"
       gradientUnits="userSpaceOnUse"
       gradientTransform="translate(-40,0)" />
    <radialGradient
       cx="64.5"
       cy="29.797501"
       r="10.5"
       fx="64.5"
       fy="29.797501"
       id="radialGradient8054"
       xlink:href="#linearGradient8046"
       gradientUnits="userSpaceOnUse"
       gradientTransform="matrix(1.328134,0,0,7.0060184,-61.16464,-173.01183)" />
    <linearGradient
       x1="64.5625"
       y1="42.625"
       x2="64.5"
       y2="41"
       id="linearGradient8010"
       xlink:href="#linearGradient8012"
       gradientUnits="userSpaceOnUse"
       gradientTransform="matrix(1,0,0,-1,-39,83.058522)" />
    <linearGradient
       x1="64.5625"
       y1="42.625"
       x2="64.5"
       y2="41"
       id="linearGradient8006"
       xlink:href="#linearGradient8000"
       gradientUnits="userSpaceOnUse"
       gradientTransform="matrix(1,0,0,-1,-39,83.058522)" />
    <linearGradient
       x1="64.375"
       y1="9.3125"
       x2="64.375"
       y2="23.438053"
       id="linearGradient7998"
       xlink:href="#linearGradient7992"
       gradientUnits="userSpaceOnUse"
       gradientTransform="translate(-89,-1)" />
    <linearGradient
       x1="65.4375"
       y1="19.690521"
       x2="65.4375"
       y2="10.6875"
       id="linearGradient7978"
       xlink:href="#linearGradient7972"
       gradientUnits="userSpaceOnUse"
       gradientTransform="translate(-40,-1)" />
    <linearGradient
       x1="59.510406"
       y1="8.375"
       x2="87.042259"
       y2="92.265244"
       id="linearGradient7923"
       xlink:href="#linearGradient7917"
       gradientUnits="userSpaceOnUse"
       gradientTransform="translate(-40,0)" />
    <linearGradient
       id="linearGradient7992">
      <stop
         id="stop7994"
         style="stop-color:#ffffff;stop-opacity:1"
         offset="0" />
      <stop
         id="stop7996"
         style="stop-color:#d3d7cf;stop-opacity:0"
         offset="1" />
    </linearGradient>
    <linearGradient
       id="linearGradient8000">
      <stop
         id="stop8002"
         style="stop-color:#2e3436;stop-opacity:1"
         offset="0" />
      <stop
         id="stop8004"
         style="stop-color:#888a85;stop-opacity:1"
         offset="1" />
    </linearGradient>
    <linearGradient
       id="linearGradient8012">
      <stop
         id="stop8014"
         style="stop-color:#2e3436;stop-opacity:1"
         offset="0" />
      <stop
         id="stop8016"
         style="stop-color:#888a85;stop-opacity:1"
         offset="1" />
    </linearGradient>
    <linearGradient
       id="linearGradient8228">
      <stop
         id="stop8230"
         style="stop-color:#000000;stop-opacity:1"
         offset="0" />
      <stop
         id="stop8232"
         style="stop-color:#000000;stop-opacity:0"
         offset="1" />
    </linearGradient>
    <linearGradient
       id="linearGradient8357">
      <stop
         id="stop8359"
         style="stop-color:#ffffff;stop-opacity:1"
         offset="0" />
      <stop
         id="stop8361"
         style="stop-color:#888a85;stop-opacity:1"
         offset="1" />
    </linearGradient>
    <linearGradient
       id="linearGradient7199">
      <stop
         id="stop7201"
         style="stop-color:#ffffff;stop-opacity:1"
         offset="0" />
      <stop
         id="stop7203"
         style="stop-color:#ffffff;stop-opacity:0"
         offset="1" />
    </linearGradient>
    <linearGradient
       id="linearGradient7215">
      <stop
         id="stop7217"
         style="stop-color:#ffffff;stop-opacity:1"
         offset="0" />
      <stop
         id="stop7219"
         style="stop-color:#ffffff;stop-opacity:0"
         offset="1" />
    </linearGradient>
    <linearGradient
       id="linearGradient7223">
      <stop
         id="stop7225"
         style="stop-color:#ffffff;stop-opacity:1"
         offset="0" />
      <stop
         id="stop7227"
         style="stop-color:#ffffff;stop-opacity:0"
         offset="1" />
    </linearGradient>
    <linearGradient
       id="linearGradient7231">
      <stop
         id="stop7233"
         style="stop-color:#ffffff;stop-opacity:1"
         offset="0" />
      <stop
         id="stop7235"
         style="stop-color:#ffffff;stop-opacity:0"
         offset="1" />
    </linearGradient>
    <linearGradient
       id="linearGradient7281">
      <stop
         id="stop7283"
         style="stop-color:#2e3436;stop-opacity:1"
         offset="0" />
      <stop
         id="stop7285"
         style="stop-color:#888a85;stop-opacity:1"
         offset="1" />
    </linearGradient>
    <linearGradient
       id="linearGradient7526">
      <stop
         id="stop7528"
         style="stop-color:#888a85;stop-opacity:1"
         offset="0" />
      <stop
         id="stop7530"
         style="stop-color:#d3d7cf;stop-opacity:0.49803922"
         offset="1" />
    </linearGradient>
  </defs>
  <g
     id="layer1">
    <g
       transform="translate(-53.99282,-31.64138)"
       id="g4438" />
    <path
       d="M 41,40 A 17.142857,8.5714283 0 1 1 6.7142868,40 17.142857,8.5714283 0 1 1 41,40 z"
       inkscape:connector-curvature="0"
       transform="matrix(0.831993,0,0,0.904687,-5.17227,-9.611522)"
       id="path13497"
       style="color:#000000;fill:url(#radialGradient13577);fill-opacity:1;fill-rule:nonzero;stroke:none;stroke-width:1;marker:none;visibility:visible;display:block;overflow:visible" />
    <g
       transform="matrix(0.793761,0,0,0.793761,-4.59619,-0.441943)"
       id="g13654">
      <path
         d="M 41,40 A 17.142857,8.5714283 0 1 1 6.7142868,40 17.142857,8.5714283 0 1 1 41,40 z"
         inkscape:connector-curvature="0"
         transform="matrix(1.050001,0,0,1.166666,-1.050005,-13.66665)"
         id="path3366"
         style="color:#000000;fill:url(#radialGradient13668);fill-opacity:1;fill-rule:nonzero;stroke:none;stroke-width:1;marker:none;visibility:visible;display:block;overflow:visible" />
      <path
         d="m 23.925566,5.0026329 c -7.943947,0 -14.403244,2.7782481 -14.403245,6.1959141 0,0.245244 0,22.669466 0,22.924876 0,3.417666 6.459297,6.195913 14.403245,6.195913 7.943948,0 14.660447,-2.778248 14.660445,-6.195913 0,-0.202295 0,-22.722581 0,-22.924876 0,-3.417667 -6.716498,-6.1959141 -14.660445,-6.1959141 z"
         inkscape:connector-curvature="0"
         id="path3068"
         style="color:#000000;fill:url(#linearGradient13670);fill-opacity:1;fill-rule:nonzero;stroke:#767973;stroke-width:1;stroke-linecap:butt;stroke-linejoin:miter;stroke-miterlimit:10;stroke-opacity:1;stroke-dasharray:none;stroke-dashoffset:0;marker:none;visibility:visible;display:block;overflow:visible" />
      <path
         d="m 36.857142,14.071428 a 12.857142,5.5 0 1 1 -25.714284,0 12.857142,5.5 0 1 1 25.714284,0 z"
         inkscape:connector-curvature="0"
         transform="matrix(1.048446,0,0,0.971388,-0.969759,20.43377)"
         id="path3241"
         style="opacity:0.23626374;color:#000000;fill:#d3d7cf;fill-opacity:1;fill-rule:nonzero;stroke:url(#linearGradient13672);stroke-width:0.99090111;stroke-linecap:butt;stroke-linejoin:miter;stroke-miterlimit:10;stroke-opacity:1;stroke-dasharray:none;stroke-dashoffset:0;marker:none;visibility:visible;display:block;overflow:visible" />
      <path
         d="m 23.934282,5.7826598 c -7.406561,0 -13.428904,2.5939917 -13.428905,5.7849932 0,0.22898 0,21.727517 0,21.965988 0,3.191003 6.022343,5.784993 13.428905,5.784993 7.40656,0 13.668706,-2.593991 13.668704,-5.784993 0,-0.188877 0,-21.777108 0,-21.965988 0,-3.1910025 -6.262145,-5.7849932 -13.668704,-5.7849932 z"
         inkscape:connector-curvature="0"
         id="path4174"
         style="opacity:0.5443038;color:#000000;fill:none;stroke:url(#linearGradient13674);stroke-width:1.00000012;stroke-linecap:butt;stroke-linejoin:miter;stroke-miterlimit:10;stroke-opacity:1;stroke-dasharray:none;stroke-dashoffset:0;marker:none;visibility:visible;display:block;overflow:visible" />
      <path
         d="m 23.41643,26.438709 c -6.634446,0.134726 -11.921358,-1.071135 -11.921358,1.61714 0,0.318691 0,4.976454 0,5.292977 0,2.774993 5.605168,5.02821 12.539503,5.028212 6.934335,0 12.568937,-2.253219 12.568938,-5.028212 0,-0.316523 0,-4.974286 0,-5.292977 0,-2.774994 -5.634603,-1.617139 -12.568938,-1.61714 -0.216698,0 -0.404131,-0.0043 -0.618145,0 z"
         inkscape:connector-curvature="0"
         id="path4432"
         style="color:#000000;fill:url(#linearGradient13676);fill-opacity:1;fill-rule:nonzero;stroke:#e2811b;stroke-width:0.99621516;stroke-linecap:butt;stroke-linejoin:miter;stroke-miterlimit:10;stroke-opacity:1;stroke-dasharray:none;stroke-dashoffset:0;marker:none;visibility:visible;display:block;overflow:visible" />
      <path
         d="m 36.857142,14.071428 a 12.857142,5.5 0 1 1 -25.714284,0 12.857142,5.5 0 1 1 25.714284,0 z"
         inkscape:connector-curvature="0"
         transform="matrix(0.972634,0,0,0.914029,0.651491,14.66547)"
         id="path4434"
         style="color:#000000;fill:url(#linearGradient13678);fill-opacity:1;fill-rule:nonzero;stroke:url(#linearGradient13680);stroke-width:1.06058359;stroke-linecap:butt;stroke-linejoin:miter;stroke-miterlimit:10;stroke-opacity:1;stroke-dasharray:none;stroke-dashoffset:0;marker:none;visibility:visible;display:block;overflow:visible" />
      <path
         d="m 35.976705,9.5000085 c -1.121042,-0.98511 -2.068949,-1.285038 -3.063047,-1.7677669 l 0.306304,18.6878234 2.756743,3.232487 0,-20.1525435 z"
         inkscape:connector-curvature="0"
         id="path3245"
         style="color:#000000;fill:url(#linearGradient13682);fill-opacity:1;fill-rule:nonzero;stroke:none;stroke-width:0.99999946;marker:none;visibility:visible;display:block;overflow:visible" />
      <path
         d="m 36.857142,14.071428 a 12.857142,5.5 0 1 1 -25.714284,0 12.857142,5.5 0 1 1 25.714284,0 z"
         inkscape:connector-curvature="0"
         transform="matrix(1.048446,0,0,0.964345,-1.173962,-2.540419)"
         id="path3364"
         style="opacity:0.467033;color:#000000;fill:#f0f0f0;fill-opacity:1;fill-rule:nonzero;stroke:url(#linearGradient13684);stroke-width:0.99451303;stroke-linecap:butt;stroke-linejoin:miter;stroke-miterlimit:10;stroke-opacity:1;stroke-dasharray:none;stroke-dashoffset:0;marker:none;visibility:visible;display:block;overflow:visible" />
      <path
         d="M 41,40 A 17.142857,8.5714283 0 1 1 6.7142868,40 17.142857,8.5714283 0 1 1 41,40 z"
         inkscape:connector-curvature="0"
         transform="matrix(0.367338,0,0,0.36343,14.99239,-6.837321)"
         id="path6944"
         style="opacity:0.30769234;color:#000000;fill:url(#radialGradient13686);fill-opacity:1;fill-rule:nonzero;stroke:none;stroke-width:1;marker:none;visibility:visible;display:block;overflow:visible" />
      <path
         d="m 24.079287,3.4999955 c -2.024332,0 -4.681088,0.714153 -4.681088,1.592669 0,0.06304 0,2.564005 0,2.629659 0,0.878516 2.656756,1.592669 4.681088,1.592669 2.024333,0 4.457846,-0.714153 4.457845,-1.592669 0,-0.052 0,-2.577659 0,-2.629659 0,-0.878517 -2.433512,-1.592669 -4.457845,-1.592669 z"
         inkscape:connector-curvature="0"
         id="path3362"
         style="color:#000000;fill:#9d9e9b;fill-opacity:1;fill-rule:nonzero;stroke:#7d7f7a;stroke-width:0.99999994;stroke-linecap:butt;stroke-linejoin:miter;stroke-miterlimit:10;stroke-opacity:1;stroke-dasharray:none;stroke-dashoffset:0;marker:none;visibility:visible;display:block;overflow:visible" />
      <path
         d="m 13.664611,15.743564 0.360982,16.785715 4.620591,1.285714 -0.144393,-16.714286 c 0,0 1.959695,-0.08839 5.352942,-0.302674 -6.567248,-0.04998 -10.856946,-1.57817 -13.222385,-3.840183 1.432137,2.092176 3.032263,2.785714 3.032263,2.785714 z"
         inkscape:connector-curvature="0"
         id="path6922"
         style="opacity:0.58241763;color:#000000;fill:url(#linearGradient13688);fill-opacity:1;fill-rule:nonzero;stroke:none;stroke-width:1;marker:none;visibility:visible;display:block;overflow:visible" />
      <path
         d="m 36.857142,14.071428 a 12.857142,5.5 0 1 1 -25.714284,0 12.857142,5.5 0 1 1 25.714284,0 z"
         inkscape:connector-curvature="0"
         transform="matrix(0.274904,0,0,0.192106,17.38789,2.66837)"
         id="path6940"
         style="color:#000000;fill:#d3d7cf;fill-opacity:1;fill-rule:nonzero;stroke:url(#linearGradient13690);stroke-width:4.35150146;stroke-linecap:butt;stroke-linejoin:miter;stroke-miterlimit:10;stroke-opacity:1;stroke-dasharray:none;stroke-dashoffset:0;marker:none;visibility:visible;display:block;overflow:visible" />
    </g>
    <g
       transform="translate(-27.83014,-62.39595)"
       id="g13531" />
    <g
       transform="translate(25.41268,-23.25457)"
       id="g3054" />
    <g
       transform="translate(69.41268,-7.254574)"
       id="g13534" />
    <g
       transform="translate(10.553562,-0.1032104)"
       id="g3539"
       style="display:inline">
      <rect
         width="2"
         height="9"
         rx="1"
         ry="1"
         x="30.5"
         y="0.5625"
         id="rect7962"
         style="fill:url(#linearGradient8222);fill-opacity:1;fill-rule:evenodd;stroke:#555753;stroke-width:0.99999994;stroke-linecap:round;stroke-linejoin:round;stroke-miterlimit:4;stroke-opacity:1;stroke-dasharray:none" />
      <path
         d="m 40,38.0625 a 12.0625,9.8125 0 1 1 -24.125,0 12.0625,9.8125 0 1 1 24.125,0 z"
         inkscape:connector-curvature="0"
         transform="matrix(1.0673575,0,0,0.4968153,-5.1943,23.214968)"
         id="path8226"
         style="opacity:0.4;fill:url(#radialGradient8234);fill-opacity:1;fill-rule:evenodd;stroke:none" />
      <path
         d="M 19.5625,5.5 C 16.753603,5.5 14.5,7.070666 14.5,9.03125 l 0,24.71875 c 0,5.958578 2.476602,10.75 5.5625,10.75 l 8.875,0 C 32.023397,44.5 34.5,39.708577 34.5,33.75 l 0,-24.71875 C 34.5,7.070666 32.246396,5.5 29.4375,5.5 l -9.875,0 z"
         inkscape:connector-curvature="0"
         id="path7885"
         style="fill:url(#radialGradient8054);fill-opacity:1;fill-rule:evenodd;stroke:#555753;stroke-width:1;stroke-linecap:round;stroke-linejoin:miter;stroke-miterlimit:4;stroke-opacity:1;stroke-dasharray:none" />
      <path
         d="M 19.5625,6 C 18.251247,6 17.065963,6.3684846 16.25,6.9375 15.434037,7.5065154 15,8.2425338 15,9.03125 L 15,33.75 c 0,2.910016 0.605563,5.525023 1.5625,7.375 0.956937,1.849977 2.215832,2.875 3.5,2.875 l 8.875,0 c 1.284168,0 2.543063,-1.025023 3.5,-2.875 C 33.394437,39.275023 34,36.660016 34,33.75 L 34,9.03125 C 34,8.2425339 33.565963,7.5065155 32.75,6.9375 31.934037,6.3684845 30.748752,6 29.4375,6 l -9.875,0 z"
         inkscape:connector-curvature="0"
         id="path7086"
         style="opacity:0.47761195;fill:url(#linearGradient7094);fill-opacity:1;fill-rule:evenodd;stroke:none" />
      <rect
         width="15.999991"
         height="13"
         rx="3.0661337"
         ry="3.0661337"
         x="-32.499992"
         y="9.5"
         transform="scale(-1,1)"
         id="rect7990"
         style="opacity:0.5970149;fill:none;stroke:url(#linearGradient7998);stroke-width:1;stroke-linecap:round;stroke-linejoin:miter;stroke-miterlimit:4;stroke-opacity:1;stroke-dasharray:none" />
      <rect
         width="14"
         height="11"
         rx="2.0388288"
         ry="2.0388288"
         x="17.5"
         y="10.5"
         id="rect7889"
         style="fill:url(#linearGradient7978);fill-opacity:1;fill-rule:evenodd;stroke:#888a85;stroke-width:0.99999994;stroke-linecap:round;stroke-linejoin:miter;stroke-miterlimit:4;stroke-opacity:1;stroke-dasharray:none" />
      <path
         d="M 19.5625,6.5 C 18.343394,6.5 17.249773,6.842685 16.53125,7.34375 15.812727,7.844815 15.5,8.431952 15.5,9.03125 l 0,24.71875 c 0,2.841524 0.590474,5.397929 1.5,7.15625 0.909526,1.758321 2.034198,2.59375 3.0625,2.59375 l 8.875,0 c 1.028302,0 2.152974,-0.835429 3.0625,-2.59375 0.909526,-1.758321 1.5,-4.314727 1.5,-7.15625 l 0,-24.71875 C 33.5,8.431952 33.187274,7.844815 32.46875,7.34375 31.750226,6.842685 30.656606,6.5 29.4375,6.5 l -9.875,0 z"
         inkscape:connector-curvature="0"
         id="path7896"
         style="opacity:0.86194033;fill:none;stroke:url(#linearGradient7923);stroke-width:1;stroke-linecap:round;stroke-linejoin:miter;stroke-miterlimit:4;stroke-opacity:1" />
      <path
         d="M 25.5,41.558522 25.5,40.5"
         inkscape:connector-curvature="0"
         id="path7900"
         style="fill:none;stroke:url(#linearGradient8010);stroke-width:1.00000012px;stroke-linecap:round;stroke-linejoin:miter;stroke-opacity:1" />
      <path
         d="m 23.5,41.558522 0,-1"
         inkscape:connector-curvature="0"
         id="path7905"
         style="fill:none;stroke:url(#linearGradient8006);stroke-width:1px;stroke-linecap:round;stroke-linejoin:miter;stroke-opacity:1" />
      <rect
         width="1"
         height="1"
         x="25"
         y="14"
         id="rect8057"
         style="fill:#3465a4;fill-opacity:1;fill-rule:evenodd;stroke:none" />
      <rect
         width="1"
         height="2"
         x="27"
         y="13"
         id="rect8059"
         style="fill:#3465a4;fill-opacity:1;fill-rule:evenodd;stroke:none" />
      <rect
         width="1"
         height="3"
         x="29"
         y="12"
         id="rect8061"
         style="fill:#3465a4;fill-opacity:1;fill-rule:evenodd;stroke:none" />
      <g
         transform="translate(-50,-1)"
         id="g8067">
        <rect
           width="1"
           height="1"
           x="69"
           y="15"
           id="rect8063"
           style="fill:#3465a4;fill-opacity:1;fill-rule:evenodd;stroke:none" />
        <rect
           width="1"
           height="1"
           x="69"
           y="13"
           id="rect8065"
           style="fill:#3465a4;fill-opacity:1;fill-rule:evenodd;stroke:none" />
      </g>
      <rect
         width="3.0000002"
         height="1"
         x="19"
         y="19"
         id="rect8074"
         style="fill:#3465a4;fill-opacity:1;fill-rule:evenodd;stroke:none" />
      <rect
         width="3.0000002"
         height="1"
         x="27"
         y="19"
         id="rect8076"
         style="fill:#3465a4;fill-opacity:1;fill-rule:evenodd;stroke:none" />
      <rect
         width="13"
         height="1"
         x="18"
         y="18"
         id="rect8078"
         style="opacity:0.39179107;fill:#729fcf;fill-opacity:1;fill-rule:evenodd;stroke:none" />
      <rect
         width="12"
         height="9"
         rx="1.0075788"
         ry="1.0075788"
         x="18.5"
         y="11.5"
         id="rect7980"
         style="opacity:0.09328356;fill:none;stroke:url(#linearGradient8242);stroke-width:0.99999994;stroke-linecap:round;stroke-linejoin:miter;stroke-miterlimit:4;stroke-opacity:1;stroke-dasharray:none" />
      <path
         d="m 71.953125,1.5937499 a 0.453125,0.421875 0 1 1 -0.90625,0 0.453125,0.421875 0 1 1 0.90625,0 z"
         inkscape:connector-curvature="0"
         transform="matrix(1.6551692,0,0,1.7962963,-87.0946,-1.105035)"
         id="path8224"
         style="fill:#eeeeec;fill-opacity:1;fill-rule:evenodd;stroke:none" />
      <path
         d="m 16.5,24.631663 0,3.055837 c 0,3.699177 0.399906,6.497467 1.09375,8.46875 0.346922,0.985642 0.755987,1.750468 1.3125,2.34375 0.556513,0.593282 1.302939,1 2.09375,1 l 7,0 c 0.785425,0 1.535575,-0.380226 2.09375,-0.96875 0.558175,-0.588524 0.965122,-1.392373 1.3125,-2.375 C 32.101007,34.190996 32.5,31.417446 32.5,27.6875 l 0,-3.055837 C 31.801719,23.004152 30.471547,23.5 28.96875,23.5 l -8.9375,0 c -1.85409,0 -2.556891,-0.438624 -3.53125,1.131663 z"
         inkscape:connector-curvature="0"
         id="path8355"
         style="fill:none;stroke:url(#linearGradient7511);stroke-width:0.99999994;stroke-linecap:round;stroke-linejoin:miter;stroke-miterlimit:4;stroke-opacity:1" />
      <path
         d="M 18.0625,24.5 C 17.750875,24.5 17.5,24.750875 17.5,25.0625 l 0,0.875 c 0,0.311625 0.250875,0.5625 0.5625,0.5625 l 2.875,0 c 0.311625,0 0.5625,-0.250875 0.5625,-0.5625 l 0,-0.875 C 21.5,24.750875 21.249125,24.5 20.9375,24.5 l -0.90625,0 -1.96875,0 z m 5,0 C 22.750875,24.5 22.5,24.750875 22.5,25.0625 l 0,0.875 c 0,0.311625 0.250875,0.5625 0.5625,0.5625 l 2.875,0 c 0.311625,0 0.5625,-0.250875 0.5625,-0.5625 l 0,-0.875 C 26.5,24.750875 26.249125,24.5 25.9375,24.5 l -2.875,0 z m 5,0 C 27.750875,24.5 27.5,24.750875 27.5,25.0625 l 0,0.875 c 0,0.311625 0.250875,0.5625 0.5625,0.5625 l 2.875,0 c 0.311625,0 0.5625,-0.250875 0.5625,-0.5625 l 0,-0.875 C 31.5,24.750875 31.249125,24.5 30.9375,24.5 l -1.96875,0 -0.90625,0 z m -10,3 c -0.289811,0 -0.530702,0.218965 -0.5625,0.5 -0.0024,0.02115 0,0.04069 0,0.0625 0.003,0.379919 0.01966,0.734852 0.03125,1.09375 0.08517,0.202025 0.297531,0.34375 0.53125,0.34375 l 2.875,0 c 0.311625,0 0.5625,-0.250875 0.5625,-0.5625 l 0,-0.875 C 21.5,27.750875 21.249125,27.5 20.9375,27.5 l -2.875,0 z m 5,0 C 22.750875,27.5 22.5,27.750875 22.5,28.0625 l 0,0.875 c 0,0.311625 0.250875,0.5625 0.5625,0.5625 l 2.875,0 c 0.311625,0 0.5625,-0.250875 0.5625,-0.5625 l 0,-0.875 C 26.5,27.750875 26.249125,27.5 25.9375,27.5 l -2.875,0 z m 5,0 C 27.750875,27.5 27.5,27.750875 27.5,28.0625 l 0,0.875 c 0,0.311625 0.250875,0.5625 0.5625,0.5625 l 2.875,0 c 0.233719,0 0.446084,-0.141725 0.53125,-0.34375 0.01159,-0.361339 0.02823,-0.710723 0.03125,-1.09375 1.72e-4,-0.02187 -1.44e-4,-0.04056 0,-0.0625 -0.0318,-0.281035 -0.272689,-0.5 -0.5625,-0.5 l -2.875,0 z m -10,3 c -0.179784,0 -0.334665,0.08826 -0.4375,0.21875 0.04378,0.602024 0.08702,1.187395 0.15625,1.71875 0.08225,0.04698 0.179373,0.0625 0.28125,0.0625 l 2.875,0 c 0.311625,0 0.5625,-0.250875 0.5625,-0.5625 l 0,-0.875 C 21.5,30.750875 21.249125,30.5 20.9375,30.5 l -2.875,0 z m 5,0 C 22.750875,30.5 22.5,30.750875 22.5,31.0625 l 0,0.875 c 0,0.311625 0.250875,0.5625 0.5625,0.5625 l 2.875,0 c 0.311625,0 0.5625,-0.250875 0.5625,-0.5625 l 0,-0.875 C 26.5,30.750875 26.249125,30.5 25.9375,30.5 l -2.875,0 z m 5,0 C 27.750875,30.5 27.5,30.750875 27.5,31.0625 l 0,0.875 c 0,0.311625 0.250875,0.5625 0.5625,0.5625 l 2.875,0 c 0.101877,0 0.199002,-0.01552 0.28125,-0.0625 0.06784,-0.526351 0.113185,-1.122038 0.15625,-1.71875 C 31.272165,30.588256 31.117284,30.5 30.9375,30.5 l -2.875,0 z m -10.09375,3 c 0.134459,0.748868 0.283222,1.421542 0.46875,2 l 2.5,0 c 0.311625,0 0.5625,-0.250875 0.5625,-0.5625 l 0,-0.875 C 21.5,33.750875 21.249125,33.5 20.9375,33.5 l -2.875,0 c -0.03272,0 -0.06259,-0.0053 -0.09375,0 z m 5.09375,0 C 22.750875,33.5 22.5,33.750875 22.5,34.0625 l 0,0.875 c 0,0.311625 0.250875,0.5625 0.5625,0.5625 l 2.875,0 c 0.311625,0 0.5625,-0.250875 0.5625,-0.5625 l 0,-0.875 C 26.5,33.750875 26.249125,33.5 25.9375,33.5 l -2.875,0 z m 5,0 C 27.750875,33.5 27.5,33.750875 27.5,34.0625 l 0,0.875 c 0,0.311625 0.250875,0.5625 0.5625,0.5625 l 2.5,0 c 0.183775,-0.574728 0.335469,-1.254667 0.46875,-2 -0.03116,-0.0053 -0.06103,0 -0.09375,0 l -2.875,0 z m -9.125,3 c -0.04719,0 -0.08168,0.01236 -0.125,0.03125 C 19.410622,37.842551 20.169694,38.5 21,38.5 l 0.0625,0 c 0.233719,0 0.4375,-0.250875 0.4375,-0.5625 l 0,-0.875 C 21.5,36.750875 21.296218,36.5 21.0625,36.5 l -2.125,0 z m 4.125,0 C 22.750875,36.5 22.5,36.750875 22.5,37.0625 l 0,0.875 c 0,0.311625 0.250875,0.5625 0.5625,0.5625 l 2.875,0 c 0.311625,0 0.5625,-0.250875 0.5625,-0.5625 l 0,-0.875 C 26.5,36.750875 26.249125,36.5 25.9375,36.5 l -2.875,0 z m 4.875,0 C 27.703781,36.5 27.5,36.750875 27.5,37.0625 l 0,0.875 c 0,0.311625 0.203782,0.5625 0.4375,0.5625 L 28,38.5 c 0.835261,0 1.587757,-0.649928 2.1875,-1.96875 C 30.144179,36.512357 30.109693,36.5 30.0625,36.5 l -2.125,0 z"
         inkscape:connector-curvature="0"
         id="path8246"
         style="fill:url(#linearGradient7532);fill-opacity:1;fill-rule:evenodd;stroke:url(#linearGradient7287);stroke-width:0.97000003;stroke-linecap:round;stroke-linejoin:round;stroke-miterlimit:4;stroke-opacity:1;stroke-dasharray:none" />
      <g
         id="g7493"
         style="opacity:0.85">
        <path
           d="M 26.5,31.0625 C 26.5,30.750875 26.249125,30.5 25.9375,30.5 l -2.875,0 C 22.750875,30.5 22.5,30.750875 22.5,31.0625 l 0,0.875"
           inkscape:connector-curvature="0"
           id="path7193"
           style="fill:none;stroke:url(#linearGradient7491);stroke-width:1;stroke-linecap:round;stroke-linejoin:round;stroke-miterlimit:4;stroke-opacity:1;stroke-dasharray:none" />
        <path
           d="M 26.5,34.0625 C 26.5,33.750875 26.249125,33.5 25.9375,33.5 l -2.875,0 C 22.750875,33.5 22.5,33.750875 22.5,34.0625 l 0,0.875"
           inkscape:connector-curvature="0"
           id="path7195"
           style="fill:none;stroke:url(#linearGradient7488);stroke-width:1;stroke-linecap:round;stroke-linejoin:round;stroke-miterlimit:4;stroke-opacity:1;stroke-dasharray:none" />
        <path
           d="M 26.5,37.0625 C 26.5,36.750875 26.249125,36.5 25.9375,36.5 l -2.875,0 C 22.750875,36.5 22.5,36.750875 22.5,37.0625 l 0,0.875"
           inkscape:connector-curvature="0"
           id="path7197"
           style="fill:none;stroke:url(#linearGradient7485);stroke-width:1;stroke-linecap:round;stroke-linejoin:round;stroke-miterlimit:4;stroke-opacity:1;stroke-dasharray:none" />
        <path
           d="M 21.5,25.0625 C 21.5,24.750875 21.249125,24.5 20.9375,24.5 l -0.90625,0 -1.96875,0 C 17.750875,24.5 17.5,24.750875 17.5,25.0625 l 0,0.875"
           inkscape:connector-curvature="0"
           id="path7191"
           style="fill:none;stroke:url(#linearGradient7482);stroke-width:1;stroke-linecap:round;stroke-linejoin:round;stroke-miterlimit:4;stroke-opacity:1;stroke-dasharray:none" />
        <path
           d="M 26.5,25.0625 C 26.5,24.750875 26.249125,24.5 25.9375,24.5 l -2.875,0 C 22.750875,24.5 22.5,24.750875 22.5,25.0625 l 0,0.875"
           inkscape:connector-curvature="0"
           id="path7311"
           style="fill:none;stroke:url(#linearGradient7479);stroke-width:1;stroke-linecap:round;stroke-linejoin:round;stroke-miterlimit:4;stroke-opacity:1;stroke-dasharray:none" />
        <path
           d="M 31.5,25.0625 C 31.5,24.750875 31.249125,24.5 30.9375,24.5 l -1.96875,0 -0.90625,0 C 27.750875,24.5 27.5,24.750875 27.5,25.0625 l 0,0.875"
           inkscape:connector-curvature="0"
           id="path7313"
           style="fill:none;stroke:url(#linearGradient7476);stroke-width:1;stroke-linecap:round;stroke-linejoin:round;stroke-miterlimit:4;stroke-opacity:1;stroke-dasharray:none" />
        <path
           d="M 21.5,28.0625 C 21.5,27.750875 21.249125,27.5 20.9375,27.5 l -0.90625,0 -1.96875,0 C 17.750875,27.5 17.5,27.750875 17.5,28.0625 l 0,0.875"
           inkscape:connector-curvature="0"
           id="path7341"
           style="fill:none;stroke:url(#linearGradient7473);stroke-width:1;stroke-linecap:round;stroke-linejoin:round;stroke-miterlimit:4;stroke-opacity:1;stroke-dasharray:none" />
        <path
           d="M 26.5,28.0625 C 26.5,27.750875 26.249125,27.5 25.9375,27.5 l -2.875,0 C 22.750875,27.5 22.5,27.750875 22.5,28.0625 l 0,0.875"
           inkscape:connector-curvature="0"
           id="path7343"
           style="fill:none;stroke:url(#linearGradient7470);stroke-width:1;stroke-linecap:round;stroke-linejoin:round;stroke-miterlimit:4;stroke-opacity:1;stroke-dasharray:none" />
        <path
           d="M 31.5,28.0625 C 31.5,27.750875 31.249125,27.5 30.9375,27.5 l -1.96875,0 -0.90625,0 C 27.750875,27.5 27.5,27.750875 27.5,28.0625 l 0,0.875"
           inkscape:connector-curvature="0"
           id="path7345"
           style="fill:none;stroke:url(#linearGradient7467);stroke-width:1;stroke-linecap:round;stroke-linejoin:round;stroke-miterlimit:4;stroke-opacity:1;stroke-dasharray:none" />
        <path
           d="M 21.5,31.0625 C 21.5,30.750875 21.249125,30.5 20.9375,30.5 l -2.875,0 c -0.179784,0 -0.334665,0.08826 -0.4375,0.21875 0.04378,0.602024 0.08702,1.187395 0.15625,1.71875"
           inkscape:connector-curvature="0"
           id="path7353"
           style="fill:none;stroke:url(#linearGradient7464);stroke-width:1;stroke-linecap:round;stroke-linejoin:round;stroke-miterlimit:4;stroke-opacity:1;stroke-dasharray:none" />
        <path
           d="M 31.375,30.71875 C 31.272165,30.588256 31.117284,30.5 30.9375,30.5 l -2.875,0 C 27.750875,30.5 27.5,30.750875 27.5,31.0625 l 0,0.875"
           inkscape:connector-curvature="0"
           id="path7355"
           style="fill:none;stroke:url(#linearGradient7461);stroke-width:1;stroke-linecap:round;stroke-linejoin:round;stroke-miterlimit:4;stroke-opacity:1;stroke-dasharray:none" />
        <path
           d="m 31.03125,33.5 c -0.03116,-0.0053 -0.06103,0 -0.09375,0 l -2.875,0 C 27.750875,33.5 27.5,33.750875 27.5,34.0625 l 0,0.875"
           inkscape:connector-curvature="0"
           id="path7361"
           style="fill:none;stroke:url(#linearGradient7458);stroke-width:1;stroke-linecap:round;stroke-linejoin:round;stroke-miterlimit:4;stroke-opacity:1;stroke-dasharray:none" />
        <path
           d="M 21.5,34.0625 C 21.5,33.750875 21.249125,33.5 20.9375,33.5 l -2.875,0 c -0.03272,0 -0.06259,-0.0053 -0.09375,0 0.134459,0.748868 0.283222,1.421542 0.46875,2"
           inkscape:connector-curvature="0"
           id="path7363"
           style="fill:none;stroke:url(#linearGradient7455);stroke-width:1;stroke-linecap:round;stroke-linejoin:round;stroke-miterlimit:4;stroke-opacity:1;stroke-dasharray:none" />
        <path
           d="M 21.5,37.0625 C 21.5,36.750875 21.296218,36.5 21.0625,36.5 l -2.125,0 c -0.04719,0 -0.08168,0.01236 -0.125,0.03125"
           inkscape:connector-curvature="0"
           id="path7369"
           style="fill:none;stroke:url(#linearGradient7452);stroke-width:1;stroke-linecap:round;stroke-linejoin:round;stroke-miterlimit:4;stroke-opacity:1;stroke-dasharray:none" />
        <path
           d="M 30.1875,36.53125 C 30.144179,36.512357 30.109693,36.5 30.0625,36.5 l -2.125,0 C 27.703781,36.5 27.5,36.750875 27.5,37.0625 l 0,0.875"
           inkscape:connector-curvature="0"
           id="path7371"
           style="fill:none;stroke:url(#linearGradient7449);stroke-width:1;stroke-linecap:round;stroke-linejoin:round;stroke-miterlimit:4;stroke-opacity:1;stroke-dasharray:none" />
      </g>
      <g
         transform="translate(0,1)"
         id="g7135"
         style="fill:#555753" />
      <path
         d="M 24.5,8.558522 24.5,7.5"
         inkscape:connector-curvature="0"
         id="path6112"
         style="fill:none;stroke:url(#linearGradient6116);stroke-width:1.00000012px;stroke-linecap:round;stroke-linejoin:miter;stroke-opacity:1" />
      <path
         d="m 22.5,8.558522 0,-1"
         inkscape:connector-curvature="0"
         id="path6114"
         style="fill:none;stroke:url(#linearGradient6118);stroke-width:1px;stroke-linecap:round;stroke-linejoin:miter;stroke-opacity:1" />
      <path
         d="M 26.5,8.558522 26.5,7.5"
         inkscape:connector-curvature="0"
         id="path6120"
         style="fill:none;stroke:url(#linearGradient6122);stroke-width:1.00000012px;stroke-linecap:round;stroke-linejoin:miter;stroke-opacity:1" />
    </g>
  </g>
  <g
     id="layer2" />
</svg>
