<?xml version="1.0" encoding="UTF-8" standalone="no"?>
<!-- Created with Inkscape (http://www.inkscape.org/) -->

<svg
   xmlns:dc="http://purl.org/dc/elements/1.1/"
   xmlns:cc="http://creativecommons.org/ns#"
   xmlns:rdf="http://www.w3.org/1999/02/22-rdf-syntax-ns#"
   xmlns:svg="http://www.w3.org/2000/svg"
   xmlns="http://www.w3.org/2000/svg"
   xmlns:xlink="http://www.w3.org/1999/xlink"
   xmlns:inkscape="http://www.inkscape.org/namespaces/inkscape"
   version="1.1"
   width="48"
   height="48"
   id="svg2913">
  <defs
     id="defs3">
    <linearGradient
       id="linearGradient4292">
      <stop
         id="stop4294"
         style="stop-color:#aeb6a7;stop-opacity:1"
         offset="0" />
      <stop
         id="stop4300"
         style="stop-color:#dfe3dc;stop-opacity:1"
         offset="0.5" />
      <stop
         id="stop4296"
         style="stop-color:#a9b1a2;stop-opacity:1"
         offset="1" />
    </linearGradient>
    <linearGradient
       id="linearGradient4097">
      <stop
         id="stop4099"
         style="stop-color:#ffffff;stop-opacity:1"
         offset="0" />
      <stop
         id="stop4101"
         style="stop-color:#878787;stop-opacity:1"
         offset="1" />
    </linearGradient>
    <linearGradient
       id="linearGradient4087">
      <stop
         id="stop4089"
         style="stop-color:#ffffff;stop-opacity:1"
         offset="0" />
      <stop
         id="stop4091"
         style="stop-color:#ffffff;stop-opacity:0"
         offset="1" />
    </linearGradient>
    <linearGradient
       id="linearGradient2673">
      <stop
         id="stop2675"
         style="stop-color:#ffffff;stop-opacity:1"
         offset="0" />
      <stop
         id="stop2677"
         style="stop-color:#888a85;stop-opacity:1"
         offset="1" />
    </linearGradient>
    <linearGradient
       id="linearGradient4264">
      <stop
         id="stop4266"
         style="stop-color:#000000;stop-opacity:1"
         offset="0" />
      <stop
         id="stop4268"
         style="stop-color:#000000;stop-opacity:0"
         offset="1" />
    </linearGradient>
    <linearGradient
       id="linearGradient4244">
      <stop
         id="stop4246"
         style="stop-color:#ffffff;stop-opacity:1"
         offset="0" />
      <stop
         id="stop4248"
         style="stop-color:#d3d3d3;stop-opacity:1"
         offset="1" />
    </linearGradient>
    <radialGradient
       cx="17.797907"
       cy="-1.8972808"
       r="20.935818"
       fx="17.797907"
       fy="-1.8972808"
       id="radialGradient4250"
       xlink:href="#linearGradient4244"
       gradientUnits="userSpaceOnUse"
       gradientTransform="matrix(0.631676,0.01388567,-0.01063081,0.485821,5.210096,4.674603)" />
    <radialGradient
       cx="23.201941"
       cy="27.096155"
       r="23.555494"
       fx="23.201941"
       fy="27.096155"
       id="radialGradient4270"
       xlink:href="#linearGradient4264"
       gradientUnits="userSpaceOnUse"
       gradientTransform="matrix(1,0,0,0.651032,0,9.455693)" />
    <radialGradient
       cx="15.5"
       cy="26.583336"
       r="11.5"
       fx="15.5"
       fy="26.583336"
       id="radialGradient4093"
       xlink:href="#linearGradient4087"
       gradientUnits="userSpaceOnUse"
       gradientTransform="matrix(1.532763,0,0,1.582745,-7.257824,-20.07462)" />
    <linearGradient
       x1="15.5"
       y1="34.375"
       x2="15.5"
       y2="27.5"
       id="linearGradient4103"
       xlink:href="#linearGradient4097"
       gradientUnits="userSpaceOnUse"
       gradientTransform="translate(1,0)" />
    <linearGradient
       x1="2.9959066"
       y1="24.503084"
       x2="27.995987"
       y2="24.503084"
       id="linearGradient4298"
       xlink:href="#linearGradient4292"
       gradientUnits="userSpaceOnUse"
       gradientTransform="translate(1,0)" />
    <radialGradient
       cx="41.245354"
       cy="34.418121"
       r="0.984375"
       fx="41.245354"
       fy="34.418121"
       id="radialGradient2377"
       xlink:href="#linearGradient2673"
       gradientUnits="userSpaceOnUse"
       gradientTransform="matrix(1.253968,0,0,1.253968,-10.36111,-8.56746)" />
    <linearGradient
       x1="21.993773"
       y1="33.955299"
       x2="20.917078"
       y2="15.814602"
       id="linearGradient3982"
       xlink:href="#linearGradient3957"
       gradientUnits="userSpaceOnUse" />
    <linearGradient
       x1="43.93581"
       y1="53.835983"
       x2="20.064686"
       y2="-8.5626707"
       id="linearGradient3980"
       xlink:href="#linearGradient2479"
       gradientUnits="userSpaceOnUse" />
    <linearGradient
       x1="36.917976"
       y1="66.288063"
       x2="19.071495"
       y2="5.5410109"
       id="linearGradient3978"
       xlink:href="#linearGradient2536"
       gradientUnits="userSpaceOnUse" />
    <linearGradient
       id="linearGradient2479">
      <stop
         id="stop2481"
         style="stop-color:#ffe69b;stop-opacity:1"
         offset="0" />
      <stop
         id="stop2483"
         style="stop-color:#ffffff;stop-opacity:1"
         offset="1" />
    </linearGradient>
    <linearGradient
       id="linearGradient2536">
      <stop
         id="stop2538"
         style="stop-color:#a40000;stop-opacity:1"
         offset="0" />
      <stop
         id="stop2540"
         style="stop-color:#ff1717;stop-opacity:1"
         offset="1" />
    </linearGradient>
    <linearGradient
       id="linearGradient3957">
      <stop
         id="stop3959"
         style="stop-color:#fffeff;stop-opacity:0.33333334"
         offset="0" />
      <stop
         id="stop3961"
         style="stop-color:#fffeff;stop-opacity:0.21568628"
         offset="1" />
    </linearGradient>
  </defs>
  <metadata
     id="metadata4">
    <rdf:RDF>
      <cc:Work
         rdf:about="">
        <dc:format>image/svg+xml</dc:format>
        <dc:type
           rdf:resource="http://purl.org/dc/dcmitype/StillImage" />
        <dc:title>Drive - Removable</dc:title>
        <dc:creator>
          <cc:Agent>
            <dc:title>Jakub Steiner</dc:title>
          </cc:Agent>
        </dc:creator>
        <dc:subject>
          <rdf:Bag>
            <rdf:li>media</rdf:li>
            <rdf:li>removable</rdf:li>
          </rdf:Bag>
        </dc:subject>
        <cc:license
           rdf:resource="http://creativecommons.org/licenses/by-sa/2.0/" />
        <dc:identifier />
        <dc:source>http://jimmac.musichall.cz</dc:source>
      </cc:Work>
      <cc:License
         rdf:about="http://creativecommons.org/licenses/by-sa/2.0/">
        <cc:permits
           rdf:resource="http://web.resource.org/cc/Reproduction" />
        <cc:permits
           rdf:resource="http://web.resource.org/cc/Distribution" />
        <cc:requires
           rdf:resource="http://web.resource.org/cc/Notice" />
        <cc:requires
           rdf:resource="http://web.resource.org/cc/Attribution" />
        <cc:permits
           rdf:resource="http://web.resource.org/cc/DerivativeWorks" />
        <cc:requires
           rdf:resource="http://web.resource.org/cc/ShareAlike" />
      </cc:License>
    </rdf:RDF>
  </metadata>
  <g
     id="layer2">
    <path
       d="m 46.757435,27.096155 a 23.555494,15.335379 0 1 1 -47.11098877,0 23.555494,15.335379 0 1 1 47.11098877,0 z"
       transform="matrix(0.528197,0,0,0.363113,3.302863,32.72951)"
       id="path4262"
       style="opacity:0.56000001;color:#000000;fill:url(#radialGradient4270);fill-opacity:1;fill-rule:evenodd;stroke:none;stroke-width:1;marker:none;visibility:visible;display:inline;overflow:visible" />
    <path
       d="m 10.54317,3.5118657 c -0.6299236,0 -0.9763804,0.044258 -1.2913412,0.5478342 -1e-6,0 -4.3779683,5.3202231 -4.3779683,5.3202231 -0.377954,0.3792747 -0.377954,0.908835 -0.377954,2.045018 0,0 0,32.405567 0,32.405567 0,1.108459 0.6629672,1.663797 1.6692971,1.663795 l 20.7244794,0 c 0.992611,0 1.606304,-0.735326 1.606304,-1.887767 l 0,-32.405567 c -2.46e-4,-0.415156 -0.06299,-1.000796 -0.409204,-1.5043586 L 23.834554,4.1564688 C 23.396606,3.6323407 23.003654,3.5240559 22.511715,3.5118657 l -11.968545,0 z"
       inkscape:connector-curvature="0"
       id="path4196"
       style="fill:url(#linearGradient4298);fill-opacity:1;fill-rule:evenodd;stroke:#888a85;stroke-width:0.9999997;stroke-linecap:round;stroke-linejoin:round;stroke-miterlimit:4;stroke-opacity:1;stroke-dasharray:none" />
    <path
       d="m 5.5354257,9.347442 c -0.6295013,1.290603 -0.1880426,1.671533 0.7252769,1.671533 0,0 20.3202814,0.03125 20.3202814,0.03125 0.986218,-0.02099 1.438711,-0.45438 0.884002,-1.138687 L 23.238232,4.6313905 C 22.950611,4.2114523 22.78619,4.0104929 22.356031,4 L 10.612455,4 c -0.550814,0 -0.9127768,0.2675653 -1.1331014,0.7554773 0,0 -3.9439279,4.5919647 -3.9439279,4.5919647 z"
       inkscape:connector-curvature="0"
       id="path3093"
       style="fill:url(#radialGradient4250);fill-opacity:1;fill-rule:evenodd;stroke:none" />
    <path
       d="m 42,33.984375 a 0.984375,0.984375 0 1 1 -1.96875,0 0.984375,0.984375 0 1 1 1.96875,0 z"
       transform="matrix(2.031748,0,0,2.031747,-60.33341,-29.04766)"
       id="path2671"
       style="color:#000000;fill:url(#radialGradient2377);fill-opacity:1;fill-rule:evenodd;stroke:none;stroke-width:1.02044296px;marker:none;visibility:visible;display:inline;overflow:visible;font-family:Bitstream Vera Sans" />
    <path
       d="m 10.646473,4.5128776 c -0.588689,0 -0.443717,0.042148 -0.8005609,0.3967188 -9e-7,0 -4.1538935,5.0041066 -4.1538935,5.0041066 -0.3532137,0.361195 -0.1969637,0.928011 -0.1969637,1.447532 0,0 0,31.548286 0,31.548286 0,1.055617 0.6195705,1.584482 1.5600275,1.584481 l 19.5254346,0 c 1.052637,0 0.901063,-0.565817 0.910653,-1.266527 0,0 0,-32.048286 0,-32.048286 0,-0.472156 -0.183869,-0.839972 -0.353214,-0.984717 L 23.567825,5.1267522 C 23.158545,4.6276094 22.791315,4.5244866 22.331577,4.5128776 l -11.685104,0 z"
       inkscape:connector-curvature="0"
       id="path4081"
       style="fill:none;stroke:#ffffff;stroke-width:0.99999976;stroke-linecap:round;stroke-linejoin:round;stroke-miterlimit:4;stroke-opacity:1;stroke-dasharray:none" />
    <rect
       width="22.40625"
       height="1.0312501"
       x="5"
       y="9.96875"
       id="rect4083"
       style="color:#000000;fill:#ffffff;fill-opacity:1;fill-rule:evenodd;stroke:none;stroke-width:1;marker:none;visibility:visible;display:inline;overflow:visible" />
    <path
       d="m 5,11 23,0 C 28,11 22.125,23 16.375,23 10.625,23 5,11 5,11 z"
       inkscape:connector-curvature="0"
       id="path4085"
       style="opacity:0.79120878;color:#000000;fill:url(#radialGradient4093);fill-opacity:1;fill-rule:evenodd;stroke:none;stroke-width:1;marker:none;visibility:visible;display:inline;overflow:visible" />
    <rect
       width="7"
       height="7"
       rx="2.25"
       ry="2.25"
       x="13"
       y="28"
       id="rect4095"
       style="opacity:0.79120878;color:#000000;fill:#cccccc;fill-opacity:1;fill-rule:evenodd;stroke:url(#linearGradient4103);stroke-width:1;stroke-linecap:butt;stroke-linejoin:round;stroke-miterlimit:4;stroke-opacity:1;stroke-dasharray:none;stroke-dashoffset:0;marker:none;visibility:visible;display:inline;overflow:visible" />
    <path
       d="m 42,33.984375 a 0.984375,0.984375 0 1 1 -1.96875,0 0.984375,0.984375 0 1 1 1.96875,0 z"
       transform="matrix(1.015875,0,0,1.015875,-18.66677,5.476111)"
       id="path2375"
       style="color:#000000;fill:#cee14b;fill-opacity:1;fill-rule:evenodd;stroke:none;stroke-width:1.02044296px;marker:none;visibility:visible;display:inline;overflow:visible;font-family:Bitstream Vera Sans" />
    <g
       transform="matrix(0.50181,0,0,0.50181,23.17801,18.42688)"
       id="g1491">
      <g
         id="g1493" />
      <g
         id="layer1">
        <g
           id="g4006">
          <path
             d="m 46.857143,23.928572 a 23.357143,23.357143 0 1 1 -46.7142864,0 23.357143,23.357143 0 1 1 46.7142864,0 z"
             transform="matrix(0.920488,0,0,0.920488,2.368532,0.97408)"
             id="path1314"
             style="fill:url(#linearGradient3978);fill-opacity:1;fill-rule:nonzero;stroke:#b20000;stroke-width:2.16492105;stroke-linecap:butt;stroke-linejoin:miter;stroke-miterlimit:4;stroke-opacity:1;stroke-dasharray:none" />
          <path
             d="m 49.901535,26.635273 a 23.991123,23.991123 0 1 1 -47.9822464,0 23.991123,23.991123 0 1 1 47.9822464,0 z"
             transform="matrix(0.804178,0,0,0.804178,3.163406,1.58053)"
             id="path3560"
             style="opacity:0.34659089;fill:#cc0000;fill-opacity:0;stroke:url(#linearGradient3980);stroke-width:2.47803497;stroke-linecap:butt;stroke-linejoin:miter;stroke-miterlimit:4;stroke-opacity:1;stroke-dasharray:none" />
        </g>
      </g>
      <g
         id="layer3">
        <path
           d="m 21.158162,27.488536 -0.453606,-20.6021603 5.886332,0 -0.388805,20.6021603 -5.043921,0 z"
           inkscape:connector-curvature="0"
           id="rect2070"
           style="fill:#efefef;fill-opacity:1;fill-rule:nonzero;stroke:none" />
      </g>
      <g
         id="layer4">
        <path
           d="m 43.370686,21.715486 c 0,10.830616 -10.354329,-6.266308 -18.674738,0.386388 -8.126322,6.497511 -20.5969643,12.190548 -20.5969643,1.359932 0,-11.084053 8.6953963,-21.3670028 19.5260163,-21.3670028 10.830619,0 19.745686,8.7900648 19.745686,19.6206828 z"
           inkscape:connector-curvature="0"
           transform="matrix(1.002994,0,0,1.002994,-0.07185874,0.01968356)"
           id="path3955"
           style="fill:url(#linearGradient3982);fill-opacity:1;fill-rule:nonzero;stroke:none" />
      </g>
    </g>
    <path
       d="m 35.797279,38.542446 a 1.8561553,1.8561553 0 1 1 -3.71231,0 1.8561553,1.8561553 0 1 1 3.71231,0 z"
       transform="translate(1.191942,-3.176777)"
       id="path4327"
       style="color:#000000;fill:#efefef;fill-opacity:1;fill-rule:evenodd;stroke:none;stroke-width:1;marker:none;visibility:visible;display:inline;overflow:visible" />
  </g>
</svg>
