<?xml version="1.0" encoding="UTF-8" standalone="no"?>
<!-- Created with Inkscape (http://www.inkscape.org/) -->

<svg
   xmlns:dc="http://purl.org/dc/elements/1.1/"
   xmlns:cc="http://creativecommons.org/ns#"
   xmlns:rdf="http://www.w3.org/1999/02/22-rdf-syntax-ns#"
   xmlns:svg="http://www.w3.org/2000/svg"
   xmlns="http://www.w3.org/2000/svg"
   xmlns:xlink="http://www.w3.org/1999/xlink"
   xmlns:inkscape="http://www.inkscape.org/namespaces/inkscape"
   version="1.0"
   width="48"
   height="48"
   id="svg1328">
  <metadata
     id="metadata198">
    <rdf:RDF>
      <cc:Work
         rdf:about="">
        <dc:format>image/svg+xml</dc:format>
        <dc:type
           rdf:resource="http://purl.org/dc/dcmitype/StillImage" />
      </cc:Work>
    </rdf:RDF>
  </metadata>
  <defs
     id="defs3">
    <linearGradient
       id="linearGradient3247">
      <stop
         id="stop3249"
         style="stop-color:#f0f0f0;stop-opacity:1"
         offset="0" />
      <stop
         id="stop3251"
         style="stop-color:#f0f0f0;stop-opacity:0"
         offset="1" />
    </linearGradient>
    <linearGradient
       id="linearGradient3233">
      <stop
         id="stop3235"
         style="stop-color:#eeeeec;stop-opacity:1"
         offset="0" />
      <stop
         id="stop3237"
         style="stop-color:#a3a398;stop-opacity:1"
         offset="1" />
    </linearGradient>
    <linearGradient
       id="linearGradient6924">
      <stop
         id="stop6926"
         style="stop-color:#ffffff;stop-opacity:1"
         offset="0" />
      <stop
         id="stop6928"
         style="stop-color:#ffffff;stop-opacity:0"
         offset="1" />
    </linearGradient>
    <linearGradient
       id="linearGradient4176">
      <stop
         id="stop4178"
         style="stop-color:#ffffff;stop-opacity:1"
         offset="0" />
      <stop
         id="stop4180"
         style="stop-color:#ffffff;stop-opacity:0"
         offset="1" />
    </linearGradient>
    <linearGradient
       id="linearGradient4134">
      <stop
         id="stop4136"
         style="stop-color:#d6d7d5;stop-opacity:1"
         offset="0" />
      <stop
         id="stop4148"
         style="stop-color:#d1d2d0;stop-opacity:1"
         offset="0.25" />
      <stop
         id="stop4142"
         style="stop-color:#a5a6a3;stop-opacity:1"
         offset="0.5" />
      <stop
         id="stop4138"
         style="stop-color:#dddedc;stop-opacity:1"
         offset="1" />
    </linearGradient>
    <linearGradient
       id="linearGradient4126">
      <stop
         id="stop4128"
         style="stop-color:#000000;stop-opacity:1"
         offset="0" />
      <stop
         id="stop4130"
         style="stop-color:#000000;stop-opacity:0"
         offset="1" />
    </linearGradient>
    <radialGradient
       cx="23.857143"
       cy="40"
       r="17.142857"
       fx="23.857143"
       fy="40"
       id="radialGradient4132"
       xlink:href="#linearGradient4126"
       gradientUnits="userSpaceOnUse"
       gradientTransform="matrix(1,0,0,0.5,0,20)" />
    <radialGradient
       cx="23.857143"
       cy="40"
       r="17.142857"
       fx="23.857143"
       fy="40"
       id="radialGradient6946"
       xlink:href="#linearGradient4126"
       gradientUnits="userSpaceOnUse"
       gradientTransform="matrix(1,0,0,0.5,0,20)" />
    <linearGradient
       x1="24"
       y1="17.245949"
       x2="23.433737"
       y2="8.0476589"
       id="linearGradient3255"
       xlink:href="#linearGradient3233"
       gradientUnits="userSpaceOnUse" />
    <linearGradient
       id="linearGradient3260">
      <stop
         id="stop3262"
         style="stop-color:#3465a4;stop-opacity:1"
         offset="0" />
      <stop
         id="stop3264"
         style="stop-color:#8fb1dc;stop-opacity:1"
         offset="1" />
    </linearGradient>
    <linearGradient
       id="linearGradient3815">
      <stop
         id="stop3817"
         style="stop-color:#204a87;stop-opacity:1"
         offset="0" />
      <stop
         id="stop3819"
         style="stop-color:#98b8e7;stop-opacity:1"
         offset="1" />
    </linearGradient>
    <linearGradient
       id="linearGradient3805">
      <stop
         id="stop3807"
         style="stop-color:#284e7f;stop-opacity:1"
         offset="0" />
      <stop
         id="stop3813"
         style="stop-color:#6694cf;stop-opacity:1"
         offset="0.5" />
      <stop
         id="stop3809"
         style="stop-color:#234570;stop-opacity:1"
         offset="1" />
    </linearGradient>
    <linearGradient
       x1="9.3030529"
       y1="26.71875"
       x2="38.826412"
       y2="26.71875"
       id="linearGradient2572"
       xlink:href="#linearGradient4134"
       gradientUnits="userSpaceOnUse"
       gradientTransform="matrix(0.573686,0,0,0.617087,49.87395,-4.037989)" />
    <linearGradient
       x1="17.160095"
       y1="14.004482"
       x2="37.969398"
       y2="56.575912"
       id="linearGradient2574"
       xlink:href="#linearGradient4176"
       gradientUnits="userSpaceOnUse"
       gradientTransform="matrix(0.559909,0,0,0.617965,50.20771,-4.041853)" />
    <linearGradient
       x1="34.244171"
       y1="17.695425"
       x2="34.244171"
       y2="29.91827"
       id="linearGradient2576"
       xlink:href="#linearGradient3247"
       gradientUnits="userSpaceOnUse"
       gradientTransform="matrix(0.588804,0,0,0.622475,49.63814,-3.016176)" />
    <linearGradient
       x1="11.003058"
       y1="32.489445"
       x2="32.396713"
       y2="32.489445"
       id="linearGradient2578"
       xlink:href="#linearGradient3805"
       gradientUnits="userSpaceOnUse"
       gradientTransform="matrix(0.757466,0,0,0.79213,52.62229,-3.308503)" />
    <linearGradient
       x1="21.486856"
       y1="25.114395"
       x2="21.756248"
       y2="5.5616603"
       id="linearGradient2580"
       xlink:href="#linearGradient3260"
       gradientUnits="userSpaceOnUse" />
    <linearGradient
       x1="25.698481"
       y1="11.170371"
       x2="25.573168"
       y2="20.118456"
       id="linearGradient2582"
       xlink:href="#linearGradient3815"
       gradientUnits="userSpaceOnUse" />
    <linearGradient
       x1="24"
       y1="17.245949"
       x2="23.433737"
       y2="8.0476589"
       id="linearGradient2584"
       xlink:href="#linearGradient3233"
       gradientUnits="userSpaceOnUse" />
    <radialGradient
       cx="23.857143"
       cy="40"
       r="17.142857"
       fx="23.857143"
       fy="40"
       id="radialGradient2586"
       xlink:href="#linearGradient4126"
       gradientUnits="userSpaceOnUse"
       gradientTransform="matrix(1,0,0,0.5,0,20)" />
    <linearGradient
       x1="16.07143"
       y1="19.5"
       x2="15.785715"
       y2="30"
       id="linearGradient2588"
       xlink:href="#linearGradient6924"
       gradientUnits="userSpaceOnUse"
       gradientTransform="matrix(0.588804,0,0,0.622475,49.49454,-2.501044)" />
    <linearGradient
       x1="24"
       y1="17.245949"
       x2="23.433737"
       y2="8.0476589"
       id="linearGradient2590"
       xlink:href="#linearGradient3233"
       gradientUnits="userSpaceOnUse" />
    <linearGradient
       id="linearGradient8216">
      <stop
         id="stop8218"
         style="stop-color:#888a85;stop-opacity:1"
         offset="0" />
      <stop
         id="stop8220"
         style="stop-color:#babdb6;stop-opacity:1"
         offset="1" />
    </linearGradient>
    <linearGradient
       id="linearGradient8046">
      <stop
         id="stop8048"
         style="stop-color:#ffffff;stop-opacity:1"
         offset="0" />
      <stop
         id="stop8050"
         style="stop-color:#888a85;stop-opacity:1"
         offset="1" />
    </linearGradient>
    <linearGradient
       id="linearGradient7088">
      <stop
         id="stop7090"
         style="stop-color:#ffffff;stop-opacity:1"
         offset="0" />
      <stop
         id="stop7092"
         style="stop-color:#ffffff;stop-opacity:0"
         offset="1" />
    </linearGradient>
    <linearGradient
       id="linearGradient7972">
      <stop
         id="stop7974"
         style="stop-color:#ffffff;stop-opacity:1"
         offset="0" />
      <stop
         id="stop7976"
         style="stop-color:#eeeeec;stop-opacity:1"
         offset="1" />
    </linearGradient>
    <linearGradient
       id="linearGradient7917">
      <stop
         id="stop7919"
         style="stop-color:#ffffff;stop-opacity:1"
         offset="0" />
      <stop
         id="stop7921"
         style="stop-color:#ffffff;stop-opacity:0"
         offset="1" />
    </linearGradient>
    <linearGradient
       id="linearGradient8236">
      <stop
         id="stop8238"
         style="stop-color:#000000;stop-opacity:1"
         offset="0" />
      <stop
         id="stop8240"
         style="stop-color:#000000;stop-opacity:0"
         offset="1" />
    </linearGradient>
    <linearGradient
       x1="21.8125"
       y1="7.6875"
       x2="26.5"
       y2="19.9375"
       id="linearGradient7094"
       xlink:href="#linearGradient7088"
       gradientUnits="userSpaceOnUse" />
    <linearGradient
       x1="64.5625"
       y1="42.625"
       x2="64.5"
       y2="41"
       id="linearGradient6122"
       xlink:href="#linearGradient8012"
       gradientUnits="userSpaceOnUse"
       gradientTransform="matrix(1,0,0,-1,-38,50.058522)" />
    <linearGradient
       x1="64.5625"
       y1="42.625"
       x2="64.5"
       y2="41"
       id="linearGradient6118"
       xlink:href="#linearGradient8000"
       gradientUnits="userSpaceOnUse"
       gradientTransform="matrix(1,0,0,-1,-40,50.058522)" />
    <linearGradient
       x1="64.5625"
       y1="42.625"
       x2="64.5"
       y2="41"
       id="linearGradient6116"
       xlink:href="#linearGradient8012"
       gradientUnits="userSpaceOnUse"
       gradientTransform="matrix(1,0,0,-1,-40,50.058522)" />
    <linearGradient
       x1="24.375"
       y1="25.375"
       x2="28.087311"
       y2="52.811184"
       id="linearGradient7532"
       xlink:href="#linearGradient7526"
       gradientUnits="userSpaceOnUse" />
    <linearGradient
       x1="27.53125"
       y1="32.21875"
       x2="23.749973"
       y2="22.53125"
       id="linearGradient7511"
       xlink:href="#linearGradient8357"
       gradientUnits="userSpaceOnUse" />
    <linearGradient
       x1="43.5"
       y1="30.5"
       x2="44.0625"
       y2="32.313343"
       id="linearGradient7491"
       xlink:href="#linearGradient7215"
       gradientUnits="userSpaceOnUse"
       gradientTransform="translate(-20,0)" />
    <linearGradient
       x1="43.53125"
       y1="33.46875"
       x2="44"
       y2="35.4375"
       id="linearGradient7488"
       xlink:href="#linearGradient7223"
       gradientUnits="userSpaceOnUse"
       gradientTransform="translate(-20,0)" />
    <linearGradient
       x1="43.480392"
       y1="36.505032"
       x2="43.988625"
       y2="38.4375"
       id="linearGradient7485"
       xlink:href="#linearGradient7231"
       gradientUnits="userSpaceOnUse"
       gradientTransform="translate(-20,0)" />
    <linearGradient
       x1="38.491497"
       y1="24.541054"
       x2="38.947304"
       y2="26.4375"
       id="linearGradient7482"
       xlink:href="#linearGradient7199"
       gradientUnits="userSpaceOnUse"
       gradientTransform="translate(-20,0)" />
    <linearGradient
       x1="43.493069"
       y1="24.486135"
       x2="44"
       y2="26.4375"
       id="linearGradient7479"
       xlink:href="#linearGradient7199"
       gradientUnits="userSpaceOnUse"
       gradientTransform="translate(-20,0)" />
    <linearGradient
       x1="48.478554"
       y1="24.508232"
       x2="48.976982"
       y2="26.4375"
       id="linearGradient7476"
       xlink:href="#linearGradient7199"
       gradientUnits="userSpaceOnUse"
       gradientTransform="translate(-20,0)" />
    <linearGradient
       x1="38.491497"
       y1="24.541054"
       x2="38.947304"
       y2="26.4375"
       id="linearGradient7473"
       xlink:href="#linearGradient7199"
       gradientUnits="userSpaceOnUse"
       gradientTransform="translate(-20,3)" />
    <linearGradient
       x1="43.493069"
       y1="24.486135"
       x2="44"
       y2="26.4375"
       id="linearGradient7470"
       xlink:href="#linearGradient7199"
       gradientUnits="userSpaceOnUse"
       gradientTransform="translate(-20,3)" />
    <linearGradient
       x1="48.478554"
       y1="24.508232"
       x2="48.976982"
       y2="26.4375"
       id="linearGradient7467"
       xlink:href="#linearGradient7199"
       gradientUnits="userSpaceOnUse"
       gradientTransform="translate(-20,3)" />
    <linearGradient
       x1="38.5"
       y1="30.5"
       x2="39"
       y2="32.500843"
       id="linearGradient7464"
       xlink:href="#linearGradient7215"
       gradientUnits="userSpaceOnUse"
       gradientTransform="translate(-20,0)" />
    <linearGradient
       x1="48.5"
       y1="30.46875"
       x2="49"
       y2="32.4375"
       id="linearGradient7461"
       xlink:href="#linearGradient7215"
       gradientUnits="userSpaceOnUse"
       gradientTransform="translate(-20,0)" />
    <linearGradient
       x1="48.53125"
       y1="33.46875"
       x2="49"
       y2="35.4375"
       id="linearGradient7458"
       xlink:href="#linearGradient7223"
       gradientUnits="userSpaceOnUse"
       gradientTransform="translate(-20,0)" />
    <linearGradient
       x1="38.5"
       y1="33.5625"
       x2="39.0625"
       y2="35.497356"
       id="linearGradient7455"
       xlink:href="#linearGradient7223"
       gradientUnits="userSpaceOnUse"
       gradientTransform="translate(-20,0)" />
    <linearGradient
       x1="39.502918"
       y1="36.460838"
       x2="40.01115"
       y2="38.440475"
       id="linearGradient7452"
       xlink:href="#linearGradient7231"
       gradientUnits="userSpaceOnUse"
       gradientTransform="translate(-20,0)" />
    <linearGradient
       x1="48.496433"
       y1="36.460838"
       x2="48.982567"
       y2="38.4375"
       id="linearGradient7449"
       xlink:href="#linearGradient7231"
       gradientUnits="userSpaceOnUse"
       gradientTransform="translate(-20,0)" />
    <linearGradient
       x1="26.499495"
       y1="21.108738"
       x2="29.249495"
       y2="44.788391"
       id="linearGradient7287"
       xlink:href="#linearGradient7281"
       gradientUnits="userSpaceOnUse" />
    <linearGradient
       x1="23.334524"
       y1="12.556273"
       x2="23.334524"
       y2="28.203257"
       id="linearGradient8242"
       xlink:href="#linearGradient8236"
       gradientUnits="userSpaceOnUse"
       gradientTransform="translate(0,-1)" />
    <radialGradient
       cx="27.9375"
       cy="38.0625"
       r="12.0625"
       fx="27.9375"
       fy="38.0625"
       id="radialGradient8234"
       xlink:href="#linearGradient8228"
       gradientUnits="userSpaceOnUse"
       gradientTransform="matrix(1,0,0,0.8134715,0,7.0997409)" />
    <linearGradient
       x1="71.739273"
       y1="2.2823277"
       x2="71.739273"
       y2="5.5714717"
       id="linearGradient8222"
       xlink:href="#linearGradient8216"
       gradientUnits="userSpaceOnUse"
       gradientTransform="translate(-40,0)" />
    <radialGradient
       cx="64.5"
       cy="29.797501"
       r="10.5"
       fx="64.5"
       fy="29.797501"
       id="radialGradient8054"
       xlink:href="#linearGradient8046"
       gradientUnits="userSpaceOnUse"
       gradientTransform="matrix(1.328134,0,0,7.0060184,-61.16464,-173.01183)" />
    <linearGradient
       x1="64.5625"
       y1="42.625"
       x2="64.5"
       y2="41"
       id="linearGradient8010"
       xlink:href="#linearGradient8012"
       gradientUnits="userSpaceOnUse"
       gradientTransform="matrix(1,0,0,-1,-39,83.058522)" />
    <linearGradient
       x1="64.5625"
       y1="42.625"
       x2="64.5"
       y2="41"
       id="linearGradient8006"
       xlink:href="#linearGradient8000"
       gradientUnits="userSpaceOnUse"
       gradientTransform="matrix(1,0,0,-1,-39,83.058522)" />
    <linearGradient
       x1="64.375"
       y1="9.3125"
       x2="64.375"
       y2="23.438053"
       id="linearGradient7998"
       xlink:href="#linearGradient7992"
       gradientUnits="userSpaceOnUse"
       gradientTransform="translate(-89,-1)" />
    <linearGradient
       x1="65.4375"
       y1="19.690521"
       x2="65.4375"
       y2="10.6875"
       id="linearGradient7978"
       xlink:href="#linearGradient7972"
       gradientUnits="userSpaceOnUse"
       gradientTransform="translate(-40,-1)" />
    <linearGradient
       x1="59.510406"
       y1="8.375"
       x2="87.042259"
       y2="92.265244"
       id="linearGradient7923"
       xlink:href="#linearGradient7917"
       gradientUnits="userSpaceOnUse"
       gradientTransform="translate(-40,0)" />
    <linearGradient
       id="linearGradient7992">
      <stop
         id="stop7994"
         style="stop-color:#ffffff;stop-opacity:1"
         offset="0" />
      <stop
         id="stop7996"
         style="stop-color:#d3d7cf;stop-opacity:0"
         offset="1" />
    </linearGradient>
    <linearGradient
       id="linearGradient8000">
      <stop
         id="stop8002"
         style="stop-color:#2e3436;stop-opacity:1"
         offset="0" />
      <stop
         id="stop8004"
         style="stop-color:#888a85;stop-opacity:1"
         offset="1" />
    </linearGradient>
    <linearGradient
       id="linearGradient8012">
      <stop
         id="stop8014"
         style="stop-color:#2e3436;stop-opacity:1"
         offset="0" />
      <stop
         id="stop8016"
         style="stop-color:#888a85;stop-opacity:1"
         offset="1" />
    </linearGradient>
    <linearGradient
       id="linearGradient8228">
      <stop
         id="stop8230"
         style="stop-color:#000000;stop-opacity:1"
         offset="0" />
      <stop
         id="stop8232"
         style="stop-color:#000000;stop-opacity:0"
         offset="1" />
    </linearGradient>
    <linearGradient
       id="linearGradient8357">
      <stop
         id="stop8359"
         style="stop-color:#ffffff;stop-opacity:1"
         offset="0" />
      <stop
         id="stop8361"
         style="stop-color:#888a85;stop-opacity:1"
         offset="1" />
    </linearGradient>
    <linearGradient
       id="linearGradient7199">
      <stop
         id="stop7201"
         style="stop-color:#ffffff;stop-opacity:1"
         offset="0" />
      <stop
         id="stop7203"
         style="stop-color:#ffffff;stop-opacity:0"
         offset="1" />
    </linearGradient>
    <linearGradient
       id="linearGradient7215">
      <stop
         id="stop7217"
         style="stop-color:#ffffff;stop-opacity:1"
         offset="0" />
      <stop
         id="stop7219"
         style="stop-color:#ffffff;stop-opacity:0"
         offset="1" />
    </linearGradient>
    <linearGradient
       id="linearGradient7223">
      <stop
         id="stop7225"
         style="stop-color:#ffffff;stop-opacity:1"
         offset="0" />
      <stop
         id="stop7227"
         style="stop-color:#ffffff;stop-opacity:0"
         offset="1" />
    </linearGradient>
    <linearGradient
       id="linearGradient7231">
      <stop
         id="stop7233"
         style="stop-color:#ffffff;stop-opacity:1"
         offset="0" />
      <stop
         id="stop7235"
         style="stop-color:#ffffff;stop-opacity:0"
         offset="1" />
    </linearGradient>
    <linearGradient
       id="linearGradient7281">
      <stop
         id="stop7283"
         style="stop-color:#2e3436;stop-opacity:1"
         offset="0" />
      <stop
         id="stop7285"
         style="stop-color:#888a85;stop-opacity:1"
         offset="1" />
    </linearGradient>
    <linearGradient
       id="linearGradient7526">
      <stop
         id="stop7528"
         style="stop-color:#888a85;stop-opacity:1"
         offset="0" />
      <stop
         id="stop7530"
         style="stop-color:#d3d7cf;stop-opacity:0.49803922"
         offset="1" />
    </linearGradient>
  </defs>
  <g
     id="layer1">
    <path
       d="M 41,40 A 17.142857,8.5714283 0 1 1 6.7142868,40 17.142857,8.5714283 0 1 1 41,40 z"
       inkscape:connector-curvature="0"
       transform="matrix(0.831993,0,0,0.904687,-5.111713,-7.837026)"
       id="path3366"
       style="color:#000000;fill:url(#radialGradient4132);fill-opacity:1;fill-rule:nonzero;stroke:none;stroke-width:1;marker:none;visibility:visible;display:block;overflow:visible" />
    <path
       d="M 41,40 A 17.142857,8.5714283 0 1 1 6.7142868,40 17.142857,8.5714283 0 1 1 41,40 z"
       inkscape:connector-curvature="0"
       transform="matrix(0.285592,0,0,0.285592,7.630674,-3.417084)"
       id="path6944"
       style="opacity:0.30769234;color:#000000;fill:url(#radialGradient6946);fill-opacity:1;fill-rule:nonzero;stroke:none;stroke-width:1;marker:none;visibility:visible;display:block;overflow:visible" />
    <g
       transform="translate(-56.21011,3.45207)"
       id="g2018">
      <path
         d="m 70.754127,2.3850427 c -5.953246,0 -10.793885,2.2007337 -10.793886,4.9079694 0,0.1942651 0,17.9571639 0,18.1594819 0,2.707236 4.840639,4.907969 10.793886,4.907969 5.953247,0 10.986635,-2.200734 10.986634,-4.907969 0,-0.160244 0,-17.999238 0,-18.1594819 0,-2.7072365 -5.033388,-4.9079694 -10.986634,-4.9079694 z"
         inkscape:connector-curvature="0"
         id="path1912"
         style="color:#000000;fill:url(#linearGradient2572);fill-opacity:1;fill-rule:nonzero;stroke:#767973;stroke-width:0.9999997;stroke-linecap:butt;stroke-linejoin:miter;stroke-miterlimit:10;stroke-opacity:1;stroke-dasharray:none;stroke-dashoffset:0;marker:none;visibility:visible;display:block;overflow:visible" />
      <path
         d="m 70.760659,3.0029254 c -5.550526,0 -10.063709,2.0547787 -10.063709,4.5824666 0,0.1813819 0,17.211018 0,17.399918 0,2.527689 4.513182,4.582467 10.063709,4.582467 5.550525,0 10.243418,-2.054778 10.243416,-4.582467 0,-0.149615 0,-17.2503005 0,-17.399918 0,-2.5276887 -4.692892,-4.5824666 -10.243416,-4.5824666 z"
         inkscape:connector-curvature="0"
         id="path1914"
         style="opacity:0.5443038;color:#000000;fill:none;stroke:url(#linearGradient2574);stroke-width:0.99999982;stroke-linecap:butt;stroke-linejoin:miter;stroke-miterlimit:10;stroke-opacity:1;stroke-dasharray:none;stroke-dashoffset:0;marker:none;visibility:visible;display:block;overflow:visible" />
      <path
         d="M 79.785332,5.9475489 C 78.945215,5.1672137 78.234848,4.9296317 77.489865,4.5472477 l 0.229545,14.8031853 2.065922,2.56055 0,-15.9634341 z"
         inkscape:connector-curvature="0"
         id="path1916"
         style="color:#000000;fill:url(#linearGradient2576);fill-opacity:1;fill-rule:nonzero;stroke:none;stroke-width:0.99999946;marker:none;visibility:visible;display:block;overflow:visible" />
      <path
         d="m 70.322762,4.2335617 c -5.002388,0.1067205 -8.98873,1.8535351 -8.98873,3.9829987 0,0.2524447 0,16.2904556 0,16.5411826 0,2.198155 4.226309,3.982996 9.454812,3.982998 5.228504,0 9.477006,-1.784843 9.477007,-3.982998 0,-0.250727 0,-16.2887379 0,-16.5411826 0,-2.1981563 -4.248503,-3.9829979 -9.477007,-3.9829987 -0.163391,0 -0.304715,-0.00344 -0.466082,0 z"
         inkscape:connector-curvature="0"
         id="path1918"
         style="opacity:0.79120878;color:#000000;fill:url(#linearGradient2578);fill-opacity:1;fill-rule:nonzero;stroke:#204a87;stroke-width:0.99621493;stroke-linecap:butt;stroke-linejoin:miter;stroke-miterlimit:10;stroke-opacity:1;stroke-dasharray:none;stroke-dashoffset:0;marker:none;visibility:visible;display:block;overflow:visible" />
      <path
         d="m 36.857142,14.071428 a 12.857142,5.5 0 1 1 -25.714284,0 12.857142,5.5 0 1 1 25.714284,0 z"
         inkscape:connector-curvature="0"
         transform="matrix(0.736706,0,0,0.685875,53.11824,-2.056787)"
         id="path1920"
         style="color:#000000;fill:url(#linearGradient2580);fill-opacity:1;fill-rule:nonzero;stroke:url(#linearGradient2582);stroke-width:1.4067924;stroke-linecap:butt;stroke-linejoin:miter;stroke-miterlimit:10;stroke-opacity:1;stroke-dasharray:none;stroke-dashoffset:0;marker:none;visibility:visible;display:block;overflow:visible" />
      <path
         d="m 36.857142,14.071428 a 12.857142,5.5 0 1 1 -25.714284,0 12.857142,5.5 0 1 1 25.714284,0 z"
         inkscape:connector-curvature="0"
         transform="matrix(0.785713,0,0,0.763887,51.94438,-3.590035)"
         id="path1922"
         style="opacity:0.467033;color:#000000;fill:#f0f0f0;fill-opacity:1;fill-rule:nonzero;stroke:url(#linearGradient2584);stroke-width:1.29078352;stroke-linecap:butt;stroke-linejoin:miter;stroke-miterlimit:10;stroke-opacity:1;stroke-dasharray:none;stroke-dashoffset:0;marker:none;visibility:visible;display:block;overflow:visible" />
      <path
         d="M 41,40 A 17.142857,8.5714283 0 1 1 6.7142868,40 17.142857,8.5714283 0 1 1 41,40 z"
         inkscape:connector-curvature="0"
         transform="matrix(0.275285,0,0,0.287884,64.05955,-6.99374)"
         id="path1924"
         style="opacity:0.30769234;color:#000000;fill:url(#radialGradient2586);fill-opacity:1;fill-rule:nonzero;stroke:none;stroke-width:1;marker:none;visibility:visible;display:block;overflow:visible" />
      <path
         d="m 70.869327,1.1947586 c -1.517048,0 -3.508038,0.565702 -3.508038,1.2616009 0,0.049936 0,2.0310252 0,2.0830317 0,0.6958989 1.99099,1.2616009 3.508038,1.2616009 1.517048,0 3.340739,-0.565702 3.340738,-1.2616009 0,-0.041191 0,-2.041841 0,-2.0830317 0,-0.6958997 -1.82369,-1.2616009 -3.340738,-1.2616009 z"
         inkscape:connector-curvature="0"
         id="path1926"
         style="color:#000000;fill:#9d9e9b;fill-opacity:1;fill-rule:nonzero;stroke:#7d7f7a;stroke-width:0.99999964;stroke-linecap:butt;stroke-linejoin:miter;stroke-miterlimit:10;stroke-opacity:1;stroke-dasharray:none;stroke-dashoffset:0;marker:none;visibility:visible;display:block;overflow:visible" />
      <path
         d="m 63.0645,10.893256 0.270523,13.296469 3.462702,1.018452 -0.10821,-13.239887 c 0,0 1.46861,-0.07001 4.01153,-0.239757 -4.921539,-0.03959 -8.136267,-1.250116 -9.908942,-3.0419242 1.073252,1.6572752 2.272397,2.2066472 2.272397,2.2066472 z"
         inkscape:connector-curvature="0"
         id="path1928"
         style="opacity:0.58241763;color:#000000;fill:url(#linearGradient2588);fill-opacity:1;fill-rule:nonzero;stroke:none;stroke-width:1;marker:none;visibility:visible;display:block;overflow:visible" />
      <path
         d="m 36.857142,14.071428 a 12.857142,5.5 0 1 1 -25.714284,0 12.857142,5.5 0 1 1 25.714284,0 z"
         inkscape:connector-curvature="0"
         transform="matrix(0.206015,0,0,0.152173,65.85475,0.536003)"
         id="path1930"
         style="color:#000000;fill:#d3d7cf;fill-opacity:1;fill-rule:nonzero;stroke:url(#linearGradient2590);stroke-width:5.64783573;stroke-linecap:butt;stroke-linejoin:miter;stroke-miterlimit:10;stroke-opacity:1;stroke-dasharray:none;stroke-dashoffset:0;marker:none;visibility:visible;display:block;overflow:visible" />
    </g>
    <path
       d="m 14.695397,4.7062278 c -1.573844,0 -3.639374,0.5611986 -3.639374,1.2515575 0,0.049538 0,2.0148567 0,2.0664492 0,0.6903589 2.06553,1.2515575 3.639374,1.2515575 1.573844,0 3.465811,-0.5611986 3.46581,-1.2515575 0,-0.040863 0,-2.0255863 0,-2.0664492 0,-0.6903597 -1.891966,-1.2515575 -3.46581,-1.2515575 z"
       inkscape:connector-curvature="0"
       id="path3362"
       style="color:#000000;fill:#9d9e9b;fill-opacity:1;fill-rule:nonzero;stroke:#7d7f7a;stroke-width:1;stroke-linecap:butt;stroke-linejoin:miter;stroke-miterlimit:10;stroke-opacity:1;stroke-dasharray:none;stroke-dashoffset:0;marker:none;visibility:visible;display:block;overflow:visible" />
    <path
       d="m 36.857142,14.071428 a 12.857142,5.5 0 1 1 -25.714284,0 12.857142,5.5 0 1 1 25.714284,0 z"
       inkscape:connector-curvature="0"
       transform="matrix(0.213728,0,0,0.150961,9.493084,4.052715)"
       id="path6940"
       style="color:#000000;fill:#d3d7cf;fill-opacity:1;fill-rule:nonzero;stroke:url(#linearGradient3255);stroke-width:5.5671978;stroke-linecap:butt;stroke-linejoin:miter;stroke-miterlimit:10;stroke-opacity:1;stroke-dasharray:none;stroke-dashoffset:0;marker:none;visibility:visible;display:block;overflow:visible" />
    <g
       transform="matrix(0.749282,0,0,0.79213,119.0661,5.489991)"
       id="g1932" />
    <g
       transform="translate(66.25488,7.11108)"
       id="g2441" />
    <g
       transform="translate(-6.582105,-40.307286)"
       id="g4438" />
    <g
       transform="translate(19.580575,-71.061856)"
       id="g13531" />
    <g
       transform="translate(72.823395,-31.920476)"
       id="g3054" />
    <g
       transform="translate(116.8234,-15.92048)"
       id="g13534" />
    <g
       transform="translate(47.410715,-8.665906)"
       id="g4305" />
    <g
       transform="translate(10.375,0.21875)"
       id="g3935"
       style="display:inline">
      <rect
         width="2"
         height="9"
         rx="1"
         ry="1"
         x="30.5"
         y="0.5625"
         id="rect7962"
         style="fill:url(#linearGradient8222);fill-opacity:1;fill-rule:evenodd;stroke:#555753;stroke-width:0.99999994;stroke-linecap:round;stroke-linejoin:round;stroke-miterlimit:4;stroke-opacity:1;stroke-dasharray:none" />
      <path
         d="m 40,38.0625 a 12.0625,9.8125 0 1 1 -24.125,0 12.0625,9.8125 0 1 1 24.125,0 z"
         inkscape:connector-curvature="0"
         transform="matrix(1.0673575,0,0,0.4968153,-5.1943,23.214968)"
         id="path8226"
         style="opacity:0.4;fill:url(#radialGradient8234);fill-opacity:1;fill-rule:evenodd;stroke:none" />
      <path
         d="M 19.5625,5.5 C 16.753603,5.5 14.5,7.070666 14.5,9.03125 l 0,24.71875 c 0,5.958578 2.476602,10.75 5.5625,10.75 l 8.875,0 C 32.023397,44.5 34.5,39.708577 34.5,33.75 l 0,-24.71875 C 34.5,7.070666 32.246396,5.5 29.4375,5.5 l -9.875,0 z"
         inkscape:connector-curvature="0"
         id="path7885"
         style="fill:url(#radialGradient8054);fill-opacity:1;fill-rule:evenodd;stroke:#555753;stroke-width:1;stroke-linecap:round;stroke-linejoin:miter;stroke-miterlimit:4;stroke-opacity:1;stroke-dasharray:none" />
      <path
         d="M 19.5625,6 C 18.251247,6 17.065963,6.3684846 16.25,6.9375 15.434037,7.5065154 15,8.2425338 15,9.03125 L 15,33.75 c 0,2.910016 0.605563,5.525023 1.5625,7.375 0.956937,1.849977 2.215832,2.875 3.5,2.875 l 8.875,0 c 1.284168,0 2.543063,-1.025023 3.5,-2.875 C 33.394437,39.275023 34,36.660016 34,33.75 L 34,9.03125 C 34,8.2425339 33.565963,7.5065155 32.75,6.9375 31.934037,6.3684845 30.748752,6 29.4375,6 l -9.875,0 z"
         inkscape:connector-curvature="0"
         id="path7086"
         style="opacity:0.47761195;fill:url(#linearGradient7094);fill-opacity:1;fill-rule:evenodd;stroke:none" />
      <rect
         width="15.999991"
         height="13"
         rx="3.0661337"
         ry="3.0661337"
         x="-32.499992"
         y="9.5"
         transform="scale(-1,1)"
         id="rect7990"
         style="opacity:0.5970149;fill:none;stroke:url(#linearGradient7998);stroke-width:1;stroke-linecap:round;stroke-linejoin:miter;stroke-miterlimit:4;stroke-opacity:1;stroke-dasharray:none" />
      <rect
         width="14"
         height="11"
         rx="2.0388288"
         ry="2.0388288"
         x="17.5"
         y="10.5"
         id="rect7889"
         style="fill:url(#linearGradient7978);fill-opacity:1;fill-rule:evenodd;stroke:#888a85;stroke-width:0.99999994;stroke-linecap:round;stroke-linejoin:miter;stroke-miterlimit:4;stroke-opacity:1;stroke-dasharray:none" />
      <path
         d="M 19.5625,6.5 C 18.343394,6.5 17.249773,6.842685 16.53125,7.34375 15.812727,7.844815 15.5,8.431952 15.5,9.03125 l 0,24.71875 c 0,2.841524 0.590474,5.397929 1.5,7.15625 0.909526,1.758321 2.034198,2.59375 3.0625,2.59375 l 8.875,0 c 1.028302,0 2.152974,-0.835429 3.0625,-2.59375 0.909526,-1.758321 1.5,-4.314727 1.5,-7.15625 l 0,-24.71875 C 33.5,8.431952 33.187274,7.844815 32.46875,7.34375 31.750226,6.842685 30.656606,6.5 29.4375,6.5 l -9.875,0 z"
         inkscape:connector-curvature="0"
         id="path7896"
         style="opacity:0.86194033;fill:none;stroke:url(#linearGradient7923);stroke-width:1;stroke-linecap:round;stroke-linejoin:miter;stroke-miterlimit:4;stroke-opacity:1" />
      <path
         d="M 25.5,41.558522 25.5,40.5"
         inkscape:connector-curvature="0"
         id="path7900"
         style="fill:none;stroke:url(#linearGradient8010);stroke-width:1.00000012px;stroke-linecap:round;stroke-linejoin:miter;stroke-opacity:1" />
      <path
         d="m 23.5,41.558522 0,-1"
         inkscape:connector-curvature="0"
         id="path7905"
         style="fill:none;stroke:url(#linearGradient8006);stroke-width:1px;stroke-linecap:round;stroke-linejoin:miter;stroke-opacity:1" />
      <rect
         width="1"
         height="1"
         x="25"
         y="14"
         id="rect8057"
         style="fill:#3465a4;fill-opacity:1;fill-rule:evenodd;stroke:none" />
      <rect
         width="1"
         height="2"
         x="27"
         y="13"
         id="rect8059"
         style="fill:#3465a4;fill-opacity:1;fill-rule:evenodd;stroke:none" />
      <rect
         width="1"
         height="3"
         x="29"
         y="12"
         id="rect8061"
         style="fill:#3465a4;fill-opacity:1;fill-rule:evenodd;stroke:none" />
      <g
         transform="translate(-50,-1)"
         id="g8067">
        <rect
           width="1"
           height="1"
           x="69"
           y="15"
           id="rect8063"
           style="fill:#3465a4;fill-opacity:1;fill-rule:evenodd;stroke:none" />
        <rect
           width="1"
           height="1"
           x="69"
           y="13"
           id="rect8065"
           style="fill:#3465a4;fill-opacity:1;fill-rule:evenodd;stroke:none" />
      </g>
      <rect
         width="3.0000002"
         height="1"
         x="19"
         y="19"
         id="rect8074"
         style="fill:#3465a4;fill-opacity:1;fill-rule:evenodd;stroke:none" />
      <rect
         width="3.0000002"
         height="1"
         x="27"
         y="19"
         id="rect8076"
         style="fill:#3465a4;fill-opacity:1;fill-rule:evenodd;stroke:none" />
      <rect
         width="13"
         height="1"
         x="18"
         y="18"
         id="rect8078"
         style="opacity:0.39179107;fill:#729fcf;fill-opacity:1;fill-rule:evenodd;stroke:none" />
      <rect
         width="12"
         height="9"
         rx="1.0075788"
         ry="1.0075788"
         x="18.5"
         y="11.5"
         id="rect7980"
         style="opacity:0.09328356;fill:none;stroke:url(#linearGradient8242);stroke-width:0.99999994;stroke-linecap:round;stroke-linejoin:miter;stroke-miterlimit:4;stroke-opacity:1;stroke-dasharray:none" />
      <path
         d="m 71.953125,1.5937499 a 0.453125,0.421875 0 1 1 -0.90625,0 0.453125,0.421875 0 1 1 0.90625,0 z"
         inkscape:connector-curvature="0"
         transform="matrix(1.6551692,0,0,1.7962963,-87.0946,-1.105035)"
         id="path8224"
         style="fill:#eeeeec;fill-opacity:1;fill-rule:evenodd;stroke:none" />
      <path
         d="m 16.5,24.631663 0,3.055837 c 0,3.699177 0.399906,6.497467 1.09375,8.46875 0.346922,0.985642 0.755987,1.750468 1.3125,2.34375 0.556513,0.593282 1.302939,1 2.09375,1 l 7,0 c 0.785425,0 1.535575,-0.380226 2.09375,-0.96875 0.558175,-0.588524 0.965122,-1.392373 1.3125,-2.375 C 32.101007,34.190996 32.5,31.417446 32.5,27.6875 l 0,-3.055837 C 31.801719,23.004152 30.471547,23.5 28.96875,23.5 l -8.9375,0 c -1.85409,0 -2.556891,-0.438624 -3.53125,1.131663 z"
         inkscape:connector-curvature="0"
         id="path8355"
         style="fill:none;stroke:url(#linearGradient7511);stroke-width:0.99999994;stroke-linecap:round;stroke-linejoin:miter;stroke-miterlimit:4;stroke-opacity:1" />
      <path
         d="M 18.0625,24.5 C 17.750875,24.5 17.5,24.750875 17.5,25.0625 l 0,0.875 c 0,0.311625 0.250875,0.5625 0.5625,0.5625 l 2.875,0 c 0.311625,0 0.5625,-0.250875 0.5625,-0.5625 l 0,-0.875 C 21.5,24.750875 21.249125,24.5 20.9375,24.5 l -0.90625,0 -1.96875,0 z m 5,0 C 22.750875,24.5 22.5,24.750875 22.5,25.0625 l 0,0.875 c 0,0.311625 0.250875,0.5625 0.5625,0.5625 l 2.875,0 c 0.311625,0 0.5625,-0.250875 0.5625,-0.5625 l 0,-0.875 C 26.5,24.750875 26.249125,24.5 25.9375,24.5 l -2.875,0 z m 5,0 C 27.750875,24.5 27.5,24.750875 27.5,25.0625 l 0,0.875 c 0,0.311625 0.250875,0.5625 0.5625,0.5625 l 2.875,0 c 0.311625,0 0.5625,-0.250875 0.5625,-0.5625 l 0,-0.875 C 31.5,24.750875 31.249125,24.5 30.9375,24.5 l -1.96875,0 -0.90625,0 z m -10,3 c -0.289811,0 -0.530702,0.218965 -0.5625,0.5 -0.0024,0.02115 0,0.04069 0,0.0625 0.003,0.379919 0.01966,0.734852 0.03125,1.09375 0.08517,0.202025 0.297531,0.34375 0.53125,0.34375 l 2.875,0 c 0.311625,0 0.5625,-0.250875 0.5625,-0.5625 l 0,-0.875 C 21.5,27.750875 21.249125,27.5 20.9375,27.5 l -2.875,0 z m 5,0 C 22.750875,27.5 22.5,27.750875 22.5,28.0625 l 0,0.875 c 0,0.311625 0.250875,0.5625 0.5625,0.5625 l 2.875,0 c 0.311625,0 0.5625,-0.250875 0.5625,-0.5625 l 0,-0.875 C 26.5,27.750875 26.249125,27.5 25.9375,27.5 l -2.875,0 z m 5,0 C 27.750875,27.5 27.5,27.750875 27.5,28.0625 l 0,0.875 c 0,0.311625 0.250875,0.5625 0.5625,0.5625 l 2.875,0 c 0.233719,0 0.446084,-0.141725 0.53125,-0.34375 0.01159,-0.361339 0.02823,-0.710723 0.03125,-1.09375 1.72e-4,-0.02187 -1.44e-4,-0.04056 0,-0.0625 -0.0318,-0.281035 -0.272689,-0.5 -0.5625,-0.5 l -2.875,0 z m -10,3 c -0.179784,0 -0.334665,0.08826 -0.4375,0.21875 0.04378,0.602024 0.08702,1.187395 0.15625,1.71875 0.08225,0.04698 0.179373,0.0625 0.28125,0.0625 l 2.875,0 c 0.311625,0 0.5625,-0.250875 0.5625,-0.5625 l 0,-0.875 C 21.5,30.750875 21.249125,30.5 20.9375,30.5 l -2.875,0 z m 5,0 C 22.750875,30.5 22.5,30.750875 22.5,31.0625 l 0,0.875 c 0,0.311625 0.250875,0.5625 0.5625,0.5625 l 2.875,0 c 0.311625,0 0.5625,-0.250875 0.5625,-0.5625 l 0,-0.875 C 26.5,30.750875 26.249125,30.5 25.9375,30.5 l -2.875,0 z m 5,0 C 27.750875,30.5 27.5,30.750875 27.5,31.0625 l 0,0.875 c 0,0.311625 0.250875,0.5625 0.5625,0.5625 l 2.875,0 c 0.101877,0 0.199002,-0.01552 0.28125,-0.0625 0.06784,-0.526351 0.113185,-1.122038 0.15625,-1.71875 C 31.272165,30.588256 31.117284,30.5 30.9375,30.5 l -2.875,0 z m -10.09375,3 c 0.134459,0.748868 0.283222,1.421542 0.46875,2 l 2.5,0 c 0.311625,0 0.5625,-0.250875 0.5625,-0.5625 l 0,-0.875 C 21.5,33.750875 21.249125,33.5 20.9375,33.5 l -2.875,0 c -0.03272,0 -0.06259,-0.0053 -0.09375,0 z m 5.09375,0 C 22.750875,33.5 22.5,33.750875 22.5,34.0625 l 0,0.875 c 0,0.311625 0.250875,0.5625 0.5625,0.5625 l 2.875,0 c 0.311625,0 0.5625,-0.250875 0.5625,-0.5625 l 0,-0.875 C 26.5,33.750875 26.249125,33.5 25.9375,33.5 l -2.875,0 z m 5,0 C 27.750875,33.5 27.5,33.750875 27.5,34.0625 l 0,0.875 c 0,0.311625 0.250875,0.5625 0.5625,0.5625 l 2.5,0 c 0.183775,-0.574728 0.335469,-1.254667 0.46875,-2 -0.03116,-0.0053 -0.06103,0 -0.09375,0 l -2.875,0 z m -9.125,3 c -0.04719,0 -0.08168,0.01236 -0.125,0.03125 C 19.410622,37.842551 20.169694,38.5 21,38.5 l 0.0625,0 c 0.233719,0 0.4375,-0.250875 0.4375,-0.5625 l 0,-0.875 C 21.5,36.750875 21.296218,36.5 21.0625,36.5 l -2.125,0 z m 4.125,0 C 22.750875,36.5 22.5,36.750875 22.5,37.0625 l 0,0.875 c 0,0.311625 0.250875,0.5625 0.5625,0.5625 l 2.875,0 c 0.311625,0 0.5625,-0.250875 0.5625,-0.5625 l 0,-0.875 C 26.5,36.750875 26.249125,36.5 25.9375,36.5 l -2.875,0 z m 4.875,0 C 27.703781,36.5 27.5,36.750875 27.5,37.0625 l 0,0.875 c 0,0.311625 0.203782,0.5625 0.4375,0.5625 L 28,38.5 c 0.835261,0 1.587757,-0.649928 2.1875,-1.96875 C 30.144179,36.512357 30.109693,36.5 30.0625,36.5 l -2.125,0 z"
         inkscape:connector-curvature="0"
         id="path8246"
         style="fill:url(#linearGradient7532);fill-opacity:1;fill-rule:evenodd;stroke:url(#linearGradient7287);stroke-width:0.97000003;stroke-linecap:round;stroke-linejoin:round;stroke-miterlimit:4;stroke-opacity:1;stroke-dasharray:none" />
      <g
         id="g7493"
         style="opacity:0.85">
        <path
           d="M 26.5,31.0625 C 26.5,30.750875 26.249125,30.5 25.9375,30.5 l -2.875,0 C 22.750875,30.5 22.5,30.750875 22.5,31.0625 l 0,0.875"
           inkscape:connector-curvature="0"
           id="path7193"
           style="fill:none;stroke:url(#linearGradient7491);stroke-width:1;stroke-linecap:round;stroke-linejoin:round;stroke-miterlimit:4;stroke-opacity:1;stroke-dasharray:none" />
        <path
           d="M 26.5,34.0625 C 26.5,33.750875 26.249125,33.5 25.9375,33.5 l -2.875,0 C 22.750875,33.5 22.5,33.750875 22.5,34.0625 l 0,0.875"
           inkscape:connector-curvature="0"
           id="path7195"
           style="fill:none;stroke:url(#linearGradient7488);stroke-width:1;stroke-linecap:round;stroke-linejoin:round;stroke-miterlimit:4;stroke-opacity:1;stroke-dasharray:none" />
        <path
           d="M 26.5,37.0625 C 26.5,36.750875 26.249125,36.5 25.9375,36.5 l -2.875,0 C 22.750875,36.5 22.5,36.750875 22.5,37.0625 l 0,0.875"
           inkscape:connector-curvature="0"
           id="path7197"
           style="fill:none;stroke:url(#linearGradient7485);stroke-width:1;stroke-linecap:round;stroke-linejoin:round;stroke-miterlimit:4;stroke-opacity:1;stroke-dasharray:none" />
        <path
           d="M 21.5,25.0625 C 21.5,24.750875 21.249125,24.5 20.9375,24.5 l -0.90625,0 -1.96875,0 C 17.750875,24.5 17.5,24.750875 17.5,25.0625 l 0,0.875"
           inkscape:connector-curvature="0"
           id="path7191"
           style="fill:none;stroke:url(#linearGradient7482);stroke-width:1;stroke-linecap:round;stroke-linejoin:round;stroke-miterlimit:4;stroke-opacity:1;stroke-dasharray:none" />
        <path
           d="M 26.5,25.0625 C 26.5,24.750875 26.249125,24.5 25.9375,24.5 l -2.875,0 C 22.750875,24.5 22.5,24.750875 22.5,25.0625 l 0,0.875"
           inkscape:connector-curvature="0"
           id="path7311"
           style="fill:none;stroke:url(#linearGradient7479);stroke-width:1;stroke-linecap:round;stroke-linejoin:round;stroke-miterlimit:4;stroke-opacity:1;stroke-dasharray:none" />
        <path
           d="M 31.5,25.0625 C 31.5,24.750875 31.249125,24.5 30.9375,24.5 l -1.96875,0 -0.90625,0 C 27.750875,24.5 27.5,24.750875 27.5,25.0625 l 0,0.875"
           inkscape:connector-curvature="0"
           id="path7313"
           style="fill:none;stroke:url(#linearGradient7476);stroke-width:1;stroke-linecap:round;stroke-linejoin:round;stroke-miterlimit:4;stroke-opacity:1;stroke-dasharray:none" />
        <path
           d="M 21.5,28.0625 C 21.5,27.750875 21.249125,27.5 20.9375,27.5 l -0.90625,0 -1.96875,0 C 17.750875,27.5 17.5,27.750875 17.5,28.0625 l 0,0.875"
           inkscape:connector-curvature="0"
           id="path7341"
           style="fill:none;stroke:url(#linearGradient7473);stroke-width:1;stroke-linecap:round;stroke-linejoin:round;stroke-miterlimit:4;stroke-opacity:1;stroke-dasharray:none" />
        <path
           d="M 26.5,28.0625 C 26.5,27.750875 26.249125,27.5 25.9375,27.5 l -2.875,0 C 22.750875,27.5 22.5,27.750875 22.5,28.0625 l 0,0.875"
           inkscape:connector-curvature="0"
           id="path7343"
           style="fill:none;stroke:url(#linearGradient7470);stroke-width:1;stroke-linecap:round;stroke-linejoin:round;stroke-miterlimit:4;stroke-opacity:1;stroke-dasharray:none" />
        <path
           d="M 31.5,28.0625 C 31.5,27.750875 31.249125,27.5 30.9375,27.5 l -1.96875,0 -0.90625,0 C 27.750875,27.5 27.5,27.750875 27.5,28.0625 l 0,0.875"
           inkscape:connector-curvature="0"
           id="path7345"
           style="fill:none;stroke:url(#linearGradient7467);stroke-width:1;stroke-linecap:round;stroke-linejoin:round;stroke-miterlimit:4;stroke-opacity:1;stroke-dasharray:none" />
        <path
           d="M 21.5,31.0625 C 21.5,30.750875 21.249125,30.5 20.9375,30.5 l -2.875,0 c -0.179784,0 -0.334665,0.08826 -0.4375,0.21875 0.04378,0.602024 0.08702,1.187395 0.15625,1.71875"
           inkscape:connector-curvature="0"
           id="path7353"
           style="fill:none;stroke:url(#linearGradient7464);stroke-width:1;stroke-linecap:round;stroke-linejoin:round;stroke-miterlimit:4;stroke-opacity:1;stroke-dasharray:none" />
        <path
           d="M 31.375,30.71875 C 31.272165,30.588256 31.117284,30.5 30.9375,30.5 l -2.875,0 C 27.750875,30.5 27.5,30.750875 27.5,31.0625 l 0,0.875"
           inkscape:connector-curvature="0"
           id="path7355"
           style="fill:none;stroke:url(#linearGradient7461);stroke-width:1;stroke-linecap:round;stroke-linejoin:round;stroke-miterlimit:4;stroke-opacity:1;stroke-dasharray:none" />
        <path
           d="m 31.03125,33.5 c -0.03116,-0.0053 -0.06103,0 -0.09375,0 l -2.875,0 C 27.750875,33.5 27.5,33.750875 27.5,34.0625 l 0,0.875"
           inkscape:connector-curvature="0"
           id="path7361"
           style="fill:none;stroke:url(#linearGradient7458);stroke-width:1;stroke-linecap:round;stroke-linejoin:round;stroke-miterlimit:4;stroke-opacity:1;stroke-dasharray:none" />
        <path
           d="M 21.5,34.0625 C 21.5,33.750875 21.249125,33.5 20.9375,33.5 l -2.875,0 c -0.03272,0 -0.06259,-0.0053 -0.09375,0 0.134459,0.748868 0.283222,1.421542 0.46875,2"
           inkscape:connector-curvature="0"
           id="path7363"
           style="fill:none;stroke:url(#linearGradient7455);stroke-width:1;stroke-linecap:round;stroke-linejoin:round;stroke-miterlimit:4;stroke-opacity:1;stroke-dasharray:none" />
        <path
           d="M 21.5,37.0625 C 21.5,36.750875 21.296218,36.5 21.0625,36.5 l -2.125,0 c -0.04719,0 -0.08168,0.01236 -0.125,0.03125"
           inkscape:connector-curvature="0"
           id="path7369"
           style="fill:none;stroke:url(#linearGradient7452);stroke-width:1;stroke-linecap:round;stroke-linejoin:round;stroke-miterlimit:4;stroke-opacity:1;stroke-dasharray:none" />
        <path
           d="M 30.1875,36.53125 C 30.144179,36.512357 30.109693,36.5 30.0625,36.5 l -2.125,0 C 27.703781,36.5 27.5,36.750875 27.5,37.0625 l 0,0.875"
           inkscape:connector-curvature="0"
           id="path7371"
           style="fill:none;stroke:url(#linearGradient7449);stroke-width:1;stroke-linecap:round;stroke-linejoin:round;stroke-miterlimit:4;stroke-opacity:1;stroke-dasharray:none" />
      </g>
      <g
         transform="translate(0,1)"
         id="g7135"
         style="fill:#555753" />
      <path
         d="M 24.5,8.558522 24.5,7.5"
         inkscape:connector-curvature="0"
         id="path6112"
         style="fill:none;stroke:url(#linearGradient6116);stroke-width:1.00000012px;stroke-linecap:round;stroke-linejoin:miter;stroke-opacity:1" />
      <path
         d="m 22.5,8.558522 0,-1"
         inkscape:connector-curvature="0"
         id="path6114"
         style="fill:none;stroke:url(#linearGradient6118);stroke-width:1px;stroke-linecap:round;stroke-linejoin:miter;stroke-opacity:1" />
      <path
         d="M 26.5,8.558522 26.5,7.5"
         inkscape:connector-curvature="0"
         id="path6120"
         style="fill:none;stroke:url(#linearGradient6122);stroke-width:1.00000012px;stroke-linecap:round;stroke-linejoin:miter;stroke-opacity:1" />
    </g>
  </g>
  <g
     id="layer2" />
</svg>
