<?xml version="1.0" encoding="UTF-8" standalone="no"?>
<!-- Created with Inkscape (http://www.inkscape.org/) -->
<svg
   xmlns:svg="http://www.w3.org/2000/svg"
   xmlns="http://www.w3.org/2000/svg"
   xmlns:xlink="http://www.w3.org/1999/xlink"
   version="1.0"
   width="48"
   height="48"
   id="svg1328">
  <defs
     id="defs3">
    <linearGradient
       id="linearGradient1535">
      <stop
         style="stop-color:#f67800;stop-opacity:1"
         offset="0"
         id="stop1537" />
      <stop
         style="stop-color:#fcaf3e;stop-opacity:1"
         offset="1"
         id="stop1539" />
    </linearGradient>
    <linearGradient
       id="linearGradient1523">
      <stop
         style="stop-color:#ce5c00;stop-opacity:1"
         offset="0"
         id="stop1525" />
      <stop
         style="stop-color:#fcaf3e;stop-opacity:1"
         offset="1"
         id="stop1527" />
    </linearGradient>
    <linearGradient
       id="linearGradient3338">
      <stop
         style="stop-color:#c36000;stop-opacity:1"
         offset="0"
         id="stop3340" />
      <stop
         style="stop-color:#fcaf3e;stop-opacity:1"
         offset="0.5"
         id="stop3346" />
      <stop
         style="stop-color:#f57900;stop-opacity:1"
         offset="1"
         id="stop3342" />
    </linearGradient>
    <linearGradient
       id="linearGradient3247">
      <stop
         style="stop-color:#f0f0f0;stop-opacity:1"
         offset="0"
         id="stop3249" />
      <stop
         style="stop-color:#f0f0f0;stop-opacity:0"
         offset="1"
         id="stop3251" />
    </linearGradient>
    <linearGradient
       id="linearGradient3233">
      <stop
         style="stop-color:#eeeeec;stop-opacity:1"
         offset="0"
         id="stop3235" />
      <stop
         style="stop-color:#a3a398;stop-opacity:1"
         offset="1"
         id="stop3237" />
    </linearGradient>
    <linearGradient
       id="linearGradient6924">
      <stop
         style="stop-color:#ffffff;stop-opacity:1"
         offset="0"
         id="stop6926" />
      <stop
         style="stop-color:#ffffff;stop-opacity:0"
         offset="1"
         id="stop6928" />
    </linearGradient>
    <linearGradient
       id="linearGradient4176">
      <stop
         style="stop-color:#ffffff;stop-opacity:1"
         offset="0"
         id="stop4178" />
      <stop
         style="stop-color:#ffffff;stop-opacity:0"
         offset="1"
         id="stop4180" />
    </linearGradient>
    <linearGradient
       id="linearGradient4134">
      <stop
         style="stop-color:#d6d7d5;stop-opacity:1"
         offset="0"
         id="stop4136" />
      <stop
         style="stop-color:#d1d2d0;stop-opacity:1"
         offset="0.25"
         id="stop4148" />
      <stop
         style="stop-color:#a5a6a3;stop-opacity:1"
         offset="0.5"
         id="stop4142" />
      <stop
         style="stop-color:#dddedc;stop-opacity:1"
         offset="1"
         id="stop4138" />
    </linearGradient>
    <linearGradient
       id="linearGradient4126">
      <stop
         style="stop-color:#000000;stop-opacity:1"
         offset="0"
         id="stop4128" />
      <stop
         style="stop-color:#000000;stop-opacity:0"
         offset="1"
         id="stop4130" />
    </linearGradient>
    <radialGradient
       cx="23.857143"
       cy="40"
       r="17.142857"
       fx="23.857143"
       fy="40"
       id="radialGradient13577"
       xlink:href="#linearGradient4126"
       gradientUnits="userSpaceOnUse"
       gradientTransform="matrix(1,0,0,0.5,0,20)" />
    <radialGradient
       cx="23.857143"
       cy="40"
       r="17.142857"
       fx="23.857143"
       fy="40"
       id="radialGradient13668"
       xlink:href="#linearGradient4126"
       gradientUnits="userSpaceOnUse"
       gradientTransform="matrix(1,0,0,0.5,0,20)" />
    <linearGradient
       x1="9.3030529"
       y1="26.71875"
       x2="38.826412"
       y2="26.71875"
       id="linearGradient13670"
       xlink:href="#linearGradient4134"
       gradientUnits="userSpaceOnUse"
       gradientTransform="matrix(1.010754,0,0,0.991346,-0.269358,-3.826541)" />
    <linearGradient
       x1="24"
       y1="17.245949"
       x2="23.433737"
       y2="8.0476589"
       id="linearGradient13672"
       xlink:href="#linearGradient3233"
       gradientUnits="userSpaceOnUse" />
    <linearGradient
       x1="17.160095"
       y1="14.004482"
       x2="37.969398"
       y2="56.575912"
       id="linearGradient13674"
       xlink:href="#linearGradient4176"
       gradientUnits="userSpaceOnUse"
       gradientTransform="matrix(1.010754,0,0,0.992756,-0.269358,-3.832747)" />
    <linearGradient
       x1="11.003058"
       y1="33.489445"
       x2="30.452171"
       y2="33.489445"
       id="linearGradient13676"
       xlink:href="#linearGradient3338"
       gradientUnits="userSpaceOnUse"
       gradientTransform="matrix(1.004593,0,0,1,-5.892444e-2,-2.082537)" />
    <linearGradient
       x1="24"
       y1="18.132908"
       x2="24"
       y2="8.0243998"
       id="linearGradient13678"
       xlink:href="#linearGradient1535"
       gradientUnits="userSpaceOnUse" />
    <linearGradient
       x1="24"
       y1="10.396756"
       x2="24"
       y2="20.118456"
       id="linearGradient13680"
       xlink:href="#linearGradient1523"
       gradientUnits="userSpaceOnUse" />
    <linearGradient
       x1="34.244171"
       y1="17.695425"
       x2="34.244171"
       y2="29.91827"
       id="linearGradient13682"
       xlink:href="#linearGradient3247"
       gradientUnits="userSpaceOnUse"
       gradientTransform="matrix(1.010754,0,0,1,-0.269359,-2.185007)" />
    <linearGradient
       x1="24"
       y1="17.245949"
       x2="23.433737"
       y2="8.0476589"
       id="linearGradient13684"
       xlink:href="#linearGradient3233"
       gradientUnits="userSpaceOnUse" />
    <radialGradient
       cx="23.857143"
       cy="40"
       r="17.142857"
       fx="23.857143"
       fy="40"
       id="radialGradient13686"
       xlink:href="#linearGradient4126"
       gradientUnits="userSpaceOnUse"
       gradientTransform="matrix(1,0,0,0.5,0,20)" />
    <linearGradient
       x1="16.07143"
       y1="19.5"
       x2="16.035715"
       y2="31.75"
       id="linearGradient13688"
       xlink:href="#linearGradient6924"
       gradientUnits="userSpaceOnUse"
       gradientTransform="matrix(1.010754,0,0,1,-0.269359,-1.327864)" />
    <linearGradient
       x1="24"
       y1="17.245949"
       x2="23.433737"
       y2="8.0476589"
       id="linearGradient13690"
       xlink:href="#linearGradient3233"
       gradientUnits="userSpaceOnUse" />
    <linearGradient
       id="linearGradient8236">
      <stop
         style="stop-color:#000000;stop-opacity:1"
         offset="0"
         id="stop8238" />
      <stop
         style="stop-color:#000000;stop-opacity:0"
         offset="1"
         id="stop8240" />
    </linearGradient>
    <linearGradient
       id="linearGradient7917">
      <stop
         style="stop-color:#ffffff;stop-opacity:1"
         offset="0"
         id="stop7919" />
      <stop
         style="stop-color:#ffffff;stop-opacity:0"
         offset="1"
         id="stop7921" />
    </linearGradient>
    <linearGradient
       id="linearGradient7972">
      <stop
         style="stop-color:#ffffff;stop-opacity:1"
         offset="0"
         id="stop7974" />
      <stop
         style="stop-color:#eeeeec;stop-opacity:1"
         offset="1"
         id="stop7976" />
    </linearGradient>
    <linearGradient
       id="linearGradient7088">
      <stop
         style="stop-color:#ffffff;stop-opacity:1"
         offset="0"
         id="stop7090" />
      <stop
         style="stop-color:#ffffff;stop-opacity:0"
         offset="1"
         id="stop7092" />
    </linearGradient>
    <linearGradient
       id="linearGradient8046">
      <stop
         style="stop-color:#ffffff;stop-opacity:1"
         offset="0"
         id="stop8048" />
      <stop
         style="stop-color:#888a85;stop-opacity:1"
         offset="1"
         id="stop8050" />
    </linearGradient>
    <linearGradient
       id="linearGradient8216">
      <stop
         style="stop-color:#888a85;stop-opacity:1"
         offset="0"
         id="stop8218" />
      <stop
         style="stop-color:#babdb6;stop-opacity:1"
         offset="1"
         id="stop8220" />
    </linearGradient>
    <linearGradient
       x1="21.8125"
       y1="7.6875"
       x2="26.5"
       y2="19.9375"
       id="linearGradient7094"
       xlink:href="#linearGradient7088"
       gradientUnits="userSpaceOnUse" />
    <linearGradient
       x1="64.5625"
       y1="42.625"
       x2="64.5"
       y2="41"
       id="linearGradient6122"
       xlink:href="#linearGradient8012"
       gradientUnits="userSpaceOnUse"
       gradientTransform="matrix(1,0,0,-1,-38,50.058522)" />
    <linearGradient
       x1="64.5625"
       y1="42.625"
       x2="64.5"
       y2="41"
       id="linearGradient6118"
       xlink:href="#linearGradient8000"
       gradientUnits="userSpaceOnUse"
       gradientTransform="matrix(1,0,0,-1,-40,50.058522)" />
    <linearGradient
       x1="64.5625"
       y1="42.625"
       x2="64.5"
       y2="41"
       id="linearGradient6116"
       xlink:href="#linearGradient8012"
       gradientUnits="userSpaceOnUse"
       gradientTransform="matrix(1,0,0,-1,-40,50.058522)" />
    <linearGradient
       x1="24.375"
       y1="25.375"
       x2="28.087311"
       y2="52.811184"
       id="linearGradient7532"
       xlink:href="#linearGradient7526"
       gradientUnits="userSpaceOnUse" />
    <linearGradient
       x1="27.53125"
       y1="32.21875"
       x2="23.749973"
       y2="22.53125"
       id="linearGradient7511"
       xlink:href="#linearGradient8357"
       gradientUnits="userSpaceOnUse" />
    <linearGradient
       x1="43.5"
       y1="30.5"
       x2="44.0625"
       y2="32.313343"
       id="linearGradient7491"
       xlink:href="#linearGradient7215"
       gradientUnits="userSpaceOnUse"
       gradientTransform="translate(-20,0)" />
    <linearGradient
       x1="43.53125"
       y1="33.46875"
       x2="44"
       y2="35.4375"
       id="linearGradient7488"
       xlink:href="#linearGradient7223"
       gradientUnits="userSpaceOnUse"
       gradientTransform="translate(-20,0)" />
    <linearGradient
       x1="43.480392"
       y1="36.505032"
       x2="43.988625"
       y2="38.4375"
       id="linearGradient7485"
       xlink:href="#linearGradient7231"
       gradientUnits="userSpaceOnUse"
       gradientTransform="translate(-20,0)" />
    <linearGradient
       x1="38.491497"
       y1="24.541054"
       x2="38.947304"
       y2="26.4375"
       id="linearGradient7482"
       xlink:href="#linearGradient7199"
       gradientUnits="userSpaceOnUse"
       gradientTransform="translate(-20,0)" />
    <linearGradient
       x1="43.493069"
       y1="24.486135"
       x2="44"
       y2="26.4375"
       id="linearGradient7479"
       xlink:href="#linearGradient7199"
       gradientUnits="userSpaceOnUse"
       gradientTransform="translate(-20,0)" />
    <linearGradient
       x1="48.478554"
       y1="24.508232"
       x2="48.976982"
       y2="26.4375"
       id="linearGradient7476"
       xlink:href="#linearGradient7199"
       gradientUnits="userSpaceOnUse"
       gradientTransform="translate(-20,0)" />
    <linearGradient
       x1="38.491497"
       y1="24.541054"
       x2="38.947304"
       y2="26.4375"
       id="linearGradient7473"
       xlink:href="#linearGradient7199"
       gradientUnits="userSpaceOnUse"
       gradientTransform="translate(-20,3)" />
    <linearGradient
       x1="43.493069"
       y1="24.486135"
       x2="44"
       y2="26.4375"
       id="linearGradient7470"
       xlink:href="#linearGradient7199"
       gradientUnits="userSpaceOnUse"
       gradientTransform="translate(-20,3)" />
    <linearGradient
       x1="48.478554"
       y1="24.508232"
       x2="48.976982"
       y2="26.4375"
       id="linearGradient7467"
       xlink:href="#linearGradient7199"
       gradientUnits="userSpaceOnUse"
       gradientTransform="translate(-20,3)" />
    <linearGradient
       x1="38.5"
       y1="30.5"
       x2="39"
       y2="32.500843"
       id="linearGradient7464"
       xlink:href="#linearGradient7215"
       gradientUnits="userSpaceOnUse"
       gradientTransform="translate(-20,0)" />
    <linearGradient
       x1="48.5"
       y1="30.46875"
       x2="49"
       y2="32.4375"
       id="linearGradient7461"
       xlink:href="#linearGradient7215"
       gradientUnits="userSpaceOnUse"
       gradientTransform="translate(-20,0)" />
    <linearGradient
       x1="48.53125"
       y1="33.46875"
       x2="49"
       y2="35.4375"
       id="linearGradient7458"
       xlink:href="#linearGradient7223"
       gradientUnits="userSpaceOnUse"
       gradientTransform="translate(-20,0)" />
    <linearGradient
       x1="38.5"
       y1="33.5625"
       x2="39.0625"
       y2="35.497356"
       id="linearGradient7455"
       xlink:href="#linearGradient7223"
       gradientUnits="userSpaceOnUse"
       gradientTransform="translate(-20,0)" />
    <linearGradient
       x1="39.502918"
       y1="36.460838"
       x2="40.01115"
       y2="38.440475"
       id="linearGradient7452"
       xlink:href="#linearGradient7231"
       gradientUnits="userSpaceOnUse"
       gradientTransform="translate(-20,0)" />
    <linearGradient
       x1="48.496433"
       y1="36.460838"
       x2="48.982567"
       y2="38.4375"
       id="linearGradient7449"
       xlink:href="#linearGradient7231"
       gradientUnits="userSpaceOnUse"
       gradientTransform="translate(-20,0)" />
    <linearGradient
       x1="26.499495"
       y1="21.108738"
       x2="29.249495"
       y2="44.788391"
       id="linearGradient7287"
       xlink:href="#linearGradient7281"
       gradientUnits="userSpaceOnUse" />
    <linearGradient
       x1="23.334524"
       y1="12.556273"
       x2="23.334524"
       y2="28.203257"
       id="linearGradient8242"
       xlink:href="#linearGradient8236"
       gradientUnits="userSpaceOnUse"
       gradientTransform="translate(0,-1)" />
    <radialGradient
       cx="27.9375"
       cy="38.0625"
       r="12.0625"
       fx="27.9375"
       fy="38.0625"
       id="radialGradient8234"
       xlink:href="#linearGradient8228"
       gradientUnits="userSpaceOnUse"
       gradientTransform="matrix(1,0,0,0.8134715,0,7.0997409)" />
    <linearGradient
       x1="71.739273"
       y1="2.2823277"
       x2="71.739273"
       y2="5.5714717"
       id="linearGradient8222"
       xlink:href="#linearGradient8216"
       gradientUnits="userSpaceOnUse"
       gradientTransform="translate(-40,0)" />
    <radialGradient
       cx="64.5"
       cy="29.797501"
       r="10.5"
       fx="64.5"
       fy="29.797501"
       id="radialGradient8054"
       xlink:href="#linearGradient8046"
       gradientUnits="userSpaceOnUse"
       gradientTransform="matrix(1.328134,0,0,7.0060184,-61.16464,-173.01183)" />
    <linearGradient
       x1="64.5625"
       y1="42.625"
       x2="64.5"
       y2="41"
       id="linearGradient8010"
       xlink:href="#linearGradient8012"
       gradientUnits="userSpaceOnUse"
       gradientTransform="matrix(1,0,0,-1,-39,83.058522)" />
    <linearGradient
       x1="64.5625"
       y1="42.625"
       x2="64.5"
       y2="41"
       id="linearGradient8006"
       xlink:href="#linearGradient8000"
       gradientUnits="userSpaceOnUse"
       gradientTransform="matrix(1,0,0,-1,-39,83.058522)" />
    <linearGradient
       x1="64.375"
       y1="9.3125"
       x2="64.375"
       y2="23.438053"
       id="linearGradient7998"
       xlink:href="#linearGradient7992"
       gradientUnits="userSpaceOnUse"
       gradientTransform="translate(-89,-1)" />
    <linearGradient
       x1="65.4375"
       y1="19.690521"
       x2="65.4375"
       y2="10.6875"
       id="linearGradient7978"
       xlink:href="#linearGradient7972"
       gradientUnits="userSpaceOnUse"
       gradientTransform="translate(-40,-1)" />
    <linearGradient
       x1="59.510406"
       y1="8.375"
       x2="87.042259"
       y2="92.265244"
       id="linearGradient7923"
       xlink:href="#linearGradient7917"
       gradientUnits="userSpaceOnUse"
       gradientTransform="translate(-40,0)" />
    <linearGradient
       id="linearGradient7992">
      <stop
         style="stop-color:#ffffff;stop-opacity:1"
         offset="0"
         id="stop7994" />
      <stop
         style="stop-color:#d3d7cf;stop-opacity:0"
         offset="1"
         id="stop7996" />
    </linearGradient>
    <linearGradient
       id="linearGradient8000">
      <stop
         style="stop-color:#2e3436;stop-opacity:1"
         offset="0"
         id="stop8002" />
      <stop
         style="stop-color:#888a85;stop-opacity:1"
         offset="1"
         id="stop8004" />
    </linearGradient>
    <linearGradient
       id="linearGradient8012">
      <stop
         style="stop-color:#2e3436;stop-opacity:1"
         offset="0"
         id="stop8014" />
      <stop
         style="stop-color:#888a85;stop-opacity:1"
         offset="1"
         id="stop8016" />
    </linearGradient>
    <linearGradient
       id="linearGradient8228">
      <stop
         style="stop-color:#000000;stop-opacity:1"
         offset="0"
         id="stop8230" />
      <stop
         style="stop-color:#000000;stop-opacity:0"
         offset="1"
         id="stop8232" />
    </linearGradient>
    <linearGradient
       id="linearGradient8357">
      <stop
         style="stop-color:#ffffff;stop-opacity:1"
         offset="0"
         id="stop8359" />
      <stop
         style="stop-color:#888a85;stop-opacity:1"
         offset="1"
         id="stop8361" />
    </linearGradient>
    <linearGradient
       id="linearGradient7199">
      <stop
         style="stop-color:#ffffff;stop-opacity:1"
         offset="0"
         id="stop7201" />
      <stop
         style="stop-color:#ffffff;stop-opacity:0"
         offset="1"
         id="stop7203" />
    </linearGradient>
    <linearGradient
       id="linearGradient7215">
      <stop
         style="stop-color:#ffffff;stop-opacity:1"
         offset="0"
         id="stop7217" />
      <stop
         style="stop-color:#ffffff;stop-opacity:0"
         offset="1"
         id="stop7219" />
    </linearGradient>
    <linearGradient
       id="linearGradient7223">
      <stop
         style="stop-color:#ffffff;stop-opacity:1"
         offset="0"
         id="stop7225" />
      <stop
         style="stop-color:#ffffff;stop-opacity:0"
         offset="1"
         id="stop7227" />
    </linearGradient>
    <linearGradient
       id="linearGradient7231">
      <stop
         style="stop-color:#ffffff;stop-opacity:1"
         offset="0"
         id="stop7233" />
      <stop
         style="stop-color:#ffffff;stop-opacity:0"
         offset="1"
         id="stop7235" />
    </linearGradient>
    <linearGradient
       id="linearGradient7281">
      <stop
         style="stop-color:#2e3436;stop-opacity:1"
         offset="0"
         id="stop7283" />
      <stop
         style="stop-color:#888a85;stop-opacity:1"
         offset="1"
         id="stop7285" />
    </linearGradient>
    <linearGradient
       id="linearGradient7526">
      <stop
         style="stop-color:#888a85;stop-opacity:1"
         offset="0"
         id="stop7528" />
      <stop
         style="stop-color:#d3d7cf;stop-opacity:0.49803922"
         offset="1"
         id="stop7530" />
    </linearGradient>
  </defs>
  <g
     id="layer1">
    <g
       transform="translate(-53.99282,-31.64138)"
       id="g4438" />
    <path
       d="M 41 40 A 17.142857 8.5714283 0 1 1  6.7142868,40 A 17.142857 8.5714283 0 1 1  41 40 z"
       transform="matrix(0.831993,0,0,0.904687,-5.17227,-9.611522)"
       style="color:#000000;fill:url(#radialGradient13577);fill-opacity:1;fill-rule:nonzero;stroke:none;stroke-width:1;stroke-linecap:butt;stroke-linejoin:miter;marker:none;marker-start:none;marker-mid:none;marker-end:none;stroke-miterlimit:10;stroke-dasharray:none;stroke-dashoffset:0;stroke-opacity:1;visibility:visible;display:block;overflow:visible"
       id="path13497" />
    <g
       transform="matrix(0.793761,0,0,0.793761,-4.59619,-0.441943)"
       id="g13654">
      <path
         d="M 41 40 A 17.142857 8.5714283 0 1 1  6.7142868,40 A 17.142857 8.5714283 0 1 1  41 40 z"
         transform="matrix(1.050001,0,0,1.166666,-1.050005,-13.66665)"
         style="opacity:1;color:#000000;fill:url(#radialGradient13668);fill-opacity:1;fill-rule:nonzero;stroke:none;stroke-width:1;stroke-linecap:butt;stroke-linejoin:miter;marker:none;marker-start:none;marker-mid:none;marker-end:none;stroke-miterlimit:10;stroke-dasharray:none;stroke-dashoffset:0;stroke-opacity:1;visibility:visible;display:block;overflow:visible"
         id="path3366" />
      <path
         d="M 23.925566,5.0026329 C 15.981619,5.0026329 9.522322,7.780881 9.522321,11.198547 C 9.522321,11.443791 9.522321,33.868013 9.522321,34.123423 C 9.522321,37.541089 15.981618,40.319336 23.925566,40.319336 C 31.869514,40.319336 38.586013,37.541088 38.586011,34.123423 C 38.586011,33.921128 38.586011,11.400842 38.586011,11.198547 C 38.586011,7.78088 31.869513,5.0026329 23.925566,5.0026329 z "
         style="opacity:1;color:#000000;fill:url(#linearGradient13670);fill-opacity:1;fill-rule:nonzero;stroke:#767973;stroke-width:1;stroke-linecap:butt;stroke-linejoin:miter;marker:none;marker-start:none;marker-mid:none;marker-end:none;stroke-miterlimit:10;stroke-dasharray:none;stroke-dashoffset:0;stroke-opacity:1;visibility:visible;display:block;overflow:visible"
         id="path3068" />
      <path
         d="M 36.857142 14.071428 A 12.857142 5.5 0 1 1  11.142858,14.071428 A 12.857142 5.5 0 1 1  36.857142 14.071428 z"
         transform="matrix(1.048446,0,0,0.971388,-0.969759,20.43377)"
         style="opacity:0.23626374;color:#000000;fill:#d3d7cf;fill-opacity:1;fill-rule:nonzero;stroke:url(#linearGradient13672);stroke-width:0.99090111;stroke-linecap:butt;stroke-linejoin:miter;marker:none;marker-start:none;marker-mid:none;marker-end:none;stroke-miterlimit:10;stroke-dasharray:none;stroke-dashoffset:0;stroke-opacity:1;visibility:visible;display:block;overflow:visible"
         id="path3241" />
      <path
         d="M 23.934282,5.7826598 C 16.527721,5.7826598 10.505378,8.3766515 10.505377,11.567653 C 10.505377,11.796633 10.505377,33.29517 10.505377,33.533641 C 10.505377,36.724644 16.52772,39.318634 23.934282,39.318634 C 31.340842,39.318634 37.602988,36.724643 37.602986,33.533641 C 37.602986,33.344764 37.602986,11.756533 37.602986,11.567653 C 37.602986,8.3766505 31.340841,5.7826598 23.934282,5.7826598 z "
         style="opacity:0.5443038;color:#000000;fill:none;fill-opacity:1;fill-rule:nonzero;stroke:url(#linearGradient13674);stroke-width:1.00000012;stroke-linecap:butt;stroke-linejoin:miter;marker:none;marker-start:none;marker-mid:none;marker-end:none;stroke-miterlimit:10;stroke-dasharray:none;stroke-dashoffset:0;stroke-opacity:1;visibility:visible;display:block;overflow:visible"
         id="path4174" />
      <path
         d="M 23.41643,26.438709 C 16.781984,26.573435 11.495072,25.367574 11.495072,28.055849 C 11.495072,28.37454 11.495072,33.032303 11.495072,33.348826 C 11.495072,36.123819 17.10024,38.377036 24.034575,38.377038 C 30.96891,38.377038 36.603512,36.123819 36.603513,33.348826 C 36.603513,33.032303 36.603513,28.37454 36.603513,28.055849 C 36.603513,25.280855 30.96891,26.43871 24.034575,26.438709 C 23.817877,26.438709 23.630444,26.434363 23.41643,26.438709 z "
         style="opacity:1;color:#000000;fill:url(#linearGradient13676);fill-opacity:1;fill-rule:nonzero;stroke:#e2811b;stroke-width:0.99621516;stroke-linecap:butt;stroke-linejoin:miter;marker:none;marker-start:none;marker-mid:none;marker-end:none;stroke-miterlimit:10;stroke-dasharray:none;stroke-dashoffset:0;stroke-opacity:1;visibility:visible;display:block;overflow:visible"
         id="path4432" />
      <path
         d="M 36.857142 14.071428 A 12.857142 5.5 0 1 1  11.142858,14.071428 A 12.857142 5.5 0 1 1  36.857142 14.071428 z"
         transform="matrix(0.972634,0,0,0.914029,0.651491,14.66547)"
         style="color:#000000;fill:url(#linearGradient13678);fill-opacity:1;fill-rule:nonzero;stroke:url(#linearGradient13680);stroke-width:1.06058359;stroke-linecap:butt;stroke-linejoin:miter;marker:none;marker-start:none;marker-mid:none;marker-end:none;stroke-miterlimit:10;stroke-dasharray:none;stroke-dashoffset:0;stroke-opacity:1;visibility:visible;display:block;overflow:visible"
         id="path4434" />
      <path
         d="M 35.976705,9.5000085 C 34.855663,8.5148985 33.907756,8.2149705 32.913658,7.7322416 L 33.219962,26.420065 L 35.976705,29.652552 L 35.976705,9.5000085 z "
         style="opacity:1;color:#000000;fill:url(#linearGradient13682);fill-opacity:1;fill-rule:nonzero;stroke:none;stroke-width:0.99999946;stroke-linecap:butt;stroke-linejoin:miter;marker:none;marker-start:none;marker-mid:none;marker-end:none;stroke-miterlimit:10;stroke-dasharray:none;stroke-dashoffset:0;stroke-opacity:1;visibility:visible;display:block;overflow:visible"
         id="path3245" />
      <path
         d="M 36.857142 14.071428 A 12.857142 5.5 0 1 1  11.142858,14.071428 A 12.857142 5.5 0 1 1  36.857142 14.071428 z"
         transform="matrix(1.048446,0,0,0.964345,-1.173962,-2.540419)"
         style="opacity:0.467033;color:#000000;fill:#f0f0f0;fill-opacity:1;fill-rule:nonzero;stroke:url(#linearGradient13684);stroke-width:0.99451303;stroke-linecap:butt;stroke-linejoin:miter;marker:none;marker-start:none;marker-mid:none;marker-end:none;stroke-miterlimit:10;stroke-dasharray:none;stroke-dashoffset:0;stroke-opacity:1;visibility:visible;display:block;overflow:visible"
         id="path3364" />
      <path
         d="M 41 40 A 17.142857 8.5714283 0 1 1  6.7142868,40 A 17.142857 8.5714283 0 1 1  41 40 z"
         transform="matrix(0.367338,0,0,0.36343,14.99239,-6.837321)"
         style="opacity:0.30769234;color:#000000;fill:url(#radialGradient13686);fill-opacity:1;fill-rule:nonzero;stroke:none;stroke-width:1;stroke-linecap:butt;stroke-linejoin:miter;marker:none;marker-start:none;marker-mid:none;marker-end:none;stroke-miterlimit:10;stroke-dasharray:none;stroke-dashoffset:0;stroke-opacity:1;visibility:visible;display:block;overflow:visible"
         id="path6944" />
      <path
         d="M 24.079287,3.4999955 C 22.054955,3.4999955 19.398199,4.2141485 19.398199,5.0926645 C 19.398199,5.1557045 19.398199,7.6566695 19.398199,7.7223235 C 19.398199,8.6008395 22.054955,9.3149925 24.079287,9.3149925 C 26.10362,9.3149925 28.537133,8.6008395 28.537132,7.7223235 C 28.537132,7.6703235 28.537132,5.1446645 28.537132,5.0926645 C 28.537132,4.2141475 26.10362,3.4999955 24.079287,3.4999955 z "
         style="opacity:1;color:#000000;fill:#9d9e9b;fill-opacity:1;fill-rule:nonzero;stroke:#7d7f7a;stroke-width:0.99999994;stroke-linecap:butt;stroke-linejoin:miter;marker:none;marker-start:none;marker-mid:none;marker-end:none;stroke-miterlimit:10;stroke-dasharray:none;stroke-dashoffset:0;stroke-opacity:1;visibility:visible;display:block;overflow:visible"
         id="path3362" />
      <path
         d="M 13.664611,15.743564 L 14.025593,32.529279 L 18.646184,33.814993 L 18.501791,17.100707 C 18.501791,17.100707 20.461486,17.012319 23.854733,16.798033 C 17.287485,16.74805 12.997787,15.219863 10.632348,12.95785 C 12.064485,15.050026 13.664611,15.743564 13.664611,15.743564 z "
         style="opacity:0.58241763;color:#000000;fill:url(#linearGradient13688);fill-opacity:1;fill-rule:nonzero;stroke:none;stroke-width:1;stroke-linecap:butt;stroke-linejoin:miter;marker:none;marker-start:none;marker-mid:none;marker-end:none;stroke-miterlimit:4;stroke-dasharray:none;stroke-dashoffset:0;stroke-opacity:1;visibility:visible;display:block;overflow:visible"
         id="path6922" />
      <path
         d="M 36.857142 14.071428 A 12.857142 5.5 0 1 1  11.142858,14.071428 A 12.857142 5.5 0 1 1  36.857142 14.071428 z"
         transform="matrix(0.274904,0,0,0.192106,17.38789,2.66837)"
         style="opacity:1;color:#000000;fill:#d3d7cf;fill-opacity:1;fill-rule:nonzero;stroke:url(#linearGradient13690);stroke-width:4.35150146;stroke-linecap:butt;stroke-linejoin:miter;marker:none;marker-start:none;marker-mid:none;marker-end:none;stroke-miterlimit:10;stroke-dasharray:none;stroke-dashoffset:0;stroke-opacity:1;visibility:visible;display:block;overflow:visible"
         id="path6940" />
    </g>
    <g
       transform="translate(-27.83014,-62.39595)"
       id="g13531" />
    <g
       transform="translate(25.41268,-23.25457)"
       id="g3054" />
    <g
       transform="translate(69.41268,-7.254574)"
       id="g13534" />
    <g
       transform="translate(10.553562,-0.1032104)"
       style="display:inline"
       id="g3539">
      <rect
         width="2"
         height="9"
         rx="1"
         ry="1"
         x="30.5"
         y="0.5625"
         style="opacity:1;fill:url(#linearGradient8222);fill-opacity:1;fill-rule:evenodd;stroke:#555753;stroke-width:0.99999994;stroke-linecap:round;stroke-linejoin:round;stroke-miterlimit:4;stroke-dasharray:none;stroke-opacity:1"
         id="rect7962" />
      <path
         d="M 40 38.0625 A 12.0625 9.8125 0 1 1  15.875,38.0625 A 12.0625 9.8125 0 1 1  40 38.0625 z"
         transform="matrix(1.0673575,0,0,0.4968153,-5.1943,23.214968)"
         style="opacity:0.4;fill:url(#radialGradient8234);fill-opacity:1;fill-rule:evenodd;stroke:none;stroke-width:1;stroke-linecap:round;stroke-linejoin:round;stroke-miterlimit:4;stroke-dasharray:none;stroke-opacity:1"
         id="path8226" />
      <path
         d="M 19.5625,5.5 C 16.753603,5.5 14.5,7.070666 14.5,9.03125 L 14.5,33.75 C 14.5,39.708578 16.976602,44.5 20.0625,44.5 L 28.9375,44.5 C 32.023397,44.5 34.5,39.708577 34.5,33.75 L 34.5,9.03125 C 34.5,7.070666 32.246396,5.5 29.4375,5.5 L 19.5625,5.5 z "
         style="opacity:1;fill:url(#radialGradient8054);fill-opacity:1;fill-rule:evenodd;stroke:#555753;stroke-width:1;stroke-linecap:round;stroke-linejoin:miter;stroke-miterlimit:4;stroke-dasharray:none;stroke-opacity:1"
         id="path7885" />
      <path
         d="M 19.5625,6 C 18.251247,6 17.065963,6.3684846 16.25,6.9375 C 15.434037,7.5065154 15,8.2425338 15,9.03125 L 15,33.75 C 15,36.660016 15.605563,39.275023 16.5625,41.125 C 17.519437,42.974977 18.778332,44 20.0625,44 L 28.9375,44 C 30.221668,44 31.480563,42.974977 32.4375,41.125 C 33.394437,39.275023 34,36.660016 34,33.75 L 34,9.03125 C 34,8.2425339 33.565963,7.5065155 32.75,6.9375 C 31.934037,6.3684845 30.748752,6 29.4375,6 L 19.5625,6 z "
         style="opacity:0.47761195;fill:url(#linearGradient7094);fill-opacity:1;fill-rule:evenodd;stroke:none;stroke-width:1;stroke-linecap:round;stroke-linejoin:miter;stroke-miterlimit:4;stroke-dasharray:none;stroke-opacity:1"
         id="path7086" />
      <rect
         width="15.999991"
         height="13"
         rx="3.0661337"
         ry="3.0661337"
         x="-32.499992"
         y="9.5"
         transform="scale(-1,1)"
         style="opacity:0.5970149;fill:none;fill-opacity:1;fill-rule:evenodd;stroke:url(#linearGradient7998);stroke-width:1;stroke-linecap:round;stroke-linejoin:miter;stroke-miterlimit:4;stroke-dasharray:none;stroke-opacity:1"
         id="rect7990" />
      <rect
         width="14"
         height="11"
         rx="2.0388288"
         ry="2.0388288"
         x="17.5"
         y="10.5"
         style="opacity:1;fill:url(#linearGradient7978);fill-opacity:1;fill-rule:evenodd;stroke:#888a85;stroke-width:0.99999994;stroke-linecap:round;stroke-linejoin:miter;stroke-miterlimit:4;stroke-dasharray:none;stroke-opacity:1"
         id="rect7889" />
      <path
         d="M 19.5625,6.5 C 18.343394,6.5 17.249773,6.842685 16.53125,7.34375 C 15.812727,7.844815 15.5,8.431952 15.5,9.03125 L 15.5,33.75 C 15.5,36.591524 16.090474,39.147929 17,40.90625 C 17.909526,42.664571 19.034198,43.5 20.0625,43.5 L 28.9375,43.5 C 29.965802,43.5 31.090474,42.664571 32,40.90625 C 32.909526,39.147929 33.5,36.591523 33.5,33.75 L 33.5,9.03125 C 33.5,8.431952 33.187274,7.844815 32.46875,7.34375 C 31.750226,6.842685 30.656606,6.5 29.4375,6.5 L 19.5625,6.5 z "
         style="opacity:0.86194033;fill:none;fill-opacity:1;fill-rule:evenodd;stroke:url(#linearGradient7923);stroke-width:1;stroke-linecap:round;stroke-linejoin:miter;stroke-miterlimit:4;stroke-opacity:1"
         id="path7896" />
      <path
         d="M 25.5,41.558522 L 25.5,40.5"
         style="fill:none;fill-opacity:1;fill-rule:evenodd;stroke:url(#linearGradient8010);stroke-width:1.00000012px;stroke-linecap:round;stroke-linejoin:miter;stroke-opacity:1"
         id="path7900" />
      <path
         d="M 23.5,41.558522 L 23.5,40.558522"
         style="fill:none;fill-opacity:1;fill-rule:evenodd;stroke:url(#linearGradient8006);stroke-width:1px;stroke-linecap:round;stroke-linejoin:miter;stroke-opacity:1"
         id="path7905" />
      <rect
         width="1"
         height="1"
         x="25"
         y="14"
         style="opacity:1;fill:#3465a4;fill-opacity:1;fill-rule:evenodd;stroke:none;stroke-width:1;stroke-linecap:round;stroke-linejoin:round;stroke-miterlimit:4;stroke-dasharray:none;stroke-opacity:1"
         id="rect8057" />
      <rect
         width="1"
         height="2"
         x="27"
         y="13"
         style="opacity:1;fill:#3465a4;fill-opacity:1;fill-rule:evenodd;stroke:none;stroke-width:1;stroke-linecap:round;stroke-linejoin:round;stroke-miterlimit:4;stroke-dasharray:none;stroke-opacity:1"
         id="rect8059" />
      <rect
         width="1"
         height="3"
         x="29"
         y="12"
         style="opacity:1;fill:#3465a4;fill-opacity:1;fill-rule:evenodd;stroke:none;stroke-width:1;stroke-linecap:round;stroke-linejoin:round;stroke-miterlimit:4;stroke-dasharray:none;stroke-opacity:1"
         id="rect8061" />
      <g
         transform="translate(-50,-1)"
         id="g8067">
        <rect
           width="1"
           height="1"
           x="69"
           y="15"
           style="opacity:1;fill:#3465a4;fill-opacity:1;fill-rule:evenodd;stroke:none;stroke-width:1;stroke-linecap:round;stroke-linejoin:round;stroke-miterlimit:4;stroke-dasharray:none;stroke-opacity:1"
           id="rect8063" />
        <rect
           width="1"
           height="1"
           x="69"
           y="13"
           style="opacity:1;fill:#3465a4;fill-opacity:1;fill-rule:evenodd;stroke:none;stroke-width:1;stroke-linecap:round;stroke-linejoin:round;stroke-miterlimit:4;stroke-dasharray:none;stroke-opacity:1"
           id="rect8065" />
      </g>
      <rect
         width="3.0000002"
         height="1"
         x="19"
         y="19"
         style="opacity:1;fill:#3465a4;fill-opacity:1;fill-rule:evenodd;stroke:none;stroke-width:1;stroke-linecap:round;stroke-linejoin:round;stroke-miterlimit:4;stroke-dasharray:none;stroke-opacity:1"
         id="rect8074" />
      <rect
         width="3.0000002"
         height="1"
         x="27"
         y="19"
         style="opacity:1;fill:#3465a4;fill-opacity:1;fill-rule:evenodd;stroke:none;stroke-width:1;stroke-linecap:round;stroke-linejoin:round;stroke-miterlimit:4;stroke-dasharray:none;stroke-opacity:1"
         id="rect8076" />
      <rect
         width="13"
         height="1"
         x="18"
         y="18"
         style="opacity:0.39179107;fill:#729fcf;fill-opacity:1;fill-rule:evenodd;stroke:none;stroke-width:1;stroke-linecap:round;stroke-linejoin:round;stroke-miterlimit:4;stroke-dasharray:none;stroke-opacity:1"
         id="rect8078" />
      <rect
         width="12"
         height="9"
         rx="1.0075788"
         ry="1.0075788"
         x="18.5"
         y="11.5"
         style="opacity:0.09328356;fill:none;fill-opacity:1;fill-rule:evenodd;stroke:url(#linearGradient8242);stroke-width:0.99999994;stroke-linecap:round;stroke-linejoin:miter;stroke-miterlimit:4;stroke-dasharray:none;stroke-opacity:1"
         id="rect7980" />
      <path
         d="M 71.953125 1.5937499 A 0.453125 0.421875 0 1 1  71.046875,1.5937499 A 0.453125 0.421875 0 1 1  71.953125 1.5937499 z"
         transform="matrix(1.6551692,0,0,1.7962963,-87.0946,-1.105035)"
         style="opacity:1;fill:#eeeeec;fill-opacity:1;fill-rule:evenodd;stroke:none;stroke-width:1;stroke-linecap:round;stroke-linejoin:round;stroke-miterlimit:4;stroke-dasharray:none;stroke-opacity:1"
         id="path8224" />
      <path
         d="M 16.5,24.631663 L 16.5,27.6875 C 16.5,31.386677 16.899906,34.184967 17.59375,36.15625 C 17.940672,37.141892 18.349737,37.906718 18.90625,38.5 C 19.462763,39.093282 20.209189,39.5 21,39.5 L 28,39.5 C 28.785425,39.5 29.535575,39.119774 30.09375,38.53125 C 30.651925,37.942726 31.058872,37.138877 31.40625,36.15625 C 32.101007,34.190996 32.5,31.417446 32.5,27.6875 L 32.5,24.631663 C 31.801719,23.004152 30.471547,23.5 28.96875,23.5 L 20.03125,23.5 C 18.17716,23.5 17.474359,23.061376 16.5,24.631663 z "
         style="fill:none;fill-opacity:1;fill-rule:evenodd;stroke:url(#linearGradient7511);stroke-width:0.99999994;stroke-linecap:round;stroke-linejoin:miter;stroke-miterlimit:4;stroke-opacity:1"
         id="path8355" />
      <path
         d="M 18.0625,24.5 C 17.750875,24.5 17.5,24.750875 17.5,25.0625 L 17.5,25.9375 C 17.5,26.249125 17.750875,26.5 18.0625,26.5 L 20.9375,26.5 C 21.249125,26.5 21.5,26.249125 21.5,25.9375 L 21.5,25.0625 C 21.5,24.750875 21.249125,24.5 20.9375,24.5 L 20.03125,24.5 L 18.0625,24.5 z M 23.0625,24.5 C 22.750875,24.5 22.5,24.750875 22.5,25.0625 L 22.5,25.9375 C 22.5,26.249125 22.750875,26.5 23.0625,26.5 L 25.9375,26.5 C 26.249125,26.5 26.5,26.249125 26.5,25.9375 L 26.5,25.0625 C 26.5,24.750875 26.249125,24.5 25.9375,24.5 L 23.0625,24.5 z M 28.0625,24.5 C 27.750875,24.5 27.5,24.750875 27.5,25.0625 L 27.5,25.9375 C 27.5,26.249125 27.750875,26.5 28.0625,26.5 L 30.9375,26.5 C 31.249125,26.5 31.5,26.249125 31.5,25.9375 L 31.5,25.0625 C 31.5,24.750875 31.249125,24.5 30.9375,24.5 L 28.96875,24.5 L 28.0625,24.5 z M 18.0625,27.5 C 17.772689,27.5 17.531798,27.718965 17.5,28 C 17.497607,28.021153 17.5,28.040686 17.5,28.0625 C 17.503018,28.442419 17.519661,28.797352 17.53125,29.15625 C 17.616416,29.358275 17.828781,29.5 18.0625,29.5 L 20.9375,29.5 C 21.249125,29.5 21.5,29.249125 21.5,28.9375 L 21.5,28.0625 C 21.5,27.750875 21.249125,27.5 20.9375,27.5 L 18.0625,27.5 z M 23.0625,27.5 C 22.750875,27.5 22.5,27.750875 22.5,28.0625 L 22.5,28.9375 C 22.5,29.249125 22.750875,29.5 23.0625,29.5 L 25.9375,29.5 C 26.249125,29.5 26.5,29.249125 26.5,28.9375 L 26.5,28.0625 C 26.5,27.750875 26.249125,27.5 25.9375,27.5 L 23.0625,27.5 z M 28.0625,27.5 C 27.750875,27.5 27.5,27.750875 27.5,28.0625 L 27.5,28.9375 C 27.5,29.249125 27.750875,29.5 28.0625,29.5 L 30.9375,29.5 C 31.171219,29.5 31.383584,29.358275 31.46875,29.15625 C 31.480339,28.794911 31.496982,28.445527 31.5,28.0625 C 31.500172,28.040628 31.499856,28.021943 31.5,28 C 31.468202,27.718965 31.227311,27.5 30.9375,27.5 L 28.0625,27.5 z M 18.0625,30.5 C 17.882716,30.5 17.727835,30.588256 17.625,30.71875 C 17.668776,31.320774 17.712015,31.906145 17.78125,32.4375 C 17.863498,32.484483 17.960623,32.5 18.0625,32.5 L 20.9375,32.5 C 21.249125,32.5 21.5,32.249125 21.5,31.9375 L 21.5,31.0625 C 21.5,30.750875 21.249125,30.5 20.9375,30.5 L 18.0625,30.5 z M 23.0625,30.5 C 22.750875,30.5 22.5,30.750875 22.5,31.0625 L 22.5,31.9375 C 22.5,32.249125 22.750875,32.5 23.0625,32.5 L 25.9375,32.5 C 26.249125,32.5 26.5,32.249125 26.5,31.9375 L 26.5,31.0625 C 26.5,30.750875 26.249125,30.5 25.9375,30.5 L 23.0625,30.5 z M 28.0625,30.5 C 27.750875,30.5 27.5,30.750875 27.5,31.0625 L 27.5,31.9375 C 27.5,32.249125 27.750875,32.5 28.0625,32.5 L 30.9375,32.5 C 31.039377,32.5 31.136502,32.484483 31.21875,32.4375 C 31.286593,31.911149 31.331935,31.315462 31.375,30.71875 C 31.272165,30.588256 31.117284,30.5 30.9375,30.5 L 28.0625,30.5 z M 17.96875,33.5 C 18.103209,34.248868 18.251972,34.921542 18.4375,35.5 L 20.9375,35.5 C 21.249125,35.5 21.5,35.249125 21.5,34.9375 L 21.5,34.0625 C 21.5,33.750875 21.249125,33.5 20.9375,33.5 L 18.0625,33.5 C 18.029779,33.5 17.999911,33.494688 17.96875,33.5 z M 23.0625,33.5 C 22.750875,33.5 22.5,33.750875 22.5,34.0625 L 22.5,34.9375 C 22.5,35.249125 22.750875,35.5 23.0625,35.5 L 25.9375,35.5 C 26.249125,35.5 26.5,35.249125 26.5,34.9375 L 26.5,34.0625 C 26.5,33.750875 26.249125,33.5 25.9375,33.5 L 23.0625,33.5 z M 28.0625,33.5 C 27.750875,33.5 27.5,33.750875 27.5,34.0625 L 27.5,34.9375 C 27.5,35.249125 27.750875,35.5 28.0625,35.5 L 30.5625,35.5 C 30.746275,34.925272 30.897969,34.245333 31.03125,33.5 C 31.000089,33.494688 30.970221,33.5 30.9375,33.5 L 28.0625,33.5 z M 18.9375,36.5 C 18.890307,36.5 18.855821,36.512357 18.8125,36.53125 C 19.410622,37.842551 20.169694,38.5 21,38.5 L 21.0625,38.5 C 21.296219,38.5 21.5,38.249125 21.5,37.9375 L 21.5,37.0625 C 21.5,36.750875 21.296218,36.5 21.0625,36.5 L 18.9375,36.5 z M 23.0625,36.5 C 22.750875,36.5 22.5,36.750875 22.5,37.0625 L 22.5,37.9375 C 22.5,38.249125 22.750875,38.5 23.0625,38.5 L 25.9375,38.5 C 26.249125,38.5 26.5,38.249125 26.5,37.9375 L 26.5,37.0625 C 26.5,36.750875 26.249125,36.5 25.9375,36.5 L 23.0625,36.5 z M 27.9375,36.5 C 27.703781,36.5 27.5,36.750875 27.5,37.0625 L 27.5,37.9375 C 27.5,38.249125 27.703782,38.5 27.9375,38.5 L 28,38.5 C 28.835261,38.5 29.587757,37.850072 30.1875,36.53125 C 30.144179,36.512357 30.109693,36.5 30.0625,36.5 L 27.9375,36.5 z "
         style="fill:url(#linearGradient7532);fill-opacity:1;fill-rule:evenodd;stroke:url(#linearGradient7287);stroke-width:0.97000003;stroke-linecap:round;stroke-linejoin:round;stroke-miterlimit:4;stroke-dasharray:none;stroke-opacity:1"
         id="path8246" />
      <g
         style="opacity:0.85"
         id="g7493">
        <path
           d="M 26.5,31.0625 C 26.5,30.750875 26.249125,30.5 25.9375,30.5 L 23.0625,30.5 C 22.750875,30.5 22.5,30.750875 22.5,31.0625 L 22.5,31.9375"
           style="opacity:1;fill:none;fill-opacity:1;fill-rule:evenodd;stroke:url(#linearGradient7491);stroke-width:1;stroke-linecap:round;stroke-linejoin:round;stroke-miterlimit:4;stroke-dasharray:none;stroke-opacity:1"
           id="path7193" />
        <path
           d="M 26.5,34.0625 C 26.5,33.750875 26.249125,33.5 25.9375,33.5 L 23.0625,33.5 C 22.750875,33.5 22.5,33.750875 22.5,34.0625 L 22.5,34.9375"
           style="opacity:1;fill:none;fill-opacity:1;fill-rule:evenodd;stroke:url(#linearGradient7488);stroke-width:1;stroke-linecap:round;stroke-linejoin:round;stroke-miterlimit:4;stroke-dasharray:none;stroke-opacity:1"
           id="path7195" />
        <path
           d="M 26.5,37.0625 C 26.5,36.750875 26.249125,36.5 25.9375,36.5 L 23.0625,36.5 C 22.750875,36.5 22.5,36.750875 22.5,37.0625 L 22.5,37.9375"
           style="opacity:1;fill:none;fill-opacity:1;fill-rule:evenodd;stroke:url(#linearGradient7485);stroke-width:1;stroke-linecap:round;stroke-linejoin:round;stroke-miterlimit:4;stroke-dasharray:none;stroke-opacity:1"
           id="path7197" />
        <path
           d="M 21.5,25.0625 C 21.5,24.750875 21.249125,24.5 20.9375,24.5 L 20.03125,24.5 L 18.0625,24.5 C 17.750875,24.5 17.5,24.750875 17.5,25.0625 L 17.5,25.9375"
           style="opacity:1;fill:none;fill-opacity:1;fill-rule:evenodd;stroke:url(#linearGradient7482);stroke-width:1;stroke-linecap:round;stroke-linejoin:round;stroke-miterlimit:4;stroke-dasharray:none;stroke-opacity:1"
           id="path7191" />
        <path
           d="M 26.5,25.0625 C 26.5,24.750875 26.249125,24.5 25.9375,24.5 L 23.0625,24.5 C 22.750875,24.5 22.5,24.750875 22.5,25.0625 L 22.5,25.9375"
           style="opacity:1;fill:none;fill-opacity:1;fill-rule:evenodd;stroke:url(#linearGradient7479);stroke-width:1;stroke-linecap:round;stroke-linejoin:round;stroke-miterlimit:4;stroke-dasharray:none;stroke-opacity:1"
           id="path7311" />
        <path
           d="M 31.5,25.0625 C 31.5,24.750875 31.249125,24.5 30.9375,24.5 L 28.96875,24.5 L 28.0625,24.5 C 27.750875,24.5 27.5,24.750875 27.5,25.0625 L 27.5,25.9375"
           style="opacity:1;fill:none;fill-opacity:1;fill-rule:evenodd;stroke:url(#linearGradient7476);stroke-width:1;stroke-linecap:round;stroke-linejoin:round;stroke-miterlimit:4;stroke-dasharray:none;stroke-opacity:1"
           id="path7313" />
        <path
           d="M 21.5,28.0625 C 21.5,27.750875 21.249125,27.5 20.9375,27.5 L 20.03125,27.5 L 18.0625,27.5 C 17.750875,27.5 17.5,27.750875 17.5,28.0625 L 17.5,28.9375"
           style="opacity:1;fill:none;fill-opacity:1;fill-rule:evenodd;stroke:url(#linearGradient7473);stroke-width:1;stroke-linecap:round;stroke-linejoin:round;stroke-miterlimit:4;stroke-dasharray:none;stroke-opacity:1"
           id="path7341" />
        <path
           d="M 26.5,28.0625 C 26.5,27.750875 26.249125,27.5 25.9375,27.5 L 23.0625,27.5 C 22.750875,27.5 22.5,27.750875 22.5,28.0625 L 22.5,28.9375"
           style="opacity:1;fill:none;fill-opacity:1;fill-rule:evenodd;stroke:url(#linearGradient7470);stroke-width:1;stroke-linecap:round;stroke-linejoin:round;stroke-miterlimit:4;stroke-dasharray:none;stroke-opacity:1"
           id="path7343" />
        <path
           d="M 31.5,28.0625 C 31.5,27.750875 31.249125,27.5 30.9375,27.5 L 28.96875,27.5 L 28.0625,27.5 C 27.750875,27.5 27.5,27.750875 27.5,28.0625 L 27.5,28.9375"
           style="opacity:1;fill:none;fill-opacity:1;fill-rule:evenodd;stroke:url(#linearGradient7467);stroke-width:1;stroke-linecap:round;stroke-linejoin:round;stroke-miterlimit:4;stroke-dasharray:none;stroke-opacity:1"
           id="path7345" />
        <path
           d="M 21.5,31.0625 C 21.5,30.750875 21.249125,30.5 20.9375,30.5 L 18.0625,30.5 C 17.882716,30.5 17.727835,30.588256 17.625,30.71875 C 17.668776,31.320774 17.712015,31.906145 17.78125,32.4375"
           style="opacity:1;fill:none;fill-opacity:1;fill-rule:evenodd;stroke:url(#linearGradient7464);stroke-width:1;stroke-linecap:round;stroke-linejoin:round;stroke-miterlimit:4;stroke-dasharray:none;stroke-opacity:1"
           id="path7353" />
        <path
           d="M 31.375,30.71875 C 31.272165,30.588256 31.117284,30.5 30.9375,30.5 L 28.0625,30.5 C 27.750875,30.5 27.5,30.750875 27.5,31.0625 L 27.5,31.9375"
           style="opacity:1;fill:none;fill-opacity:1;fill-rule:evenodd;stroke:url(#linearGradient7461);stroke-width:1;stroke-linecap:round;stroke-linejoin:round;stroke-miterlimit:4;stroke-dasharray:none;stroke-opacity:1"
           id="path7355" />
        <path
           d="M 31.03125,33.5 C 31.000089,33.494688 30.970221,33.5 30.9375,33.5 L 28.0625,33.5 C 27.750875,33.5 27.5,33.750875 27.5,34.0625 L 27.5,34.9375"
           style="opacity:1;fill:none;fill-opacity:1;fill-rule:evenodd;stroke:url(#linearGradient7458);stroke-width:1;stroke-linecap:round;stroke-linejoin:round;stroke-miterlimit:4;stroke-dasharray:none;stroke-opacity:1"
           id="path7361" />
        <path
           d="M 21.5,34.0625 C 21.5,33.750875 21.249125,33.5 20.9375,33.5 L 18.0625,33.5 C 18.029779,33.5 17.999911,33.494688 17.96875,33.5 C 18.103209,34.248868 18.251972,34.921542 18.4375,35.5"
           style="opacity:1;fill:none;fill-opacity:1;fill-rule:evenodd;stroke:url(#linearGradient7455);stroke-width:1;stroke-linecap:round;stroke-linejoin:round;stroke-miterlimit:4;stroke-dasharray:none;stroke-opacity:1"
           id="path7363" />
        <path
           d="M 21.5,37.0625 C 21.5,36.750875 21.296218,36.5 21.0625,36.5 L 18.9375,36.5 C 18.890307,36.5 18.855821,36.512357 18.8125,36.53125"
           style="opacity:1;fill:none;fill-opacity:1;fill-rule:evenodd;stroke:url(#linearGradient7452);stroke-width:1;stroke-linecap:round;stroke-linejoin:round;stroke-miterlimit:4;stroke-dasharray:none;stroke-opacity:1"
           id="path7369" />
        <path
           d="M 30.1875,36.53125 C 30.144179,36.512357 30.109693,36.5 30.0625,36.5 L 27.9375,36.5 C 27.703781,36.5 27.5,36.750875 27.5,37.0625 L 27.5,37.9375"
           style="opacity:1;fill:none;fill-opacity:1;fill-rule:evenodd;stroke:url(#linearGradient7449);stroke-width:1;stroke-linecap:round;stroke-linejoin:round;stroke-miterlimit:4;stroke-dasharray:none;stroke-opacity:1"
           id="path7371" />
      </g>
      <g
         transform="translate(0,1)"
         style="fill:#555753"
         id="g7135" />
      <path
         d="M 24.5,8.558522 L 24.5,7.5"
         style="fill:none;fill-opacity:1;fill-rule:evenodd;stroke:url(#linearGradient6116);stroke-width:1.00000012px;stroke-linecap:round;stroke-linejoin:miter;stroke-opacity:1"
         id="path6112" />
      <path
         d="M 22.5,8.558522 L 22.5,7.558522"
         style="fill:none;fill-opacity:1;fill-rule:evenodd;stroke:url(#linearGradient6118);stroke-width:1px;stroke-linecap:round;stroke-linejoin:miter;stroke-opacity:1"
         id="path6114" />
      <path
         d="M 26.5,8.558522 L 26.5,7.5"
         style="fill:none;fill-opacity:1;fill-rule:evenodd;stroke:url(#linearGradient6122);stroke-width:1.00000012px;stroke-linecap:round;stroke-linejoin:miter;stroke-opacity:1"
         id="path6120" />
    </g>
  </g>
  <g
     id="layer2" />
</svg>
