<?xml version="1.0" encoding="UTF-8" standalone="no"?>
<!-- Created with Inkscape (http://www.inkscape.org/) -->

<svg
   xmlns:dc="http://purl.org/dc/elements/1.1/"
   xmlns:cc="http://creativecommons.org/ns#"
   xmlns:rdf="http://www.w3.org/1999/02/22-rdf-syntax-ns#"
   xmlns:svg="http://www.w3.org/2000/svg"
   xmlns="http://www.w3.org/2000/svg"
   xmlns:xlink="http://www.w3.org/1999/xlink"
   xmlns:inkscape="http://www.inkscape.org/namespaces/inkscape"
   version="1.1"
   width="48"
   height="48"
   id="svg1328">
  <defs
     id="defs3">
    <linearGradient
       id="linearGradient3365">
      <stop
         id="stop3367"
         style="stop-color:#ffffff;stop-opacity:1"
         offset="0" />
      <stop
         id="stop3371"
         style="stop-color:#ffffff;stop-opacity:0"
         offset="0.5" />
      <stop
         id="stop3373"
         style="stop-color:#ffffff;stop-opacity:1"
         offset="0.75" />
      <stop
         id="stop3375"
         style="stop-color:#ffffff;stop-opacity:0"
         offset="0.95394737" />
      <stop
         id="stop3377"
         style="stop-color:#ffffff;stop-opacity:0"
         offset="0.95394737" />
      <stop
         id="stop3369"
         style="stop-color:#ffffff;stop-opacity:1"
         offset="1" />
    </linearGradient>
    <linearGradient
       id="linearGradient3353">
      <stop
         id="stop3355"
         style="stop-color:#969696;stop-opacity:1"
         offset="0" />
      <stop
         id="stop3357"
         style="stop-color:#b6b6b6;stop-opacity:0"
         offset="1" />
    </linearGradient>
    <linearGradient
       id="linearGradient3341">
      <stop
         id="stop3343"
         style="stop-color:#b6b6b6;stop-opacity:1"
         offset="0" />
      <stop
         id="stop3345"
         style="stop-color:#b6b6b6;stop-opacity:0"
         offset="1" />
    </linearGradient>
    <linearGradient
       id="linearGradient3331">
      <stop
         id="stop3333"
         style="stop-color:#ffffff;stop-opacity:1"
         offset="0" />
      <stop
         id="stop3335"
         style="stop-color:#ffffff;stop-opacity:0"
         offset="1" />
    </linearGradient>
    <linearGradient
       id="linearGradient3323">
      <stop
         id="stop3325"
         style="stop-color:#000000;stop-opacity:1"
         offset="0" />
      <stop
         id="stop3327"
         style="stop-color:#000000;stop-opacity:0"
         offset="1" />
    </linearGradient>
    <linearGradient
       id="linearGradient3309">
      <stop
         id="stop3311"
         style="stop-color:#e5e6e3;stop-opacity:1"
         offset="0" />
      <stop
         id="stop3317"
         style="stop-color:#d1d3cf;stop-opacity:1"
         offset="0.5" />
      <stop
         id="stop3313"
         style="stop-color:#767c6f;stop-opacity:1"
         offset="1" />
    </linearGradient>
    <linearGradient
       id="linearGradient3289">
      <stop
         id="stop3291"
         style="stop-color:#000000;stop-opacity:1"
         offset="0" />
      <stop
         id="stop3293"
         style="stop-color:#000000;stop-opacity:0"
         offset="1" />
    </linearGradient>
    <linearGradient
       id="linearGradient3271">
      <stop
         id="stop3273"
         style="stop-color:#eeeeec;stop-opacity:1"
         offset="0" />
      <stop
         id="stop3275"
         style="stop-color:#d3d3ce;stop-opacity:1"
         offset="1" />
    </linearGradient>
    <linearGradient
       x1="78.98452"
       y1="12.350954"
       x2="79.109146"
       y2="8.7270317"
       id="linearGradient3277"
       xlink:href="#linearGradient3271"
       gradientUnits="userSpaceOnUse"
       gradientTransform="translate(-52,21)" />
    <radialGradient
       cx="69.296463"
       cy="14.854369"
       r="3.5355339"
       fx="69.296463"
       fy="14.854369"
       id="radialGradient3295"
       xlink:href="#linearGradient3289"
       gradientUnits="userSpaceOnUse"
       gradientTransform="matrix(1,0,0,1.575,0,-8.541261)" />
    <radialGradient
       cx="69.296463"
       cy="14.854369"
       r="3.5355339"
       fx="69.296463"
       fy="14.854369"
       id="radialGradient3299"
       xlink:href="#linearGradient3289"
       gradientUnits="userSpaceOnUse"
       gradientTransform="matrix(1,0,0,1.575,0,-8.541261)" />
    <radialGradient
       cx="77.499115"
       cy="-9.0639915"
       r="17.500887"
       fx="77.499115"
       fy="-9.0639915"
       id="radialGradient3315"
       xlink:href="#linearGradient3309"
       gradientUnits="userSpaceOnUse"
       gradientTransform="matrix(2.080863,0,0,1.843788,-135.7659,30.30738)" />
    <radialGradient
       cx="22.5"
       cy="34"
       r="23.5"
       fx="22.5"
       fy="34"
       id="radialGradient3329"
       xlink:href="#linearGradient3323"
       gradientUnits="userSpaceOnUse"
       gradientTransform="matrix(1,0,0,0.595745,0,13.74468)" />
    <linearGradient
       x1="31.988777"
       y1="35.874382"
       x2="31.988777"
       y2="44.874382"
       id="linearGradient3337"
       xlink:href="#linearGradient3331"
       gradientUnits="userSpaceOnUse"
       gradientTransform="translate(2,1)" />
    <linearGradient
       x1="7.7210102"
       y1="3.0030618"
       x2="6.7816706"
       y2="-3.74264"
       id="linearGradient3347"
       xlink:href="#linearGradient3341"
       gradientUnits="userSpaceOnUse"
       gradientTransform="translate(2,1)" />
    <linearGradient
       x1="31.988777"
       y1="35.874382"
       x2="31.988777"
       y2="44.874382"
       id="linearGradient3349"
       xlink:href="#linearGradient3331"
       gradientUnits="userSpaceOnUse"
       gradientTransform="translate(2,1)" />
    <linearGradient
       x1="7.7210102"
       y1="3.0030618"
       x2="6.7816706"
       y2="-3.74264"
       id="linearGradient3359"
       xlink:href="#linearGradient3353"
       gradientUnits="userSpaceOnUse"
       gradientTransform="translate(2,1)" />
    <linearGradient
       x1="-7.6092024"
       y1="6.7062273"
       x2="22.266058"
       y2="10.756479"
       id="linearGradient3363"
       xlink:href="#linearGradient3365"
       gradientUnits="userSpaceOnUse"
       gradientTransform="translate(2,1)" />
  </defs>
  <metadata
     id="metadata4">
    <rdf:RDF>
      <cc:Work
         rdf:about="">
        <dc:format>image/svg+xml</dc:format>
        <dc:type
           rdf:resource="http://purl.org/dc/dcmitype/StillImage" />
        <dc:title>Battery</dc:title>
        <dc:creator>
          <cc:Agent>
            <dc:title>Jakub Steiner</dc:title>
          </cc:Agent>
        </dc:creator>
        <dc:source>http://jimmac.musichall.cz</dc:source>
        <dc:subject>
          <rdf:Bag>
            <rdf:li>battery</rdf:li>
            <rdf:li>apm</rdf:li>
            <rdf:li>acpi</rdf:li>
            <rdf:li>power management</rdf:li>
          </rdf:Bag>
        </dc:subject>
        <cc:license
           rdf:resource="http://creativecommons.org/licenses/by-sa/2.0/" />
      </cc:Work>
      <cc:License
         rdf:about="http://creativecommons.org/licenses/by-sa/2.0/">
        <cc:permits
           rdf:resource="http://web.resource.org/cc/Reproduction" />
        <cc:permits
           rdf:resource="http://web.resource.org/cc/Distribution" />
        <cc:requires
           rdf:resource="http://web.resource.org/cc/Notice" />
        <cc:requires
           rdf:resource="http://web.resource.org/cc/Attribution" />
        <cc:permits
           rdf:resource="http://web.resource.org/cc/DerivativeWorks" />
        <cc:requires
           rdf:resource="http://web.resource.org/cc/ShareAlike" />
      </cc:License>
    </rdf:RDF>
  </metadata>
  <g
     id="layer1">
    <path
       d="M 25,15.5 C 25,15.5 27.125,5.375 23,4 18.875,2.625 13.25,10.5 8.5,10 3.75,9.5 3.6464466,-1.5355339 3.6464466,-1.5355339"
       inkscape:connector-curvature="0"
       id="path3351"
       style="color:#000000;fill:none;stroke:url(#linearGradient3359);stroke-width:6;stroke-linecap:butt;stroke-linejoin:miter;stroke-miterlimit:10;stroke-opacity:1;stroke-dasharray:none;stroke-dashoffset:0;marker:none;visibility:visible;display:block;overflow:visible" />
    <path
       d="M 25,15.5 C 25,15.5 27.125,5.375 23,4 18.875,2.625 13.25,10.5 8.5,10 3.75,9.5 3.6464466,-1.5355339 3.6464466,-1.5355339"
       inkscape:connector-curvature="0"
       id="path3339"
       style="color:#000000;fill:none;stroke:url(#linearGradient3347);stroke-width:4;stroke-linecap:butt;stroke-linejoin:miter;stroke-miterlimit:10;stroke-opacity:1;stroke-dasharray:none;stroke-dashoffset:0;marker:none;visibility:visible;display:block;overflow:visible" />
    <path
       d="m 24.748738,14.765981 c 0,0 1.268395,-10.2344976 -2.474874,-11.3137083 C 18.694101,2.420202 11.378007,11.772266 6.7175144,9.109127 3.0052037,6.9878067 2.6516505,-1.4974747 2.6516505,-1.4974747"
       inkscape:connector-curvature="0"
       id="path3361"
       style="opacity:0.52197804;color:#000000;fill:none;stroke:url(#linearGradient3363);stroke-width:1;stroke-linecap:butt;stroke-linejoin:miter;stroke-miterlimit:10;stroke-opacity:1;stroke-dasharray:none;stroke-dashoffset:0;marker:none;visibility:visible;display:block;overflow:visible" />
    <path
       d="m 46,34 a 23.5,14 0 1 1 -47,0 23.5,14 0 1 1 47,0 z"
       transform="matrix(1,0,0,1.428571,2,-18.86433)"
       id="path3321"
       style="opacity:0.58241763;color:#000000;fill:url(#radialGradient3329);fill-opacity:1;fill-rule:nonzero;stroke:none;stroke-width:0.99999946;marker:none;visibility:visible;display:block;overflow:visible" />
    <path
       d="M 25.061614,11.494622 C 15.84863,11.723232 8.4991139,19.115639 8.4991139,28.256775 l 0,0.400566 c -0.00253,0.01226 0.0013,0.04896 0,0.06163 -3.28e-4,0.0064 0,0.0243 0,0.03081 l 0,12.386737 c 0,0.0065 -3.28e-4,0.02439 0,0.03081 0.0013,0.01267 -0.00253,0.04937 0,0.06163 0.00156,0.006 0.029399,0.02492 0.03125,0.03081 0.00213,0.0058 -0.0024,0.02519 0,0.03081 0.00801,0.01644 0.020992,0.04663 0.03125,0.06163 0.00365,0.0048 0.027371,0.02617 0.03125,0.03081 0.0041,0.0044 0.026943,0.02657 0.03125,0.03081 0.0047,0.0038 0.026359,0.02721 0.03125,0.03081 0.015208,0.01012 0.045824,0.02291 0.0625,0.03081 0.011412,0.0047 0.050546,0.02716 0.0625,0.03081 0.0061,0.0015 0.025034,-0.0012 0.03125,0 0.012649,0.0019 0.049467,-6.47e-4 0.0625,0 l 33.2500001,0 c 0.01303,-6.47e-4 0.04985,0.0019 0.0625,0 0.0062,-0.0012 0.02515,0.0015 0.03125,0 0.01195,-0.0037 0.05109,-0.02607 0.0625,-0.03081 0.01668,-0.0079 0.04729,-0.0207 0.0625,-0.03081 0.0049,-0.0036 0.02655,-0.02699 0.03125,-0.03081 0.0043,-0.0042 0.02715,-0.02637 0.03125,-0.03081 0.0039,-0.0046 0.0276,-0.02599 0.03125,-0.03081 0.01026,-0.015 0.02324,-0.04518 0.03125,-0.06163 0.0024,-0.0056 -0.0021,-0.02505 0,-0.03081 0.0019,-0.0059 0.02969,-0.0248 0.03125,-0.03081 0.0025,-0.01226 -0.0013,-0.04896 0,-0.06163 3.28e-4,-0.0064 0,-0.0243 0,-0.03081 l 0,-12.386737 c 0,-0.0065 3.28e-4,-0.02439 0,-0.03081 -0.0013,-0.01267 0.0025,-0.04937 0,-0.06163 l 0,-0.400566 c 0,-9.286233 -7.582,-16.762153 -17,-16.762153 -0.147156,0 -0.291262,-0.0036 -0.4375,0 z"
       inkscape:connector-curvature="0"
       id="rect2393"
       style="color:#000000;fill:url(#radialGradient3315);fill-opacity:1;fill-rule:nonzero;stroke:#848781;stroke-width:0.99999946;stroke-linecap:butt;stroke-linejoin:miter;stroke-miterlimit:10;stroke-opacity:1;stroke-dasharray:none;stroke-dashoffset:0;marker:none;visibility:visible;display:block;overflow:visible" />
    <rect
       width="29.972158"
       height="10.054042"
       rx="0.38128227"
       ry="0.38128221"
       x="10.513954"
       y="29.472982"
       id="rect2391"
       style="color:#000000;fill:url(#linearGradient3277);fill-opacity:1;fill-rule:nonzero;stroke:#888a85;stroke-width:0.99999976;stroke-linecap:butt;stroke-linejoin:miter;stroke-miterlimit:10;stroke-opacity:1;stroke-dasharray:none;stroke-dashoffset:0;marker:none;visibility:visible;display:block;overflow:visible" />
    <path
       d="m 72.831997,14.854369 a 3.5355339,5.5684657 0 1 1 -7.071068,0 3.5355339,5.5684657 0 1 1 7.071068,0 z"
       transform="translate(-34.8839,21)"
       id="path3297"
       style="opacity:0.48901098;color:#000000;fill:url(#radialGradient3299);fill-opacity:1;fill-rule:nonzero;stroke:none;stroke-width:0.99999946;marker:none;visibility:visible;display:block;overflow:visible" />
    <path
       d="m 72.831997,14.854369 a 3.5355339,5.5684657 0 1 1 -7.071068,0 3.5355339,5.5684657 0 1 1 7.071068,0 z"
       transform="translate(-52,21)"
       id="path3287"
       style="opacity:0.48901098;color:#000000;fill:url(#radialGradient3295);fill-opacity:1;fill-rule:nonzero;stroke:none;stroke-width:0.99999946;marker:none;visibility:visible;display:block;overflow:visible" />
    <path
       d="M 25.090015,12.46904 C 16.475304,12.682805 9.6030509,19.595164 9.6030509,28.142692 l 0,0.374555 c -0.00237,0.01146 0.00121,0.04578 0,0.05762 -3.07e-4,0.006 0,0.02273 0,0.02881 l 0,11.582367 c 0,0.0061 -3.07e-4,0.0228 0,0.02881 0.00121,0.01185 -0.00237,0.04616 0,0.05762 0.00146,0.0056 0.027489,0.0233 0.02922,0.02881 0.00199,0.0054 -0.00225,0.02355 0,0.02881 0.00749,0.01538 0.019629,0.0436 0.029221,0.05762 0.00342,0.0045 0.025593,0.02448 0.029221,0.02881 0.00383,0.0042 0.025193,0.02484 0.02922,0.02881 0.0044,0.0036 0.024648,0.02544 0.029221,0.02881 0.01422,0.0095 0.042848,0.02143 0.058441,0.02881 0.010671,0.0044 0.047264,0.0254 0.058442,0.02881 0.00571,0.0014 0.023408,-0.0012 0.02922,0 0.011828,0.0018 0.046255,-6.05e-4 0.058442,0 l 31.0908111,0 c 0.01219,-6.05e-4 0.04661,0.0018 0.05844,0 0.0058,-0.0012 0.02352,0.0014 0.02922,0 0.01118,-0.0034 0.04777,-0.02438 0.05844,-0.02881 0.01559,-0.0074 0.04422,-0.01935 0.05844,-0.02881 0.0046,-0.0034 0.02482,-0.02524 0.02922,-0.02881 0.004,-0.004 0.02539,-0.02465 0.02922,-0.02881 0.0036,-0.0043 0.0258,-0.0243 0.02922,-0.02881 0.0096,-0.01402 0.02173,-0.04225 0.02922,-0.05762 0.0022,-0.0053 -0.002,-0.02342 0,-0.02881 0.0017,-0.0055 0.02776,-0.02319 0.02922,-0.02881 0.0024,-0.01146 -0.0012,-0.04578 0,-0.05762 3.06e-4,-0.006 0,-0.02273 0,-0.02881 l 0,-11.582367 c 0,-0.0061 3.06e-4,-0.0228 0,-0.02881 -0.0012,-0.01185 0.0024,-0.04616 0,-0.05762 l 0,-0.374555 c 0,-8.683203 -7.089641,-15.673652 -15.896054,-15.673652 -0.1376,0 -0.272348,-0.0034 -0.40909,0 z"
       inkscape:connector-curvature="0"
       id="path3319"
       style="opacity:0.58241763;color:#000000;fill:none;stroke:#ffffff;stroke-width:0.99999928;stroke-linecap:butt;stroke-linejoin:miter;stroke-miterlimit:10;stroke-opacity:1;stroke-dasharray:none;stroke-dashoffset:0;marker:none;visibility:visible;display:block;overflow:visible" />
    <rect
       width="2.9998362"
       height="14.243194"
       rx="0.381282"
       ry="0.38128212"
       x="15.522423"
       y="31.530037"
       id="rect3279"
       style="color:#000000;fill:#babdb6;fill-opacity:1;fill-rule:nonzero;stroke:#888a85;stroke-width:0.99999917;stroke-linecap:butt;stroke-linejoin:miter;stroke-miterlimit:10;stroke-opacity:1;stroke-dasharray:none;stroke-dashoffset:0;marker:none;visibility:visible;display:block;overflow:visible" />
    <rect
       width="1.0224007"
       height="8.2487669"
       rx="0"
       ry="0"
       x="16.5"
       y="36.5"
       id="rect3281"
       style="color:#000000;fill:#babdb6;fill-opacity:1;fill-rule:nonzero;stroke:url(#linearGradient3337);stroke-width:0.99999887;stroke-linecap:butt;stroke-linejoin:miter;stroke-miterlimit:10;stroke-opacity:1;stroke-dasharray:none;stroke-dashoffset:0;marker:none;visibility:visible;display:block;overflow:visible" />
    <rect
       width="2.9998362"
       height="14.243194"
       rx="0.381282"
       ry="0.38128212"
       x="32.5"
       y="31.530037"
       id="rect3283"
       style="color:#000000;fill:#babdb6;fill-opacity:1;fill-rule:nonzero;stroke:#888a85;stroke-width:0.99999917;stroke-linecap:butt;stroke-linejoin:miter;stroke-miterlimit:10;stroke-opacity:1;stroke-dasharray:none;stroke-dashoffset:0;marker:none;visibility:visible;display:block;overflow:visible" />
    <rect
       width="1.0224007"
       height="8.2487669"
       rx="0"
       ry="0"
       x="33.477577"
       y="36.5"
       id="rect3285"
       style="color:#000000;fill:#babdb6;fill-opacity:1;fill-rule:nonzero;stroke:url(#linearGradient3349);stroke-width:0.99999887;stroke-linecap:butt;stroke-linejoin:miter;stroke-miterlimit:10;stroke-opacity:1;stroke-dasharray:none;stroke-dashoffset:0;marker:none;visibility:visible;display:block;overflow:visible" />
  </g>
  <g
     id="layer2" />
</svg>
