<?xml version="1.0" encoding="UTF-8" standalone="no"?>
<!-- Created with Inkscape (http://www.inkscape.org/) -->

<svg
   xmlns:dc="http://purl.org/dc/elements/1.1/"
   xmlns:cc="http://creativecommons.org/ns#"
   xmlns:rdf="http://www.w3.org/1999/02/22-rdf-syntax-ns#"
   xmlns:svg="http://www.w3.org/2000/svg"
   xmlns="http://www.w3.org/2000/svg"
   xmlns:xlink="http://www.w3.org/1999/xlink"
   xmlns:inkscape="http://www.inkscape.org/namespaces/inkscape"
   version="1.1"
   width="48"
   height="48"
   id="svg1328">
  <defs
     id="defs3">
    <linearGradient
       x1="16.3447"
       y1="30.360399"
       x2="34.009102"
       y2="13.0483"
       id="aigrd2"
       gradientUnits="userSpaceOnUse"
       gradientTransform="matrix(0.937963,0,0,0.937963,6.485913,12.6462)">
      <stop
         id="stop3655"
         style="stop-color:#686868;stop-opacity:1"
         offset="0" />
      <stop
         id="stop3657"
         style="stop-color:#6d6d6d;stop-opacity:1"
         offset="1" />
    </linearGradient>
    <linearGradient
       x1="6.8618002"
       y1="27.3535"
       x2="39.192001"
       y2="15.62"
       id="aigrd3"
       gradientUnits="userSpaceOnUse"
       gradientTransform="matrix(0.937963,0,0,0.937963,6.485913,12.6462)">
      <stop
         id="stop3664"
         style="stop-color:#fcfcfc;stop-opacity:1"
         offset="0" />
      <stop
         id="stop3666"
         style="stop-color:#bbbbbb;stop-opacity:1"
         offset="1" />
    </linearGradient>
    <linearGradient
       x1="14.9478"
       y1="19.6626"
       x2="37.1408"
       y2="11.6082"
       id="aigrd4"
       gradientUnits="userSpaceOnUse"
       gradientTransform="matrix(0.937963,0,0,0.937963,6.485913,12.6462)">
      <stop
         id="stop3671"
         style="stop-color:#ebebeb;stop-opacity:1"
         offset="0" />
      <stop
         id="stop3673"
         style="stop-color:#818181;stop-opacity:1"
         offset="1" />
    </linearGradient>
    <radialGradient
       cx="12.4722"
       cy="15.9321"
       r="6.1648998"
       fx="12.4722"
       fy="15.9321"
       id="aigrd6"
       gradientUnits="userSpaceOnUse"
       gradientTransform="matrix(0.907,0.4211,-0.4211,0.907,19.2898,-10.214)">
      <stop
         id="stop3693"
         style="stop-color:#9e9e9e;stop-opacity:1"
         offset="0" />
      <stop
         id="stop3695"
         style="stop-color:#535353;stop-opacity:1"
         offset="1" />
    </radialGradient>
    <radialGradient
       cx="14.5474"
       cy="15.9844"
       r="4.5099001"
       fx="14.5474"
       fy="15.9844"
       id="aigrd5"
       gradientUnits="userSpaceOnUse"
       gradientTransform="matrix(0.907,0.4211,-0.4211,0.907,19.2898,-10.214)">
      <stop
         id="stop3686"
         style="stop-color:#efefef;stop-opacity:1"
         offset="0" />
      <stop
         id="stop3688"
         style="stop-color:#6d6d6d;stop-opacity:1"
         offset="1" />
    </radialGradient>
    <linearGradient
       id="linearGradient3247">
      <stop
         id="stop3249"
         style="stop-color:#f0f0f0;stop-opacity:1"
         offset="0" />
      <stop
         id="stop3251"
         style="stop-color:#f0f0f0;stop-opacity:0"
         offset="1" />
    </linearGradient>
    <linearGradient
       id="linearGradient3233">
      <stop
         id="stop3235"
         style="stop-color:#eeeeec;stop-opacity:1"
         offset="0" />
      <stop
         id="stop3237"
         style="stop-color:#a3a398;stop-opacity:1"
         offset="1" />
    </linearGradient>
    <linearGradient
       id="linearGradient6924">
      <stop
         id="stop6926"
         style="stop-color:#ffffff;stop-opacity:1"
         offset="0" />
      <stop
         id="stop6928"
         style="stop-color:#ffffff;stop-opacity:0"
         offset="1" />
    </linearGradient>
    <linearGradient
       id="linearGradient4176">
      <stop
         id="stop4178"
         style="stop-color:#ffffff;stop-opacity:1"
         offset="0" />
      <stop
         id="stop4180"
         style="stop-color:#ffffff;stop-opacity:0"
         offset="1" />
    </linearGradient>
    <linearGradient
       id="linearGradient4134">
      <stop
         id="stop4136"
         style="stop-color:#d6d7d5;stop-opacity:1"
         offset="0" />
      <stop
         id="stop4148"
         style="stop-color:#d1d2d0;stop-opacity:1"
         offset="0.25" />
      <stop
         id="stop4142"
         style="stop-color:#a5a6a3;stop-opacity:1"
         offset="0.5" />
      <stop
         id="stop4138"
         style="stop-color:#dddedc;stop-opacity:1"
         offset="1" />
    </linearGradient>
    <linearGradient
       id="linearGradient4126">
      <stop
         id="stop4128"
         style="stop-color:#000000;stop-opacity:1"
         offset="0" />
      <stop
         id="stop4130"
         style="stop-color:#000000;stop-opacity:0"
         offset="1" />
    </linearGradient>
    <radialGradient
       cx="23.857143"
       cy="40"
       r="17.142857"
       fx="23.857143"
       fy="40"
       id="radialGradient4132"
       xlink:href="#linearGradient4126"
       gradientUnits="userSpaceOnUse"
       gradientTransform="matrix(1,0,0,0.5,0,20)" />
    <radialGradient
       cx="23.857143"
       cy="40"
       r="17.142857"
       fx="23.857143"
       fy="40"
       id="radialGradient6946"
       xlink:href="#linearGradient4126"
       gradientUnits="userSpaceOnUse"
       gradientTransform="matrix(1,0,0,0.5,0,20)" />
    <linearGradient
       x1="24"
       y1="17.245949"
       x2="23.433737"
       y2="8.0476589"
       id="linearGradient3255"
       xlink:href="#linearGradient3233"
       gradientUnits="userSpaceOnUse" />
    <linearGradient
       x1="16.3447"
       y1="30.360399"
       x2="34.009102"
       y2="13.0483"
       id="linearGradient4678"
       xlink:href="#aigrd2"
       gradientUnits="userSpaceOnUse"
       gradientTransform="matrix(0.937963,0,0,0.937963,6.491274,12.62438)" />
    <linearGradient
       id="linearGradient3260">
      <stop
         id="stop3262"
         style="stop-color:#3465a4;stop-opacity:1"
         offset="0" />
      <stop
         id="stop3264"
         style="stop-color:#8fb1dc;stop-opacity:1"
         offset="1" />
    </linearGradient>
    <linearGradient
       id="linearGradient3815">
      <stop
         id="stop3817"
         style="stop-color:#204a87;stop-opacity:1"
         offset="0" />
      <stop
         id="stop3819"
         style="stop-color:#98b8e7;stop-opacity:1"
         offset="1" />
    </linearGradient>
    <linearGradient
       id="linearGradient3805">
      <stop
         id="stop3807"
         style="stop-color:#284e7f;stop-opacity:1"
         offset="0" />
      <stop
         id="stop3813"
         style="stop-color:#6694cf;stop-opacity:1"
         offset="0.5" />
      <stop
         id="stop3809"
         style="stop-color:#234570;stop-opacity:1"
         offset="1" />
    </linearGradient>
    <linearGradient
       x1="9.3030529"
       y1="26.71875"
       x2="38.826412"
       y2="26.71875"
       id="linearGradient2572"
       xlink:href="#linearGradient4134"
       gradientUnits="userSpaceOnUse"
       gradientTransform="matrix(0.573686,0,0,0.617087,49.87395,-4.037989)" />
    <linearGradient
       x1="17.160095"
       y1="14.004482"
       x2="37.969398"
       y2="56.575912"
       id="linearGradient2574"
       xlink:href="#linearGradient4176"
       gradientUnits="userSpaceOnUse"
       gradientTransform="matrix(0.559909,0,0,0.617965,50.20771,-4.041853)" />
    <linearGradient
       x1="34.244171"
       y1="17.695425"
       x2="34.244171"
       y2="29.91827"
       id="linearGradient2576"
       xlink:href="#linearGradient3247"
       gradientUnits="userSpaceOnUse"
       gradientTransform="matrix(0.588804,0,0,0.622475,49.63814,-3.016176)" />
    <linearGradient
       x1="11.003058"
       y1="32.489445"
       x2="32.396713"
       y2="32.489445"
       id="linearGradient2578"
       xlink:href="#linearGradient3805"
       gradientUnits="userSpaceOnUse"
       gradientTransform="matrix(0.757466,0,0,0.79213,52.62229,-3.308503)" />
    <linearGradient
       x1="21.486856"
       y1="25.114395"
       x2="21.756248"
       y2="5.5616603"
       id="linearGradient2580"
       xlink:href="#linearGradient3260"
       gradientUnits="userSpaceOnUse" />
    <linearGradient
       x1="25.698481"
       y1="11.170371"
       x2="25.573168"
       y2="20.118456"
       id="linearGradient2582"
       xlink:href="#linearGradient3815"
       gradientUnits="userSpaceOnUse" />
    <linearGradient
       x1="24"
       y1="17.245949"
       x2="23.433737"
       y2="8.0476589"
       id="linearGradient2584"
       xlink:href="#linearGradient3233"
       gradientUnits="userSpaceOnUse" />
    <radialGradient
       cx="23.857143"
       cy="40"
       r="17.142857"
       fx="23.857143"
       fy="40"
       id="radialGradient2586"
       xlink:href="#linearGradient4126"
       gradientUnits="userSpaceOnUse"
       gradientTransform="matrix(1,0,0,0.5,0,20)" />
    <linearGradient
       x1="16.07143"
       y1="19.5"
       x2="15.785715"
       y2="30"
       id="linearGradient2588"
       xlink:href="#linearGradient6924"
       gradientUnits="userSpaceOnUse"
       gradientTransform="matrix(0.588804,0,0,0.622475,49.49454,-2.501044)" />
    <linearGradient
       x1="24"
       y1="17.245949"
       x2="23.433737"
       y2="8.0476589"
       id="linearGradient2590"
       xlink:href="#linearGradient3233"
       gradientUnits="userSpaceOnUse" />
  </defs>
  <metadata
     id="metadata4">
    <rdf:RDF>
      <cc:Work
         rdf:about="">
        <dc:format>image/svg+xml</dc:format>
        <dc:type
           rdf:resource="http://purl.org/dc/dcmitype/StillImage" />
        <dc:title>Battery</dc:title>
        <dc:creator>
          <cc:Agent>
            <dc:title>Jakub Steiner</dc:title>
          </cc:Agent>
        </dc:creator>
        <dc:source>http://jimmac.musichall.cz</dc:source>
        <dc:subject>
          <rdf:Bag>
            <rdf:li>battery</rdf:li>
            <rdf:li>apm</rdf:li>
            <rdf:li>acpi</rdf:li>
            <rdf:li>power management</rdf:li>
          </rdf:Bag>
        </dc:subject>
        <cc:license
           rdf:resource="http://creativecommons.org/licenses/by-sa/2.0/" />
      </cc:Work>
      <cc:License
         rdf:about="http://creativecommons.org/licenses/by-sa/2.0/">
        <cc:permits
           rdf:resource="http://web.resource.org/cc/Reproduction" />
        <cc:permits
           rdf:resource="http://web.resource.org/cc/Distribution" />
        <cc:requires
           rdf:resource="http://web.resource.org/cc/Notice" />
        <cc:requires
           rdf:resource="http://web.resource.org/cc/Attribution" />
        <cc:permits
           rdf:resource="http://web.resource.org/cc/DerivativeWorks" />
        <cc:requires
           rdf:resource="http://web.resource.org/cc/ShareAlike" />
      </cc:License>
    </rdf:RDF>
  </metadata>
  <g
     id="layer1">
    <path
       d="M 41,40 A 17.142857,8.5714283 0 1 1 6.7142868,40 17.142857,8.5714283 0 1 1 41,40 z"
       transform="matrix(0.831993,0,0,0.904687,-5.111713,-7.837026)"
       id="path3366"
       style="color:#000000;fill:url(#radialGradient4132);fill-opacity:1;fill-rule:nonzero;stroke:none;stroke-width:1;marker:none;visibility:visible;display:block;overflow:visible" />
    <path
       d="M 41,40 A 17.142857,8.5714283 0 1 1 6.7142868,40 17.142857,8.5714283 0 1 1 41,40 z"
       transform="matrix(0.285592,0,0,0.285592,7.630674,-3.417084)"
       id="path6944"
       style="opacity:0.30769234;color:#000000;fill:url(#radialGradient6946);fill-opacity:1;fill-rule:nonzero;stroke:none;stroke-width:1;marker:none;visibility:visible;display:block;overflow:visible" />
    <g
       transform="translate(-56.21011,3.45207)"
       id="g2018">
      <path
         d="m 70.754127,2.3850427 c -5.953246,0 -10.793885,2.2007337 -10.793886,4.9079694 0,0.1942651 0,17.9571639 0,18.1594819 0,2.707236 4.840639,4.907969 10.793886,4.907969 5.953247,0 10.986635,-2.200734 10.986634,-4.907969 0,-0.160244 0,-17.999238 0,-18.1594819 0,-2.7072365 -5.033388,-4.9079694 -10.986634,-4.9079694 z"
         inkscape:connector-curvature="0"
         id="path1912"
         style="color:#000000;fill:url(#linearGradient2572);fill-opacity:1;fill-rule:nonzero;stroke:#767973;stroke-width:0.9999997;stroke-linecap:butt;stroke-linejoin:miter;stroke-miterlimit:10;stroke-opacity:1;stroke-dasharray:none;stroke-dashoffset:0;marker:none;visibility:visible;display:block;overflow:visible" />
      <path
         d="m 70.760659,3.0029254 c -5.550526,0 -10.063709,2.0547787 -10.063709,4.5824666 0,0.1813819 0,17.211018 0,17.399918 0,2.527689 4.513182,4.582467 10.063709,4.582467 5.550525,0 10.243418,-2.054778 10.243416,-4.582467 0,-0.149615 0,-17.2503005 0,-17.399918 0,-2.5276887 -4.692892,-4.5824666 -10.243416,-4.5824666 z"
         inkscape:connector-curvature="0"
         id="path1914"
         style="opacity:0.5443038;color:#000000;fill:none;stroke:url(#linearGradient2574);stroke-width:0.99999982;stroke-linecap:butt;stroke-linejoin:miter;stroke-miterlimit:10;stroke-opacity:1;stroke-dasharray:none;stroke-dashoffset:0;marker:none;visibility:visible;display:block;overflow:visible" />
      <path
         d="M 79.785332,5.9475489 C 78.945215,5.1672137 78.234848,4.9296317 77.489865,4.5472477 l 0.229545,14.8031853 2.065922,2.56055 0,-15.9634341 z"
         inkscape:connector-curvature="0"
         id="path1916"
         style="color:#000000;fill:url(#linearGradient2576);fill-opacity:1;fill-rule:nonzero;stroke:none;stroke-width:0.99999946;marker:none;visibility:visible;display:block;overflow:visible" />
      <path
         d="m 70.322762,4.2335617 c -5.002388,0.1067205 -8.98873,1.8535351 -8.98873,3.9829987 0,0.2524447 0,16.2904556 0,16.5411826 0,2.198155 4.226309,3.982996 9.454812,3.982998 5.228504,0 9.477006,-1.784843 9.477007,-3.982998 0,-0.250727 0,-16.2887379 0,-16.5411826 0,-2.1981563 -4.248503,-3.9829979 -9.477007,-3.9829987 -0.163391,0 -0.304715,-0.00344 -0.466082,0 z"
         inkscape:connector-curvature="0"
         id="path1918"
         style="opacity:0.79120878;color:#000000;fill:url(#linearGradient2578);fill-opacity:1;fill-rule:nonzero;stroke:#204a87;stroke-width:0.99621493;stroke-linecap:butt;stroke-linejoin:miter;stroke-miterlimit:10;stroke-opacity:1;stroke-dasharray:none;stroke-dashoffset:0;marker:none;visibility:visible;display:block;overflow:visible" />
      <path
         d="m 36.857142,14.071428 a 12.857142,5.5 0 1 1 -25.714284,0 12.857142,5.5 0 1 1 25.714284,0 z"
         transform="matrix(0.736706,0,0,0.685875,53.11824,-2.056787)"
         id="path1920"
         style="color:#000000;fill:url(#linearGradient2580);fill-opacity:1;fill-rule:nonzero;stroke:url(#linearGradient2582);stroke-width:1.4067924;stroke-linecap:butt;stroke-linejoin:miter;stroke-miterlimit:10;stroke-opacity:1;stroke-dasharray:none;stroke-dashoffset:0;marker:none;visibility:visible;display:block;overflow:visible" />
      <path
         d="m 36.857142,14.071428 a 12.857142,5.5 0 1 1 -25.714284,0 12.857142,5.5 0 1 1 25.714284,0 z"
         transform="matrix(0.785713,0,0,0.763887,51.94438,-3.590035)"
         id="path1922"
         style="opacity:0.467033;color:#000000;fill:#f0f0f0;fill-opacity:1;fill-rule:nonzero;stroke:url(#linearGradient2584);stroke-width:1.29078352;stroke-linecap:butt;stroke-linejoin:miter;stroke-miterlimit:10;stroke-opacity:1;stroke-dasharray:none;stroke-dashoffset:0;marker:none;visibility:visible;display:block;overflow:visible" />
      <path
         d="M 41,40 A 17.142857,8.5714283 0 1 1 6.7142868,40 17.142857,8.5714283 0 1 1 41,40 z"
         transform="matrix(0.275285,0,0,0.287884,64.05955,-6.99374)"
         id="path1924"
         style="opacity:0.30769234;color:#000000;fill:url(#radialGradient2586);fill-opacity:1;fill-rule:nonzero;stroke:none;stroke-width:1;marker:none;visibility:visible;display:block;overflow:visible" />
      <path
         d="m 70.869327,1.1947586 c -1.517048,0 -3.508038,0.565702 -3.508038,1.2616009 0,0.049936 0,2.0310252 0,2.0830317 0,0.6958989 1.99099,1.2616009 3.508038,1.2616009 1.517048,0 3.340739,-0.565702 3.340738,-1.2616009 0,-0.041191 0,-2.041841 0,-2.0830317 0,-0.6958997 -1.82369,-1.2616009 -3.340738,-1.2616009 z"
         inkscape:connector-curvature="0"
         id="path1926"
         style="color:#000000;fill:#9d9e9b;fill-opacity:1;fill-rule:nonzero;stroke:#7d7f7a;stroke-width:0.99999964;stroke-linecap:butt;stroke-linejoin:miter;stroke-miterlimit:10;stroke-opacity:1;stroke-dasharray:none;stroke-dashoffset:0;marker:none;visibility:visible;display:block;overflow:visible" />
      <path
         d="m 63.0645,10.893256 0.270523,13.296469 3.462702,1.018452 -0.10821,-13.239887 c 0,0 1.46861,-0.07001 4.01153,-0.239757 -4.921539,-0.03959 -8.136267,-1.250116 -9.908942,-3.0419242 1.073252,1.6572752 2.272397,2.2066472 2.272397,2.2066472 z"
         inkscape:connector-curvature="0"
         id="path1928"
         style="opacity:0.58241763;color:#000000;fill:url(#linearGradient2588);fill-opacity:1;fill-rule:nonzero;stroke:none;stroke-width:1;marker:none;visibility:visible;display:block;overflow:visible" />
      <path
         d="m 36.857142,14.071428 a 12.857142,5.5 0 1 1 -25.714284,0 12.857142,5.5 0 1 1 25.714284,0 z"
         transform="matrix(0.206015,0,0,0.152173,65.85475,0.536003)"
         id="path1930"
         style="color:#000000;fill:#d3d7cf;fill-opacity:1;fill-rule:nonzero;stroke:url(#linearGradient2590);stroke-width:5.64783573;stroke-linecap:butt;stroke-linejoin:miter;stroke-miterlimit:10;stroke-opacity:1;stroke-dasharray:none;stroke-dashoffset:0;marker:none;visibility:visible;display:block;overflow:visible" />
    </g>
    <path
       d="m 14.695397,4.7062278 c -1.573844,0 -3.639374,0.5611986 -3.639374,1.2515575 0,0.049538 0,2.0148567 0,2.0664492 0,0.6903589 2.06553,1.2515575 3.639374,1.2515575 1.573844,0 3.465811,-0.5611986 3.46581,-1.2515575 0,-0.040863 0,-2.0255863 0,-2.0664492 0,-0.6903597 -1.891966,-1.2515575 -3.46581,-1.2515575 z"
       inkscape:connector-curvature="0"
       id="path3362"
       style="color:#000000;fill:#9d9e9b;fill-opacity:1;fill-rule:nonzero;stroke:#7d7f7a;stroke-width:1;stroke-linecap:butt;stroke-linejoin:miter;stroke-miterlimit:10;stroke-opacity:1;stroke-dasharray:none;stroke-dashoffset:0;marker:none;visibility:visible;display:block;overflow:visible" />
    <path
       d="m 36.857142,14.071428 a 12.857142,5.5 0 1 1 -25.714284,0 12.857142,5.5 0 1 1 25.714284,0 z"
       transform="matrix(0.213728,0,0,0.150961,9.493084,4.052715)"
       id="path6940"
       style="color:#000000;fill:#d3d7cf;fill-opacity:1;fill-rule:nonzero;stroke:url(#linearGradient3255);stroke-width:5.5671978;stroke-linecap:butt;stroke-linejoin:miter;stroke-miterlimit:10;stroke-opacity:1;stroke-dasharray:none;stroke-dashoffset:0;marker:none;visibility:visible;display:block;overflow:visible" />
    <path
       d="m 26.477944,23.504729 c -4.056233,0.10285 -12.327453,1.27954 -13.6875,14.625 -0.0458,0.494629 -0.04756,0.979745 0.03125,1.4375 -0.0016,0.0078 0.0015,0.02346 0,0.03125 -1.164734,5.974391 12.163589,9.633809 18.0625,4.15625 l 11.25,-11.15625 c 1.319015,-1.31901 0.149419,-4.040095 0,-4.375 -0.01,-0.02233 0,-0.03125 0,-0.03125 -1.875923,-3.189074 -11.154582,-4.6875 -14.53125,-4.6875 -0.316563,0 -0.70539,-0.01064 -1.125,0 z"
       inkscape:connector-curvature="0"
       id="path3796"
       style="fill:url(#linearGradient4678);fill-rule:nonzero;stroke:#595959;stroke-width:2;stroke-miterlimit:4;stroke-opacity:1;stroke-dasharray:none" />
    <path
       d="M 42.128522,28.216386 13.802028,37.502224 C 8.5494326,44.630746 24.307217,49.88334 30.872961,43.786579 L 42.128522,32.624814 c 1.406945,-1.406945 0,-4.408428 0,-4.408428 l 0,0 z"
       inkscape:connector-curvature="0"
       id="path3659"
       style="fill:url(#aigrd2);fill-rule:nonzero;stroke:none" />
    <path
       d="m 42.128522,28.685368 c -1.875927,-3.189075 -11.161765,-4.689817 -14.538433,-4.689817 -3.282872,0 -13.31908,-0.0938 -14.726025,14.632229 -0.468982,5.065002 6.002966,8.347874 11.067968,6.753336 4.971206,-1.594537 5.158799,-9.379634 9.285838,-12.568709 4.127038,-3.189076 10.786578,-0.844167 8.910652,-4.033243 l 0,-0.0938 z"
       inkscape:connector-curvature="0"
       id="path3661"
       style="fill:#f0f0f0;fill-rule:nonzero;stroke:none" />
    <path
       d="m 42.128522,28.216386 c -1.875927,-3.189075 -11.161765,-4.689817 -14.538433,-4.689817 -3.376668,0 -13.31908,-0.0938 -14.819821,14.632229 -0.468982,5.065002 6.002965,8.347874 11.067968,6.753337 4.971206,-1.594538 5.158798,-9.379634 9.285837,-12.56871 4.127039,-3.189075 10.786579,-0.844167 8.910652,-4.033242 l 0.0938,-0.0938 z"
       inkscape:connector-curvature="0"
       id="path3668"
       style="fill:url(#aigrd3);fill-rule:nonzero;stroke:none" />
    <path
       d="M 42.316114,29.15435 C 42.597503,30.655091 36.406945,29.810924 35,31.311666 33.874444,29.248146 29.278423,27.09083 25.807959,26.34046 22.431291,25.590089 18.304252,26.152867 18.304252,26.152867 24.025828,20.900272 41.847133,24.464533 42.316114,29.15435 z"
       inkscape:connector-curvature="0"
       id="path3675"
       style="fill:url(#aigrd4);fill-rule:nonzero;stroke:none" />
    <path
       d="m 35.281389,32.906203 c 3.751854,-1.875926 4.408428,-0.656574 6.65954,-2.532501 C 40.440188,32.437222 38.376668,31.874444 36.125556,33 l -0.937963,-0.0938 0.0938,0 z"
       inkscape:connector-curvature="0"
       id="path3677"
       style="opacity:0.3;fill:#ffffff;fill-rule:nonzero;stroke:none" />
    <path
       d="M 35.093796,31.311666 35.281389,33 c 3.939446,-1.969723 4.408428,-0.281389 7.034725,-2.907687 -2.907686,1.969723 -4.033242,0.937964 -6.847132,2.157316 L 35,31.405462 l 0.0938,-0.0938 z"
       inkscape:connector-curvature="0"
       id="path3679"
       style="opacity:0.3;fill:#000000;fill-rule:nonzero;stroke:none" />
    <path
       d="m 25.807959,26.34046 0.562778,0.187592 c 2.720094,-2.344908 10.036208,-1.406945 10.036208,-1.406945 0,0 -7.785096,-1.406945 -10.598986,1.313149 l 0,-0.0938 z"
       inkscape:connector-curvature="0"
       id="path3681"
       style="opacity:0.3;fill:#000000;fill-rule:nonzero;stroke:none" />
    <path
       d="m 26.20941,24.025057 c -6.092387,0.344259 -10.840522,2.297197 -12.981587,14.403272 -1.296006,7.327917 11.863618,9.987584 17.269752,4.967604 l 11.185209,-11.09929 c 1.208828,-1.208824 0.874852,-3.584154 -1.0625,-4.947026 -4.045442,-2.845854 -10.285262,-3.32456 -13.379853,-3.32456 -0.290118,0 -0.646464,-0.0098 -1.031021,0 z"
       inkscape:connector-curvature="0"
       id="path4680"
       style="opacity:0.37362641;fill:none;stroke:#ffffff;stroke-width:1;stroke-miterlimit:4;stroke-opacity:1;stroke-dasharray:none" />
    <g
       transform="matrix(0.937963,0,0,0.937963,6.485913,12.6462)"
       id="g3683"
       style="fill:#bababa;fill-rule:nonzero;stroke:#000000;stroke-miterlimit:4">
      <radialGradient
         cx="14.5474"
         cy="15.9844"
         r="4.5099001"
         fx="14.5474"
         fy="15.9844"
         id="radialGradient3782"
         gradientUnits="userSpaceOnUse"
         gradientTransform="matrix(0.907,0.4211,-0.4211,0.907,19.2898,-10.214)">
        <stop
           id="stop3784"
           style="stop-color:#efefef;stop-opacity:1"
           offset="0" />
        <stop
           id="stop3786"
           style="stop-color:#6d6d6d;stop-opacity:1"
           offset="1" />
      </radialGradient>
      <path
         d="m 26.8,11.2 c -1.8,-0.3 -2.9,0.9 -3.3,1.9 0.5,0.6 1,0.8 2.2,0.7 1.8,-0.1 2.6,-0.2 3.8,-1 -0.6,-0.6 -1.5,-1.5 -2.7,-1.7 l 0,0.1 z"
         inkscape:connector-curvature="0"
         id="path3690"
         style="fill:url(#aigrd5);stroke:none" />
      <radialGradient
         cx="12.4722"
         cy="15.9321"
         r="6.1648998"
         fx="12.4722"
         fy="15.9321"
         id="radialGradient3789"
         gradientUnits="userSpaceOnUse"
         gradientTransform="matrix(0.907,0.4211,-0.4211,0.907,19.2898,-10.214)">
        <stop
           id="stop3791"
           style="stop-color:#9e9e9e;stop-opacity:1"
           offset="0" />
        <stop
           id="stop3793"
           style="stop-color:#535353;stop-opacity:1"
           offset="1" />
      </radialGradient>
      <path
         d="m 27.6,11.9 c -1.1,-0.2 -1.7,1.3 -1.9,2 1.1,-0.1 2.9,-0.3 3.6,-1.1 C 29,12.4 28.4,12.1 27.6,12 l 0,-0.1 z"
         inkscape:connector-curvature="0"
         id="path3697"
         style="fill:url(#aigrd6);stroke:none" />
    </g>
    <path
       d="m 47.583401,16.583175 c -1.631477,-2.873101 -4.364687,-5.116438 -7.778,-6.058448 -3.413312,-0.9420109 -6.910238,-0.418076 -9.784385,1.211557"
       inkscape:connector-curvature="0"
       id="path3235"
       style="color:#000000;fill:none;stroke:#babdb6;stroke-width:1.00000036;stroke-linecap:round;stroke-linejoin:miter;stroke-miterlimit:4;stroke-opacity:1;stroke-dasharray:none;stroke-dashoffset:0;marker:none;visibility:visible;display:inline;overflow:visible" />
    <path
       d="m 44.039609,18.593997 c -1.11524,-1.965857 -2.982315,-3.504231 -5.316303,-4.148369 -2.333989,-0.644135 -4.725807,-0.281136 -6.691468,0.834448"
       inkscape:connector-curvature="0"
       id="path3233"
       style="color:#000000;fill:none;stroke:#babdb6;stroke-width:1.00000036;stroke-linecap:round;stroke-linejoin:miter;stroke-miterlimit:4;stroke-opacity:1;stroke-dasharray:none;stroke-dashoffset:0;marker:none;visibility:visible;display:inline;overflow:visible" />
    <path
       d="M 40.495817,20.604819 C 39.894653,19.545326 38.899256,18.71373 37.641209,18.366532 36.383161,18.019336 35.10214,18.222682 34.042661,18.823868"
       inkscape:connector-curvature="0"
       id="path3227"
       style="color:#000000;fill:none;stroke:#babdb6;stroke-width:1.00000036;stroke-linecap:round;stroke-linejoin:miter;stroke-miterlimit:4;stroke-opacity:1;stroke-dasharray:none;stroke-dashoffset:0;marker:none;visibility:visible;display:inline;overflow:visible" />
    <g
       transform="matrix(0.749282,0,0,0.79213,119.0661,5.489991)"
       id="g1932" />
    <g
       transform="translate(66.25488,7.11108)"
       id="g2441" />
  </g>
  <g
     id="layer2" />
</svg>
