<?xml version="1.0" encoding="UTF-8" standalone="no"?>
<!-- Created with Inkscape (http://www.inkscape.org/) -->

<svg
   xmlns:dc="http://purl.org/dc/elements/1.1/"
   xmlns:cc="http://creativecommons.org/ns#"
   xmlns:rdf="http://www.w3.org/1999/02/22-rdf-syntax-ns#"
   xmlns:svg="http://www.w3.org/2000/svg"
   xmlns="http://www.w3.org/2000/svg"
   xmlns:xlink="http://www.w3.org/1999/xlink"
   xmlns:inkscape="http://www.inkscape.org/namespaces/inkscape"
   version="1.1"
   width="48"
   height="48"
   id="svg1328">
  <defs
     id="defs3">
    <linearGradient
       id="linearGradient2245">
      <stop
         id="stop2247"
         style="stop-color:#dde1d9;stop-opacity:1"
         offset="0" />
      <stop
         id="stop2249"
         style="stop-color:#cacdc6;stop-opacity:1"
         offset="1" />
    </linearGradient>
    <linearGradient
       x1="18.316999"
       y1="48.643234"
       x2="18.176752"
       y2="52.536461"
       id="linearGradient2981"
       xlink:href="#linearGradient2245"
       gradientUnits="userSpaceOnUse"
       gradientTransform="matrix(1.129863,0,0,0.899111,0,1.555273)" />
    <linearGradient
       x1="8.1134243"
       y1="88.509071"
       x2="8.1134233"
       y2="100.20015"
       id="linearGradient2758"
       xlink:href="#linearGradient2752"
       gradientUnits="userSpaceOnUse"
       gradientTransform="matrix(2.012827,0,0,0.432928,4.489755,2.000006)" />
    <linearGradient
       x1="8.1134243"
       y1="88.509071"
       x2="8.1134233"
       y2="100.20015"
       id="linearGradient1411"
       xlink:href="#linearGradient2752"
       gradientUnits="userSpaceOnUse"
       gradientTransform="matrix(2.247004,0,0,0.432928,0.947581,2.000006)" />
    <linearGradient
       id="linearGradient2752">
      <stop
         id="stop2754"
         style="stop-color:#9d9d9d;stop-opacity:1"
         offset="0" />
      <stop
         id="stop2756"
         style="stop-color:#b9b9b9;stop-opacity:1"
         offset="1" />
    </linearGradient>
    <linearGradient
       x1="8.1134243"
       y1="88.509071"
       x2="8.1134233"
       y2="100.20015"
       id="linearGradient1409"
       xlink:href="#linearGradient2752"
       gradientUnits="userSpaceOnUse"
       gradientTransform="matrix(2.309851,0,0,0.432928,0,2.000006)" />
    <linearGradient
       id="linearGradient2635">
      <stop
         id="stop2637"
         style="stop-color:#f9fff5;stop-opacity:1"
         offset="0" />
      <stop
         id="stop2639"
         style="stop-color:#f9fff5;stop-opacity:0"
         offset="1" />
    </linearGradient>
    <linearGradient
       x1="13.62871"
       y1="101.2846"
       x2="8.6485014"
       y2="74.098007"
       id="linearGradient2741"
       xlink:href="#linearGradient2635"
       gradientUnits="userSpaceOnUse"
       gradientTransform="matrix(2.143634,0,0,0.480712,1,0.574206)" />
    <linearGradient
       id="linearGradient3247">
      <stop
         id="stop3249"
         style="stop-color:#f0f0f0;stop-opacity:1"
         offset="0" />
      <stop
         id="stop3251"
         style="stop-color:#f0f0f0;stop-opacity:0"
         offset="1" />
    </linearGradient>
    <linearGradient
       id="linearGradient3233">
      <stop
         id="stop3235"
         style="stop-color:#eeeeec;stop-opacity:1"
         offset="0" />
      <stop
         id="stop3237"
         style="stop-color:#a3a398;stop-opacity:1"
         offset="1" />
    </linearGradient>
    <linearGradient
       id="linearGradient6924">
      <stop
         id="stop6926"
         style="stop-color:#ffffff;stop-opacity:1"
         offset="0" />
      <stop
         id="stop6928"
         style="stop-color:#ffffff;stop-opacity:0"
         offset="1" />
    </linearGradient>
    <linearGradient
       id="linearGradient4176">
      <stop
         id="stop4178"
         style="stop-color:#ffffff;stop-opacity:1"
         offset="0" />
      <stop
         id="stop4180"
         style="stop-color:#ffffff;stop-opacity:0"
         offset="1" />
    </linearGradient>
    <linearGradient
       id="linearGradient4134">
      <stop
         id="stop4136"
         style="stop-color:#d6d7d5;stop-opacity:1"
         offset="0" />
      <stop
         id="stop4148"
         style="stop-color:#d1d2d0;stop-opacity:1"
         offset="0.25" />
      <stop
         id="stop4142"
         style="stop-color:#a5a6a3;stop-opacity:1"
         offset="0.5" />
      <stop
         id="stop4138"
         style="stop-color:#dddedc;stop-opacity:1"
         offset="1" />
    </linearGradient>
    <linearGradient
       id="linearGradient4126">
      <stop
         id="stop4128"
         style="stop-color:#000000;stop-opacity:1"
         offset="0" />
      <stop
         id="stop4130"
         style="stop-color:#000000;stop-opacity:0"
         offset="1" />
    </linearGradient>
    <radialGradient
       cx="23.857143"
       cy="40"
       r="17.142857"
       fx="23.857143"
       fy="40"
       id="radialGradient4132"
       xlink:href="#linearGradient4126"
       gradientUnits="userSpaceOnUse"
       gradientTransform="matrix(1,0,0,0.5,0,20)" />
    <linearGradient
       id="linearGradient3805">
      <stop
         id="stop3807"
         style="stop-color:#284e7f;stop-opacity:1"
         offset="0" />
      <stop
         id="stop3813"
         style="stop-color:#6694cf;stop-opacity:1"
         offset="0.5" />
      <stop
         id="stop3809"
         style="stop-color:#234570;stop-opacity:1"
         offset="1" />
    </linearGradient>
    <linearGradient
       id="linearGradient3815">
      <stop
         id="stop3817"
         style="stop-color:#204a87;stop-opacity:1"
         offset="0" />
      <stop
         id="stop3819"
         style="stop-color:#98b8e7;stop-opacity:1"
         offset="1" />
    </linearGradient>
    <linearGradient
       id="linearGradient3260">
      <stop
         id="stop3262"
         style="stop-color:#3465a4;stop-opacity:1"
         offset="0" />
      <stop
         id="stop3264"
         style="stop-color:#8fb1dc;stop-opacity:1"
         offset="1" />
    </linearGradient>
    <linearGradient
       x1="9.3030529"
       y1="26.71875"
       x2="38.826412"
       y2="26.71875"
       id="linearGradient2030"
       xlink:href="#linearGradient4134"
       gradientUnits="userSpaceOnUse"
       gradientTransform="matrix(0.573686,0,0,0.617087,49.87395,-4.037989)" />
    <linearGradient
       x1="17.160095"
       y1="14.004482"
       x2="37.969398"
       y2="56.575912"
       id="linearGradient2032"
       xlink:href="#linearGradient4176"
       gradientUnits="userSpaceOnUse"
       gradientTransform="matrix(0.559909,0,0,0.617965,50.20771,-4.041853)" />
    <linearGradient
       x1="34.244171"
       y1="17.695425"
       x2="34.244171"
       y2="29.91827"
       id="linearGradient2034"
       xlink:href="#linearGradient3247"
       gradientUnits="userSpaceOnUse"
       gradientTransform="matrix(0.588804,0,0,0.622475,49.63814,-3.016176)" />
    <linearGradient
       x1="11.003058"
       y1="32.489445"
       x2="32.396713"
       y2="32.489445"
       id="linearGradient2036"
       xlink:href="#linearGradient3805"
       gradientUnits="userSpaceOnUse"
       gradientTransform="matrix(0.757466,0,0,0.79213,52.62229,-3.308503)" />
    <linearGradient
       x1="21.486856"
       y1="25.114395"
       x2="21.756248"
       y2="5.5616603"
       id="linearGradient2038"
       xlink:href="#linearGradient3260"
       gradientUnits="userSpaceOnUse" />
    <linearGradient
       x1="25.698481"
       y1="11.170371"
       x2="25.573168"
       y2="20.118456"
       id="linearGradient2040"
       xlink:href="#linearGradient3815"
       gradientUnits="userSpaceOnUse" />
    <linearGradient
       x1="24"
       y1="17.245949"
       x2="23.433737"
       y2="8.0476589"
       id="linearGradient2042"
       xlink:href="#linearGradient3233"
       gradientUnits="userSpaceOnUse" />
    <radialGradient
       cx="23.857143"
       cy="40"
       r="17.142857"
       fx="23.857143"
       fy="40"
       id="radialGradient2044"
       xlink:href="#linearGradient4126"
       gradientUnits="userSpaceOnUse"
       gradientTransform="matrix(1,0,0,0.5,0,20)" />
    <linearGradient
       x1="16.07143"
       y1="19.5"
       x2="15.785715"
       y2="30"
       id="linearGradient2046"
       xlink:href="#linearGradient6924"
       gradientUnits="userSpaceOnUse"
       gradientTransform="matrix(0.588804,0,0,0.622475,49.49454,-2.501044)" />
    <linearGradient
       x1="24"
       y1="17.245949"
       x2="23.433737"
       y2="8.0476589"
       id="linearGradient2048"
       xlink:href="#linearGradient3233"
       gradientUnits="userSpaceOnUse" />
  </defs>
  <metadata
     id="metadata4">
    <rdf:RDF>
      <cc:Work
         rdf:about="">
        <dc:format>image/svg+xml</dc:format>
        <dc:type
           rdf:resource="http://purl.org/dc/dcmitype/StillImage" />
        <dc:title>Battery</dc:title>
        <dc:creator>
          <cc:Agent>
            <dc:title>Jakub Steiner</dc:title>
          </cc:Agent>
        </dc:creator>
        <dc:source>http://jimmac.musichall.cz</dc:source>
        <dc:subject>
          <rdf:Bag>
            <rdf:li>battery</rdf:li>
            <rdf:li>apm</rdf:li>
            <rdf:li>acpi</rdf:li>
            <rdf:li>power management</rdf:li>
          </rdf:Bag>
        </dc:subject>
        <cc:license
           rdf:resource="http://creativecommons.org/licenses/by-sa/2.0/" />
      </cc:Work>
      <cc:License
         rdf:about="http://creativecommons.org/licenses/by-sa/2.0/">
        <cc:permits
           rdf:resource="http://web.resource.org/cc/Reproduction" />
        <cc:permits
           rdf:resource="http://web.resource.org/cc/Distribution" />
        <cc:requires
           rdf:resource="http://web.resource.org/cc/Notice" />
        <cc:requires
           rdf:resource="http://web.resource.org/cc/Attribution" />
        <cc:permits
           rdf:resource="http://web.resource.org/cc/DerivativeWorks" />
        <cc:requires
           rdf:resource="http://web.resource.org/cc/ShareAlike" />
      </cc:License>
    </rdf:RDF>
  </metadata>
  <g
     id="layer1">
    <path
       d="M 41,40 A 17.142857,8.5714283 0 1 1 6.7142868,40 17.142857,8.5714283 0 1 1 41,40 z"
       transform="matrix(0.831993,0,0,0.904687,-5.111713,-7.837026)"
       id="path3366"
       style="color:#000000;fill:url(#radialGradient4132);fill-opacity:1;fill-rule:nonzero;stroke:none;stroke-width:1;marker:none;visibility:visible;display:block;overflow:visible" />
    <g
       transform="translate(-56.21499,1.59099)"
       id="g2018">
      <path
         d="m 70.754127,2.3850427 c -5.953246,0 -10.793885,2.2007337 -10.793886,4.9079694 0,0.1942651 0,17.9571639 0,18.1594819 0,2.707236 4.840639,4.907969 10.793886,4.907969 5.953247,0 10.986635,-2.200734 10.986634,-4.907969 0,-0.160244 0,-17.999238 0,-18.1594819 0,-2.7072365 -5.033388,-4.9079694 -10.986634,-4.9079694 z"
         inkscape:connector-curvature="0"
         id="path1912"
         style="color:#000000;fill:url(#linearGradient2030);fill-opacity:1;fill-rule:nonzero;stroke:#767973;stroke-width:0.9999997;stroke-linecap:butt;stroke-linejoin:miter;stroke-miterlimit:10;stroke-opacity:1;stroke-dasharray:none;stroke-dashoffset:0;marker:none;visibility:visible;display:block;overflow:visible" />
      <path
         d="m 70.760659,3.0029254 c -5.550526,0 -10.063709,2.0547787 -10.063709,4.5824666 0,0.1813819 0,17.211018 0,17.399918 0,2.527689 4.513182,4.582467 10.063709,4.582467 5.550525,0 10.243418,-2.054778 10.243416,-4.582467 0,-0.149615 0,-17.2503005 0,-17.399918 0,-2.5276887 -4.692892,-4.5824666 -10.243416,-4.5824666 z"
         inkscape:connector-curvature="0"
         id="path1914"
         style="opacity:0.5443038;color:#000000;fill:none;stroke:url(#linearGradient2032);stroke-width:0.99999982;stroke-linecap:butt;stroke-linejoin:miter;stroke-miterlimit:10;stroke-opacity:1;stroke-dasharray:none;stroke-dashoffset:0;marker:none;visibility:visible;display:block;overflow:visible" />
      <path
         d="M 79.785332,5.9475489 C 78.945215,5.1672137 78.234848,4.9296317 77.489865,4.5472477 l 0.229545,14.8031853 2.065922,2.56055 0,-15.9634341 z"
         inkscape:connector-curvature="0"
         id="path1916"
         style="color:#000000;fill:url(#linearGradient2034);fill-opacity:1;fill-rule:nonzero;stroke:none;stroke-width:0.99999946;marker:none;visibility:visible;display:block;overflow:visible" />
      <path
         d="m 70.322762,4.2335617 c -5.002388,0.1067205 -8.98873,1.8535351 -8.98873,3.9829987 0,0.2524447 0,16.2904556 0,16.5411826 0,2.198155 4.226309,3.982996 9.454812,3.982998 5.228504,0 9.477006,-1.784843 9.477007,-3.982998 0,-0.250727 0,-16.2887379 0,-16.5411826 0,-2.1981563 -4.248503,-3.9829979 -9.477007,-3.9829987 -0.163391,0 -0.304715,-0.00344 -0.466082,0 z"
         inkscape:connector-curvature="0"
         id="path1918"
         style="opacity:0.79120878;color:#000000;fill:url(#linearGradient2036);fill-opacity:1;fill-rule:nonzero;stroke:#204a87;stroke-width:0.99621493;stroke-linecap:butt;stroke-linejoin:miter;stroke-miterlimit:10;stroke-opacity:1;stroke-dasharray:none;stroke-dashoffset:0;marker:none;visibility:visible;display:block;overflow:visible" />
      <path
         d="m 36.857142,14.071428 a 12.857142,5.5 0 1 1 -25.714284,0 12.857142,5.5 0 1 1 25.714284,0 z"
         transform="matrix(0.736706,0,0,0.685875,53.11824,-2.056787)"
         id="path1920"
         style="color:#000000;fill:url(#linearGradient2038);fill-opacity:1;fill-rule:nonzero;stroke:url(#linearGradient2040);stroke-width:1.4067924;stroke-linecap:butt;stroke-linejoin:miter;stroke-miterlimit:10;stroke-opacity:1;stroke-dasharray:none;stroke-dashoffset:0;marker:none;visibility:visible;display:block;overflow:visible" />
      <path
         d="m 36.857142,14.071428 a 12.857142,5.5 0 1 1 -25.714284,0 12.857142,5.5 0 1 1 25.714284,0 z"
         transform="matrix(0.785713,0,0,0.763887,51.94438,-3.590035)"
         id="path1922"
         style="opacity:0.467033;color:#000000;fill:#f0f0f0;fill-opacity:1;fill-rule:nonzero;stroke:url(#linearGradient2042);stroke-width:1.29078352;stroke-linecap:butt;stroke-linejoin:miter;stroke-miterlimit:10;stroke-opacity:1;stroke-dasharray:none;stroke-dashoffset:0;marker:none;visibility:visible;display:block;overflow:visible" />
      <path
         d="M 41,40 A 17.142857,8.5714283 0 1 1 6.7142868,40 17.142857,8.5714283 0 1 1 41,40 z"
         transform="matrix(0.275285,0,0,0.287884,64.05955,-6.99374)"
         id="path1924"
         style="opacity:0.30769234;color:#000000;fill:url(#radialGradient2044);fill-opacity:1;fill-rule:nonzero;stroke:none;stroke-width:1;marker:none;visibility:visible;display:block;overflow:visible" />
      <path
         d="m 70.869327,1.1947586 c -1.517048,0 -3.508038,0.565702 -3.508038,1.2616009 0,0.049936 0,2.0310252 0,2.0830317 0,0.6958989 1.99099,1.2616009 3.508038,1.2616009 1.517048,0 3.340739,-0.565702 3.340738,-1.2616009 0,-0.041191 0,-2.041841 0,-2.0830317 0,-0.6958997 -1.82369,-1.2616009 -3.340738,-1.2616009 z"
         inkscape:connector-curvature="0"
         id="path1926"
         style="color:#000000;fill:#9d9e9b;fill-opacity:1;fill-rule:nonzero;stroke:#7d7f7a;stroke-width:0.99999964;stroke-linecap:butt;stroke-linejoin:miter;stroke-miterlimit:10;stroke-opacity:1;stroke-dasharray:none;stroke-dashoffset:0;marker:none;visibility:visible;display:block;overflow:visible" />
      <path
         d="m 63.0645,10.893256 0.270523,13.296469 3.462702,1.018452 -0.10821,-13.239887 c 0,0 1.46861,-0.07001 4.01153,-0.239757 -4.921539,-0.03959 -8.136267,-1.250116 -9.908942,-3.0419242 1.073252,1.6572752 2.272397,2.2066472 2.272397,2.2066472 z"
         inkscape:connector-curvature="0"
         id="path1928"
         style="opacity:0.58241763;color:#000000;fill:url(#linearGradient2046);fill-opacity:1;fill-rule:nonzero;stroke:none;stroke-width:1;marker:none;visibility:visible;display:block;overflow:visible" />
      <path
         d="m 36.857142,14.071428 a 12.857142,5.5 0 1 1 -25.714284,0 12.857142,5.5 0 1 1 25.714284,0 z"
         transform="matrix(0.206015,0,0,0.152173,65.85475,0.536003)"
         id="path1930"
         style="color:#000000;fill:#d3d7cf;fill-opacity:1;fill-rule:nonzero;stroke:url(#linearGradient2048);stroke-width:5.64783573;stroke-linecap:butt;stroke-linejoin:miter;stroke-miterlimit:10;stroke-opacity:1;stroke-dasharray:none;stroke-dashoffset:0;marker:none;visibility:visible;display:block;overflow:visible" />
    </g>
    <path
       d="m 9.087933,30.526749 31.002406,0 c 1.119249,0 0.977355,0.477182 1.092227,1.077368 l 2.834646,14.810599 c 0.114872,0.600189 0.02702,1.077368 -1.092227,1.077368 l -36.671698,0 c -1.119249,0 -1.207099,-0.477179 -1.092227,-1.077368 L 7.995705,31.604117 C 8.110577,31.003929 7.968684,30.526749 9.087933,30.526749 z"
       inkscape:connector-curvature="0"
       id="path2409"
       style="color:#000000;fill:url(#linearGradient2981);fill-opacity:1;fill-rule:evenodd;stroke:#888a85;stroke-width:1.00000012;stroke-linecap:butt;stroke-linejoin:miter;stroke-miterlimit:4;stroke-opacity:1;stroke-dasharray:none;stroke-dashoffset:0;marker:none;visibility:visible;display:inline;overflow:visible" />
    <path
       d="M 9.719669,34 8,42.871484 l 5.330974,0 0.515901,-3.518002 14.445218,0 0.534724,3.590998 6.000018,0 L 33.19315,34 9.719669,34 z"
       inkscape:connector-curvature="0"
       id="path2611"
       style="fill:#7a7d77;fill-opacity:1;fill-rule:evenodd;stroke:none" />
    <path
       d="m 13.702021,39.965309 -0.441942,2.906176 14.760854,0 -0.441942,-3.059131 -13.87697,0.152955 z"
       inkscape:connector-curvature="0"
       id="path2613"
       style="fill:#777874;fill-opacity:1;fill-rule:evenodd;stroke:none" />
    <path
       d="M 39.536573,34.000002 41,42.718528 36.224606,42.56557 34.915224,34.152958 39.536573,34.000002 z"
       inkscape:connector-curvature="0"
       id="path2619"
       style="color:#000000;fill:#777a75;fill-opacity:1;fill-rule:evenodd;stroke:none;stroke-width:0.25pt;marker:none;visibility:visible;display:inline;overflow:visible" />
    <path
       d="M 39.536573,33.082266 41,41.800792 36.224606,41.647834 34.915224,33.235222 39.536573,33.082266 z"
       inkscape:connector-curvature="0"
       id="path2615"
       style="color:#000000;fill:url(#linearGradient2758);fill-opacity:1;fill-rule:evenodd;stroke:none;stroke-width:0.25pt;marker:none;visibility:visible;display:inline;overflow:visible" />
    <path
       d="M 9.719669,32.929308 8,41.800792 l 5.330974,0 0.515901,-3.518002 14.445218,0 0.534724,3.590998 6.000018,0 -1.633685,-8.94448 -23.473481,0 z"
       inkscape:connector-curvature="0"
       id="path2617"
       style="fill:url(#linearGradient1411);fill-opacity:1;fill-rule:evenodd;stroke:none" />
    <path
       d="m 13.702021,39.047574 -0.441942,2.906175 14.760854,0 -0.441942,-3.059131 -13.87697,0.152956 z"
       inkscape:connector-curvature="0"
       id="path2621"
       style="color:#000000;fill:url(#linearGradient1409);fill-opacity:1;fill-rule:evenodd;stroke:none;stroke-width:0.25pt;marker:none;visibility:visible;display:inline;overflow:visible" />
    <path
       d="m 8.753568,31.842756 31.825815,0 2.637179,14.430937 -37.26107,0 2.798076,-14.430937 z"
       inkscape:connector-curvature="0"
       id="path2631"
       style="color:#000000;fill:none;stroke:url(#linearGradient2741);stroke-width:0.5;stroke-linecap:butt;stroke-linejoin:round;stroke-miterlimit:4;stroke-opacity:1;stroke-dashoffset:0;marker:none;visibility:visible;display:inline;overflow:visible" />
    <path
       d="M 35,30.410719 C 35.952996,27.97325 35.683185,23.49777 36,20 c 0.28086,3.840776 0.295592,9.411387 1,10.499107 l -2,-0.08839 z"
       inkscape:connector-curvature="0"
       id="path2460"
       style="color:#000000;fill:#dde1d9;fill-opacity:1;fill-rule:evenodd;stroke:#888a85;stroke-width:1;stroke-linecap:butt;stroke-linejoin:miter;stroke-miterlimit:4;stroke-opacity:1;stroke-dasharray:none;stroke-dashoffset:0;marker:none;visibility:visible;display:inline;overflow:visible" />
    <path
       d="m 37.38827,20.246059 a 1.5909903,1.5909903 0 1 1 -3.181981,0 1.5909903,1.5909903 0 1 1 3.181981,0 z"
       transform="translate(0.293711,-0.33705)"
       id="path3335"
       style="color:#000000;fill:#555753;fill-opacity:1;fill-rule:evenodd;stroke:#2e3436;stroke-width:1;stroke-linecap:butt;stroke-linejoin:miter;stroke-miterlimit:4;stroke-opacity:1;stroke-dasharray:none;stroke-dashoffset:0;marker:none;visibility:visible;display:inline;overflow:visible" />
    <path
       d="M 45.015718,9.3976952 C 42.678687,7.0621628 39.447165,5.6268006 35.906249,5.6268006 c -3.540916,0 -6.772438,1.4353622 -9.109469,3.7708946"
       inkscape:connector-curvature="0"
       id="path3235"
       style="color:#000000;fill:none;stroke:#babdb6;stroke-width:1.00000036;stroke-linecap:round;stroke-linejoin:miter;stroke-miterlimit:4;stroke-opacity:1;stroke-dasharray:none;stroke-dashoffset:0;marker:none;visibility:visible;display:inline;overflow:visible" />
    <path
       d="m 42.134584,12.278829 c -1.598039,-1.59832 -3.807093,-2.5845474 -6.228335,-2.5845474 -2.421242,2e-6 -4.630296,0.9862294 -6.228335,2.5845474"
       inkscape:connector-curvature="0"
       id="path3233"
       style="color:#000000;fill:none;stroke:#babdb6;stroke-width:1.00000036;stroke-linecap:round;stroke-linejoin:miter;stroke-miterlimit:4;stroke-opacity:1;stroke-dasharray:none;stroke-dashoffset:0;marker:none;visibility:visible;display:inline;overflow:visible" />
    <path
       d="m 39.25345,15.159963 c -0.861363,-0.861381 -2.042123,-1.398198 -3.347201,-1.398198 -1.305079,2e-6 -2.485839,0.536817 -3.3472,1.398198"
       inkscape:connector-curvature="0"
       id="path3227"
       style="color:#000000;fill:none;stroke:#babdb6;stroke-width:1.00000036;stroke-linecap:round;stroke-linejoin:miter;stroke-miterlimit:4;stroke-opacity:1;stroke-dasharray:none;stroke-dashoffset:0;marker:none;visibility:visible;display:inline;overflow:visible" />
    <g
       transform="matrix(0.749282,0,0,0.79213,52.81118,-1.621089)"
       id="g1932" />
  </g>
  <g
     id="layer2" />
</svg>
