<?xml version="1.0" encoding="UTF-8" standalone="no"?>
<!-- Created with Inkscape (http://www.inkscape.org/) -->

<svg
   xmlns:dc="http://purl.org/dc/elements/1.1/"
   xmlns:cc="http://creativecommons.org/ns#"
   xmlns:rdf="http://www.w3.org/1999/02/22-rdf-syntax-ns#"
   xmlns:svg="http://www.w3.org/2000/svg"
   xmlns="http://www.w3.org/2000/svg"
   xmlns:xlink="http://www.w3.org/1999/xlink"
   xmlns:inkscape="http://www.inkscape.org/namespaces/inkscape"
   version="1.1"
   width="48"
   height="48"
   id="svg1328">
  <defs
     id="defs3">
    <linearGradient
       id="linearGradient1535">
      <stop
         id="stop1537"
         style="stop-color:#f67800;stop-opacity:1"
         offset="0" />
      <stop
         id="stop1539"
         style="stop-color:#fcaf3e;stop-opacity:1"
         offset="1" />
    </linearGradient>
    <linearGradient
       id="linearGradient1523">
      <stop
         id="stop1525"
         style="stop-color:#ce5c00;stop-opacity:1"
         offset="0" />
      <stop
         id="stop1527"
         style="stop-color:#fcaf3e;stop-opacity:1"
         offset="1" />
    </linearGradient>
    <linearGradient
       id="linearGradient3338">
      <stop
         id="stop3340"
         style="stop-color:#c36000;stop-opacity:1"
         offset="0" />
      <stop
         id="stop3346"
         style="stop-color:#fcaf3e;stop-opacity:1"
         offset="0.5" />
      <stop
         id="stop3342"
         style="stop-color:#f57900;stop-opacity:1"
         offset="1" />
    </linearGradient>
    <linearGradient
       id="linearGradient3247">
      <stop
         id="stop3249"
         style="stop-color:#f0f0f0;stop-opacity:1"
         offset="0" />
      <stop
         id="stop3251"
         style="stop-color:#f0f0f0;stop-opacity:0"
         offset="1" />
    </linearGradient>
    <linearGradient
       id="linearGradient3233">
      <stop
         id="stop3235"
         style="stop-color:#eeeeec;stop-opacity:1"
         offset="0" />
      <stop
         id="stop3237"
         style="stop-color:#a3a398;stop-opacity:1"
         offset="1" />
    </linearGradient>
    <linearGradient
       id="linearGradient6924">
      <stop
         id="stop6926"
         style="stop-color:#ffffff;stop-opacity:1"
         offset="0" />
      <stop
         id="stop6928"
         style="stop-color:#ffffff;stop-opacity:0"
         offset="1" />
    </linearGradient>
    <linearGradient
       id="linearGradient4176">
      <stop
         id="stop4178"
         style="stop-color:#ffffff;stop-opacity:1"
         offset="0" />
      <stop
         id="stop4180"
         style="stop-color:#ffffff;stop-opacity:0"
         offset="1" />
    </linearGradient>
    <linearGradient
       id="linearGradient4134">
      <stop
         id="stop4136"
         style="stop-color:#d6d7d5;stop-opacity:1"
         offset="0" />
      <stop
         id="stop4148"
         style="stop-color:#d1d2d0;stop-opacity:1"
         offset="0.25" />
      <stop
         id="stop4142"
         style="stop-color:#a5a6a3;stop-opacity:1"
         offset="0.5" />
      <stop
         id="stop4138"
         style="stop-color:#dddedc;stop-opacity:1"
         offset="1" />
    </linearGradient>
    <linearGradient
       id="linearGradient4126">
      <stop
         id="stop4128"
         style="stop-color:#000000;stop-opacity:1"
         offset="0" />
      <stop
         id="stop4130"
         style="stop-color:#000000;stop-opacity:0"
         offset="1" />
    </linearGradient>
    <radialGradient
       cx="14.5474"
       cy="15.9844"
       r="4.5099001"
       fx="14.5474"
       fy="15.9844"
       id="aigrd5"
       gradientUnits="userSpaceOnUse"
       gradientTransform="matrix(0.907,0.4211,-0.4211,0.907,19.2898,-10.214)">
      <stop
         id="stop3686"
         style="stop-color:#efefef;stop-opacity:1"
         offset="0" />
      <stop
         id="stop3688"
         style="stop-color:#6d6d6d;stop-opacity:1"
         offset="1" />
    </radialGradient>
    <radialGradient
       cx="12.4722"
       cy="15.9321"
       r="6.1648998"
       fx="12.4722"
       fy="15.9321"
       id="aigrd6"
       gradientUnits="userSpaceOnUse"
       gradientTransform="matrix(0.907,0.4211,-0.4211,0.907,19.2898,-10.214)">
      <stop
         id="stop3693"
         style="stop-color:#9e9e9e;stop-opacity:1"
         offset="0" />
      <stop
         id="stop3695"
         style="stop-color:#535353;stop-opacity:1"
         offset="1" />
    </radialGradient>
    <linearGradient
       x1="14.9478"
       y1="19.6626"
       x2="37.1408"
       y2="11.6082"
       id="aigrd4"
       gradientUnits="userSpaceOnUse"
       gradientTransform="matrix(0.937963,0,0,0.937963,6.485913,12.6462)">
      <stop
         id="stop3671"
         style="stop-color:#ebebeb;stop-opacity:1"
         offset="0" />
      <stop
         id="stop3673"
         style="stop-color:#818181;stop-opacity:1"
         offset="1" />
    </linearGradient>
    <linearGradient
       x1="6.8618002"
       y1="27.3535"
       x2="39.192001"
       y2="15.62"
       id="aigrd3"
       gradientUnits="userSpaceOnUse"
       gradientTransform="matrix(0.937963,0,0,0.937963,6.485913,12.6462)">
      <stop
         id="stop3664"
         style="stop-color:#fcfcfc;stop-opacity:1"
         offset="0" />
      <stop
         id="stop3666"
         style="stop-color:#bbbbbb;stop-opacity:1"
         offset="1" />
    </linearGradient>
    <linearGradient
       x1="16.3447"
       y1="30.360399"
       x2="34.009102"
       y2="13.0483"
       id="aigrd2"
       gradientUnits="userSpaceOnUse"
       gradientTransform="matrix(0.937963,0,0,0.937963,6.485913,12.6462)">
      <stop
         id="stop3655"
         style="stop-color:#686868;stop-opacity:1"
         offset="0" />
      <stop
         id="stop3657"
         style="stop-color:#6d6d6d;stop-opacity:1"
         offset="1" />
    </linearGradient>
    <radialGradient
       cx="23.857143"
       cy="40"
       r="17.142857"
       fx="23.857143"
       fy="40"
       id="radialGradient13577"
       xlink:href="#linearGradient4126"
       gradientUnits="userSpaceOnUse"
       gradientTransform="matrix(1,0,0,0.5,0,20)" />
    <radialGradient
       cx="14.5474"
       cy="15.9844"
       r="4.5099001"
       fx="14.5474"
       fy="15.9844"
       id="radialGradient13607"
       xlink:href="#aigrd5"
       gradientUnits="userSpaceOnUse"
       gradientTransform="matrix(0.907,0.4211,-0.4211,0.907,19.2898,-10.214)" />
    <radialGradient
       cx="12.4722"
       cy="15.9321"
       r="6.1648998"
       fx="12.4722"
       fy="15.9321"
       id="radialGradient13609"
       xlink:href="#aigrd6"
       gradientUnits="userSpaceOnUse"
       gradientTransform="matrix(0.907,0.4211,-0.4211,0.907,19.2898,-10.214)" />
    <linearGradient
       x1="14.9478"
       y1="19.6626"
       x2="37.1408"
       y2="11.6082"
       id="linearGradient13630"
       xlink:href="#aigrd4"
       gradientUnits="userSpaceOnUse"
       gradientTransform="matrix(0.937963,0,0,0.937963,75.89859,5.391626)" />
    <linearGradient
       x1="6.8618002"
       y1="27.3535"
       x2="39.192001"
       y2="15.62"
       id="linearGradient13633"
       xlink:href="#aigrd3"
       gradientUnits="userSpaceOnUse"
       gradientTransform="matrix(0.937963,0,0,0.937963,75.89859,5.391626)" />
    <linearGradient
       x1="16.3447"
       y1="30.360399"
       x2="34.009102"
       y2="13.0483"
       id="linearGradient13637"
       xlink:href="#aigrd2"
       gradientUnits="userSpaceOnUse"
       gradientTransform="matrix(0.937963,0,0,0.937963,75.89859,5.391626)" />
    <linearGradient
       x1="16.3447"
       y1="30.360399"
       x2="34.009102"
       y2="13.0483"
       id="linearGradient13640"
       xlink:href="#aigrd2"
       gradientUnits="userSpaceOnUse"
       gradientTransform="matrix(0.937963,0,0,0.937963,75.90395,5.369806)" />
    <radialGradient
       cx="23.857143"
       cy="40"
       r="17.142857"
       fx="23.857143"
       fy="40"
       id="radialGradient13668"
       xlink:href="#linearGradient4126"
       gradientUnits="userSpaceOnUse"
       gradientTransform="matrix(1,0,0,0.5,0,20)" />
    <linearGradient
       x1="9.3030529"
       y1="26.71875"
       x2="38.826412"
       y2="26.71875"
       id="linearGradient13670"
       xlink:href="#linearGradient4134"
       gradientUnits="userSpaceOnUse"
       gradientTransform="matrix(1.010754,0,0,0.991346,-0.269358,-3.826541)" />
    <linearGradient
       x1="24"
       y1="17.245949"
       x2="23.433737"
       y2="8.0476589"
       id="linearGradient13672"
       xlink:href="#linearGradient3233"
       gradientUnits="userSpaceOnUse" />
    <linearGradient
       x1="17.160095"
       y1="14.004482"
       x2="37.969398"
       y2="56.575912"
       id="linearGradient13674"
       xlink:href="#linearGradient4176"
       gradientUnits="userSpaceOnUse"
       gradientTransform="matrix(1.010754,0,0,0.992756,-0.269358,-3.832747)" />
    <linearGradient
       x1="11.003058"
       y1="33.489445"
       x2="30.452171"
       y2="33.489445"
       id="linearGradient13676"
       xlink:href="#linearGradient3338"
       gradientUnits="userSpaceOnUse"
       gradientTransform="matrix(1.004593,0,0,1,-0.05892444,-2.082537)" />
    <linearGradient
       x1="24"
       y1="18.132908"
       x2="24"
       y2="8.0243998"
       id="linearGradient13678"
       xlink:href="#linearGradient1535"
       gradientUnits="userSpaceOnUse" />
    <linearGradient
       x1="24"
       y1="10.396756"
       x2="24"
       y2="20.118456"
       id="linearGradient13680"
       xlink:href="#linearGradient1523"
       gradientUnits="userSpaceOnUse" />
    <linearGradient
       x1="34.244171"
       y1="17.695425"
       x2="34.244171"
       y2="29.91827"
       id="linearGradient13682"
       xlink:href="#linearGradient3247"
       gradientUnits="userSpaceOnUse"
       gradientTransform="matrix(1.010754,0,0,1,-0.269359,-2.185007)" />
    <linearGradient
       x1="24"
       y1="17.245949"
       x2="23.433737"
       y2="8.0476589"
       id="linearGradient13684"
       xlink:href="#linearGradient3233"
       gradientUnits="userSpaceOnUse" />
    <radialGradient
       cx="23.857143"
       cy="40"
       r="17.142857"
       fx="23.857143"
       fy="40"
       id="radialGradient13686"
       xlink:href="#linearGradient4126"
       gradientUnits="userSpaceOnUse"
       gradientTransform="matrix(1,0,0,0.5,0,20)" />
    <linearGradient
       x1="16.07143"
       y1="19.5"
       x2="16.035715"
       y2="31.75"
       id="linearGradient13688"
       xlink:href="#linearGradient6924"
       gradientUnits="userSpaceOnUse"
       gradientTransform="matrix(1.010754,0,0,1,-0.269359,-1.327864)" />
    <linearGradient
       x1="24"
       y1="17.245949"
       x2="23.433737"
       y2="8.0476589"
       id="linearGradient13690"
       xlink:href="#linearGradient3233"
       gradientUnits="userSpaceOnUse" />
  </defs>
  <metadata
     id="metadata4">
    <rdf:RDF>
      <cc:Work
         rdf:about="">
        <dc:format>image/svg+xml</dc:format>
        <dc:type
           rdf:resource="http://purl.org/dc/dcmitype/StillImage" />
        <dc:title>Battery</dc:title>
        <dc:creator>
          <cc:Agent>
            <dc:title>Jakub Steiner</dc:title>
          </cc:Agent>
        </dc:creator>
        <dc:source>http://jimmac.musichall.cz</dc:source>
        <dc:subject>
          <rdf:Bag>
            <rdf:li>battery</rdf:li>
            <rdf:li>apm</rdf:li>
            <rdf:li>acpi</rdf:li>
            <rdf:li>power management</rdf:li>
          </rdf:Bag>
        </dc:subject>
        <cc:license
           rdf:resource="http://creativecommons.org/licenses/by-sa/2.0/" />
      </cc:Work>
      <cc:License
         rdf:about="http://creativecommons.org/licenses/by-sa/2.0/">
        <cc:permits
           rdf:resource="http://web.resource.org/cc/Reproduction" />
        <cc:permits
           rdf:resource="http://web.resource.org/cc/Distribution" />
        <cc:requires
           rdf:resource="http://web.resource.org/cc/Notice" />
        <cc:requires
           rdf:resource="http://web.resource.org/cc/Attribution" />
        <cc:permits
           rdf:resource="http://web.resource.org/cc/DerivativeWorks" />
        <cc:requires
           rdf:resource="http://web.resource.org/cc/ShareAlike" />
      </cc:License>
    </rdf:RDF>
  </metadata>
  <g
     id="layer1">
    <g
       transform="translate(-53.99282,-31.64138)"
       id="g4438" />
    <g
       transform="translate(-69.47324,5.480078)"
       id="g13692">
      <path
         d="M 41,40 A 17.142857,8.5714283 0 1 1 6.7142868,40 17.142857,8.5714283 0 1 1 41,40 z"
         transform="matrix(0.831993,0,0,0.904687,64.30097,-15.0916)"
         id="path13497"
         style="color:#000000;fill:url(#radialGradient13577);fill-opacity:1;fill-rule:nonzero;stroke:none;stroke-width:1;marker:none;visibility:visible;display:block;overflow:visible" />
      <g
         transform="matrix(0.793761,0,0,0.793761,64.87705,-5.922021)"
         id="g13654">
        <path
           d="M 41,40 A 17.142857,8.5714283 0 1 1 6.7142868,40 17.142857,8.5714283 0 1 1 41,40 z"
           transform="matrix(1.050001,0,0,1.166666,-1.050005,-13.66665)"
           id="path3366"
           style="color:#000000;fill:url(#radialGradient13668);fill-opacity:1;fill-rule:nonzero;stroke:none;stroke-width:1;marker:none;visibility:visible;display:block;overflow:visible" />
        <path
           d="m 23.925566,5.0026329 c -7.943947,0 -14.403244,2.7782481 -14.403245,6.1959141 0,0.245244 0,22.669466 0,22.924876 0,3.417666 6.459297,6.195913 14.403245,6.195913 7.943948,0 14.660447,-2.778248 14.660445,-6.195913 0,-0.202295 0,-22.722581 0,-22.924876 0,-3.417667 -6.716498,-6.1959141 -14.660445,-6.1959141 z"
           inkscape:connector-curvature="0"
           id="path3068"
           style="color:#000000;fill:url(#linearGradient13670);fill-opacity:1;fill-rule:nonzero;stroke:#767973;stroke-width:1;stroke-linecap:butt;stroke-linejoin:miter;stroke-miterlimit:10;stroke-opacity:1;stroke-dasharray:none;stroke-dashoffset:0;marker:none;visibility:visible;display:block;overflow:visible" />
        <path
           d="m 36.857142,14.071428 a 12.857142,5.5 0 1 1 -25.714284,0 12.857142,5.5 0 1 1 25.714284,0 z"
           transform="matrix(1.048446,0,0,0.971388,-0.969759,20.43377)"
           id="path3241"
           style="opacity:0.23626374;color:#000000;fill:#d3d7cf;fill-opacity:1;fill-rule:nonzero;stroke:url(#linearGradient13672);stroke-width:0.99090111;stroke-linecap:butt;stroke-linejoin:miter;stroke-miterlimit:10;stroke-opacity:1;stroke-dasharray:none;stroke-dashoffset:0;marker:none;visibility:visible;display:block;overflow:visible" />
        <path
           d="m 23.934282,5.7826598 c -7.406561,0 -13.428904,2.5939917 -13.428905,5.7849932 0,0.22898 0,21.727517 0,21.965988 0,3.191003 6.022343,5.784993 13.428905,5.784993 7.40656,0 13.668706,-2.593991 13.668704,-5.784993 0,-0.188877 0,-21.777108 0,-21.965988 0,-3.1910025 -6.262145,-5.7849932 -13.668704,-5.7849932 z"
           inkscape:connector-curvature="0"
           id="path4174"
           style="opacity:0.5443038;color:#000000;fill:none;stroke:url(#linearGradient13674);stroke-width:1.00000012;stroke-linecap:butt;stroke-linejoin:miter;stroke-miterlimit:10;stroke-opacity:1;stroke-dasharray:none;stroke-dashoffset:0;marker:none;visibility:visible;display:block;overflow:visible" />
        <path
           d="m 23.41643,26.438709 c -6.634446,0.134726 -11.921358,-1.071135 -11.921358,1.61714 0,0.318691 0,4.976454 0,5.292977 0,2.774993 5.605168,5.02821 12.539503,5.028212 6.934335,0 12.568937,-2.253219 12.568938,-5.028212 0,-0.316523 0,-4.974286 0,-5.292977 0,-2.774994 -5.634603,-1.617139 -12.568938,-1.61714 -0.216698,0 -0.404131,-0.0043 -0.618145,0 z"
           inkscape:connector-curvature="0"
           id="path4432"
           style="color:#000000;fill:url(#linearGradient13676);fill-opacity:1;fill-rule:nonzero;stroke:#e2811b;stroke-width:0.99621516;stroke-linecap:butt;stroke-linejoin:miter;stroke-miterlimit:10;stroke-opacity:1;stroke-dasharray:none;stroke-dashoffset:0;marker:none;visibility:visible;display:block;overflow:visible" />
        <path
           d="m 36.857142,14.071428 a 12.857142,5.5 0 1 1 -25.714284,0 12.857142,5.5 0 1 1 25.714284,0 z"
           transform="matrix(0.972634,0,0,0.914029,0.651491,14.66547)"
           id="path4434"
           style="color:#000000;fill:url(#linearGradient13678);fill-opacity:1;fill-rule:nonzero;stroke:url(#linearGradient13680);stroke-width:1.06058359;stroke-linecap:butt;stroke-linejoin:miter;stroke-miterlimit:10;stroke-opacity:1;stroke-dasharray:none;stroke-dashoffset:0;marker:none;visibility:visible;display:block;overflow:visible" />
        <path
           d="m 35.976705,9.5000085 c -1.121042,-0.98511 -2.068949,-1.285038 -3.063047,-1.7677669 l 0.306304,18.6878234 2.756743,3.232487 0,-20.1525435 z"
           inkscape:connector-curvature="0"
           id="path3245"
           style="color:#000000;fill:url(#linearGradient13682);fill-opacity:1;fill-rule:nonzero;stroke:none;stroke-width:0.99999946;marker:none;visibility:visible;display:block;overflow:visible" />
        <path
           d="m 36.857142,14.071428 a 12.857142,5.5 0 1 1 -25.714284,0 12.857142,5.5 0 1 1 25.714284,0 z"
           transform="matrix(1.048446,0,0,0.964345,-1.173962,-2.540419)"
           id="path3364"
           style="opacity:0.467033;color:#000000;fill:#f0f0f0;fill-opacity:1;fill-rule:nonzero;stroke:url(#linearGradient13684);stroke-width:0.99451303;stroke-linecap:butt;stroke-linejoin:miter;stroke-miterlimit:10;stroke-opacity:1;stroke-dasharray:none;stroke-dashoffset:0;marker:none;visibility:visible;display:block;overflow:visible" />
        <path
           d="M 41,40 A 17.142857,8.5714283 0 1 1 6.7142868,40 17.142857,8.5714283 0 1 1 41,40 z"
           transform="matrix(0.367338,0,0,0.36343,14.99239,-6.837321)"
           id="path6944"
           style="opacity:0.30769234;color:#000000;fill:url(#radialGradient13686);fill-opacity:1;fill-rule:nonzero;stroke:none;stroke-width:1;marker:none;visibility:visible;display:block;overflow:visible" />
        <path
           d="m 24.079287,3.4999955 c -2.024332,0 -4.681088,0.714153 -4.681088,1.592669 0,0.06304 0,2.564005 0,2.629659 0,0.878516 2.656756,1.592669 4.681088,1.592669 2.024333,0 4.457846,-0.714153 4.457845,-1.592669 0,-0.052 0,-2.577659 0,-2.629659 0,-0.878517 -2.433512,-1.592669 -4.457845,-1.592669 z"
           inkscape:connector-curvature="0"
           id="path3362"
           style="color:#000000;fill:#9d9e9b;fill-opacity:1;fill-rule:nonzero;stroke:#7d7f7a;stroke-width:0.99999994;stroke-linecap:butt;stroke-linejoin:miter;stroke-miterlimit:10;stroke-opacity:1;stroke-dasharray:none;stroke-dashoffset:0;marker:none;visibility:visible;display:block;overflow:visible" />
        <path
           d="m 13.664611,15.743564 0.360982,16.785715 4.620591,1.285714 -0.144393,-16.714286 c 0,0 1.959695,-0.08839 5.352942,-0.302674 -6.567248,-0.04998 -10.856946,-1.57817 -13.222385,-3.840183 1.432137,2.092176 3.032263,2.785714 3.032263,2.785714 z"
           inkscape:connector-curvature="0"
           id="path6922"
           style="opacity:0.58241763;color:#000000;fill:url(#linearGradient13688);fill-opacity:1;fill-rule:nonzero;stroke:none;stroke-width:1;marker:none;visibility:visible;display:block;overflow:visible" />
        <path
           d="m 36.857142,14.071428 a 12.857142,5.5 0 1 1 -25.714284,0 12.857142,5.5 0 1 1 25.714284,0 z"
           transform="matrix(0.274904,0,0,0.192106,17.38789,2.66837)"
           id="path6940"
           style="color:#000000;fill:#d3d7cf;fill-opacity:1;fill-rule:nonzero;stroke:url(#linearGradient13690);stroke-width:4.35150146;stroke-linecap:butt;stroke-linejoin:miter;stroke-miterlimit:10;stroke-opacity:1;stroke-dasharray:none;stroke-dashoffset:0;marker:none;visibility:visible;display:block;overflow:visible" />
      </g>
      <path
         d="m 95.890624,16.250155 c -4.056233,0.10285 -12.327453,1.27954 -13.6875,14.625 -0.0458,0.494629 -0.04756,0.979745 0.03125,1.4375 -0.0016,0.0078 0.0015,0.02346 0,0.03125 -1.164734,5.974391 12.163589,9.633809 18.062496,4.15625 l 11.25,-11.15625 c 1.31902,-1.31901 0.14942,-4.040095 0,-4.375 -0.01,-0.02233 0,-0.03125 0,-0.03125 -1.87592,-3.189074 -11.15458,-4.6875 -14.531246,-4.6875 -0.316563,0 -0.70539,-0.01064 -1.125,0 z"
         inkscape:connector-curvature="0"
         id="path3796"
         style="fill:url(#linearGradient13640);fill-rule:nonzero;stroke:#595959;stroke-width:2;stroke-miterlimit:4;stroke-opacity:1;stroke-dasharray:none" />
      <path
         d="M 111.5412,20.961812 83.214708,30.24765 c -5.252595,7.128522 10.505189,12.381116 17.070932,6.284355 L 111.5412,25.37024 c 1.40695,-1.406945 0,-4.408428 0,-4.408428 l 0,0 z"
         inkscape:connector-curvature="0"
         id="path3659"
         style="fill:url(#linearGradient13637);fill-rule:nonzero;stroke:none" />
      <path
         d="m 111.5412,21.430794 c -1.87593,-3.189075 -11.16176,-4.689817 -14.538431,-4.689817 -3.282872,0 -13.31908,-0.0938 -14.726025,14.632229 -0.468982,5.065002 6.002966,8.347874 11.067968,6.753336 4.971206,-1.594537 5.158799,-9.379634 9.285838,-12.568709 4.12704,-3.189076 10.78658,-0.844167 8.91065,-4.033243 l 0,-0.0938 z"
         inkscape:connector-curvature="0"
         id="path3661"
         style="fill:#f0f0f0;fill-rule:nonzero;stroke:none" />
      <path
         d="m 111.5412,20.961812 c -1.87593,-3.189075 -11.16176,-4.689817 -14.538431,-4.689817 -3.376668,0 -13.31908,-0.0938 -14.819821,14.632229 -0.468982,5.065002 6.002965,8.347874 11.067968,6.753337 4.971206,-1.594538 5.158798,-9.379634 9.285834,-12.56871 4.12704,-3.189075 10.78658,-0.844167 8.91066,-4.033242 l 0.0938,-0.0938 z"
         inkscape:connector-curvature="0"
         id="path3668"
         style="fill:url(#linearGradient13633);fill-rule:nonzero;stroke:none" />
      <path
         d="m 111.72879,21.899776 c 0.28139,1.500741 -5.90916,0.656574 -7.31611,2.157316 -1.12556,-2.06352 -5.721577,-4.220836 -9.192041,-4.971206 -3.376668,-0.750371 -7.503707,-0.187593 -7.503707,-0.187593 5.721576,-5.252595 23.542878,-1.688334 24.011858,3.001483 z"
         inkscape:connector-curvature="0"
         id="path3675"
         style="fill:url(#linearGradient13630);fill-rule:nonzero;stroke:none" />
      <path
         d="m 104.69407,25.651629 c 3.75185,-1.875926 4.40843,-0.656574 6.65954,-2.532501 -1.50074,2.06352 -3.56426,1.500742 -5.81537,2.626298 l -0.93797,-0.0938 0.0938,0 z"
         inkscape:connector-curvature="0"
         id="path3677"
         style="opacity:0.3;fill:#ffffff;fill-rule:nonzero;stroke:none" />
      <path
         d="m 104.50648,24.057092 0.18759,1.688334 c 3.93944,-1.969723 4.40843,-0.281389 7.03472,-2.907687 -2.90768,1.969723 -4.03324,0.937964 -6.84713,2.157316 l -0.46898,-0.844167 0.0938,-0.0938 z"
         inkscape:connector-curvature="0"
         id="path3679"
         style="opacity:0.3;fill:#000000;fill-rule:nonzero;stroke:none" />
      <path
         d="m 95.220639,19.085886 0.562778,0.187592 c 2.720094,-2.344908 10.036213,-1.406945 10.036213,-1.406945 0,0 -7.785101,-1.406945 -10.598991,1.313149 l 0,-0.0938 z"
         inkscape:connector-curvature="0"
         id="path3681"
         style="opacity:0.3;fill:#000000;fill-rule:nonzero;stroke:none" />
      <path
         d="m 95.62209,16.770483 c -6.092387,0.344259 -10.840522,2.297197 -12.981587,14.403272 -1.296006,7.327917 11.863618,9.987584 17.269752,4.967604 l 11.185205,-11.09929 c 1.20883,-1.208824 0.87486,-3.584154 -1.0625,-4.947026 -4.04544,-2.845854 -10.285258,-3.32456 -13.379849,-3.32456 -0.290118,0 -0.646464,-0.0098 -1.031021,0 z"
         inkscape:connector-curvature="0"
         id="path4680"
         style="opacity:0.37362641;fill:none;stroke:#ffffff;stroke-width:1;stroke-miterlimit:4;stroke-opacity:1;stroke-dasharray:none" />
      <g
         transform="matrix(0.937963,0,0,0.937963,75.89859,5.391626)"
         id="g3683"
         style="fill:#bababa;fill-rule:nonzero;stroke:#000000;stroke-miterlimit:4">
        <radialGradient
           cx="14.5474"
           cy="15.9844"
           r="4.5099001"
           fx="14.5474"
           fy="15.9844"
           id="radialGradient3782"
           gradientUnits="userSpaceOnUse"
           gradientTransform="matrix(0.907,0.4211,-0.4211,0.907,19.2898,-10.214)">
          <stop
             id="stop3784"
             style="stop-color:#efefef;stop-opacity:1"
             offset="0" />
          <stop
             id="stop3786"
             style="stop-color:#6d6d6d;stop-opacity:1"
             offset="1" />
        </radialGradient>
        <path
           d="m 26.8,11.2 c -1.8,-0.3 -2.9,0.9 -3.3,1.9 0.5,0.6 1,0.8 2.2,0.7 1.8,-0.1 2.6,-0.2 3.8,-1 -0.6,-0.6 -1.5,-1.5 -2.7,-1.7 l 0,0.1 z"
           inkscape:connector-curvature="0"
           id="path3690"
           style="fill:url(#radialGradient13607);stroke:none" />
        <radialGradient
           cx="12.4722"
           cy="15.9321"
           r="6.1648998"
           fx="12.4722"
           fy="15.9321"
           id="radialGradient3789"
           gradientUnits="userSpaceOnUse"
           gradientTransform="matrix(0.907,0.4211,-0.4211,0.907,19.2898,-10.214)">
          <stop
             id="stop3791"
             style="stop-color:#9e9e9e;stop-opacity:1"
             offset="0" />
          <stop
             id="stop3793"
             style="stop-color:#535353;stop-opacity:1"
             offset="1" />
        </radialGradient>
        <path
           d="m 27.6,11.9 c -1.1,-0.2 -1.7,1.3 -1.9,2 1.1,-0.1 2.9,-0.3 3.6,-1.1 C 29,12.4 28.4,12.1 27.6,12 l 0,-0.1 z"
           inkscape:connector-curvature="0"
           id="path3697"
           style="fill:url(#radialGradient13609);stroke:none" />
      </g>
      <path
         d="M 116.99608,9.328601 C 115.3646,6.4555 112.63139,4.212163 109.21808,3.270153 105.80477,2.3281421 102.30784,2.852077 99.433696,4.48171"
         inkscape:connector-curvature="0"
         id="path3235"
         style="color:#000000;fill:none;stroke:#babdb6;stroke-width:1.00000036;stroke-linecap:round;stroke-linejoin:miter;stroke-miterlimit:4;stroke-opacity:1;stroke-dasharray:none;stroke-dashoffset:0;marker:none;visibility:visible;display:inline;overflow:visible" />
      <path
         d="M 113.45229,11.339423 C 112.33705,9.373566 110.46997,7.835192 108.13599,7.191054 105.802,6.546919 103.41018,6.909918 101.44452,8.025502"
         inkscape:connector-curvature="0"
         id="path3233"
         style="color:#000000;fill:none;stroke:#babdb6;stroke-width:1.00000036;stroke-linecap:round;stroke-linejoin:miter;stroke-miterlimit:4;stroke-opacity:1;stroke-dasharray:none;stroke-dashoffset:0;marker:none;visibility:visible;display:inline;overflow:visible" />
      <path
         d="m 109.9085,13.350245 c -0.60117,-1.059493 -1.59656,-1.891089 -2.85461,-2.238287 -1.25805,-0.347196 -2.53907,-0.14385 -3.59855,0.457336"
         inkscape:connector-curvature="0"
         id="path3227"
         style="color:#000000;fill:none;stroke:#babdb6;stroke-width:1.00000036;stroke-linecap:round;stroke-linejoin:miter;stroke-miterlimit:4;stroke-opacity:1;stroke-dasharray:none;stroke-dashoffset:0;marker:none;visibility:visible;display:inline;overflow:visible" />
    </g>
    <g
       transform="translate(-27.83014,-62.39595)"
       id="g13531" />
    <g
       transform="translate(25.41268,-23.25457)"
       id="g3054" />
    <g
       transform="translate(69.41268,-7.254574)"
       id="g13534" />
  </g>
  <g
     id="layer2" />
</svg>
