<?xml version="1.0" encoding="UTF-8" standalone="no"?>
<!-- Created with Inkscape (http://www.inkscape.org/) -->

<svg
   xmlns:dc="http://purl.org/dc/elements/1.1/"
   xmlns:cc="http://creativecommons.org/ns#"
   xmlns:rdf="http://www.w3.org/1999/02/22-rdf-syntax-ns#"
   xmlns:svg="http://www.w3.org/2000/svg"
   xmlns="http://www.w3.org/2000/svg"
   xmlns:xlink="http://www.w3.org/1999/xlink"
   xmlns:inkscape="http://www.inkscape.org/namespaces/inkscape"
   version="1.0"
   width="48"
   height="48"
   id="svg1306">
  <metadata
     id="metadata57">
    <rdf:RDF>
      <cc:Work
         rdf:about="">
        <dc:format>image/svg+xml</dc:format>
        <dc:type
           rdf:resource="http://purl.org/dc/dcmitype/StillImage" />
      </cc:Work>
    </rdf:RDF>
  </metadata>
  <defs
     id="defs1308">
    <linearGradient
       x1="40.546875"
       y1="1.125"
       x2="47.375"
       y2="37.75"
       id="linearGradient13684"
       xlink:href="#linearGradient13678"
       gradientUnits="userSpaceOnUse" />
    <linearGradient
       id="linearGradient13678">
      <stop
         id="stop13680"
         style="stop-color:#ffffff;stop-opacity:1"
         offset="0" />
      <stop
         id="stop13682"
         style="stop-color:#ffffff;stop-opacity:0"
         offset="1" />
    </linearGradient>
    <linearGradient
       x1="40.546875"
       y1="1.125"
       x2="47.375"
       y2="37.75"
       id="linearGradient13702"
       xlink:href="#linearGradient13678"
       gradientUnits="userSpaceOnUse" />
    <linearGradient
       id="linearGradient4184">
      <stop
         id="stop4186"
         style="stop-color:#838383;stop-opacity:1"
         offset="0" />
      <stop
         id="stop4188"
         style="stop-color:#bbbbbb;stop-opacity:0"
         offset="1" />
    </linearGradient>
    <linearGradient
       x1="7.0625"
       y1="35.28125"
       x2="24.6875"
       y2="35.28125"
       id="linearGradient4209"
       xlink:href="#linearGradient4184"
       gradientUnits="userSpaceOnUse"
       gradientTransform="matrix(0.673759,0,0,1.084542,6.241576,-3.24763)" />
    <linearGradient
       id="linearGradient4236">
      <stop
         id="stop4238"
         style="stop-color:#eeeeee;stop-opacity:1"
         offset="0" />
      <stop
         id="stop4240"
         style="stop-color:#eeeeee;stop-opacity:0"
         offset="1" />
    </linearGradient>
    <linearGradient
       x1="12.277412"
       y1="37.205811"
       x2="12.221823"
       y2="33.758667"
       id="linearGradient4242"
       xlink:href="#linearGradient4236"
       gradientUnits="userSpaceOnUse"
       gradientTransform="matrix(1,0,0,1.084542,3.204508,-1.842482)" />
    <linearGradient
       id="linearGradient2212">
      <stop
         id="stop2214"
         style="stop-color:#2e3436;stop-opacity:1"
         offset="0" />
      <stop
         id="stop2216"
         style="stop-color:#2e3436;stop-opacity:0"
         offset="1" />
    </linearGradient>
    <linearGradient
       id="linearGradient2187">
      <stop
         id="stop2189"
         style="stop-color:#babdb6;stop-opacity:1"
         offset="0" />
      <stop
         id="stop2191"
         style="stop-color:#eeeeec;stop-opacity:1"
         offset="1" />
    </linearGradient>
    <linearGradient
       id="linearGradient2179">
      <stop
         id="stop2181"
         style="stop-color:#ffffff;stop-opacity:1"
         offset="0" />
      <stop
         id="stop2183"
         style="stop-color:#eeeeec;stop-opacity:1"
         offset="1" />
    </linearGradient>
    <radialGradient
       cx="23.098124"
       cy="34.511105"
       r="20.657619"
       fx="23.098124"
       fy="34.511105"
       id="radialGradient4460"
       xlink:href="#linearGradient2212"
       gradientUnits="userSpaceOnUse"
       gradientTransform="matrix(0.987016,-3.036258e-7,1.235702e-7,0.154497,0.46639,29.0816)" />
    <linearGradient
       x1="32.57143"
       y1="32.428574"
       x2="19.499998"
       y2="22.357141"
       id="linearGradient4462"
       xlink:href="#linearGradient2187"
       gradientUnits="userSpaceOnUse"
       gradientTransform="matrix(1,0,0,0.885726,1.000008,10.98679)" />
    <linearGradient
       x1="22.5"
       y1="18"
       x2="25.642859"
       y2="19.285715"
       id="linearGradient4466"
       xlink:href="#linearGradient2179"
       gradientUnits="userSpaceOnUse"
       gradientTransform="translate(1.000008,9.940941)" />
  </defs>
  <g
     id="layer1">
    <path
       d="m 44.951788,34.413448 a 20.657619,3.5860416 0 1 1 -41.315239,0 20.657619,3.5860416 0 1 1 41.315239,0 z"
       inkscape:connector-curvature="0"
       transform="matrix(1.064982,0,0,2.667528,-0.872845,-54.3647)"
       id="path2210"
       style="opacity:0.74731182;fill:url(#radialGradient4460);fill-opacity:1;stroke:none" />
    <path
       d="m 11.595947,16.530688 26.88072,0.02237 4.015357,13.092524 0.02525,9.155926 c 0,1.995333 -0.951317,2.72209 -3.060661,2.72209 l -29.02431,0.03355 c -2.1881581,0 -2.9546961,-0.759366 -2.9546961,-2.868014 L 7.5028649,29.7015 11.595947,16.530688 z"
       inkscape:connector-curvature="0"
       id="path1417"
       style="fill:url(#linearGradient4462);fill-opacity:1;fill-rule:evenodd;stroke:#686a65;stroke-width:1.00000012px;stroke-linecap:butt;stroke-linejoin:round;stroke-opacity:1" />
    <path
       d="M 8.0000079,29.940941 41.849754,30.040687 37.416007,17.897602 12.44195,17.98599 8.0000079,29.940941 z"
       inkscape:connector-curvature="0"
       id="path2159"
       style="fill:url(#linearGradient4466);fill-opacity:1;fill-rule:evenodd;stroke:none" />
    <path
       d="m 12.189025,17.505341 25.589236,-0.04423 3.736089,12.6282 -0.01263,8.672077 c 0,1.106751 -0.411832,1.789753 -1.892944,1.789753 l -29.271788,0.01106 c -1.23114,0 -1.8021811,-0.361258 -1.8021811,-1.720289 L 8.4969289,30.064124 12.189025,17.505341 z"
       inkscape:connector-curvature="0"
       id="path2157"
       style="opacity:0.61538463;fill:none;stroke:#ffffff;stroke-width:1.00000048px;stroke-linecap:butt;stroke-linejoin:miter;stroke-opacity:1" />
    <rect
       width="11.875"
       height="6.0327663"
       x="11"
       y="32"
       id="rect4174"
       style="color:#000000;fill:url(#linearGradient4209);fill-opacity:1;fill-rule:evenodd;stroke:none;stroke-width:2.40899992;marker:none;visibility:visible;display:inline;overflow:visible" />
    <path
       d="m 11.062502,38 c 0,0 0,-4.350625 0,-4.350625 C 12.89803,37.09738 19.358993,38 24,38 c 0,0 -12.937498,0 -12.937498,0 z"
       inkscape:connector-curvature="0"
       id="path4194"
       style="opacity:0.81142853;fill:url(#linearGradient4242);fill-opacity:1;fill-rule:evenodd;stroke:none" />
    <path
       d="m 29.5,32.559777 0,5.020935"
       inkscape:connector-curvature="0"
       id="path4284"
       style="fill:none;stroke:#ffffff;stroke-width:1.00000048px;stroke-linecap:square;stroke-linejoin:miter;stroke-opacity:0.42372885" />
    <path
       d="m 31.5,32.559777 0,5.020935"
       inkscape:connector-curvature="0"
       id="path4286"
       style="fill:none;stroke:#ffffff;stroke-width:1.00000048px;stroke-linecap:square;stroke-linejoin:miter;stroke-opacity:0.42372885" />
    <path
       d="m 33.5,32.559777 0,5.020935"
       inkscape:connector-curvature="0"
       id="path4288"
       style="fill:none;stroke:#ffffff;stroke-width:1.00000048px;stroke-linecap:square;stroke-linejoin:miter;stroke-opacity:0.42372885" />
    <path
       d="m 35.5,32.559777 0,5.020935"
       inkscape:connector-curvature="0"
       id="path4290"
       style="fill:none;stroke:#ffffff;stroke-width:1.00000048px;stroke-linecap:square;stroke-linejoin:miter;stroke-opacity:0.42372885" />
    <path
       d="m 37.5,32.559777 0,5.020935"
       inkscape:connector-curvature="0"
       id="path4292"
       style="fill:none;stroke:#ffffff;stroke-width:1.00000048px;stroke-linecap:square;stroke-linejoin:miter;stroke-opacity:0.42372885" />
    <path
       d="m 28.5,32.549899 0,5.020935"
       inkscape:connector-curvature="0"
       id="path4294"
       style="opacity:0.09714284;fill:none;stroke:#000000;stroke-width:1.00000048px;stroke-linecap:square;stroke-linejoin:miter;stroke-opacity:1" />
    <path
       d="m 30.5,32.609676 0,5.020935"
       inkscape:connector-curvature="0"
       id="path4296"
       style="opacity:0.09714284;fill:none;stroke:#000000;stroke-width:1.00000048px;stroke-linecap:square;stroke-linejoin:miter;stroke-opacity:1" />
    <path
       d="m 32.5,32.609676 0,5.020935"
       inkscape:connector-curvature="0"
       id="path4298"
       style="opacity:0.09714284;fill:none;stroke:#000000;stroke-width:1.00000048px;stroke-linecap:square;stroke-linejoin:miter;stroke-opacity:1" />
    <path
       d="m 34.5,32.609676 0,5.020935"
       inkscape:connector-curvature="0"
       id="path4300"
       style="opacity:0.09714284;fill:none;stroke:#000000;stroke-width:1.00000048px;stroke-linecap:square;stroke-linejoin:miter;stroke-opacity:1" />
    <path
       d="m 36.5,32.609676 0,5.020935"
       inkscape:connector-curvature="0"
       id="path4302"
       style="opacity:0.09714284;fill:none;stroke:#000000;stroke-width:1.00000048px;stroke-linecap:square;stroke-linejoin:miter;stroke-opacity:1" />
    <path
       d="M 10,32.001126 10,38 22.5625,38 10.34375,37.627189 10,32.001126 z"
       inkscape:connector-curvature="0"
       id="path4572"
       style="opacity:0.18681317;fill:#ffffff;fill-opacity:1;fill-rule:evenodd;stroke:none" />
    <g
       transform="translate(-2.336444,2.090765)"
       id="g13689">
      <path
         d="m 46.925968,3.8880343 -6.972128,9.1323537 7.093408,0 0,2.99976 -12.571877,0 0,-0.586808 8.924315,-11.4616471 -8.383753,0 0.0625,-3.00127569 11.910035,0 -0.0625,2.91761709 z"
         inkscape:connector-curvature="0"
         id="path13687"
         style="font-size:10px;font-style:normal;font-variant:normal;font-weight:normal;font-stretch:normal;line-height:100%;writing-mode:lr-tb;text-anchor:start;fill:#3465a4;fill-opacity:1;stroke:#204a87;stroke-width:2;stroke-linecap:butt;stroke-linejoin:miter;stroke-miterlimit:4;stroke-opacity:1;stroke-dasharray:none;font-family:Segoe" />
      <path
         d="m 46.925968,3.8880343 -6.972128,9.1323537 7.093408,0 0,2.99976 -12.571877,0 0,-0.586808 8.924315,-11.4616471 -8.383753,0 0.0625,-3.00127569 11.910035,0"
         inkscape:connector-curvature="0"
         id="text12733"
         style="font-size:10px;font-style:normal;font-variant:normal;font-weight:normal;font-stretch:normal;line-height:100%;writing-mode:lr-tb;text-anchor:start;fill:#3465a4;fill-opacity:1;stroke:none;font-family:Segoe" />
      <path
         d="m 35.46875,1.34375 -0.0625,2.25 8,0 c 0.136431,0.00835 0.257516,0.090261 0.316029,0.2137889 0.05851,0.1235282 0.04519,0.2691084 -0.03478,0.3799611 l -8.84375,11.34375 0,0.125 11.84375,0 0,-2.25 -6.71875,0 c -0.142054,0.003 -0.273601,-0.07455 -0.339777,-0.200282 -0.06618,-0.125734 -0.05562,-0.278068 0.02728,-0.393468 L 46.5625,3.75 46.625,1.34375 l -11.15625,0 z"
         inkscape:connector-curvature="0"
         id="path13676"
         style="font-size:10px;font-style:normal;font-variant:normal;font-weight:normal;font-stretch:normal;line-height:100%;writing-mode:lr-tb;text-anchor:start;opacity:0.21348314;fill:#3465a4;fill-opacity:1;stroke:url(#linearGradient13684);stroke-width:1px;stroke-linecap:butt;stroke-linejoin:miter;stroke-opacity:1;font-family:Segoe" />
    </g>
    <g
       transform="matrix(0.567849,0,0,0.567849,1.423195,14.55986)"
       id="g13694">
      <path
         d="m 46.925968,3.8880343 -6.972128,9.1323537 7.093408,0 0,3.770211 -12.571877,0 0,-0.586808 8.924315,-12.2320981 -8.383753,0 0.0625,-3.00127569 11.910035,0 -0.0625,2.91761709 z"
         inkscape:connector-curvature="0"
         id="path13696"
         style="font-size:10px;font-style:normal;font-variant:normal;font-weight:normal;font-stretch:normal;line-height:100%;writing-mode:lr-tb;text-anchor:start;fill:#3465a4;fill-opacity:1;stroke:#204a87;stroke-width:3.52206182;stroke-linecap:butt;stroke-linejoin:miter;stroke-miterlimit:4;stroke-opacity:1;stroke-dasharray:none;font-family:Segoe" />
      <path
         d="m 46.925968,3.8880343 -6.972128,9.1323537 7.093408,0 0,2.99976 -12.571877,0 0,-0.586808 8.924315,-11.4616471 -8.383753,0 0.0625,-3.00127569 11.910035,0"
         inkscape:connector-curvature="0"
         id="path13698"
         style="font-size:10px;font-style:normal;font-variant:normal;font-weight:normal;font-stretch:normal;line-height:100%;writing-mode:lr-tb;text-anchor:start;fill:#3465a4;fill-opacity:1;stroke:none;font-family:Segoe" />
      <path
         d="m 35.46875,1.34375 -0.0625,2.25 8,0 c 0.136431,0.00835 0.257516,0.090261 0.316029,0.2137889 0.05851,0.1235282 0.04519,0.2691084 -0.03478,0.3799611 l -8.84375,11.34375 0,0.125 11.84375,0 0,-2.25 -6.71875,0 c -0.142054,0.003 -0.273601,-0.07455 -0.339777,-0.200282 -0.06618,-0.125734 -0.05562,-0.278068 0.02728,-0.393468 L 46.5625,3.75 46.625,1.34375 l -11.15625,0 z"
         inkscape:connector-curvature="0"
         id="path13700"
         style="font-size:10px;font-style:normal;font-variant:normal;font-weight:normal;font-stretch:normal;line-height:100%;writing-mode:lr-tb;text-anchor:start;opacity:0.21348314;fill:#3465a4;fill-opacity:1;stroke:url(#linearGradient13702);stroke-width:1.76103091px;stroke-linecap:butt;stroke-linejoin:miter;stroke-opacity:1;font-family:Segoe" />
    </g>
  </g>
</svg>
