<?xml version="1.0" encoding="UTF-8" standalone="no"?>
<!-- Created with Inkscape (http://www.inkscape.org/) -->

<svg
   xmlns:dc="http://purl.org/dc/elements/1.1/"
   xmlns:cc="http://creativecommons.org/ns#"
   xmlns:rdf="http://www.w3.org/1999/02/22-rdf-syntax-ns#"
   xmlns:svg="http://www.w3.org/2000/svg"
   xmlns="http://www.w3.org/2000/svg"
   xmlns:xlink="http://www.w3.org/1999/xlink"
   xmlns:inkscape="http://www.inkscape.org/namespaces/inkscape"
   version="1.0"
   width="48"
   height="48"
   id="svg11300">
  <metadata
     id="metadata124">
    <rdf:RDF>
      <cc:Work
         rdf:about="">
        <dc:format>image/svg+xml</dc:format>
        <dc:type
           rdf:resource="http://purl.org/dc/dcmitype/StillImage" />
      </cc:Work>
    </rdf:RDF>
  </metadata>
  <defs
     id="defs3">
    <linearGradient
       id="linearGradient13678">
      <stop
         id="stop13680"
         style="stop-color:#ffffff;stop-opacity:1"
         offset="0" />
      <stop
         id="stop13682"
         style="stop-color:#ffffff;stop-opacity:0"
         offset="1" />
    </linearGradient>
    <linearGradient
       id="linearGradient14993">
      <stop
         id="stop14995"
         style="stop-color:#000000;stop-opacity:1"
         offset="0" />
      <stop
         id="stop14997"
         style="stop-color:#000000;stop-opacity:0"
         offset="1" />
    </linearGradient>
    <linearGradient
       id="linearGradient14981">
      <stop
         id="stop14983"
         style="stop-color:#788600;stop-opacity:1"
         offset="0" />
      <stop
         id="stop14985"
         style="stop-color:#505900;stop-opacity:1"
         offset="1" />
    </linearGradient>
    <linearGradient
       id="linearGradient14973">
      <stop
         id="stop14975"
         style="stop-color:#747474;stop-opacity:1"
         offset="0" />
      <stop
         id="stop14977"
         style="stop-color:#b0b0b0;stop-opacity:1"
         offset="0.62068963" />
      <stop
         id="stop14979"
         style="stop-color:#3f3f3f;stop-opacity:1"
         offset="1" />
    </linearGradient>
    <linearGradient
       id="linearGradient14881">
      <stop
         id="stop14883"
         style="stop-color:#747474;stop-opacity:1"
         offset="0" />
      <stop
         id="stop14893"
         style="stop-color:#ffffff;stop-opacity:1"
         offset="0.62068963" />
      <stop
         id="stop14885"
         style="stop-color:#3f3f3f;stop-opacity:1"
         offset="1" />
    </linearGradient>
    <linearGradient
       id="linearGradient14861">
      <stop
         id="stop14863"
         style="stop-color:#ffffff;stop-opacity:1"
         offset="0" />
      <stop
         id="stop14865"
         style="stop-color:#ffffff;stop-opacity:0"
         offset="1" />
    </linearGradient>
    <linearGradient
       id="linearGradient14780">
      <stop
         id="stop14782"
         style="stop-color:#ebff39;stop-opacity:1"
         offset="0" />
      <stop
         id="stop14784"
         style="stop-color:#ebff39;stop-opacity:0"
         offset="1" />
    </linearGradient>
    <linearGradient
       x1="6.2209711"
       y1="42.890816"
       x2="6.2376504"
       y2="39.266895"
       id="linearGradient14786"
       xlink:href="#linearGradient14780"
       gradientUnits="userSpaceOnUse"
       gradientTransform="matrix(1.984375,0,0,1,-5.90625,0)" />
    <linearGradient
       x1="6.2209711"
       y1="42.890816"
       x2="6.2376504"
       y2="39.266895"
       id="linearGradient14790"
       xlink:href="#linearGradient14780"
       gradientUnits="userSpaceOnUse"
       gradientTransform="matrix(1.984375,0,0,1,-2.890625,0)" />
    <linearGradient
       x1="6.2209711"
       y1="42.890816"
       x2="6.2376504"
       y2="39.266895"
       id="linearGradient14794"
       xlink:href="#linearGradient14780"
       gradientUnits="userSpaceOnUse"
       gradientTransform="matrix(1.984375,0,0,1,0.09375,0)" />
    <linearGradient
       x1="6.2209711"
       y1="42.890816"
       x2="6.2376504"
       y2="39.266895"
       id="linearGradient14798"
       xlink:href="#linearGradient14780"
       gradientUnits="userSpaceOnUse"
       gradientTransform="matrix(1.984375,0,0,1,3.09375,-0.013595)" />
    <linearGradient
       x1="6.2209711"
       y1="42.890816"
       x2="6.2376504"
       y2="39.266895"
       id="linearGradient14802"
       xlink:href="#linearGradient14780"
       gradientUnits="userSpaceOnUse"
       gradientTransform="matrix(1.984375,0,0,1,6.09375,-0.013595)" />
    <linearGradient
       x1="6.2209711"
       y1="42.890816"
       x2="6.2376504"
       y2="39.266895"
       id="linearGradient14806"
       xlink:href="#linearGradient14780"
       gradientUnits="userSpaceOnUse"
       gradientTransform="matrix(1.984375,0,0,1,9.109375,-0.013595)" />
    <linearGradient
       x1="6.2209711"
       y1="42.890816"
       x2="6.2376504"
       y2="39.266895"
       id="linearGradient14810"
       xlink:href="#linearGradient14780"
       gradientUnits="userSpaceOnUse"
       gradientTransform="matrix(1.984375,0,0,1,12.10938,-0.013595)" />
    <linearGradient
       x1="6.2209711"
       y1="42.890816"
       x2="6.2376504"
       y2="39.266895"
       id="linearGradient14814"
       xlink:href="#linearGradient14780"
       gradientUnits="userSpaceOnUse"
       gradientTransform="matrix(1.984375,0,0,1,15.10938,-0.013595)" />
    <linearGradient
       x1="16.964844"
       y1="20.165941"
       x2="18.968426"
       y2="31.347067"
       id="linearGradient14867"
       xlink:href="#linearGradient14861"
       gradientUnits="userSpaceOnUse"
       gradientTransform="matrix(0.934742,0,0,1.14936,6.518753,-5.859611)" />
    <linearGradient
       x1="24"
       y1="19.5"
       x2="27"
       y2="19.5"
       id="linearGradient14887"
       xlink:href="#linearGradient14881"
       gradientUnits="userSpaceOnUse"
       gradientTransform="translate(5,-2)" />
    <linearGradient
       x1="24"
       y1="21.5"
       x2="27"
       y2="21.5"
       id="linearGradient14889"
       xlink:href="#linearGradient14881"
       gradientUnits="userSpaceOnUse"
       gradientTransform="translate(5,-2)" />
    <linearGradient
       x1="24"
       y1="23.5"
       x2="27"
       y2="23.5"
       id="linearGradient14891"
       xlink:href="#linearGradient14881"
       gradientUnits="userSpaceOnUse"
       gradientTransform="translate(5,-2)" />
    <linearGradient
       x1="8"
       y1="19.5"
       x2="4.3283887"
       y2="19.5"
       id="linearGradient14895"
       xlink:href="#linearGradient14881"
       gradientUnits="userSpaceOnUse"
       gradientTransform="translate(6,-2)" />
    <linearGradient
       x1="8"
       y1="19.5"
       x2="4.3283887"
       y2="19.5"
       id="linearGradient14897"
       xlink:href="#linearGradient14881"
       gradientUnits="userSpaceOnUse"
       gradientTransform="translate(6,-2)" />
    <linearGradient
       x1="8"
       y1="19.5"
       x2="4.3283887"
       y2="19.5"
       id="linearGradient14899"
       xlink:href="#linearGradient14881"
       gradientUnits="userSpaceOnUse"
       gradientTransform="translate(6,-2)" />
    <linearGradient
       x1="8"
       y1="19.5"
       x2="4.3283887"
       y2="19.5"
       id="linearGradient14903"
       xlink:href="#linearGradient14881"
       gradientUnits="userSpaceOnUse"
       gradientTransform="translate(8,-35)" />
    <linearGradient
       x1="8"
       y1="19.5"
       x2="4.3283887"
       y2="19.5"
       id="linearGradient14907"
       xlink:href="#linearGradient14881"
       gradientUnits="userSpaceOnUse"
       gradientTransform="translate(8,-37)" />
    <linearGradient
       x1="8"
       y1="19.5"
       x2="4.3283887"
       y2="19.5"
       id="linearGradient14911"
       xlink:href="#linearGradient14881"
       gradientUnits="userSpaceOnUse"
       gradientTransform="translate(8,-39)" />
    <linearGradient
       x1="8"
       y1="19.5"
       x2="4.3283887"
       y2="19.5"
       id="linearGradient14915"
       xlink:href="#linearGradient14881"
       gradientUnits="userSpaceOnUse"
       gradientTransform="translate(8,-41)" />
    <linearGradient
       x1="8"
       y1="19.5"
       x2="4.3283887"
       y2="19.5"
       id="linearGradient14919"
       xlink:href="#linearGradient14881"
       gradientUnits="userSpaceOnUse"
       gradientTransform="translate(8,-43)" />
    <linearGradient
       x1="8"
       y1="19.5"
       x2="4.3283887"
       y2="19.5"
       id="linearGradient14923"
       xlink:href="#linearGradient14881"
       gradientUnits="userSpaceOnUse"
       gradientTransform="translate(8,-45)" />
    <linearGradient
       x1="8"
       y1="19.5"
       x2="4.3283887"
       y2="19.5"
       id="linearGradient14927"
       xlink:href="#linearGradient14881"
       gradientUnits="userSpaceOnUse"
       gradientTransform="translate(8,-47)" />
    <linearGradient
       x1="7.1161165"
       y1="11.5"
       x2="4.712738"
       y2="11.5"
       id="linearGradient14943"
       xlink:href="#linearGradient14973"
       gradientUnits="userSpaceOnUse"
       gradientTransform="translate(18,-35)" />
    <linearGradient
       x1="7.1161165"
       y1="13.5"
       x2="4.712738"
       y2="13.5"
       id="linearGradient14945"
       xlink:href="#linearGradient14973"
       gradientUnits="userSpaceOnUse"
       gradientTransform="translate(18,-37)" />
    <linearGradient
       x1="7.1161165"
       y1="15.5"
       x2="4.712738"
       y2="15.5"
       id="linearGradient14947"
       xlink:href="#linearGradient14973"
       gradientUnits="userSpaceOnUse"
       gradientTransform="translate(18,-39)" />
    <linearGradient
       x1="7.1161165"
       y1="17.5"
       x2="4.712738"
       y2="17.5"
       id="linearGradient14949"
       xlink:href="#linearGradient14973"
       gradientUnits="userSpaceOnUse"
       gradientTransform="translate(18,-41)" />
    <linearGradient
       x1="7.1161165"
       y1="19.5"
       x2="4.712738"
       y2="19.5"
       id="linearGradient14951"
       xlink:href="#linearGradient14973"
       gradientUnits="userSpaceOnUse"
       gradientTransform="translate(18,-43)" />
    <linearGradient
       x1="7.1161165"
       y1="21.5"
       x2="4.712738"
       y2="21.5"
       id="linearGradient14953"
       xlink:href="#linearGradient14973"
       gradientUnits="userSpaceOnUse"
       gradientTransform="translate(18,-45)" />
    <linearGradient
       x1="7.1161165"
       y1="23.5"
       x2="4.712738"
       y2="23.5"
       id="linearGradient14955"
       xlink:href="#linearGradient14973"
       gradientUnits="userSpaceOnUse"
       gradientTransform="translate(18,-47)" />
    <linearGradient
       x1="20.046677"
       y1="22.747095"
       x2="39.002876"
       y2="49.79393"
       id="linearGradient14987"
       xlink:href="#linearGradient14981"
       gradientUnits="userSpaceOnUse"
       gradientTransform="translate(6,-2)" />
    <radialGradient
       cx="21.5"
       cy="44.75"
       r="17"
       fx="21.5"
       fy="44.75"
       id="radialGradient14999"
       xlink:href="#linearGradient14993"
       gradientUnits="userSpaceOnUse"
       gradientTransform="matrix(1,0,0,0.220588,0,34.87868)" />
    <linearGradient
       x1="40.546875"
       y1="1.125"
       x2="47.375"
       y2="37.75"
       id="linearGradient13684"
       xlink:href="#linearGradient13678"
       gradientUnits="userSpaceOnUse" />
    <linearGradient
       x1="40.546875"
       y1="1.125"
       x2="47.375"
       y2="37.75"
       id="linearGradient13702"
       xlink:href="#linearGradient13678"
       gradientUnits="userSpaceOnUse" />
  </defs>
  <g
     id="layer1">
    <g
       id="g13622">
      <path
         d="m 7.50103,11.630239 0.00391,26.719641 c 0,0.07888 0.088802,0.150207 0.1867815,0.150207 l 2.8115992,0.01563 -0.0039,4.853272 c 0,0.07127 0.0224,0.126335 0.124282,0.12677 l 26.755678,-0.0078 c 0.09242,-0.0037 0.124281,-0.06374 0.124281,-0.12677 l 0.0039,-4.868897 2.882358,0.0078 c 0.09375,0 0.116042,-0.130269 0.112562,-0.212707 l 0,-26.657141 c 0.0039,-0.08203 -0.04551,-0.121992 -0.128187,-0.126769 l -32.7489805,0 c -0.078447,0.0043 -0.132094,0.05255 -0.1242815,0.126769 z"
         inkscape:connector-curvature="0"
         id="rect14772"
         style="color:#000000;fill:url(#linearGradient14987);fill-opacity:1;fill-rule:nonzero;stroke:#3a3e00;stroke-width:1.00000012;stroke-linecap:butt;stroke-linejoin:miter;stroke-miterlimit:4;stroke-opacity:1;stroke-dasharray:none;stroke-dashoffset:0;marker:none;visibility:visible;display:block;overflow:visible" />
      <path
         d="m 38.5,44.75 a 17,3.75 0 1 1 -34,0 17,3.75 0 1 1 34,0 z"
         inkscape:connector-curvature="0"
         transform="matrix(1.28015,0,0,1,-3.162329,-1.75)"
         id="path14991"
         style="opacity:0.61931817;color:#000000;fill:url(#radialGradient14999);fill-opacity:1;fill-rule:nonzero;stroke:none;stroke-width:1;marker:none;visibility:visible;display:block;overflow:visible" />
      <path
         d="m 31,21.472233 0.06435,0.530944 2.424421,1.892154 0,4.603776 -17.058951,0 0,3.933282"
         inkscape:connector-curvature="0"
         id="path14957"
         style="color:#000000;fill:none;stroke:#98a332;stroke-width:1;stroke-linecap:butt;stroke-linejoin:miter;stroke-miterlimit:4;stroke-opacity:1;stroke-dasharray:none;stroke-dashoffset:0;marker:none;visibility:visible;display:block;overflow:visible" />
      <path
         d="m 13.441942,40.96101 0.05485,-5.780683 1.90096,-2.666463 22.071922,0 0,-5.371728 L 31.889942,21.613515 36,21.46967 36,17 32,17"
         inkscape:connector-curvature="0"
         id="path14826"
         style="color:#000000;fill:none;stroke:#98a332;stroke-width:1;stroke-linecap:butt;stroke-linejoin:miter;stroke-miterlimit:4;stroke-opacity:1;stroke-dasharray:none;stroke-dashoffset:0;marker:none;visibility:visible;display:block;overflow:visible" />
      <path
         d="m 19.5,40.96101 0.05485,-5.780683 1.900958,-2.666463"
         inkscape:connector-curvature="0"
         id="path14830"
         style="color:#000000;fill:none;stroke:#98a332;stroke-width:1;stroke-linecap:butt;stroke-linejoin:miter;stroke-miterlimit:4;stroke-opacity:1;stroke-dasharray:none;stroke-dashoffset:0;marker:none;visibility:visible;display:block;overflow:visible" />
      <path
         d="m 16.5,40.96101 0.05485,-5.780683 1.900958,-2.666463"
         inkscape:connector-curvature="0"
         id="path14838"
         style="color:#000000;fill:none;stroke:#98a332;stroke-width:1;stroke-linecap:butt;stroke-linejoin:miter;stroke-miterlimit:4;stroke-opacity:1;stroke-dasharray:none;stroke-dashoffset:0;marker:none;visibility:visible;display:block;overflow:visible" />
      <g
         transform="translate(6,-2)"
         id="g14850">
        <path
           d="m 16.5,42.96101 0.05485,-5.780683 1.900958,-2.666463"
           inkscape:connector-curvature="0"
           id="path14840"
           style="color:#000000;fill:none;stroke:#98a332;stroke-width:1;stroke-linecap:butt;stroke-linejoin:miter;stroke-miterlimit:4;stroke-opacity:1;stroke-dasharray:none;stroke-dashoffset:0;marker:none;visibility:visible;display:block;overflow:visible" />
        <path
           d="m 19.5,42.96101 0.05485,-5.780683 1.900958,-2.666463"
           inkscape:connector-curvature="0"
           id="path14842"
           style="color:#000000;fill:none;stroke:#98a332;stroke-width:1;stroke-linecap:butt;stroke-linejoin:miter;stroke-miterlimit:4;stroke-opacity:1;stroke-dasharray:none;stroke-dashoffset:0;marker:none;visibility:visible;display:block;overflow:visible" />
        <path
           d="m 22.5,42.96101 0.05485,-5.780683 1.900958,-2.666463"
           inkscape:connector-curvature="0"
           id="path14844"
           style="color:#000000;fill:none;stroke:#98a332;stroke-width:1;stroke-linecap:butt;stroke-linejoin:miter;stroke-miterlimit:4;stroke-opacity:1;stroke-dasharray:none;stroke-dashoffset:0;marker:none;visibility:visible;display:block;overflow:visible" />
        <path
           d="M 25.544196,42.96101 25.599042,37.180327 27.5,34.513864"
           inkscape:connector-curvature="0"
           id="path14846"
           style="color:#000000;fill:none;stroke:#98a332;stroke-width:1;stroke-linecap:butt;stroke-linejoin:miter;stroke-miterlimit:4;stroke-opacity:1;stroke-dasharray:none;stroke-dashoffset:0;marker:none;visibility:visible;display:block;overflow:visible" />
        <path
           d="m 28.5,42.96101 0.05485,-5.780683 1.900958,-2.666463"
           inkscape:connector-curvature="0"
           id="path14848"
           style="color:#000000;fill:none;stroke:#98a332;stroke-width:1;stroke-linecap:butt;stroke-linejoin:miter;stroke-miterlimit:4;stroke-opacity:1;stroke-dasharray:none;stroke-dashoffset:0;marker:none;visibility:visible;display:block;overflow:visible" />
      </g>
      <g
         transform="translate(6,-2)"
         id="g14816">
        <path
           d="m 6.9921875,39.59375 c 0.7996719,0 0.9921875,0.62925 0.9921875,0.90625 l 0,4.419845 c 0,0 -1.984375,0 -1.984375,0 L 6,40.5 c 0,-0.277 0.2081406,-0.90625 0.9921875,-0.90625 z"
           inkscape:connector-curvature="0"
           id="rect14777"
           style="color:#000000;fill:url(#linearGradient14786);fill-opacity:1;fill-rule:nonzero;stroke:none;stroke-width:1;marker:none;visibility:visible;display:block;overflow:visible" />
        <path
           d="M 10.007812,39.59375 C 10.807484,39.59375 11,40.223 11,40.5 l 0,4.419845 c 0,0 -1.984375,0 -1.984375,0 l 0,-4.419845 c 0,-0.277 0.2081406,-0.90625 0.992187,-0.90625 z"
           inkscape:connector-curvature="0"
           id="path14788"
           style="color:#000000;fill:url(#linearGradient14790);fill-opacity:1;fill-rule:nonzero;stroke:none;stroke-width:1;marker:none;visibility:visible;display:block;overflow:visible" />
        <path
           d="m 12.992187,39.59375 c 0.799672,0 0.992188,0.62925 0.992188,0.90625 l 0,4.419845 c 0,0 -1.984375,0 -1.984375,0 L 12,40.5 c 0,-0.277 0.208141,-0.90625 0.992187,-0.90625 z"
           inkscape:connector-curvature="0"
           id="path14792"
           style="color:#000000;fill:url(#linearGradient14794);fill-opacity:1;fill-rule:nonzero;stroke:none;stroke-width:1;marker:none;visibility:visible;display:block;overflow:visible" />
        <path
           d="m 15.992187,39.580155 c 0.799672,0 0.992188,0.62925 0.992188,0.90625 l 0,4.419845 c 0,0 -1.984375,0 -1.984375,0 l 0,-4.419845 c 0,-0.277 0.208141,-0.90625 0.992187,-0.90625 z"
           inkscape:connector-curvature="0"
           id="path14796"
           style="color:#000000;fill:url(#linearGradient14798);fill-opacity:1;fill-rule:nonzero;stroke:none;stroke-width:1;marker:none;visibility:visible;display:block;overflow:visible" />
        <path
           d="m 18.992187,39.580155 c 0.799672,0 0.992188,0.62925 0.992188,0.90625 l 0,4.419845 c 0,0 -1.984375,0 -1.984375,0 l 0,-4.419845 c 0,-0.277 0.208141,-0.90625 0.992187,-0.90625 z"
           inkscape:connector-curvature="0"
           id="path14800"
           style="color:#000000;fill:url(#linearGradient14802);fill-opacity:1;fill-rule:nonzero;stroke:none;stroke-width:1;marker:none;visibility:visible;display:block;overflow:visible" />
        <path
           d="m 22.007812,39.580155 c 0.799672,0 0.992188,0.62925 0.992188,0.90625 l 0,4.419845 c 0,0 -1.984375,0 -1.984375,0 l 0,-4.419845 c 0,-0.277 0.208141,-0.90625 0.992187,-0.90625 z"
           inkscape:connector-curvature="0"
           id="path14804"
           style="color:#000000;fill:url(#linearGradient14806);fill-opacity:1;fill-rule:nonzero;stroke:none;stroke-width:1;marker:none;visibility:visible;display:block;overflow:visible" />
        <path
           d="m 25.007812,39.580155 c 0.799672,0 0.992188,0.62925 0.992188,0.90625 l 0,4.419845 c 0,0 -1.984375,0 -1.984375,0 l 0,-4.419845 c 0,-0.277 0.208141,-0.90625 0.992187,-0.90625 z"
           inkscape:connector-curvature="0"
           id="path14808"
           style="color:#000000;fill:url(#linearGradient14810);fill-opacity:1;fill-rule:nonzero;stroke:none;stroke-width:1;marker:none;visibility:visible;display:block;overflow:visible" />
        <path
           d="m 28.007812,39.580155 c 0.799672,0 0.992188,0.62925 0.992188,0.90625 l 0,4.419845 c 0,0 -1.984375,0 -1.984375,0 l 0,-4.419845 c 0,-0.277 0.208141,-0.90625 0.992187,-0.90625 z"
           inkscape:connector-curvature="0"
           id="path14812"
           style="color:#000000;fill:url(#linearGradient14814);fill-opacity:1;fill-rule:nonzero;stroke:none;stroke-width:1;marker:none;visibility:visible;display:block;overflow:visible" />
      </g>
      <path
         d="m 11.40625,17.3125 -1.875,1.25 0,1.875 0,10.0625 7,0.0625"
         inkscape:connector-curvature="0"
         id="path15029"
         style="color:#000000;fill:none;stroke:#98a332;stroke-width:1;stroke-linecap:butt;stroke-linejoin:miter;stroke-miterlimit:4;stroke-opacity:1;stroke-dasharray:none;stroke-dashoffset:0;marker:none;visibility:visible;display:block;overflow:visible" />
      <rect
         width="16.055548"
         height="7.9304557"
         rx="0.94194132"
         ry="0.9419415"
         x="13.472219"
         y="15.503517"
         id="rect14857"
         style="color:#000000;fill:#555753;fill-opacity:1;fill-rule:nonzero;stroke:#2e3436;stroke-width:0.99999958;stroke-linecap:butt;stroke-linejoin:miter;stroke-miterlimit:4;stroke-opacity:1;stroke-dasharray:none;stroke-dashoffset:0;marker:none;visibility:visible;display:block;overflow:visible" />
      <rect
         width="14.116029"
         height="5.8817496"
         rx="0"
         ry="0"
         x="14.416605"
         y="16.510822"
         id="rect14859"
         style="opacity:0.17045456;color:#000000;fill:none;stroke:url(#linearGradient14867);stroke-width:0.99999976;stroke-linecap:butt;stroke-linejoin:miter;stroke-miterlimit:4;stroke-opacity:1;stroke-dasharray:none;stroke-dashoffset:0;marker:none;visibility:visible;display:block;overflow:visible" />
      <rect
         width="3"
         height="1"
         x="11"
         y="17"
         id="rect14869"
         style="color:#000000;fill:url(#linearGradient14899);fill-opacity:1;fill-rule:nonzero;stroke:none;stroke-width:1;marker:none;visibility:visible;display:block;overflow:visible" />
      <path
         d="m 11.640625,19.5 -2.125,1.0625 0,2.4375"
         inkscape:connector-curvature="0"
         id="path15031"
         style="color:#000000;fill:none;stroke:#98a332;stroke-width:1;stroke-linecap:butt;stroke-linejoin:miter;stroke-miterlimit:4;stroke-opacity:1;stroke-dasharray:none;stroke-dashoffset:0;marker:none;visibility:visible;display:block;overflow:visible" />
      <rect
         width="3"
         height="1"
         x="11"
         y="19"
         id="rect14871"
         style="color:#000000;fill:url(#linearGradient14897);fill-opacity:1;fill-rule:nonzero;stroke:none;stroke-width:1;marker:none;visibility:visible;display:block;overflow:visible" />
      <path
         d="M 11.5,21.5625 9.5,23"
         inkscape:connector-curvature="0"
         id="path15033"
         style="color:#000000;fill:none;stroke:#98a332;stroke-width:1;stroke-linecap:butt;stroke-linejoin:miter;stroke-miterlimit:4;stroke-opacity:1;stroke-dasharray:none;stroke-dashoffset:0;marker:none;visibility:visible;display:block;overflow:visible" />
      <rect
         width="3"
         height="1"
         x="11"
         y="21"
         id="rect14873"
         style="color:#000000;fill:url(#linearGradient14895);fill-opacity:1;fill-rule:nonzero;stroke:none;stroke-width:1;marker:none;visibility:visible;display:block;overflow:visible" />
      <rect
         width="3"
         height="1"
         x="29"
         y="17"
         id="rect14875"
         style="color:#000000;fill:url(#linearGradient14887);fill-opacity:1;fill-rule:nonzero;stroke:none;stroke-width:1;marker:none;visibility:visible;display:block;overflow:visible" />
      <rect
         width="3"
         height="1"
         x="29"
         y="19"
         id="rect14877"
         style="color:#000000;fill:url(#linearGradient14889);fill-opacity:1;fill-rule:nonzero;stroke:none;stroke-width:1;marker:none;visibility:visible;display:block;overflow:visible" />
      <rect
         width="3"
         height="1"
         x="29"
         y="21"
         id="rect14879"
         style="color:#000000;fill:url(#linearGradient14891);fill-opacity:1;fill-rule:nonzero;stroke:none;stroke-width:1;marker:none;visibility:visible;display:block;overflow:visible" />
      <rect
         width="3"
         height="1"
         x="13"
         y="-16"
         transform="matrix(0,1,-1,0,0,0)"
         id="rect14901"
         style="color:#000000;fill:url(#linearGradient14903);fill-opacity:1;fill-rule:nonzero;stroke:none;stroke-width:1;marker:none;visibility:visible;display:block;overflow:visible" />
      <rect
         width="3"
         height="1"
         x="13"
         y="-18"
         transform="matrix(0,1,-1,0,0,0)"
         id="rect14905"
         style="color:#000000;fill:url(#linearGradient14907);fill-opacity:1;fill-rule:nonzero;stroke:none;stroke-width:1;marker:none;visibility:visible;display:block;overflow:visible" />
      <rect
         width="3"
         height="1"
         x="13"
         y="-20"
         transform="matrix(0,1,-1,0,0,0)"
         id="rect14909"
         style="color:#000000;fill:url(#linearGradient14911);fill-opacity:1;fill-rule:nonzero;stroke:none;stroke-width:1;marker:none;visibility:visible;display:block;overflow:visible" />
      <rect
         width="3"
         height="1"
         x="13"
         y="-22"
         transform="matrix(0,1,-1,0,0,0)"
         id="rect14913"
         style="color:#000000;fill:url(#linearGradient14915);fill-opacity:1;fill-rule:nonzero;stroke:none;stroke-width:1;marker:none;visibility:visible;display:block;overflow:visible" />
      <rect
         width="3"
         height="1"
         x="13"
         y="-24"
         transform="matrix(0,1,-1,0,0,0)"
         id="rect14917"
         style="color:#000000;fill:url(#linearGradient14919);fill-opacity:1;fill-rule:nonzero;stroke:none;stroke-width:1;marker:none;visibility:visible;display:block;overflow:visible" />
      <rect
         width="3"
         height="1"
         x="13"
         y="-26"
         transform="matrix(0,1,-1,0,0,0)"
         id="rect14921"
         style="color:#000000;fill:url(#linearGradient14923);fill-opacity:1;fill-rule:nonzero;stroke:none;stroke-width:1;marker:none;visibility:visible;display:block;overflow:visible" />
      <rect
         width="3"
         height="1"
         x="13"
         y="-28"
         transform="matrix(0,1,-1,0,0,0)"
         id="rect14925"
         style="color:#000000;fill:url(#linearGradient14927);fill-opacity:1;fill-rule:nonzero;stroke:none;stroke-width:1;marker:none;visibility:visible;display:block;overflow:visible" />
      <g
         transform="translate(6,-2)"
         id="g14967">
        <path
           d="m 9.4575532,27.582292 1.0606598,2.916815 1.944544,0 -1.06066,-2.96101"
           inkscape:connector-curvature="0"
           id="path14959"
           style="color:#000000;fill:none;stroke:#98a332;stroke-width:1;stroke-linecap:butt;stroke-linejoin:miter;stroke-miterlimit:4;stroke-opacity:1;stroke-dasharray:none;stroke-dashoffset:0;marker:none;visibility:visible;display:block;overflow:visible" />
        <path
           d="m 13.457553,27.582292 1.06066,2.916815 1.944544,0 -1.06066,-2.96101"
           inkscape:connector-curvature="0"
           id="path14961"
           style="color:#000000;fill:none;stroke:#98a332;stroke-width:1;stroke-linecap:butt;stroke-linejoin:miter;stroke-miterlimit:4;stroke-opacity:1;stroke-dasharray:none;stroke-dashoffset:0;marker:none;visibility:visible;display:block;overflow:visible" />
        <path
           d="m 17.457553,27.582292 1.06066,2.916815 1.944544,0 -1.06066,-2.96101"
           inkscape:connector-curvature="0"
           id="path14963"
           style="color:#000000;fill:none;stroke:#98a332;stroke-width:1;stroke-linecap:butt;stroke-linejoin:miter;stroke-miterlimit:4;stroke-opacity:1;stroke-dasharray:none;stroke-dashoffset:0;marker:none;visibility:visible;display:block;overflow:visible" />
        <path
           d="m 21.457553,27.582292 1.06066,2.916815"
           inkscape:connector-curvature="0"
           id="path14965"
           style="color:#000000;fill:none;stroke:#98a332;stroke-width:1;stroke-linecap:butt;stroke-linejoin:miter;stroke-miterlimit:4;stroke-opacity:1;stroke-dasharray:none;stroke-dashoffset:0;marker:none;visibility:visible;display:block;overflow:visible" />
      </g>
      <rect
         width="3"
         height="1"
         x="23"
         y="-16"
         transform="matrix(0,1,-1,0,0,0)"
         id="rect14929"
         style="color:#000000;fill:url(#linearGradient14943);fill-opacity:1;fill-rule:nonzero;stroke:none;stroke-width:1;marker:none;visibility:visible;display:block;overflow:visible" />
      <rect
         width="3"
         height="1"
         x="23"
         y="-18"
         transform="matrix(0,1,-1,0,0,0)"
         id="rect14931"
         style="color:#000000;fill:url(#linearGradient14945);fill-opacity:1;fill-rule:nonzero;stroke:none;stroke-width:1;marker:none;visibility:visible;display:block;overflow:visible" />
      <rect
         width="3"
         height="1"
         x="23"
         y="-20"
         transform="matrix(0,1,-1,0,0,0)"
         id="rect14933"
         style="color:#000000;fill:url(#linearGradient14947);fill-opacity:1;fill-rule:nonzero;stroke:none;stroke-width:1;marker:none;visibility:visible;display:block;overflow:visible" />
      <rect
         width="3"
         height="1"
         x="23"
         y="-22"
         transform="matrix(0,1,-1,0,0,0)"
         id="rect14935"
         style="color:#000000;fill:url(#linearGradient14949);fill-opacity:1;fill-rule:nonzero;stroke:none;stroke-width:1;marker:none;visibility:visible;display:block;overflow:visible" />
      <rect
         width="3"
         height="1"
         x="23"
         y="-24"
         transform="matrix(0,1,-1,0,0,0)"
         id="rect14937"
         style="color:#000000;fill:url(#linearGradient14951);fill-opacity:1;fill-rule:nonzero;stroke:none;stroke-width:1;marker:none;visibility:visible;display:block;overflow:visible" />
      <rect
         width="3"
         height="1"
         x="23"
         y="-26"
         transform="matrix(0,1,-1,0,0,0)"
         id="rect14939"
         style="color:#000000;fill:url(#linearGradient14953);fill-opacity:1;fill-rule:nonzero;stroke:none;stroke-width:1;marker:none;visibility:visible;display:block;overflow:visible" />
      <path
         d="m 8.5012312,37.501619 2.9981128,-5.6e-5 0.01105,4.98312 25.000996,-0.0024 -0.0029,-4.987296 2.989796,0.0027 c 0.004,-4.09e-4 0.0037,-24.994109 0.0037,-24.994109 l -30.9973287,-0.0022 c 0.00404,8.338625 -0.0035,25.00025 -0.0035,25.00025 z"
         inkscape:connector-curvature="0"
         id="path14989"
         style="opacity:0.23863633;color:#000000;fill:none;stroke:#ffffff;stroke-width:1.0000006;stroke-linecap:butt;stroke-linejoin:miter;stroke-miterlimit:4;stroke-opacity:1;stroke-dasharray:none;stroke-dashoffset:0;marker:none;visibility:visible;display:block;overflow:visible" />
      <rect
         width="3"
         height="1"
         x="23"
         y="-28"
         transform="matrix(0,1,-1,0,0,0)"
         id="rect14941"
         style="color:#000000;fill:url(#linearGradient14955);fill-opacity:1;fill-rule:nonzero;stroke:none;stroke-width:1;marker:none;visibility:visible;display:block;overflow:visible" />
    </g>
    <g
       id="g13689">
      <path
         d="m 46.925968,3.8880343 -6.972128,9.1323537 7.093408,0 0,2.99976 -12.571877,0 0,-0.586808 8.924315,-11.4616471 -8.383753,0 0.0625,-3.00127569 11.910035,0 -0.0625,2.91761709 z"
         inkscape:connector-curvature="0"
         id="path13687"
         style="font-size:10px;font-style:normal;font-variant:normal;font-weight:normal;font-stretch:normal;line-height:100%;writing-mode:lr-tb;text-anchor:start;fill:#3465a4;fill-opacity:1;stroke:#204a87;stroke-width:2;stroke-linecap:butt;stroke-linejoin:miter;stroke-miterlimit:4;stroke-opacity:1;stroke-dasharray:none;font-family:Segoe" />
      <path
         d="m 46.925968,3.8880343 -6.972128,9.1323537 7.093408,0 0,2.99976 -12.571877,0 0,-0.586808 8.924315,-11.4616471 -8.383753,0 0.0625,-3.00127569 11.910035,0"
         inkscape:connector-curvature="0"
         id="text12733"
         style="font-size:10px;font-style:normal;font-variant:normal;font-weight:normal;font-stretch:normal;line-height:100%;writing-mode:lr-tb;text-anchor:start;fill:#3465a4;fill-opacity:1;stroke:none;font-family:Segoe" />
      <path
         d="m 35.46875,1.34375 -0.0625,2.25 8,0 c 0.136431,0.00835 0.257516,0.090261 0.316029,0.2137889 0.05851,0.1235282 0.04519,0.2691084 -0.03478,0.3799611 l -8.84375,11.34375 0,0.125 11.84375,0 0,-2.25 -6.71875,0 c -0.142054,0.003 -0.273601,-0.07455 -0.339777,-0.200282 -0.06618,-0.125734 -0.05562,-0.278068 0.02728,-0.393468 L 46.5625,3.75 46.625,1.34375 l -11.15625,0 z"
         inkscape:connector-curvature="0"
         id="path13676"
         style="font-size:10px;font-style:normal;font-variant:normal;font-weight:normal;font-stretch:normal;line-height:100%;writing-mode:lr-tb;text-anchor:start;opacity:0.21348314;fill:#3465a4;fill-opacity:1;stroke:url(#linearGradient13684);stroke-width:1px;stroke-linecap:butt;stroke-linejoin:miter;stroke-opacity:1;font-family:Segoe" />
    </g>
    <g
       transform="matrix(0.567849,0,0,0.567849,7.284268,18.44895)"
       id="g13694">
      <path
         d="m 46.925968,3.8880343 -6.972128,9.1323537 7.093408,0 0,3.770211 -12.571877,0 0,-0.586808 8.924315,-12.2320981 -8.383753,0 0.0625,-3.00127569 11.910035,0 -0.0625,2.91761709 z"
         inkscape:connector-curvature="0"
         id="path13696"
         style="font-size:10px;font-style:normal;font-variant:normal;font-weight:normal;font-stretch:normal;line-height:100%;writing-mode:lr-tb;text-anchor:start;fill:#3465a4;fill-opacity:1;stroke:#204a87;stroke-width:3.52206182;stroke-linecap:butt;stroke-linejoin:miter;stroke-miterlimit:4;stroke-opacity:1;stroke-dasharray:none;font-family:Segoe" />
      <path
         d="m 46.925968,3.8880343 -6.972128,9.1323537 7.093408,0 0,2.99976 -12.571877,0 0,-0.586808 8.924315,-11.4616471 -8.383753,0 0.0625,-3.00127569 11.910035,0"
         inkscape:connector-curvature="0"
         id="path13698"
         style="font-size:10px;font-style:normal;font-variant:normal;font-weight:normal;font-stretch:normal;line-height:100%;writing-mode:lr-tb;text-anchor:start;fill:#3465a4;fill-opacity:1;stroke:none;font-family:Segoe" />
      <path
         d="m 35.46875,1.34375 -0.0625,2.25 8,0 c 0.136431,0.00835 0.257516,0.090261 0.316029,0.2137889 0.05851,0.1235282 0.04519,0.2691084 -0.03478,0.3799611 l -8.84375,11.34375 0,0.125 11.84375,0 0,-2.25 -6.71875,0 c -0.142054,0.003 -0.273601,-0.07455 -0.339777,-0.200282 -0.06618,-0.125734 -0.05562,-0.278068 0.02728,-0.393468 L 46.5625,3.75 46.625,1.34375 l -11.15625,0 z"
         inkscape:connector-curvature="0"
         id="path13700"
         style="font-size:10px;font-style:normal;font-variant:normal;font-weight:normal;font-stretch:normal;line-height:100%;writing-mode:lr-tb;text-anchor:start;opacity:0.21348314;fill:#3465a4;fill-opacity:1;stroke:url(#linearGradient13702);stroke-width:1.76103091px;stroke-linecap:butt;stroke-linejoin:miter;stroke-opacity:1;font-family:Segoe" />
    </g>
  </g>
</svg>
