<?xml version="1.0" encoding="UTF-8" standalone="no"?>
<!-- Created with Inkscape (http://www.inkscape.org/) -->

<svg
   xmlns:dc="http://purl.org/dc/elements/1.1/"
   xmlns:cc="http://creativecommons.org/ns#"
   xmlns:rdf="http://www.w3.org/1999/02/22-rdf-syntax-ns#"
   xmlns:svg="http://www.w3.org/2000/svg"
   xmlns="http://www.w3.org/2000/svg"
   xmlns:xlink="http://www.w3.org/1999/xlink"
   xmlns:sodipodi="http://sodipodi.sourceforge.net/DTD/sodipodi-0.dtd"
   xmlns:inkscape="http://www.inkscape.org/namespaces/inkscape"
   version="1.0"
   width="32"
   height="32"
   id="svg11300"
   inkscape:version="0.48.4 r9939"
   sodipodi:docname="xfpm-brightness-lcd-missing.svg">
  <sodipodi:namedview
     pagecolor="#ffffff"
     bordercolor="#666666"
     borderopacity="1"
     objecttolerance="10"
     gridtolerance="10"
     guidetolerance="10"
     inkscape:pageopacity="0"
     inkscape:pageshadow="2"
     inkscape:window-width="1084"
     inkscape:window-height="777"
     id="namedview21"
     showgrid="true"
     inkscape:zoom="9.8333333"
     inkscape:cx="37.508474"
     inkscape:cy="16.436761"
     inkscape:window-x="219"
     inkscape:window-y="142"
     inkscape:window-maximized="0"
     inkscape:current-layer="svg11300"
     inkscape:snap-global="true"
     showguides="true"
     inkscape:guide-bbox="true">
    <inkscape:grid
       type="xygrid"
       id="grid3007"
       empspacing="5"
       visible="true"
       enabled="true"
       snapvisiblegridlinesonly="true" />
  </sodipodi:namedview>
  <metadata
     id="metadata21">
    <rdf:RDF>
      <cc:Work
         rdf:about="">
        <dc:format>image/svg+xml</dc:format>
        <dc:type
           rdf:resource="http://purl.org/dc/dcmitype/StillImage" />
        <dc:title />
      </cc:Work>
    </rdf:RDF>
  </metadata>
  <defs
     id="defs3">
    <linearGradient
       id="linearGradient3782">
      <stop
         offset="0"
         style="stop-color:#ffffff;stop-opacity:0.651"
         id="stop3784" />
      <stop
         offset="1"
         style="stop-color:#ffffff;stop-opacity:0"
         id="stop3786" />
    </linearGradient>
    <linearGradient
       id="linearGradient5170">
      <stop
         id="stop5172"
         style="stop-color:#000000;stop-opacity:1"
         offset="0" />
      <stop
         id="stop5174"
         style="stop-color:#000000;stop-opacity:0"
         offset="1" />
    </linearGradient>
    <linearGradient
       id="linearGradient5160">
      <stop
         id="stop5162"
         style="stop-color:#ffffff;stop-opacity:1"
         offset="0" />
      <stop
         id="stop5164"
         style="stop-color:#d3d7cf;stop-opacity:1"
         offset="1" />
    </linearGradient>
    <radialGradient
       inkscape:collect="always"
       xlink:href="#linearGradient5170"
       id="radialGradient3005"
       gradientUnits="userSpaceOnUse"
       gradientTransform="matrix(0.83044982,0,0,0.29309979,-5.0207612,14.762063)"
       cx="25.3125"
       cy="40.75"
       fx="25.3125"
       fy="40.75"
       r="18.0625" />
    <radialGradient
       inkscape:collect="always"
       xlink:href="#linearGradient5160"
       id="radialGradient3823"
       cx="17"
       cy="11.077868"
       fx="17"
       fy="11.077868"
       r="15"
       gradientTransform="matrix(0.8,0,0,0.86666666,3.4,1.3991807)"
       gradientUnits="userSpaceOnUse" />
    <linearGradient
       inkscape:collect="always"
       xlink:href="#linearGradient3782"
       id="linearGradient3780"
       x1="15"
       y1="16"
       x2="15"
       y2="40"
       gradientUnits="userSpaceOnUse" />
    <linearGradient
       id="linearGradient2536">
      <stop
         id="stop2538"
         style="stop-color:#a40000;stop-opacity:1"
         offset="0" />
      <stop
         id="stop2540"
         style="stop-color:#ff1717;stop-opacity:1"
         offset="1" />
    </linearGradient>
    <linearGradient
       id="linearGradient2479">
      <stop
         id="stop2481"
         style="stop-color:#ffe69b;stop-opacity:1"
         offset="0" />
      <stop
         id="stop2483"
         style="stop-color:#ffffff;stop-opacity:1"
         offset="1" />
    </linearGradient>
    <linearGradient
       id="linearGradient3957">
      <stop
         id="stop3959"
         style="stop-color:#fffeff;stop-opacity:0.33333334"
         offset="0" />
      <stop
         id="stop3961"
         style="stop-color:#fffeff;stop-opacity:0.21568628"
         offset="1" />
    </linearGradient>
    <linearGradient
       inkscape:collect="always"
       xlink:href="#linearGradient2536"
       id="linearGradient3876"
       gradientUnits="userSpaceOnUse"
       x1="36.917976"
       y1="66.288063"
       x2="19.071495"
       y2="5.5410109" />
    <linearGradient
       inkscape:collect="always"
       xlink:href="#linearGradient2479"
       id="linearGradient3878"
       gradientUnits="userSpaceOnUse"
       x1="43.93581"
       y1="53.835983"
       x2="20.064686"
       y2="-8.5626707" />
    <linearGradient
       inkscape:collect="always"
       xlink:href="#linearGradient3957"
       id="linearGradient3880"
       gradientUnits="userSpaceOnUse"
       x1="21.993773"
       y1="33.955299"
       x2="20.917078"
       y2="15.814602" />
  </defs>
  <path
     style="opacity:0.23595503;fill:url(#radialGradient3005);fill-opacity:1;fill-rule:evenodd;stroke:none;stroke-width:1;marker:none;visibility:visible;display:inline;overflow:visible"
     id="path5168"
     inkscape:connector-curvature="0"
     d="M 31,26.705882 C 31,29.629743 24.284271,32 16,32 7.715729,32 1,29.629743 1,26.705882 c 0,-2.92386 6.715729,-5.294117 15,-5.294117 8.284271,0 15,2.370257 15,5.294117 z" />
  <path
     style="fill:url(#radialGradient3823);fill-opacity:1;stroke:#888a85;stroke-width:1;stroke-miterlimit:4;stroke-opacity:1;stroke-dasharray:none"
     d="m 16,1.200125 c -0.75,0 -1.5,0.5 -1.5,1.5 l 0,3.90625 c -1.55621,0.2482913 -2.980474,0.8741538 -4.1875,1.78125 l -2.75,-2.78125 c -1.414214,-1.4142136 -3.539213,0.7107864 -2.125,2.125 l 2.78125,2.8125 C 7.4128716,11.694595 6.8557854,13.053511 6.625,14.5 L 3,14.5 c -2,0 -2,3 0,3 l 3.625,0 c 0.2458429,1.540865 0.8573427,2.738028 1.75,3.9375 L 5.5625,24.25 c -1.414213,1.414213 0.710786,3.539214 2.125,2.125 l 2.84375,-2.84375 c 1.158912,0.819749 2.506915,1.391766 3.96875,1.625 L 14.5,29 c 0,2 3,2 3,0 l 0,-3.84375 c 1.595725,-0.254596 3.055258,-0.899059 4.28125,-1.84375 l 2.625,2.625 c 1.414214,1.414214 3.539213,-0.710787 2.125,-2.125 L 23.84375,21.125 C 24.614347,19.995842 25.150519,18.906974 25.375,17.5 l 3.625,0 c 2,0 2,-3 0,-3 l -3.625,0 c -0.244435,-1.532041 -0.865604,-2.948545 -1.75,-4.143625 l 2.75,-2.78125 C 27.789213,6.1609114 25.664214,4.0671612 24.25,5.481375 l -2.75,2.75 c -1.163577,-0.8277675 -2.529342,-1.3903584 -4,-1.625 l 0,-3.90625 c 0,-1 -0.75,-1.5 -1.5,-1.5 z"
     id="path3796"
     inkscape:connector-curvature="0"
     sodipodi:nodetypes="ssccccccssccssccssccssccsscccsccss" />
  <path
     style="fill:url(#linearGradient3780);fill-opacity:1;stroke:none"
     d="M 16 1.71875 C 15.275862 1.71875 14.5625 2.1907327 14.5625 3.15625 L 14.5625 6.9375 C 13.059953 7.1772295 11.665404 7.780433 10.5 8.65625 L 7.84375 5.96875 C 6.478302 4.6033023 4.447053 6.6658024 5.8125 8.03125 L 8.5 10.71875 C 7.7219105 11.82979 7.1603272 13.16589 6.9375 14.5625 L 3.4375 14.5625 C 1.5064655 14.5625 1.5064655 17.4375 3.4375 17.4375 L 6.9375 17.4375 C 7.1748655 18.925232 7.763124 20.091889 8.625 21.25 L 5.9375 23.96875 C 4.572053 25.334197 6.603302 27.396698 7.96875 26.03125 L 10.71875 23.28125 C 11.837699 24.072732 13.151073 24.618559 14.5625 24.84375 L 14.5625 28.5625 C 14.5625 30.493535 17.4375 30.493535 17.4375 28.5625 L 17.4375 24.84375 C 18.9782 24.597933 20.410033 23.974615 21.59375 23.0625 L 24.125 25.59375 C 25.490448 26.959198 27.521697 24.896697 26.15625 23.53125 L 23.5625 20.9375 C 24.306525 19.847278 24.84576 18.795958 25.0625 17.4375 L 28.5625 17.4375 C 30.493535 17.4375 30.493535 14.5625 28.5625 14.5625 L 25.0625 14.5625 C 24.826494 13.083288 24.2289 11.71637 23.375 10.5625 L 26.03125 7.875 C 27.396697 6.5095524 25.334198 4.4783022 23.96875 5.84375 L 21.3125 8.5 C 20.189046 7.7007762 18.857446 7.1640505 17.4375 6.9375 L 17.4375 3.15625 C 17.4375 2.1907327 16.724138 1.71875 16 1.71875 z M 16 8.0625 C 20.381459 8.0625 23.9375 11.618541 23.9375 16 C 23.9375 20.381459 20.381459 23.9375 16 23.9375 C 11.618541 23.9375 8.0625 20.381459 8.0625 16 C 8.0625 11.618541 11.618541 8.0625 16 8.0625 z "
     id="path3001" />
  <path
     sodipodi:nodetypes="ssccccccssccssccssccssccsscccsccss"
     inkscape:connector-curvature="0"
     id="path3788"
     d="m 16,1.200125 c -0.75,0 -1.5,0.5 -1.5,1.5 l 0,3.90625 c -1.55621,0.2482913 -2.980474,0.8741538 -4.1875,1.78125 l -2.75,-2.78125 c -1.414214,-1.4142136 -3.539213,0.7107864 -2.125,2.125 l 2.78125,2.8125 C 7.4128716,11.694595 6.8557854,13.053511 6.625,14.5 L 3,14.5 c -2,0 -2,3 0,3 l 3.625,0 c 0.2458429,1.540865 0.8573427,2.738028 1.75,3.9375 L 5.5625,24.25 c -1.414213,1.414213 0.710786,3.539214 2.125,2.125 l 2.84375,-2.84375 c 1.158912,0.819749 2.506915,1.391766 3.96875,1.625 L 14.5,29 c 0,2 3,2 3,0 l 0,-3.84375 c 1.595725,-0.254596 3.055258,-0.899059 4.28125,-1.84375 l 2.625,2.625 c 1.414214,1.414214 3.539213,-0.710787 2.125,-2.125 L 23.84375,21.125 C 24.614347,19.995842 25.150519,18.906974 25.375,17.5 l 3.625,0 c 2,0 2,-3 0,-3 l -3.625,0 c -0.244435,-1.532041 -0.865604,-2.948545 -1.75,-4.143625 l 2.75,-2.78125 C 27.789213,6.1609114 25.664214,4.0671612 24.25,5.481375 l -2.75,2.75 c -1.163577,-0.8277675 -2.529342,-1.3903584 -4,-1.625 l 0,-3.90625 c 0,-1 -0.75,-1.5 -1.5,-1.5 z"
     style="fill:none;fill-opacity:1;stroke:#888a85;stroke-width:1;stroke-miterlimit:4;stroke-opacity:1;stroke-dasharray:none" />
  <g
     id="g1493"
     transform="matrix(0.45466194,0,0,0.45466194,40.782239,10.537384)" />
  <g
     id="g4006"
     transform="matrix(0.33338724,0,0,0.33338724,7.9987063,8.332079)">
    <path
       d="m 46.857143,23.928572 a 23.357143,23.357143 0 1 1 -46.7142864,0 23.357143,23.357143 0 1 1 46.7142864,0 z"
       inkscape:connector-curvature="0"
       transform="matrix(0.920488,0,0,0.920488,2.368532,0.97408)"
       id="path1314"
       style="fill:url(#linearGradient3876);fill-opacity:1;fill-rule:nonzero;stroke:#b20000;stroke-width:2.16492105;stroke-linecap:butt;stroke-linejoin:miter;stroke-miterlimit:4;stroke-opacity:1;stroke-dasharray:none" />
    <path
       d="m 49.901535,26.635273 a 23.991123,23.991123 0 1 1 -47.9822464,0 23.991123,23.991123 0 1 1 47.9822464,0 z"
       inkscape:connector-curvature="0"
       transform="matrix(0.804178,0,0,0.804178,3.163406,1.58053)"
       id="path3560"
       style="opacity:0.34659089;fill:#cc0000;fill-opacity:0;stroke:url(#linearGradient3878);stroke-width:2.47803497;stroke-linecap:butt;stroke-linejoin:miter;stroke-miterlimit:4;stroke-opacity:1;stroke-dasharray:none" />
  </g>
  <g
     id="layer3"
     transform="matrix(0.33977017,0,0,0.33977017,7.9652095,8.6602155)">
    <path
       style="fill:#efefef;fill-opacity:1;fill-rule:nonzero;stroke:none"
       id="rect2070"
       inkscape:connector-curvature="0"
       d="m 21.158162,27.488536 -0.453606,-20.6021603 5.886332,0 -0.388805,20.6021603 -5.043921,0 z" />
  </g>
  <g
     id="layer4"
     transform="matrix(0.36812045,0,0,0.36812045,7.2630152,7.5433691)">
    <path
       style="fill:url(#linearGradient3880);fill-opacity:1;fill-rule:nonzero;stroke:none"
       id="path3955"
       transform="matrix(1.002994,0,0,1.002994,-0.07185874,0.01968356)"
       inkscape:connector-curvature="0"
       d="m 43.370686,21.715486 c 0,10.830616 -10.354329,-6.266308 -18.674738,0.386388 -8.126322,6.497511 -20.5969643,12.190548 -20.5969643,1.359932 0,-11.084053 8.6953963,-21.3670028 19.5260163,-21.3670028 10.830619,0 19.745686,8.7900648 19.745686,19.6206828 z" />
  </g>
  <path
     d="m 17,19.999183 a 1,1 0 1 1 -1.999999,0 1,1 0 1 1 1.999999,0 z"
     inkscape:connector-curvature="0"
     id="path4327"
     style="color:#000000;fill:#efefef;fill-opacity:1;fill-rule:evenodd;stroke:none;stroke-width:1;marker:none;visibility:visible;display:inline;overflow:visible" />
</svg>
