<?xml version="1.0" encoding="UTF-8" standalone="no"?>
<!-- Created with Inkscape (http://www.inkscape.org/) -->

<svg
   xmlns:dc="http://purl.org/dc/elements/1.1/"
   xmlns:cc="http://creativecommons.org/ns#"
   xmlns:rdf="http://www.w3.org/1999/02/22-rdf-syntax-ns#"
   xmlns:svg="http://www.w3.org/2000/svg"
   xmlns="http://www.w3.org/2000/svg"
   xmlns:xlink="http://www.w3.org/1999/xlink"
   xmlns:sodipodi="http://sodipodi.sourceforge.net/DTD/sodipodi-0.dtd"
   xmlns:inkscape="http://www.inkscape.org/namespaces/inkscape"
   width="32"
   height="32"
   id="svg3480"
   version="1.1"
   inkscape:version="0.48.4 r9939"
   sodipodi:docname="xfpm-tablet-040.svg"
   inkscape:export-filename="/home/ochosi/Nerdstuff/xfce/xfce4-power-manager/data/icons/32x32/xfpm-tablet-020.png"
   inkscape:export-xdpi="90"
   inkscape:export-ydpi="90">
  <defs
     id="defs3482">
    <linearGradient
       inkscape:collect="always"
       id="linearGradient3945">
      <stop
         style="stop-color:#787878;stop-opacity:1;"
         offset="0"
         id="stop3947" />
      <stop
         style="stop-color:#787878;stop-opacity:0;"
         offset="1"
         id="stop3949" />
    </linearGradient>
    <linearGradient
       id="linearGradient3887">
      <stop
         style="stop-color:#ff26d3;stop-opacity:1;"
         offset="0"
         id="stop3889" />
      <stop
         style="stop-color:#d2075d;stop-opacity:1;"
         offset="1"
         id="stop3891" />
    </linearGradient>
    <linearGradient
       id="linearGradient3877">
      <stop
         style="stop-color:#2b94ff;stop-opacity:1;"
         offset="0"
         id="stop3879" />
      <stop
         style="stop-color:#006fb9;stop-opacity:1;"
         offset="1"
         id="stop3881" />
    </linearGradient>
    <linearGradient
       id="linearGradient3867">
      <stop
         style="stop-color:#3ce432;stop-opacity:1;"
         offset="0"
         id="stop3869" />
      <stop
         style="stop-color:#000000;stop-opacity:1;"
         offset="1"
         id="stop3871" />
    </linearGradient>
    <linearGradient
       id="linearGradient3857">
      <stop
         style="stop-color:#ffdf2b;stop-opacity:1;"
         offset="0"
         id="stop3859" />
      <stop
         style="stop-color:#f49b00;stop-opacity:1;"
         offset="1"
         id="stop3861" />
    </linearGradient>
    <linearGradient
       inkscape:collect="always"
       xlink:href="#linearGradient9251-7"
       id="linearGradient9372"
       gradientUnits="userSpaceOnUse"
       gradientTransform="matrix(0.13055791,0,0,0.13532906,-6.1951582,1014.8927)"
       x1="172.27867"
       y1="61.230549"
       x2="213.91405"
       y2="258.42651" />
    <linearGradient
       inkscape:collect="always"
       id="linearGradient9251-7">
      <stop
         style="stop-color:#ffffff;stop-opacity:1;"
         offset="0"
         id="stop9253-4" />
      <stop
         style="stop-color:#ffffff;stop-opacity:0;"
         offset="1"
         id="stop9255-3" />
    </linearGradient>
    <linearGradient
       inkscape:collect="always"
       xlink:href="#linearGradient5048"
       id="linearGradient10710"
       gradientUnits="userSpaceOnUse"
       gradientTransform="matrix(2.774389,0,0,1.969706,-1892.179,-872.8854)"
       x1="302.85715"
       y1="366.64789"
       x2="302.85715"
       y2="609.50507" />
    <linearGradient
       id="linearGradient5048">
      <stop
         style="stop-color:black;stop-opacity:0;"
         offset="0"
         id="stop5050" />
      <stop
         id="stop5056"
         offset="0.5"
         style="stop-color:black;stop-opacity:1;" />
      <stop
         style="stop-color:black;stop-opacity:0;"
         offset="1"
         id="stop5052" />
    </linearGradient>
    <radialGradient
       inkscape:collect="always"
       xlink:href="#linearGradient5060"
       id="radialGradient10712"
       gradientUnits="userSpaceOnUse"
       gradientTransform="matrix(2.774389,0,0,1.969706,-1891.633,-872.8854)"
       cx="605.71429"
       cy="486.64789"
       fx="605.71429"
       fy="486.64789"
       r="117.14286" />
    <linearGradient
       inkscape:collect="always"
       id="linearGradient5060">
      <stop
         style="stop-color:black;stop-opacity:1;"
         offset="0"
         id="stop5062" />
      <stop
         style="stop-color:black;stop-opacity:0;"
         offset="1"
         id="stop5064" />
    </linearGradient>
    <radialGradient
       inkscape:collect="always"
       xlink:href="#linearGradient5060"
       id="radialGradient10714"
       gradientUnits="userSpaceOnUse"
       gradientTransform="matrix(-2.774389,0,0,1.969706,112.7623,-872.8854)"
       cx="605.71429"
       cy="486.64789"
       fx="605.71429"
       fy="486.64789"
       r="117.14286" />
    <linearGradient
       id="linearGradient6119">
      <stop
         style="stop-color:#535353;stop-opacity:1;"
         offset="0"
         id="stop6121" />
      <stop
         style="stop-color:#252325;stop-opacity:1;"
         offset="1"
         id="stop6123" />
    </linearGradient>
    <linearGradient
       inkscape:collect="always"
       id="linearGradient6386">
      <stop
         style="stop-color:white;stop-opacity:1;"
         offset="0"
         id="stop6388" />
      <stop
         style="stop-color:white;stop-opacity:0.51372552"
         offset="1"
         id="stop6390" />
    </linearGradient>
    <linearGradient
       id="linearGradient4304">
      <stop
         style="stop-color:#cccccc;stop-opacity:1;"
         offset="0"
         id="stop4306" />
      <stop
         style="stop-color:#e2e2e2;stop-opacity:1;"
         offset="1"
         id="stop4308" />
    </linearGradient>
    <linearGradient
       y2="20.638643"
       x2="37.714912"
       y1="5.170682"
       x1="38.187183"
       gradientTransform="matrix(0.38392383,0,0,0.63057546,13.022474,1021.2857)"
       gradientUnits="userSpaceOnUse"
       id="linearGradient3114"
       xlink:href="#linearGradient4304"
       inkscape:collect="always" />
    <linearGradient
       inkscape:collect="always"
       xlink:href="#linearGradient6386"
       id="linearGradient3056"
       gradientUnits="userSpaceOnUse"
       gradientTransform="translate(291.02041,1069.4146)"
       x1="-257.02042"
       y1="-42.052399"
       x2="-257.02042"
       y2="-21.052401" />
    <radialGradient
       inkscape:collect="always"
       xlink:href="#linearGradient6119"
       id="radialGradient3060"
       gradientUnits="userSpaceOnUse"
       gradientTransform="matrix(1.3621986,7.4473644e-7,0,1.1877286,-7.0309748,1016.3251)"
       cx="11.795237"
       cy="15.284826"
       fx="11.795237"
       fy="15.284826"
       r="10.999997" />
    <radialGradient
       inkscape:collect="always"
       xlink:href="#linearGradient3857"
       id="radialGradient3863"
       cx="7.0912571"
       cy="11.995402"
       fx="7.0912571"
       fy="11.995402"
       r="8"
       gradientTransform="matrix(-0.83129774,0.98244285,1.625,1.375,7.402417,1007.9018)"
       gradientUnits="userSpaceOnUse" />
    <radialGradient
       inkscape:collect="always"
       xlink:href="#linearGradient3867"
       id="radialGradient3873"
       cx="9.7492132"
       cy="21.18"
       fx="9.7492132"
       fy="21.18"
       r="6"
       gradientTransform="matrix(-3.3494513,-0.47849301,-0.49999992,3.5,61.244512,970.89717)"
       gradientUnits="userSpaceOnUse" />
    <radialGradient
       inkscape:collect="always"
       xlink:href="#linearGradient3877"
       id="radialGradient3883"
       cx="15.139999"
       cy="18.856878"
       fx="15.139999"
       fy="18.856878"
       r="5.5"
       gradientTransform="matrix(1.4318182,-0.19834688,0.29071334,1.9733292,-13.034672,1006.609)"
       gradientUnits="userSpaceOnUse" />
    <radialGradient
       inkscape:collect="always"
       xlink:href="#linearGradient3887"
       id="radialGradient3893"
       cx="20"
       cy="8"
       fx="20"
       fy="8"
       r="1"
       gradientTransform="matrix(-1,0,0,2,25.431789,1012.5516)"
       gradientUnits="userSpaceOnUse" />
    <linearGradient
       inkscape:collect="always"
       xlink:href="#linearGradient3945"
       id="linearGradient3951"
       x1="12.5"
       y1="26.5"
       x2="12.5"
       y2="28.5"
       gradientUnits="userSpaceOnUse" />
    <linearGradient
       id="linearGradient9051-96-9-8-7-3">
      <stop
         id="stop9053-1-9-9-4-9"
         offset="0"
         style="stop-color:#3465a4;stop-opacity:1" />
      <stop
         style="stop-color:#729fcf;stop-opacity:1"
         offset="0.37205976"
         id="stop9055-04-3-2-8-9" />
      <stop
         style="stop-color:#204a87;stop-opacity:1"
         offset="0.74411952"
         id="stop9057-2-6-8-5-9" />
      <stop
         id="stop9059-22-0-8-8-2"
         offset="1"
         style="stop-color:#729fcf;stop-opacity:1" />
    </linearGradient>
    <linearGradient
       y2="1045.8622"
       x2="28"
       y1="1045.8622"
       x1="26"
       gradientTransform="matrix(2,0,0,2.4,-26,-1466.7069)"
       gradientUnits="userSpaceOnUse"
       id="linearGradient3108"
       xlink:href="#linearGradient9051-96-9-8-7-3"
       inkscape:collect="always" />
  </defs>
  <sodipodi:namedview
     id="base"
     pagecolor="#ffffff"
     bordercolor="#666666"
     borderopacity="1.0"
     inkscape:pageopacity="0.0"
     inkscape:pageshadow="2"
     inkscape:zoom="11.2"
     inkscape:cx="14.295175"
     inkscape:cy="15.923353"
     inkscape:document-units="px"
     inkscape:current-layer="layer1"
     showgrid="true"
     inkscape:window-width="1159"
     inkscape:window-height="803"
     inkscape:window-x="559"
     inkscape:window-y="124"
     inkscape:window-maximized="0">
    <inkscape:grid
       type="xygrid"
       id="grid3649"
       empspacing="5"
       visible="true"
       enabled="true"
       snapvisiblegridlinesonly="true" />
  </sodipodi:namedview>
  <metadata
     id="metadata3485">
    <rdf:RDF>
      <cc:Work
         rdf:about="">
        <dc:format>image/svg+xml</dc:format>
        <dc:type
           rdf:resource="http://purl.org/dc/dcmitype/StillImage" />
        <dc:title />
      </cc:Work>
    </rdf:RDF>
  </metadata>
  <g
     inkscape:label="Layer 1"
     inkscape:groupmode="layer"
     id="layer1"
     transform="translate(0,-1020.3622)">
    <g
       id="g10679"
       transform="matrix(0.0130122,0,0,0.010552,24.383719,1049.0048)"
       style="display:inline">
      <rect
         y="-150.69685"
         x="-1559.2523"
         height="478.35718"
         width="1339.6335"
         id="rect10681"
         style="opacity:0.40206185;fill:url(#linearGradient10710);fill-opacity:1;fill-rule:nonzero;stroke:none;stroke-width:1;marker:none;visibility:visible;display:inline;overflow:visible" />
      <path
         sodipodi:nodetypes="cccc"
         id="path10683"
         d="m -219.61876,-150.68038 c 0,0 0,478.33079 0,478.33079 142.874166,0.90045 345.40022,-107.16966 345.40014,-239.196175 0,-132.026537 -159.436816,-239.134595 -345.40014,-239.134615 z"
         style="opacity:0.40206185;fill:url(#radialGradient10712);fill-opacity:1;fill-rule:nonzero;stroke:none;stroke-width:1;marker:none;visibility:visible;display:inline;overflow:visible"
         inkscape:connector-curvature="0" />
      <path
         style="opacity:0.40206185;fill:url(#radialGradient10714);fill-opacity:1;fill-rule:nonzero;stroke:none;stroke-width:1;marker:none;visibility:visible;display:inline;overflow:visible"
         d="m -1559.2523,-150.68038 c 0,0 0,478.33079 0,478.33079 -142.8742,0.90045 -345.4002,-107.16966 -345.4002,-239.196175 0,-132.026537 159.4368,-239.134595 345.4002,-239.134615 z"
         id="path10685"
         sodipodi:nodetypes="cccc"
         inkscape:connector-curvature="0" />
    </g>
    <rect
       style="fill:url(#radialGradient3060);fill-opacity:1;stroke:#343533;stroke-width:1.00000059999999991;stroke-linecap:round;stroke-linejoin:round;stroke-miterlimit:4;stroke-opacity:1;stroke-dasharray:none"
       id="rect10687"
       width="20.999994"
       height="29.000002"
       x="2.520406"
       y="1021.9146"
       rx="1.1213219"
       ry="1.1213219" />
    <rect
       style="fill:none;stroke:url(#linearGradient3056);stroke-width:1.00000095000000000;stroke-linecap:round;stroke-linejoin:round;stroke-miterlimit:4;stroke-opacity:1;stroke-dasharray:none;opacity:0.20000000000000001"
       id="rect10691"
       width="18.920038"
       height="27"
       x="3.5390434"
       y="1022.9146"
       rx="0"
       ry="0" />
    <path
       transform="matrix(0.66666667,0,0,2,4.6666667,994.3622)"
       d="m 14,27.5 a 1.5,0.5 0 1 1 -3,0 1.5,0.5 0 1 1 3,0 z"
       sodipodi:ry="0.5"
       sodipodi:rx="1.5"
       sodipodi:cy="27.5"
       sodipodi:cx="12.5"
       id="path3943"
       style="fill:none;stroke:url(#linearGradient3951);stroke-width:1.73205078000000001;stroke-miterlimit:4;stroke-opacity:1;stroke-dasharray:none"
       sodipodi:type="arc" />
    <rect
       style="color:#000000;fill:url(#linearGradient3114);fill-opacity:1;fill-rule:evenodd;stroke:#888a85;stroke-width:0.99999994;stroke-linecap:butt;stroke-linejoin:round;stroke-miterlimit:4;stroke-opacity:1;stroke-dasharray:none;stroke-dashoffset:0;marker:none;visibility:visible;display:inline;overflow:visible"
       id="rect4302"
       width="5"
       height="27"
       x="25.5"
       y="1022.8622"
       rx="0.52536201"
       ry="0.85783648" />
    <rect
       style="fill:url(#linearGradient3108);fill-opacity:1;stroke:none"
       id="rect4516"
       width="4"
       height="12"
       x="26"
       y="1037.3622" />
    <rect
       ry="0.24061894"
       rx="0.10603403"
       y="1023.8104"
       x="26.5"
       height="25"
       width="3.0000002"
       id="rect4312"
       style="opacity:0.78021982;color:#000000;fill:none;stroke:#ffffff;stroke-width:0.99999958;stroke-linecap:butt;stroke-linejoin:round;stroke-miterlimit:4;stroke-opacity:1;stroke-dasharray:none;stroke-dashoffset:0;marker:none;visibility:visible;display:inline;overflow:visible" />
    <path
       style="fill:url(#radialGradient3883);fill-opacity:1;stroke:none"
       d="m 4,1047.3622 0,-24 18,0 0,24 z"
       id="path3875"
       inkscape:connector-curvature="0"
       sodipodi:nodetypes="ccccc" />
    <path
       style="opacity:0.55;fill:url(#radialGradient3863);fill-opacity:1;stroke:none"
       d="m 22,1023.3622 -18,0 0,2 3,4 15,5 z"
       id="path3855"
       inkscape:connector-curvature="0"
       sodipodi:nodetypes="cccccc" />
    <path
       style="opacity:0.6;fill:url(#radialGradient3873);fill-opacity:1;stroke:none"
       d="m 22,1034.3622 -15,-5 9,18 6,0 z"
       id="path3865"
       inkscape:connector-curvature="0"
       sodipodi:nodetypes="ccccc" />
    <path
       style="opacity:0.622;fill:url(#radialGradient3893);fill-opacity:1;stroke:none"
       d="m 7,1029.3622 -3,-4 0,3 z"
       id="path3885"
       inkscape:connector-curvature="0"
       sodipodi:nodetypes="cccc" />
    <path
       inkscape:connector-curvature="0"
       sodipodi:nodetypes="cccccc"
       style="opacity:0.40500004;fill:url(#linearGradient9372);fill-opacity:1;stroke:none;display:inline;enable-background:new"
       clip-path="none"
       d="m 4,1022.3622 c -1.1162233,0 -1,-0.157 -1,1 l 0,24.91 c 0,1.157 3.8837767,2.09 5,2.09 l 11,-28 z"
       id="path9370" />
    <path
       sodipodi:type="arc"
       style="fill:#f1f1f1;fill-opacity:1;stroke:none"
       id="path3853"
       sodipodi:cx="12.5"
       sodipodi:cy="27.5"
       sodipodi:rx="1.5"
       sodipodi:ry="0.5"
       d="m 14,27.5 a 1.5,0.5 0 1 1 -3,0 1.5,0.5 0 1 1 3,0 z"
       transform="matrix(0.66666667,0,0,2,4.6666667,994.3622)" />
    <path
       transform="matrix(0.66666667,0,0,2,-1.3333333,988.3622)"
       d="m 14,27.5 a 1.5,0.5 0 1 1 -3,0 1.5,0.5 0 1 1 3,0 z"
       sodipodi:ry="0.5"
       sodipodi:rx="1.5"
       sodipodi:cy="27.5"
       sodipodi:cx="12.5"
       id="path3895"
       style="opacity:0.7;fill:#ffffff;fill-opacity:1;stroke:none"
       sodipodi:type="arc" />
    <path
       sodipodi:type="arc"
       style="opacity:0.7;fill:#ffffff;fill-opacity:1;stroke:none"
       id="path3897"
       sodipodi:cx="12.5"
       sodipodi:cy="27.5"
       sodipodi:rx="1.5"
       sodipodi:ry="0.5"
       d="m 14,27.5 a 1.5,0.5 0 1 1 -3,0 1.5,0.5 0 1 1 3,0 z"
       transform="matrix(0.66666667,0,0,2,2.6666667,988.3622)" />
    <path
       transform="matrix(0.66666667,0,0,2,6.6666667,988.3622)"
       d="m 14,27.5 a 1.5,0.5 0 1 1 -3,0 1.5,0.5 0 1 1 3,0 z"
       sodipodi:ry="0.5"
       sodipodi:rx="1.5"
       sodipodi:cy="27.5"
       sodipodi:cx="12.5"
       id="path3899"
       style="opacity:0.7;fill:#ffffff;fill-opacity:1;stroke:none"
       sodipodi:type="arc" />
    <path
       sodipodi:type="arc"
       style="opacity:0.7;fill:#ffffff;fill-opacity:1;stroke:none"
       id="path3901"
       sodipodi:cx="12.5"
       sodipodi:cy="27.5"
       sodipodi:rx="1.5"
       sodipodi:ry="0.5"
       d="m 14,27.5 a 1.5,0.5 0 1 1 -3,0 1.5,0.5 0 1 1 3,0 z"
       transform="matrix(0.66666667,0,0,2,10.666667,988.3622)" />
    <path
       sodipodi:type="arc"
       style="opacity:0.7;fill:#ffffff;fill-opacity:1;stroke:none"
       id="path3907"
       sodipodi:cx="12.5"
       sodipodi:cy="27.5"
       sodipodi:rx="1.5"
       sodipodi:ry="0.5"
       d="m 14,27.5 a 1.5,0.5 0 1 1 -3,0 1.5,0.5 0 1 1 3,0 z"
       transform="matrix(0.66666667,0,0,2,-1.3333333,984.3622)" />
    <path
       transform="matrix(0.66666667,0,0,2,2.6666667,984.3622)"
       d="m 14,27.5 a 1.5,0.5 0 1 1 -3,0 1.5,0.5 0 1 1 3,0 z"
       sodipodi:ry="0.5"
       sodipodi:rx="1.5"
       sodipodi:cy="27.5"
       sodipodi:cx="12.5"
       id="path3909"
       style="opacity:0.7;fill:#ffffff;fill-opacity:1;stroke:none"
       sodipodi:type="arc" />
    <path
       sodipodi:type="arc"
       style="opacity:0.7;fill:#ffffff;fill-opacity:1;stroke:none"
       id="path3911"
       sodipodi:cx="12.5"
       sodipodi:cy="27.5"
       sodipodi:rx="1.5"
       sodipodi:ry="0.5"
       d="m 14,27.5 a 1.5,0.5 0 1 1 -3,0 1.5,0.5 0 1 1 3,0 z"
       transform="matrix(0.66666667,0,0,2,6.6666667,984.3622)" />
    <path
       transform="matrix(0.66666667,0,0,2,10.666667,984.3622)"
       d="m 14,27.5 a 1.5,0.5 0 1 1 -3,0 1.5,0.5 0 1 1 3,0 z"
       sodipodi:ry="0.5"
       sodipodi:rx="1.5"
       sodipodi:cy="27.5"
       sodipodi:cx="12.5"
       id="path3913"
       style="opacity:0.7;fill:#ffffff;fill-opacity:1;stroke:none"
       sodipodi:type="arc" />
    <path
       transform="matrix(0.66666667,0,0,2,-1.3333333,980.3622)"
       d="m 14,27.5 a 1.5,0.5 0 1 1 -3,0 1.5,0.5 0 1 1 3,0 z"
       sodipodi:ry="0.5"
       sodipodi:rx="1.5"
       sodipodi:cy="27.5"
       sodipodi:cx="12.5"
       id="path3915"
       style="opacity:0.7;fill:#ffffff;fill-opacity:1;stroke:none"
       sodipodi:type="arc" />
    <path
       sodipodi:type="arc"
       style="opacity:0.7;fill:#ffffff;fill-opacity:1;stroke:none"
       id="path3917"
       sodipodi:cx="12.5"
       sodipodi:cy="27.5"
       sodipodi:rx="1.5"
       sodipodi:ry="0.5"
       d="m 14,27.5 a 1.5,0.5 0 1 1 -3,0 1.5,0.5 0 1 1 3,0 z"
       transform="matrix(0.66666667,0,0,2,2.6666667,980.3622)" />
    <path
       transform="matrix(0.66666667,0,0,2,6.6666667,980.3622)"
       d="m 14,27.5 a 1.5,0.5 0 1 1 -3,0 1.5,0.5 0 1 1 3,0 z"
       sodipodi:ry="0.5"
       sodipodi:rx="1.5"
       sodipodi:cy="27.5"
       sodipodi:cx="12.5"
       id="path3919"
       style="opacity:0.7;fill:#ffffff;fill-opacity:1;stroke:none"
       sodipodi:type="arc" />
    <path
       sodipodi:type="arc"
       style="opacity:0.7;fill:#ffffff;fill-opacity:1;stroke:none"
       id="path3921"
       sodipodi:cx="12.5"
       sodipodi:cy="27.5"
       sodipodi:rx="1.5"
       sodipodi:ry="0.5"
       d="m 14,27.5 a 1.5,0.5 0 1 1 -3,0 1.5,0.5 0 1 1 3,0 z"
       transform="matrix(0.66666667,0,0,2,10.666667,980.3622)" />
    <path
       sodipodi:type="arc"
       style="opacity:0.7;fill:#ffffff;fill-opacity:1;stroke:none"
       id="path3923"
       sodipodi:cx="12.5"
       sodipodi:cy="27.5"
       sodipodi:rx="1.5"
       sodipodi:ry="0.5"
       d="m 14,27.5 a 1.5,0.5 0 1 1 -3,0 1.5,0.5 0 1 1 3,0 z"
       transform="matrix(0.66666667,0,0,2,-1.3333333,976.3622)" />
    <path
       transform="matrix(0.66666667,0,0,2,2.6666667,976.3622)"
       d="m 14,27.5 a 1.5,0.5 0 1 1 -3,0 1.5,0.5 0 1 1 3,0 z"
       sodipodi:ry="0.5"
       sodipodi:rx="1.5"
       sodipodi:cy="27.5"
       sodipodi:cx="12.5"
       id="path3925"
       style="opacity:0.7;fill:#ffffff;fill-opacity:1;stroke:none"
       sodipodi:type="arc" />
    <path
       sodipodi:type="arc"
       style="opacity:0.7;fill:#ffffff;fill-opacity:1;stroke:none"
       id="path3927"
       sodipodi:cx="12.5"
       sodipodi:cy="27.5"
       sodipodi:rx="1.5"
       sodipodi:ry="0.5"
       d="m 14,27.5 a 1.5,0.5 0 1 1 -3,0 1.5,0.5 0 1 1 3,0 z"
       transform="matrix(0.66666667,0,0,2,6.6666667,976.3622)" />
    <path
       transform="matrix(0.66666667,0,0,2,10.666667,976.3622)"
       d="m 14,27.5 a 1.5,0.5 0 1 1 -3,0 1.5,0.5 0 1 1 3,0 z"
       sodipodi:ry="0.5"
       sodipodi:rx="1.5"
       sodipodi:cy="27.5"
       sodipodi:cx="12.5"
       id="path3929"
       style="opacity:0.7;fill:#ffffff;fill-opacity:1;stroke:none"
       sodipodi:type="arc" />
    <path
       transform="matrix(0.66666667,0,0,2,-1.3333333,972.3622)"
       d="m 14,27.5 a 1.5,0.5 0 1 1 -3,0 1.5,0.5 0 1 1 3,0 z"
       sodipodi:ry="0.5"
       sodipodi:rx="1.5"
       sodipodi:cy="27.5"
       sodipodi:cx="12.5"
       id="path3931"
       style="opacity:0.7;fill:#ffffff;fill-opacity:1;stroke:none"
       sodipodi:type="arc" />
    <path
       sodipodi:type="arc"
       style="opacity:0.7;fill:#ffffff;fill-opacity:1;stroke:none"
       id="path3933"
       sodipodi:cx="12.5"
       sodipodi:cy="27.5"
       sodipodi:rx="1.5"
       sodipodi:ry="0.5"
       d="m 14,27.5 a 1.5,0.5 0 1 1 -3,0 1.5,0.5 0 1 1 3,0 z"
       transform="matrix(0.66666667,0,0,2,2.6666667,972.3622)" />
    <path
       transform="matrix(0.66666667,0,0,2,6.6666667,972.3622)"
       d="m 14,27.5 a 1.5,0.5 0 1 1 -3,0 1.5,0.5 0 1 1 3,0 z"
       sodipodi:ry="0.5"
       sodipodi:rx="1.5"
       sodipodi:cy="27.5"
       sodipodi:cx="12.5"
       id="path3935"
       style="opacity:0.7;fill:#ffffff;fill-opacity:1;stroke:none"
       sodipodi:type="arc" />
    <path
       sodipodi:type="arc"
       style="opacity:0.7;fill:#ffffff;fill-opacity:1;stroke:none"
       id="path3937"
       sodipodi:cx="12.5"
       sodipodi:cy="27.5"
       sodipodi:rx="1.5"
       sodipodi:ry="0.5"
       d="m 14,27.5 a 1.5,0.5 0 1 1 -3,0 1.5,0.5 0 1 1 3,0 z"
       transform="matrix(0.66666667,0,0,2,10.666667,972.3622)" />
  </g>
</svg>
