<?xml version="1.0" encoding="UTF-8" standalone="no"?>
<!-- Created with Inkscape (http://www.inkscape.org/) -->

<svg
   xmlns:dc="http://purl.org/dc/elements/1.1/"
   xmlns:cc="http://creativecommons.org/ns#"
   xmlns:rdf="http://www.w3.org/1999/02/22-rdf-syntax-ns#"
   xmlns:svg="http://www.w3.org/2000/svg"
   xmlns="http://www.w3.org/2000/svg"
   xmlns:xlink="http://www.w3.org/1999/xlink"
   xmlns:sodipodi="http://sodipodi.sourceforge.net/DTD/sodipodi-0.dtd"
   xmlns:inkscape="http://www.inkscape.org/namespaces/inkscape"
   version="1.0"
   width="32"
   height="32"
   id="svg11300"
   inkscape:version="0.48.4 r9939"
   sodipodi:docname="xfpm-brightness-lcd.svg">
  <sodipodi:namedview
     pagecolor="#ffffff"
     bordercolor="#666666"
     borderopacity="1"
     objecttolerance="10"
     gridtolerance="10"
     guidetolerance="10"
     inkscape:pageopacity="0"
     inkscape:pageshadow="2"
     inkscape:window-width="1084"
     inkscape:window-height="777"
     id="namedview21"
     showgrid="true"
     inkscape:zoom="9.8333333"
     inkscape:cx="6.5890976"
     inkscape:cy="16.436761"
     inkscape:window-x="471"
     inkscape:window-y="146"
     inkscape:window-maximized="0"
     inkscape:current-layer="svg11300"
     inkscape:snap-global="true"
     showguides="true"
     inkscape:guide-bbox="true">
    <inkscape:grid
       type="xygrid"
       id="grid3007"
       empspacing="5"
       visible="true"
       enabled="true"
       snapvisiblegridlinesonly="true" />
  </sodipodi:namedview>
  <metadata
     id="metadata21">
    <rdf:RDF>
      <cc:Work
         rdf:about="">
        <dc:format>image/svg+xml</dc:format>
        <dc:type
           rdf:resource="http://purl.org/dc/dcmitype/StillImage" />
        <dc:title></dc:title>
      </cc:Work>
    </rdf:RDF>
  </metadata>
  <defs
     id="defs3">
    <linearGradient
       id="linearGradient5170">
      <stop
         id="stop5172"
         style="stop-color:#000000;stop-opacity:1"
         offset="0" />
      <stop
         id="stop5174"
         style="stop-color:#000000;stop-opacity:0"
         offset="1" />
    </linearGradient>
    <linearGradient
       id="linearGradient5160">
      <stop
         id="stop5162"
         style="stop-color:#ffffff;stop-opacity:1"
         offset="0" />
      <stop
         id="stop5164"
         style="stop-color:#d3d7cf;stop-opacity:1"
         offset="1" />
    </linearGradient>
    <linearGradient
       id="linearGradient5152">
      <stop
         id="stop5154"
         style="stop-color:#ffffff;stop-opacity:1"
         offset="0" />
      <stop
         id="stop5156"
         style="stop-color:#ffffff;stop-opacity:0"
         offset="1" />
    </linearGradient>
    <linearGradient
       x1="23.28125"
       y1="21.40625"
       x2="21.78125"
       y2="55.90625"
       id="linearGradient5158"
       xlink:href="#linearGradient5152"
       gradientUnits="userSpaceOnUse" />
    <radialGradient
       cx="25.90625"
       cy="18.03125"
       r="19.005075"
       fx="25.90625"
       fy="18.03125"
       id="radialGradient5166"
       xlink:href="#linearGradient5160"
       gradientUnits="userSpaceOnUse"
       gradientTransform="matrix(0.73703,0,0,0.73703,6.812572,4.741682)" />
    <radialGradient
       cx="25.3125"
       cy="40.75"
       r="18.0625"
       fx="25.3125"
       fy="40.75"
       id="radialGradient5176"
       xlink:href="#linearGradient5170"
       gradientUnits="userSpaceOnUse"
       gradientTransform="matrix(1,0,0,0.352941,0,26.36765)" />
    <linearGradient
       inkscape:collect="always"
       xlink:href="#linearGradient5152"
       id="linearGradient2999"
       gradientUnits="userSpaceOnUse"
       x1="23.28125"
       y1="21.40625"
       x2="21.78125"
       y2="55.90625"
       gradientTransform="matrix(0.7032588,0,0,0.7032588,-2.093307,-1.3312918)" />
    <radialGradient
       inkscape:collect="always"
       xlink:href="#linearGradient5160"
       id="radialGradient3002"
       gradientUnits="userSpaceOnUse"
       gradientTransform="matrix(0.53152803,0,0,0.53152803,33.966011,0.01313909)"
       cx="25.90625"
       cy="18.03125"
       fx="25.90625"
       fy="18.03125"
       r="19.005075" />
    <radialGradient
       inkscape:collect="always"
       xlink:href="#linearGradient5170"
       id="radialGradient3005"
       gradientUnits="userSpaceOnUse"
       gradientTransform="matrix(0.83044982,0,0,0.29309979,-5.0207612,14.762063)"
       cx="25.3125"
       cy="40.75"
       fx="25.3125"
       fy="40.75"
       r="18.0625" />
    <radialGradient
       inkscape:collect="always"
       xlink:href="#linearGradient5160"
       id="radialGradient3823"
       cx="17"
       cy="11.077868"
       fx="17"
       fy="11.077868"
       r="15"
       gradientTransform="matrix(0.8,0,0,0.86666666,3.4,1.3991807)"
       gradientUnits="userSpaceOnUse" />
    <linearGradient
       inkscape:collect="always"
       xlink:href="#linearGradient5152"
       id="linearGradient3837"
       x1="18"
       y1="15"
       x2="17"
       y2="33"
       gradientUnits="userSpaceOnUse" />
  </defs>
  <path
     style="opacity:0.23595503;fill:url(#radialGradient3005);fill-opacity:1;fill-rule:evenodd;stroke:none;stroke-width:1;marker:none;visibility:visible;display:inline;overflow:visible"
     id="path5168"
     inkscape:connector-curvature="0"
     d="M 31,26.705882 C 31,29.629743 24.284271,32 16,32 7.715729,32 1,29.629743 1,26.705882 c 0,-2.92386 6.715729,-5.294117 15,-5.294117 8.284271,0 15,2.370257 15,5.294117 z" />
  <path
     style="fill:url(#radialGradient3823);fill-opacity:1;stroke:#888a85;stroke-width:1;stroke-miterlimit:4;stroke-opacity:1;stroke-dasharray:none"
     d="m 16,1.200125 c -0.75,0 -1.5,0.5 -1.5,1.5 l 0,3.90625 c -1.55621,0.2482913 -2.980474,0.8741538 -4.1875,1.78125 l -2.75,-2.78125 c -1.414214,-1.4142136 -3.539213,0.7107864 -2.125,2.125 l 2.78125,2.8125 C 7.4128716,11.694595 6.8557854,13.053511 6.625,14.5 L 3,14.5 c -2,0 -2,3 0,3 l 3.625,0 c 0.2458429,1.540865 0.8573427,2.738028 1.75,3.9375 L 5.5625,24.25 c -1.414213,1.414213 0.710786,3.539214 2.125,2.125 l 2.84375,-2.84375 c 1.158912,0.819749 2.506915,1.391766 3.96875,1.625 L 14.5,29 c 0,2 3,2 3,0 l 0,-3.84375 c 1.595725,-0.254596 3.055258,-0.899059 4.28125,-1.84375 l 2.625,2.625 c 1.414214,1.414214 3.539213,-0.710787 2.125,-2.125 L 23.84375,21.125 C 24.614347,19.995842 25.150519,18.906974 25.375,17.5 l 3.625,0 c 2,0 2,-3 0,-3 l -3.625,0 c -0.244435,-1.532041 -0.865604,-2.948545 -1.75,-4.143625 l 2.75,-2.78125 C 27.789213,6.1609114 25.664214,4.0671612 24.25,5.481375 l -2.75,2.75 c -1.163577,-0.8277675 -2.529342,-1.3903584 -4,-1.625 l 0,-3.90625 c 0,-1 -0.75,-1.5 -1.5,-1.5 z"
     id="path3796"
     inkscape:connector-curvature="0"
     sodipodi:nodetypes="ssccccccssccssccssccssccsscccsccss" />
</svg>
